M48
; DRILL file {KiCad 9.0.9-9.0.9~ubuntu24.04.1} date 2026-10-07T17:00:07+0000
; FORMAT={-:-/ absolute / metric / decimal}
; #@! TF.CreationDate,2026-10-07T17:00:07+00:00
; #@! TF.GenerationSoftware,Kicad,Pcbnew,9.0.9-9.0.9~ubuntu24.04.1
; #@! TF.FileFunction,Plated,1,8,PTH
FMAT,2
METRIC
; #@! TA.AperFunction,Plated,PTH,ViaDrill
T1C0.400
; #@! TA.AperFunction,Plated,PTH,ComponentDrill
T2C0.900
; #@! TA.AperFunction,Plated,PTH,ComponentDrill
T3C1.000
; #@! TA.AperFunction,Plated,PTH,ComponentDrill
T4C1.020
; #@! TA.AperFunction,Plated,PTH,ComponentDrill
T5C1.650
%
G90
G05
T1
X15.95Y-20.95
X15.95Y-60.95
X15.95Y-140.95
X15.95Y-220.95
X15.95Y-300.95
X17.65Y-19.05
X17.65Y-59.05
X17.65Y-99.05
X17.65Y-139.05
X17.65Y-179.05
X17.65Y-219.05
X17.65Y-259.05
X17.65Y-299.05
X18.35Y-22.4
X18.35Y-62.4
X18.35Y-102.4
X18.35Y-142.4
X18.35Y-182.4
X18.35Y-222.4
X18.35Y-262.4
X18.35Y-302.4
X21.65Y-22.4
X21.65Y-62.4
X21.65Y-102.4
X21.65Y-142.4
X21.65Y-182.4
X21.65Y-222.4
X21.65Y-262.4
X21.65Y-302.4
X22.35Y-20.0
X22.35Y-60.0
X22.35Y-100.0
X22.35Y-140.0
X22.35Y-180.0
X22.35Y-220.0
X22.35Y-260.0
X22.35Y-300.0
X24.4Y-45.4
X24.4Y-88.6
X24.4Y-125.4
X24.4Y-168.6
X24.4Y-205.4
X24.4Y-248.6
X28.4Y-285.4
X30.4Y-4.15
X30.4Y-84.15
X30.4Y-164.15
X30.4Y-244.15
X30.4Y-49.85
X30.4Y-129.85
X30.4Y-209.85
X30.4Y-289.85
X31.35Y-3.0
X31.35Y-51.0
X31.35Y-83.0
X31.35Y-131.0
X31.35Y-163.0
X31.35Y-211.0
X31.35Y-243.0
X31.35Y-291.0
X34.65Y-3.0
X34.65Y-51.0
X34.65Y-83.0
X34.65Y-131.0
X34.65Y-163.0
X34.65Y-211.0
X34.65Y-243.0
X34.65Y-291.0
X35.6Y-4.15
X35.6Y-49.85
X35.6Y-84.15
X35.6Y-129.85
X35.6Y-164.15
X35.6Y-209.85
X35.6Y-244.15
X35.6Y-289.85
X42.25Y-246.0
X45.95Y-320.438
X48.5Y-315.137
X49.5Y-313.662
X49.54Y-23.4
X49.54Y-24.6
X49.54Y-25.8
X50.5Y-314.562
X51.5Y-313.062
X55.7Y-320.438
X55.95Y-20.95
X55.95Y-60.95
X55.95Y-100.95
X55.95Y-140.95
X55.95Y-180.95
X55.95Y-220.95
X55.95Y-260.95
X55.95Y-300.95
X57.65Y-19.05
X57.65Y-59.05
X57.65Y-99.05
X57.65Y-139.05
X57.65Y-179.05
X57.65Y-219.05
X57.65Y-259.05
X57.65Y-299.05
X58.35Y-22.4
X58.35Y-62.4
X58.35Y-102.4
X58.35Y-142.4
X58.35Y-182.4
X58.35Y-222.4
X58.35Y-262.4
X58.35Y-302.4
X61.65Y-22.4
X61.65Y-62.4
X61.65Y-102.4
X61.65Y-142.4
X61.65Y-182.4
X61.65Y-222.4
X61.65Y-262.4
X61.65Y-302.4
X62.35Y-20.0
X62.35Y-60.0
X62.35Y-100.0
X62.35Y-140.0
X62.35Y-180.0
X62.35Y-220.0
X62.35Y-260.0
X62.35Y-300.0
X63.25Y-22.75
X64.725Y-27.137
X65.6Y-21.425
X65.6Y-26.0
X69.65Y-23.6
X69.65Y-31.4
X69.65Y-342.5
X70.35Y-37.365
X70.35Y-117.365
X70.35Y-197.365
X70.35Y-277.365
X70.4Y-4.15
X70.4Y-49.85
X70.4Y-84.15
X70.4Y-129.85
X70.4Y-164.15
X70.4Y-209.85
X70.4Y-244.15
X70.4Y-289.85
X70.45Y-21.0
X70.85Y-23.6
X70.85Y-31.4
X71.35Y-3.0
X71.35Y-36.095
X71.35Y-41.175
X71.35Y-51.0
X71.35Y-83.0
X71.35Y-116.095
X71.35Y-121.175
X71.35Y-131.0
X71.35Y-163.0
X71.35Y-196.095
X71.35Y-201.175
X71.35Y-211.0
X71.35Y-243.0
X71.35Y-276.095
X71.35Y-281.175
X71.35Y-291.0
X72.05Y-23.6
X72.05Y-31.4
X72.35Y-34.825
X72.35Y-39.905
X72.35Y-114.825
X72.35Y-194.825
X72.35Y-274.825
X72.5Y-29.7
X73.35Y-33.555
X73.35Y-38.635
X73.35Y-113.555
X73.35Y-118.635
X73.35Y-193.555
X73.35Y-198.635
X73.35Y-273.555
X73.35Y-278.635
X73.45Y-25.1
X73.7Y-42.445
X73.7Y-122.445
X73.7Y-202.445
X73.7Y-282.445
X74.15Y-26.8
X74.35Y-21.0
X74.45Y-342.5
X74.65Y-3.0
X74.65Y-51.0
X74.65Y-83.0
X74.65Y-131.0
X74.65Y-163.0
X74.65Y-211.0
X74.65Y-243.0
X74.65Y-291.0
X75.25Y-23.25
X75.6Y-4.15
X75.6Y-49.85
X75.6Y-84.15
X75.6Y-129.85
X75.6Y-164.15
X75.6Y-209.85
X75.6Y-244.15
X75.6Y-289.85
X76.15Y-28.1
X78.95Y-24.2
X78.95Y-29.4
X78.95Y-345.5
X79.85Y-26.8
X81.25Y-322.75
X81.65Y-26.8
X81.85Y-31.7
X81.85Y-111.7
X81.85Y-191.7
X81.85Y-271.7
X82.3Y-340.0
X83.75Y-335.25
X84.75Y-322.75
X85.15Y-31.7
X85.15Y-111.7
X85.15Y-191.7
X85.15Y-271.7
X85.3Y-336.19
X85.3Y-341.27
X85.875Y-343.81
X86.3Y-33.555
X86.3Y-113.555
X86.3Y-193.555
X86.3Y-273.555
X86.45Y-26.8
X86.65Y-42.445
X86.65Y-122.445
X86.65Y-202.445
X86.65Y-282.445
X86.7Y-349.05
X86.7Y-350.95
X87.5Y-350.0
X87.65Y-36.095
X87.65Y-41.175
X87.65Y-116.095
X87.65Y-121.175
X87.65Y-196.095
X87.65Y-201.175
X87.65Y-276.095
X87.65Y-281.175
X88.0Y-313.0
X88.35Y-353.0
X88.65Y-34.825
X88.65Y-114.825
X88.65Y-194.825
X88.65Y-274.825
X89.65Y-38.635
X89.65Y-118.635
X89.65Y-198.635
X89.65Y-278.635
X91.5Y-313.0
X91.65Y-353.0
X91.85Y-334.2
X92.5Y-349.05
X93.7Y-350.0
X94.125Y-336.19
X94.125Y-337.46
X94.125Y-338.73
X94.125Y-341.27
X94.125Y-342.54
X94.75Y-288.0
X95.15Y-334.2
X95.95Y-60.95
X95.95Y-140.95
X95.95Y-220.95
X95.95Y-300.95
X97.65Y-19.05
X97.65Y-59.05
X97.65Y-99.05
X97.65Y-139.05
X97.65Y-179.05
X97.65Y-219.05
X97.65Y-259.05
X97.65Y-299.05
X98.35Y-22.4
X98.35Y-62.4
X98.35Y-102.4
X98.35Y-142.4
X98.35Y-182.4
X98.35Y-222.4
X98.35Y-262.4
X98.35Y-302.4
X99.25Y-304.75
X100.472Y-346.095
X100.472Y-347.365
X100.472Y-348.635
X100.472Y-349.905
X101.65Y-22.4
X101.65Y-62.4
X101.65Y-102.4
X101.65Y-142.4
X101.65Y-182.4
X101.65Y-222.4
X101.65Y-262.4
X101.65Y-302.4
X102.35Y-20.0
X102.35Y-60.0
X102.35Y-100.0
X102.35Y-140.0
X102.35Y-180.0
X102.35Y-220.0
X102.35Y-260.0
X102.35Y-300.0
X102.45Y-336.0
X105.95Y-341.6
X106.65Y-352.8
X109.527Y-346.095
X109.527Y-347.365
X109.527Y-348.635
X109.527Y-349.905
X110.4Y-4.15
X110.4Y-49.85
X110.4Y-84.15
X110.4Y-129.85
X110.4Y-164.15
X110.4Y-209.85
X110.4Y-244.15
X110.4Y-289.85
X111.35Y-3.0
X111.35Y-51.0
X111.35Y-83.0
X111.35Y-131.0
X111.35Y-163.0
X111.35Y-211.0
X111.35Y-243.0
X111.35Y-291.0
X111.95Y-339.0
X112.85Y-343.0
X114.65Y-3.0
X114.65Y-51.0
X114.65Y-83.0
X114.65Y-131.0
X114.65Y-163.0
X114.65Y-211.0
X114.65Y-243.0
X114.65Y-291.0
X115.375Y-325.0
X115.375Y-356.0
X115.5Y-336.5
X115.6Y-4.15
X115.6Y-49.85
X115.6Y-84.15
X115.6Y-129.85
X115.6Y-164.15
X115.6Y-209.85
X115.6Y-244.15
X115.6Y-289.85
X122.375Y-325.0
X135.95Y-20.95
X135.95Y-60.95
X135.95Y-100.95
X135.95Y-140.95
X135.95Y-180.95
X135.95Y-220.95
X135.95Y-260.95
X137.65Y-19.05
X137.65Y-59.05
X137.65Y-99.05
X137.65Y-139.05
X137.65Y-179.05
X137.65Y-219.05
X137.65Y-259.05
X137.65Y-299.05
X138.35Y-22.4
X138.35Y-62.4
X138.35Y-102.4
X138.35Y-142.4
X138.35Y-182.4
X138.35Y-222.4
X138.35Y-262.4
X138.35Y-302.4
X141.65Y-22.4
X141.65Y-62.4
X141.65Y-102.4
X141.65Y-142.4
X141.65Y-182.4
X141.65Y-222.4
X141.65Y-262.4
X141.65Y-302.4
X142.35Y-20.0
X142.35Y-60.0
X142.35Y-100.0
X142.35Y-140.0
X142.35Y-180.0
X142.35Y-220.0
X142.35Y-260.0
X142.35Y-300.0
X143.375Y-325.0
X150.375Y-325.0
X150.4Y-4.15
X150.4Y-49.85
X150.4Y-84.15
X150.4Y-129.85
X150.4Y-164.15
X150.4Y-209.85
X150.4Y-244.15
X150.4Y-289.85
X151.35Y-3.0
X151.35Y-51.0
X151.35Y-83.0
X151.35Y-131.0
X151.35Y-163.0
X151.35Y-211.0
X151.35Y-243.0
X151.35Y-291.0
X154.65Y-3.0
X154.65Y-51.0
X154.65Y-83.0
X154.65Y-131.0
X154.65Y-163.0
X154.65Y-211.0
X154.65Y-243.0
X154.65Y-291.0
X155.6Y-4.15
X155.6Y-49.85
X155.6Y-84.15
X155.6Y-129.85
X155.6Y-164.15
X155.6Y-209.85
X155.6Y-244.15
X155.6Y-289.85
X175.95Y-60.95
X175.95Y-140.95
X175.95Y-220.95
X175.95Y-260.95
X175.95Y-300.95
X177.65Y-19.05
X177.65Y-59.05
X177.65Y-99.05
X177.65Y-139.05
X177.65Y-179.05
X177.65Y-219.05
X177.65Y-259.05
X177.65Y-299.05
X178.35Y-22.4
X178.35Y-62.4
X178.35Y-102.4
X178.35Y-142.4
X178.35Y-182.4
X178.35Y-222.4
X178.35Y-262.4
X178.35Y-302.4
X181.65Y-22.4
X181.65Y-62.4
X181.65Y-102.4
X181.65Y-142.4
X181.65Y-182.4
X181.65Y-222.4
X181.65Y-262.4
X181.65Y-302.4
X182.35Y-20.0
X182.35Y-60.0
X182.35Y-100.0
X182.35Y-140.0
X182.35Y-180.0
X182.35Y-220.0
X182.35Y-260.0
X182.35Y-300.0
X190.4Y-4.15
X190.4Y-49.85
X190.4Y-84.15
X190.4Y-129.85
X190.4Y-164.15
X190.4Y-209.85
X190.4Y-244.15
X190.4Y-289.85
X191.35Y-3.0
X191.35Y-51.0
X191.35Y-83.0
X191.35Y-131.0
X191.35Y-163.0
X191.35Y-211.0
X191.35Y-243.0
X191.35Y-291.0
X194.65Y-3.0
X194.65Y-51.0
X194.65Y-83.0
X194.65Y-131.0
X194.65Y-163.0
X194.65Y-211.0
X194.65Y-243.0
X194.65Y-291.0
X195.6Y-4.15
X195.6Y-49.85
X195.6Y-84.15
X195.6Y-129.85
X195.6Y-164.15
X195.6Y-209.85
X195.6Y-244.15
X195.6Y-289.85
X215.95Y-20.95
X215.95Y-60.95
X215.95Y-100.95
X215.95Y-140.95
X215.95Y-180.95
X215.95Y-220.95
X215.95Y-260.95
X215.95Y-300.95
X217.65Y-19.05
X217.65Y-59.05
X217.65Y-99.05
X217.65Y-139.05
X217.65Y-179.05
X217.65Y-219.05
X217.65Y-259.05
X217.65Y-299.05
X218.35Y-22.4
X218.35Y-62.4
X218.35Y-102.4
X218.35Y-142.4
X218.35Y-182.4
X218.35Y-222.4
X218.35Y-262.4
X218.35Y-302.4
X221.65Y-22.4
X221.65Y-62.4
X221.65Y-102.4
X221.65Y-142.4
X221.65Y-182.4
X221.65Y-222.4
X221.65Y-262.4
X221.65Y-302.4
X222.35Y-20.0
X222.35Y-60.0
X222.35Y-100.0
X222.35Y-140.0
X222.35Y-180.0
X222.35Y-220.0
X222.35Y-260.0
X222.35Y-300.0
X225.5Y-282.0
X226.5Y-246.0
X230.35Y-37.365
X230.35Y-117.365
X230.35Y-197.365
X230.4Y-4.15
X230.4Y-49.85
X230.4Y-84.15
X230.4Y-129.85
X230.4Y-164.15
X230.4Y-209.85
X230.4Y-244.15
X230.4Y-289.85
X231.35Y-3.0
X231.35Y-36.095
X231.35Y-41.175
X231.35Y-51.0
X231.35Y-83.0
X231.35Y-116.095
X231.35Y-121.175
X231.35Y-131.0
X231.35Y-163.0
X231.35Y-196.095
X231.35Y-201.175
X231.35Y-211.0
X231.35Y-243.0
X231.35Y-276.095
X231.35Y-281.175
X231.35Y-291.0
X232.35Y-34.825
X232.35Y-114.825
X232.35Y-194.825
X232.35Y-274.825
X232.35Y-279.905
X233.35Y-33.555
X233.35Y-38.635
X233.35Y-113.555
X233.35Y-118.635
X233.35Y-193.555
X233.35Y-198.635
X233.35Y-273.555
X233.35Y-278.635
X233.5Y-285.25
X233.7Y-42.445
X233.7Y-122.445
X233.7Y-202.445
X233.7Y-282.445
X234.65Y-3.0
X234.65Y-51.0
X234.65Y-83.0
X234.65Y-131.0
X234.65Y-163.0
X234.65Y-211.0
X234.65Y-243.0
X234.65Y-291.0
X235.6Y-4.15
X235.6Y-49.85
X235.6Y-84.15
X235.6Y-129.85
X235.6Y-164.15
X235.6Y-209.85
X235.6Y-244.15
X235.6Y-289.85
X241.85Y-31.7
X241.85Y-111.7
X241.85Y-191.7
X241.85Y-271.7
X245.15Y-31.7
X245.15Y-111.7
X245.15Y-191.7
X245.15Y-271.7
X246.3Y-33.555
X246.3Y-113.555
X246.3Y-193.555
X246.3Y-273.555
X246.65Y-42.445
X246.65Y-122.445
X246.65Y-202.445
X246.65Y-282.445
X247.65Y-36.095
X247.65Y-41.175
X247.65Y-116.095
X247.65Y-121.175
X247.65Y-196.095
X247.65Y-201.175
X247.65Y-276.095
X247.65Y-281.175
X248.65Y-34.825
X248.65Y-114.825
X248.65Y-194.825
X248.65Y-274.825
X249.65Y-38.635
X249.65Y-118.635
X249.65Y-198.635
X249.65Y-278.635
X250.0Y-256.5
X253.75Y-278.75
X254.75Y-288.0
X255.95Y-60.95
X255.95Y-140.95
X255.95Y-220.95
X255.95Y-300.95
X257.65Y-19.05
X257.65Y-59.05
X257.65Y-99.05
X257.65Y-139.05
X257.65Y-179.05
X257.65Y-219.05
X257.65Y-259.05
X257.65Y-299.05
X258.35Y-22.4
X258.35Y-62.4
X258.35Y-102.4
X258.35Y-142.4
X258.35Y-182.4
X258.35Y-222.4
X258.35Y-262.4
X258.35Y-302.4
X258.75Y-256.0
X260.0Y-257.5
X261.65Y-22.4
X261.65Y-62.4
X261.65Y-102.4
X261.65Y-142.4
X261.65Y-182.4
X261.65Y-222.4
X261.65Y-262.4
X261.65Y-302.4
X262.35Y-20.0
X262.35Y-60.0
X262.35Y-100.0
X262.35Y-140.0
X262.35Y-180.0
X262.35Y-220.0
X262.35Y-260.0
X262.35Y-300.0
X263.25Y-256.0
X263.25Y-257.5
X265.75Y-256.0
X265.75Y-257.5
X270.4Y-4.15
X270.4Y-49.85
X270.4Y-84.15
X270.4Y-129.85
X270.4Y-164.15
X270.4Y-209.85
X270.4Y-244.15
X270.4Y-289.85
X271.35Y-3.0
X271.35Y-51.0
X271.35Y-83.0
X271.35Y-131.0
X271.35Y-163.0
X271.35Y-211.0
X271.35Y-243.0
X271.35Y-291.0
X274.65Y-3.0
X274.65Y-51.0
X274.65Y-83.0
X274.65Y-131.0
X274.65Y-163.0
X274.65Y-211.0
X274.65Y-243.0
X274.65Y-291.0
X275.6Y-4.15
X275.6Y-49.85
X275.6Y-84.15
X275.6Y-129.85
X275.6Y-164.15
X275.6Y-209.85
X275.6Y-244.15
X275.6Y-289.85
X287.0Y-257.5
X295.95Y-20.95
X295.95Y-60.95
X295.95Y-100.95
X295.95Y-140.95
X295.95Y-180.95
X295.95Y-220.95
X297.65Y-19.05
X297.65Y-59.05
X297.65Y-99.05
X297.65Y-139.05
X297.65Y-179.05
X297.65Y-219.05
X297.65Y-259.05
X297.65Y-299.05
X298.35Y-22.4
X298.35Y-62.4
X298.35Y-102.4
X298.35Y-142.4
X298.35Y-182.4
X298.35Y-222.4
X298.35Y-262.4
X298.35Y-302.4
X301.65Y-22.4
X301.65Y-62.4
X301.65Y-102.4
X301.65Y-142.4
X301.65Y-182.4
X301.65Y-222.4
X301.65Y-262.4
X301.65Y-302.4
X302.35Y-20.0
X302.35Y-60.0
X302.35Y-100.0
X302.35Y-140.0
X302.35Y-180.0
X302.35Y-220.0
X302.35Y-260.0
X302.35Y-300.0
X306.25Y-246.0
X310.4Y-4.15
X310.4Y-49.85
X310.4Y-84.15
X310.4Y-129.85
X310.4Y-164.15
X310.4Y-209.85
X310.4Y-244.15
X310.4Y-289.85
X311.35Y-3.0
X311.35Y-51.0
X311.35Y-83.0
X311.35Y-131.0
X311.35Y-163.0
X311.35Y-211.0
X311.35Y-243.0
X311.35Y-291.0
X314.65Y-3.0
X314.65Y-51.0
X314.65Y-83.0
X314.65Y-131.0
X314.65Y-163.0
X314.65Y-211.0
X314.65Y-243.0
X314.65Y-291.0
X315.6Y-4.15
X315.6Y-49.85
X315.6Y-84.15
X315.6Y-129.85
X315.6Y-164.15
X315.6Y-209.85
X315.6Y-244.15
X315.6Y-289.85
T2
X92.25Y-28.0
X95.75Y-28.0
X102.25Y-28.0
X105.75Y-28.0
T3
X26.75Y-347.75
X26.75Y-352.25
X33.25Y-347.75
X33.25Y-352.25
X40.75Y-335.75
X40.75Y-340.25
X40.75Y-359.75
X40.75Y-364.25
X47.25Y-335.75
X47.25Y-340.25
X47.25Y-359.75
X47.25Y-364.25
X54.75Y-347.75
X54.75Y-352.25
X61.25Y-347.75
X61.25Y-352.25
X72.75Y-359.75
X72.75Y-364.25
X79.25Y-359.75
X79.25Y-364.25
X224.75Y-335.75
X224.75Y-340.25
X224.75Y-359.75
X224.75Y-364.25
X231.25Y-335.75
X231.25Y-340.25
X231.25Y-359.75
X231.25Y-364.25
X250.75Y-335.75
X250.75Y-340.25
X250.75Y-359.75
X250.75Y-364.25
X257.25Y-335.75
X257.25Y-340.25
X257.25Y-359.75
X257.25Y-364.25
X276.75Y-335.75
X276.75Y-340.25
X276.75Y-359.75
X276.75Y-364.25
X283.25Y-335.75
X283.25Y-340.25
X283.25Y-359.75
X283.25Y-364.25
X304.75Y-361.75
X304.75Y-366.25
X311.25Y-361.75
X311.25Y-366.25
T4
X258.87Y-233.73
X258.87Y-236.27
X261.41Y-233.73
X261.41Y-236.27
X263.95Y-233.73
X263.95Y-236.27
X266.49Y-233.73
X266.49Y-236.27
X269.03Y-233.73
X269.03Y-236.27
X271.57Y-233.73
X271.57Y-236.27
X274.11Y-233.73
X274.11Y-236.27
X276.65Y-233.73
X276.65Y-236.27
X279.19Y-233.73
X279.19Y-236.27
X281.73Y-233.73
X281.73Y-236.27
X284.27Y-233.73
X284.27Y-236.27
X286.81Y-233.73
X286.81Y-236.27
X289.35Y-233.73
X289.35Y-236.27
X291.89Y-233.73
X291.89Y-236.27
X294.43Y-233.73
X294.43Y-236.27
X296.97Y-233.73
X296.97Y-236.27
X299.51Y-233.73
X299.51Y-236.27
X302.05Y-233.73
X302.05Y-236.27
X304.59Y-233.73
X304.59Y-236.27
X307.13Y-233.73
X307.13Y-236.27
T5
X49.06Y-32.0
X53.02Y-32.0
X56.98Y-32.0
X60.94Y-32.0
M30
