G04 #@! TF.GenerationSoftware,KiCad,Pcbnew,9.0.9-9.0.9~ubuntu24.04.1*
G04 #@! TF.CreationDate,2026-10-07T07:59:11+00:00*
G04 #@! TF.ProjectId,chess-board,63686573-732d-4626-9f61-72642e6b6963,rev?*
G04 #@! TF.SameCoordinates,Original*
G04 #@! TF.FileFunction,Copper,L6,Inr*
G04 #@! TF.FilePolarity,Positive*
%FSLAX46Y46*%
G04 Gerber Fmt 4.6, Leading zero omitted, Abs format (unit mm)*
G04 Created by KiCad (PCBNEW 9.0.9-9.0.9~ubuntu24.04.1) date 2026-10-07 07:59:11*
%MOMM*%
%LPD*%
G01*
G04 APERTURE LIST*
G04 #@! TA.AperFunction,ComponentPad*
%ADD10R,1.700000X1.700000*%
G04 #@! TD*
G04 #@! TA.AperFunction,ComponentPad*
%ADD11C,1.700000*%
G04 #@! TD*
G04 #@! TA.AperFunction,ComponentPad*
%ADD12R,1.820000X1.820000*%
G04 #@! TD*
G04 #@! TA.AperFunction,ComponentPad*
%ADD13C,1.820000*%
G04 #@! TD*
G04 #@! TA.AperFunction,ComponentPad*
%ADD14R,2.450000X2.450000*%
G04 #@! TD*
G04 #@! TA.AperFunction,ComponentPad*
%ADD15C,2.450000*%
G04 #@! TD*
G04 #@! TA.AperFunction,ComponentPad*
%ADD16R,1.800000X1.800000*%
G04 #@! TD*
G04 #@! TA.AperFunction,ComponentPad*
%ADD17C,1.800000*%
G04 #@! TD*
G04 #@! TA.AperFunction,ViaPad*
%ADD18C,0.900000*%
G04 #@! TD*
G04 #@! TA.AperFunction,Conductor*
%ADD19C,0.310000*%
G04 #@! TD*
G04 APERTURE END LIST*
D10*
G04 #@! TO.N,+5V*
G04 #@! TO.C,C1*
X95750000Y-28000000D03*
D11*
G04 #@! TO.N,GND*
X92250000Y-28000000D03*
G04 #@! TD*
D10*
G04 #@! TO.N,+5V*
G04 #@! TO.C,C140*
X105750000Y-28000000D03*
D11*
G04 #@! TO.N,GND*
X102250000Y-28000000D03*
G04 #@! TD*
D12*
G04 #@! TO.N,+3V3*
G04 #@! TO.C,J1*
X307130000Y-233730000D03*
D13*
G04 #@! TO.N,+5V*
X307130000Y-236270000D03*
G04 #@! TO.N,I2C_SDA*
X304590000Y-233730000D03*
G04 #@! TO.N,+5V*
X304590000Y-236270000D03*
G04 #@! TO.N,I2C_SCL*
X302049999Y-233730000D03*
G04 #@! TO.N,GND*
X302049999Y-236270000D03*
G04 #@! TO.N,unconnected-(J1-GPIO4-Pad7)*
X299509999Y-233730000D03*
G04 #@! TO.N,unconnected-(J1-UART_TX_GPIO14-Pad8)*
X299509999Y-236270000D03*
G04 #@! TO.N,GND*
X296969999Y-233730000D03*
G04 #@! TO.N,unconnected-(J1-UART_RX_GPIO15-Pad10)*
X296969999Y-236270000D03*
G04 #@! TO.N,BTN_RESET*
X294430000Y-233730000D03*
G04 #@! TO.N,unconnected-(J1-GPIO18-Pad12)*
X294430000Y-236270000D03*
G04 #@! TO.N,unconnected-(J1-GPIO27-Pad13)*
X291889999Y-233730000D03*
G04 #@! TO.N,GND*
X291889999Y-236270000D03*
G04 #@! TO.N,BTN_F3*
X289349999Y-233730000D03*
G04 #@! TO.N,BTN_F4*
X289349999Y-236270000D03*
G04 #@! TO.N,+3V3*
X286809999Y-233730000D03*
G04 #@! TO.N,BTN_F5*
X286809999Y-236270000D03*
G04 #@! TO.N,SPI_DATA_3V3*
X284269999Y-233730000D03*
G04 #@! TO.N,GND*
X284269999Y-236270000D03*
G04 #@! TO.N,unconnected-(J1-SPI_MISO_GPIO9-Pad21)*
X281730002Y-233730000D03*
G04 #@! TO.N,unconnected-(J1-GPIO25-Pad22)*
X281730002Y-236270000D03*
G04 #@! TO.N,SPI_CLK_3V3*
X279190000Y-233730000D03*
G04 #@! TO.N,unconnected-(J1-SPI_CE0_GPIO8-Pad24)*
X279190000Y-236270000D03*
G04 #@! TO.N,GND*
X276650000Y-233730000D03*
G04 #@! TO.N,unconnected-(J1-SPI_CE1_GPIO7-Pad26)*
X276650000Y-236270000D03*
G04 #@! TO.N,unconnected-(J1-ID_EEPROM_DATA-Pad27)*
X274110000Y-233730000D03*
G04 #@! TO.N,unconnected-(J1-ID_EEPROM_CLOCK-Pad28)*
X274110000Y-236270000D03*
G04 #@! TO.N,BTN_UP*
X271570000Y-233730000D03*
G04 #@! TO.N,GND*
X271570000Y-236270000D03*
G04 #@! TO.N,BTN_DOWN*
X269030000Y-233730000D03*
G04 #@! TO.N,BTN_LEFT*
X269030000Y-236270000D03*
G04 #@! TO.N,BTN_RIGHT*
X266490000Y-233730000D03*
G04 #@! TO.N,GND*
X266490000Y-236270000D03*
G04 #@! TO.N,BTN_PASS*
X263950000Y-233730000D03*
G04 #@! TO.N,BTN_OK*
X263950000Y-236270000D03*
G04 #@! TO.N,LED_EN*
X261410000Y-233730000D03*
G04 #@! TO.N,BTN_F1*
X261410000Y-236270000D03*
G04 #@! TO.N,GND*
X258870000Y-233730000D03*
G04 #@! TO.N,BTN_F2*
X258870000Y-236270000D03*
G04 #@! TD*
D14*
G04 #@! TO.N,DC_IN*
G04 #@! TO.C,J4*
X49060001Y-32000000D03*
D15*
G04 #@! TO.N,GND*
X53019999Y-32000000D03*
G04 #@! TO.N,DC_FUSED*
X56980000Y-32000000D03*
G04 #@! TO.N,RUN*
X60939999Y-32000000D03*
G04 #@! TD*
D16*
G04 #@! TO.N,BTN_UP*
G04 #@! TO.C,SW1*
X156750000Y-329750000D03*
D17*
X163250000Y-329750000D03*
G04 #@! TO.N,GND*
X163250000Y-334250000D03*
X156750000Y-334250000D03*
G04 #@! TD*
D16*
G04 #@! TO.N,BTN_F3*
G04 #@! TO.C,SW10*
X204750000Y-345750000D03*
D17*
X211250000Y-345750000D03*
G04 #@! TO.N,GND*
X211250000Y-350250000D03*
X204750000Y-350250000D03*
G04 #@! TD*
D16*
G04 #@! TO.N,BTN_F4*
G04 #@! TO.C,SW11*
X220750000Y-345750000D03*
D17*
X227250000Y-345750000D03*
G04 #@! TO.N,GND*
X227250000Y-350250000D03*
X220750000Y-350250000D03*
G04 #@! TD*
D16*
G04 #@! TO.N,BTN_F5*
G04 #@! TO.C,SW12*
X236750000Y-345750000D03*
D17*
X243250000Y-345750000D03*
G04 #@! TO.N,GND*
X243250000Y-350250000D03*
X236750000Y-350250000D03*
G04 #@! TD*
D16*
G04 #@! TO.N,BTN_DOWN*
G04 #@! TO.C,SW2*
X172750000Y-329750000D03*
D17*
X179250000Y-329750000D03*
G04 #@! TO.N,GND*
X179250000Y-334250000D03*
X172750000Y-334250000D03*
G04 #@! TD*
D16*
G04 #@! TO.N,BTN_LEFT*
G04 #@! TO.C,SW3*
X188750000Y-329750000D03*
D17*
X195250000Y-329750000D03*
G04 #@! TO.N,GND*
X195250000Y-334250000D03*
X188750000Y-334250000D03*
G04 #@! TD*
D16*
G04 #@! TO.N,BTN_RIGHT*
G04 #@! TO.C,SW4*
X204750000Y-329750000D03*
D17*
X211250000Y-329750000D03*
G04 #@! TO.N,GND*
X211250000Y-334250000D03*
X204750000Y-334250000D03*
G04 #@! TD*
D16*
G04 #@! TO.N,BTN_OK*
G04 #@! TO.C,SW5*
X220750000Y-329750000D03*
D17*
X227250000Y-329750000D03*
G04 #@! TO.N,GND*
X227250000Y-334250000D03*
X220750000Y-334250000D03*
G04 #@! TD*
D16*
G04 #@! TO.N,BTN_RESET*
G04 #@! TO.C,SW6*
X236750000Y-329750000D03*
D17*
X243250000Y-329750000D03*
G04 #@! TO.N,GND*
X243250000Y-334250000D03*
X236750000Y-334250000D03*
G04 #@! TD*
D16*
G04 #@! TO.N,BTN_PASS*
G04 #@! TO.C,SW7*
X156750000Y-345750000D03*
D17*
X163250000Y-345750000D03*
G04 #@! TO.N,GND*
X163250000Y-350250000D03*
X156750000Y-350250000D03*
G04 #@! TD*
D16*
G04 #@! TO.N,BTN_F1*
G04 #@! TO.C,SW8*
X172750000Y-345750000D03*
D17*
X179250000Y-345750000D03*
G04 #@! TO.N,GND*
X179250000Y-350250000D03*
X172750000Y-350250000D03*
G04 #@! TD*
D16*
G04 #@! TO.N,BTN_F2*
G04 #@! TO.C,SW9*
X188750000Y-345750000D03*
D17*
X195250000Y-345750000D03*
G04 #@! TO.N,GND*
X195250000Y-350250000D03*
X188750000Y-350250000D03*
G04 #@! TD*
D18*
G04 #@! TO.N,+3V3*
X246300000Y-273555000D03*
X245150000Y-271700000D03*
X298350000Y-62400000D03*
X258350000Y-62400000D03*
X297650000Y-219050000D03*
X98350000Y-222400000D03*
X178350000Y-62400000D03*
X97650000Y-299050000D03*
X257649999Y-99050000D03*
X177650000Y-179050000D03*
X217650000Y-59050000D03*
X218350000Y-102400000D03*
X297650000Y-299050000D03*
X138350000Y-262399998D03*
X178350000Y-302400000D03*
X57650000Y-59050000D03*
X233350000Y-113555000D03*
X17649999Y-219050000D03*
X257649999Y-19050000D03*
X177650000Y-59050000D03*
X245150000Y-31699998D03*
X177650000Y-299050000D03*
X218350000Y-182400000D03*
X97650000Y-19050000D03*
X257649999Y-59050000D03*
X298350000Y-142400000D03*
X58349999Y-102400000D03*
X85150000Y-111700000D03*
X98350000Y-102400000D03*
X298350000Y-302400000D03*
X57650000Y-299050000D03*
X98350000Y-62400000D03*
X258350000Y-182400000D03*
X258350000Y-102400000D03*
X218350000Y-302400000D03*
X218350000Y-222400000D03*
X138350000Y-22400000D03*
X138350000Y-222400000D03*
X297650000Y-139050000D03*
X218350000Y-22400000D03*
X97650000Y-219050000D03*
X178350000Y-142400000D03*
X97650000Y-179050000D03*
X143375000Y-325000000D03*
X217650000Y-219050000D03*
X233350000Y-273555000D03*
X258350000Y-22400000D03*
X57650000Y-219050000D03*
X58349999Y-182400000D03*
X17649999Y-99050000D03*
X245150000Y-111700000D03*
X258350000Y-222400000D03*
X258350000Y-142400000D03*
X57650000Y-259050000D03*
X71350000Y-116095000D03*
X18349998Y-22400000D03*
X137650000Y-139050000D03*
X17649999Y-139050000D03*
X137650000Y-99050000D03*
X137650000Y-59050000D03*
X298350000Y-182400000D03*
X258350000Y-262399998D03*
X18349998Y-262399998D03*
X18349998Y-102400000D03*
X57650000Y-19050000D03*
X298350000Y-22400000D03*
X217650000Y-259050000D03*
X297650000Y-179050000D03*
X231350000Y-116095000D03*
X177650000Y-259050000D03*
X177650000Y-219050000D03*
X232350000Y-194825000D03*
X246300000Y-33555000D03*
X138350000Y-142400000D03*
X85150000Y-191700000D03*
X58349999Y-22400000D03*
X86300000Y-33555000D03*
X297650000Y-59050000D03*
X17649999Y-179050000D03*
X297650000Y-259050000D03*
X17649999Y-299050000D03*
X257649999Y-299050000D03*
X57650000Y-139050000D03*
X257649999Y-139050000D03*
X217650000Y-179050000D03*
X98350000Y-22400000D03*
X17649999Y-19050000D03*
X257649999Y-259050000D03*
X97650000Y-259050000D03*
X217650000Y-99050000D03*
X58349999Y-222400000D03*
X178350000Y-182400000D03*
X49500000Y-313662500D03*
X72350000Y-194825000D03*
X246300000Y-113555000D03*
X233350000Y-33555000D03*
X58349999Y-262399998D03*
X58349999Y-142400000D03*
X18349998Y-222400000D03*
X217650000Y-139050000D03*
X246300000Y-193555000D03*
X97650000Y-99050000D03*
X257649999Y-219050000D03*
X137650000Y-19050000D03*
X58349999Y-302400000D03*
X232350000Y-34824998D03*
X298350000Y-262399998D03*
X137650000Y-259050000D03*
X178350000Y-102400000D03*
X138350000Y-102400000D03*
X98350000Y-142400000D03*
X233350000Y-193555000D03*
X57650000Y-179050000D03*
X177650000Y-139050000D03*
X97650000Y-139050000D03*
X177650000Y-99050000D03*
X257649999Y-179050000D03*
X218350000Y-262399998D03*
X17649999Y-59050000D03*
X98350000Y-302400000D03*
X137650000Y-179050000D03*
X85150000Y-271700000D03*
X217650000Y-19050000D03*
X218350000Y-142400000D03*
X297650000Y-19050000D03*
X218350000Y-62400000D03*
X86300000Y-193555000D03*
X71350000Y-36095000D03*
X18349998Y-302400000D03*
X85150000Y-31699998D03*
X138350000Y-62400000D03*
X98350000Y-182400000D03*
X137650000Y-219050000D03*
X18349998Y-62400000D03*
X18349998Y-142400000D03*
X217650000Y-299050000D03*
X298350000Y-222400000D03*
X18349998Y-182400000D03*
X137650000Y-299050000D03*
X86300000Y-113555000D03*
X178350000Y-262399998D03*
X72350000Y-34824998D03*
X97650000Y-59050000D03*
X86300000Y-273555000D03*
X245150000Y-191700000D03*
X231350000Y-36095000D03*
X178350000Y-22400000D03*
X298350000Y-102400000D03*
X177650000Y-19050000D03*
X138350000Y-182400000D03*
X178350000Y-222400000D03*
X258350000Y-302400000D03*
X297650000Y-99050000D03*
X57650000Y-99050000D03*
X58349999Y-62400000D03*
X98350000Y-262399998D03*
X17649999Y-259050000D03*
X138350000Y-302400000D03*
G04 #@! TO.N,+5V*
X94125000Y-341270000D03*
X70850000Y-31400000D03*
X69650000Y-31400000D03*
X70450000Y-21000000D03*
X92500000Y-349050000D03*
X72050000Y-31400000D03*
X102450000Y-336000000D03*
X70850000Y-23599998D03*
X115375000Y-325000000D03*
X91850000Y-334200000D03*
X94125000Y-336190000D03*
X100472500Y-346095000D03*
X87500000Y-350000000D03*
X88350000Y-353000000D03*
X69650000Y-23599998D03*
X100472500Y-347365000D03*
X100472500Y-348635000D03*
X72050000Y-23599998D03*
X94125000Y-337460000D03*
G04 #@! TO.N,BTN_F3*
X206500000Y-246000000D03*
X285250000Y-232250000D03*
G04 #@! TO.N,BTN_F4*
X223750000Y-246000000D03*
G04 #@! TO.N,BTN_RESET*
X237250000Y-243750000D03*
G04 #@! TO.N,EFUSE_EN*
X79850000Y-26800000D03*
X65599999Y-26000000D03*
X81650000Y-26800000D03*
G04 #@! TO.N,EFUSE_OVLO*
X76150000Y-28099998D03*
X64724999Y-27137498D03*
G04 #@! TO.N,GND*
X221650000Y-262399998D03*
X262350000Y-20000000D03*
X222350000Y-300000000D03*
X154650000Y-163000000D03*
X102350000Y-100000000D03*
X102350000Y-140000000D03*
X141650000Y-142400000D03*
X21650000Y-22400000D03*
X110400000Y-129850000D03*
X234650000Y-3000000D03*
X154650000Y-83000000D03*
X181650000Y-62400000D03*
X190400000Y-289850000D03*
X150400000Y-289850000D03*
X74650000Y-243000000D03*
X310400000Y-49849999D03*
X141650000Y-302400000D03*
X230400000Y-49849999D03*
X62349999Y-60000000D03*
X101650000Y-302400000D03*
X151350000Y-131000000D03*
X311350000Y-131000000D03*
X230400000Y-129850000D03*
X182350000Y-260000000D03*
X71350000Y-211000000D03*
X302350000Y-60000000D03*
X190400000Y-209850000D03*
X114650000Y-3000000D03*
X262350000Y-100000000D03*
X181650000Y-262399998D03*
X81850000Y-111700000D03*
X222350000Y-220000000D03*
X191350000Y-291000000D03*
X102350000Y-300000000D03*
X71350000Y-276095000D03*
X271350000Y-291000000D03*
X195600000Y-4150000D03*
X61650000Y-22400000D03*
X155600000Y-164150000D03*
X142350000Y-260000000D03*
X70400000Y-209850000D03*
X74650000Y-163000000D03*
X274650000Y-3000000D03*
X241850000Y-271700000D03*
X142350000Y-140000000D03*
X101650000Y-62400000D03*
X315600000Y-244150000D03*
X141650000Y-182400000D03*
X310400000Y-209850000D03*
X73450000Y-25099998D03*
X61650000Y-182400000D03*
X221650000Y-302400000D03*
X110400000Y-49849999D03*
X232350000Y-274825000D03*
X81850000Y-191700000D03*
X221650000Y-142400000D03*
X111950000Y-339000000D03*
X301650000Y-22400000D03*
X194650000Y-163000000D03*
X221650000Y-182400000D03*
X194650000Y-243000000D03*
X31349999Y-211000000D03*
X310400000Y-289850000D03*
X231350000Y-211000000D03*
X49539999Y-23399999D03*
X261649999Y-182400000D03*
X194650000Y-83000000D03*
X141650000Y-222400000D03*
X115600000Y-84150000D03*
X222350000Y-20000000D03*
X101650000Y-182400000D03*
X49539999Y-25799999D03*
X275600000Y-164150000D03*
X270400000Y-49849999D03*
X75600000Y-84150000D03*
X141650000Y-62400000D03*
X49539999Y-24599998D03*
X154650000Y-243000000D03*
X232350000Y-114825000D03*
X70400000Y-289850000D03*
X21650000Y-182400000D03*
X195600000Y-244150000D03*
X231350000Y-51000000D03*
X142350000Y-220000000D03*
X62349999Y-260000000D03*
X62349999Y-300000000D03*
X71350000Y-291000000D03*
X235600000Y-164150000D03*
X142350000Y-100000000D03*
X110400000Y-209850000D03*
X61650000Y-62400000D03*
X71350000Y-51000000D03*
X30400001Y-129850000D03*
X261649999Y-22400000D03*
X262350000Y-60000000D03*
X234650000Y-163000000D03*
X301650000Y-62400000D03*
X142350000Y-300000000D03*
X21650000Y-302400000D03*
X234650000Y-243000000D03*
X302350000Y-180000000D03*
X262350000Y-300000000D03*
X261649999Y-102400000D03*
X34650000Y-3000000D03*
X70400000Y-129850000D03*
X262350000Y-260000000D03*
X73700000Y-282445000D03*
X102350000Y-220000000D03*
X302350000Y-100000000D03*
X182350000Y-100000000D03*
X45950000Y-320437500D03*
X78950000Y-24199998D03*
X181650000Y-22400000D03*
X235600000Y-4150000D03*
X122375000Y-325000000D03*
X241850000Y-191700000D03*
X222350000Y-100000000D03*
X21650000Y-102400000D03*
X34650000Y-243000000D03*
X22349999Y-20000000D03*
X110400000Y-289850000D03*
X22349999Y-220000000D03*
X74450000Y-342500000D03*
X301650000Y-182400000D03*
X81850000Y-271700000D03*
X302350000Y-300000000D03*
X314650000Y-243000000D03*
X151350000Y-211000000D03*
X95150000Y-334200000D03*
X62349999Y-100000000D03*
X142350000Y-180000000D03*
X35599999Y-84150000D03*
X261649999Y-142400000D03*
X314650000Y-163000000D03*
X22349999Y-180000000D03*
X73350000Y-273555000D03*
X102350000Y-180000000D03*
X22349999Y-300000000D03*
X111350000Y-291000000D03*
X241850000Y-111700000D03*
X302350000Y-20000000D03*
X302350000Y-260000000D03*
X35599999Y-244150000D03*
X73700000Y-202445000D03*
X73350000Y-113555000D03*
X34650000Y-163000000D03*
X274650000Y-83000000D03*
X231350000Y-291000000D03*
X62349999Y-140000000D03*
X270400000Y-289850000D03*
X222350000Y-180000000D03*
X221650000Y-22400000D03*
X222350000Y-140000000D03*
X72350000Y-274825000D03*
X142350000Y-60000000D03*
X190400000Y-49849999D03*
X73350000Y-193555000D03*
X61650000Y-102400000D03*
X111350000Y-211000000D03*
X115600000Y-164150000D03*
X182350000Y-60000000D03*
X191350000Y-211000000D03*
X182350000Y-300000000D03*
X222350000Y-260000000D03*
X62349999Y-220000000D03*
X315600000Y-164150000D03*
X72500000Y-29699998D03*
X181650000Y-102400000D03*
X114650000Y-163000000D03*
X182350000Y-140000000D03*
X150400000Y-209850000D03*
X315600000Y-4150000D03*
X261649999Y-222400000D03*
X141650000Y-22400000D03*
X301650000Y-102400000D03*
X230400000Y-209850000D03*
X181650000Y-182400000D03*
X74650000Y-3000000D03*
X151350000Y-291000000D03*
X30400001Y-289850000D03*
X21650000Y-262399998D03*
X61650000Y-262399998D03*
X73700000Y-42444998D03*
X195600000Y-84150000D03*
X262350000Y-140000000D03*
X35599999Y-164150000D03*
X71350000Y-196095000D03*
X311350000Y-291000000D03*
X142350000Y-20000000D03*
X275600000Y-4150000D03*
X301650000Y-222400000D03*
X194650000Y-3000000D03*
X234650000Y-83000000D03*
X114650000Y-83000000D03*
X31349999Y-51000000D03*
X73700000Y-122445000D03*
X94125000Y-342539998D03*
X21650000Y-142400000D03*
X30400001Y-209850000D03*
X101650000Y-22400000D03*
X101650000Y-142400000D03*
X102350000Y-260000000D03*
X48500000Y-315137500D03*
X231350000Y-276095000D03*
X271350000Y-211000000D03*
X101650000Y-262399998D03*
X274650000Y-163000000D03*
X81850000Y-31699998D03*
X181650000Y-302400000D03*
X72350000Y-114825000D03*
X61650000Y-302400000D03*
X231350000Y-196095000D03*
X221650000Y-102400000D03*
X181650000Y-222400000D03*
X150400000Y-129850000D03*
X94125000Y-338730000D03*
X93700000Y-350000000D03*
X78950000Y-29400000D03*
X190400000Y-129850000D03*
X34650000Y-83000000D03*
X301650000Y-142400000D03*
X233700000Y-42444998D03*
X31349999Y-291000000D03*
X233700000Y-202445000D03*
X275600000Y-84150000D03*
X311350000Y-211000000D03*
X314650000Y-3000000D03*
X151350000Y-51000000D03*
X71350000Y-131000000D03*
X231350000Y-131000000D03*
X101650000Y-102400000D03*
X61650000Y-222400000D03*
X195600000Y-164150000D03*
X230400000Y-289850000D03*
X101650000Y-222400000D03*
X262350000Y-180000000D03*
X73350000Y-33555000D03*
X22349999Y-100000000D03*
X233700000Y-282445000D03*
X86450000Y-26800000D03*
X302350000Y-140000000D03*
X274650000Y-243000000D03*
X302350000Y-220000000D03*
X21650000Y-62400000D03*
X261649999Y-62400000D03*
X61650000Y-142400000D03*
X261649999Y-302400000D03*
X102350000Y-60000000D03*
X22349999Y-260000000D03*
X270400000Y-209850000D03*
X221650000Y-62400000D03*
X111350000Y-51000000D03*
X85875000Y-343810000D03*
X55700000Y-320437500D03*
X314650000Y-83000000D03*
X75600000Y-164150000D03*
X155600000Y-244150000D03*
X141650000Y-262399998D03*
X115600000Y-244150000D03*
X221650000Y-222400000D03*
X275600000Y-244150000D03*
X262350000Y-220000000D03*
X115600000Y-4150000D03*
X31349999Y-131000000D03*
X35599999Y-4150000D03*
X22349999Y-140000000D03*
X74650000Y-83000000D03*
X150400000Y-49849999D03*
X301650000Y-302400000D03*
X182350000Y-20000000D03*
X310400000Y-129850000D03*
X91650000Y-353000000D03*
X270400000Y-129850000D03*
X191350000Y-51000000D03*
X114650000Y-243000000D03*
X102350000Y-20000000D03*
X105950000Y-341600000D03*
X22349999Y-60000000D03*
X75600000Y-4150000D03*
X70400000Y-49849999D03*
X182350000Y-220000000D03*
X315600000Y-84150000D03*
X21650000Y-222400000D03*
X182350000Y-180000000D03*
X62349999Y-180000000D03*
X111350000Y-131000000D03*
X78950000Y-345500000D03*
X30400001Y-49849999D03*
X181650000Y-142400000D03*
X74350000Y-21000000D03*
X155600000Y-84150000D03*
X241850000Y-31699998D03*
X235600000Y-244150000D03*
X233700000Y-122445000D03*
X65599999Y-21424999D03*
X222350000Y-60000000D03*
X261649999Y-262399998D03*
X154650000Y-3000000D03*
X62349999Y-20000000D03*
X75600000Y-244150000D03*
X311350000Y-51000000D03*
X155600000Y-4150000D03*
X191350000Y-131000000D03*
X141650000Y-102400000D03*
X271350000Y-51000000D03*
X301650000Y-262399998D03*
X271350000Y-131000000D03*
X235600000Y-84150000D03*
G04 #@! TO.N,I2C_SCL*
X247650000Y-196095000D03*
X247650000Y-36095000D03*
X87650000Y-116095000D03*
X247650000Y-116095000D03*
X87650000Y-276095000D03*
X50500000Y-314562500D03*
X249750000Y-252500000D03*
X150375000Y-325000000D03*
X247650000Y-276095000D03*
X87650000Y-196095000D03*
X252000000Y-203750000D03*
X249750000Y-203750000D03*
X249750000Y-235250000D03*
X87650000Y-36095000D03*
X175500000Y-325000000D03*
G04 #@! TO.N,I2C_SDA*
X248650000Y-114825000D03*
X51500000Y-313062500D03*
X273250000Y-230250000D03*
X88650000Y-194825000D03*
X88650000Y-34824998D03*
X115375000Y-356000000D03*
X88650000Y-114825000D03*
X248650000Y-34824998D03*
X225750000Y-274750000D03*
X88650000Y-274825000D03*
X248650000Y-274825000D03*
X248000000Y-274750000D03*
X248750000Y-254000000D03*
X248650000Y-194825000D03*
G04 #@! TO.N,LED_5V*
X271350000Y-3000000D03*
X34650000Y-131000000D03*
X111350000Y-163000000D03*
X234650000Y-131000000D03*
X150400000Y-4150000D03*
X35599999Y-129850000D03*
X109527500Y-348635000D03*
X190400000Y-4150000D03*
X310400000Y-4150000D03*
X234650000Y-211000000D03*
X74650000Y-211000000D03*
X270400000Y-4150000D03*
X311350000Y-83000000D03*
X274650000Y-51000000D03*
X71350000Y-243000000D03*
X115600000Y-209850000D03*
X70400000Y-244150000D03*
X114650000Y-291000000D03*
X154650000Y-291000000D03*
X111350000Y-83000000D03*
X71350000Y-163000000D03*
X314650000Y-51000000D03*
X111350000Y-3000000D03*
X106650000Y-352800000D03*
X190400000Y-84150000D03*
X150400000Y-84150000D03*
X315600000Y-129850000D03*
X234650000Y-51000000D03*
X191350000Y-163000000D03*
X150400000Y-244150000D03*
X191350000Y-3000000D03*
X35599999Y-209850000D03*
X115600000Y-129850000D03*
X151350000Y-83000000D03*
X231350000Y-3000000D03*
X271350000Y-243000000D03*
X114650000Y-131000000D03*
X154650000Y-131000000D03*
X271350000Y-83000000D03*
X275600000Y-289850000D03*
X231350000Y-163000000D03*
X109527500Y-346095000D03*
X155600000Y-209850000D03*
X114650000Y-211000000D03*
X195600000Y-209850000D03*
X314650000Y-291000000D03*
X109527500Y-349905000D03*
X75600000Y-289850000D03*
X115600000Y-49849999D03*
X314650000Y-131000000D03*
X31349999Y-243000000D03*
X235600000Y-289850000D03*
X314650000Y-211000000D03*
X311350000Y-3000000D03*
X74650000Y-51000000D03*
X154650000Y-211000000D03*
X31349999Y-83000000D03*
X230400000Y-84150000D03*
X274650000Y-131000000D03*
X110400000Y-84150000D03*
X195600000Y-289850000D03*
X311350000Y-163000000D03*
X155600000Y-129850000D03*
X190400000Y-164150000D03*
X30400000Y-84150000D03*
X191350000Y-243000000D03*
X74650000Y-131000000D03*
X230400000Y-164150000D03*
X34650000Y-291000000D03*
X194650000Y-211000000D03*
X34650000Y-211000000D03*
X274650000Y-291000000D03*
X75600000Y-49849999D03*
X315600000Y-49849999D03*
X75600000Y-209850000D03*
X191350000Y-83000000D03*
X195600000Y-129850000D03*
X270400000Y-84150000D03*
X230400000Y-244150000D03*
X270400000Y-244150000D03*
X231350000Y-83000000D03*
X275600000Y-209850000D03*
X35599999Y-49849999D03*
X30400000Y-4150000D03*
X311350000Y-243000000D03*
X275600000Y-129850000D03*
X310400000Y-84150000D03*
X155600000Y-49849999D03*
X109527500Y-347365000D03*
X111350000Y-243000000D03*
X155600000Y-289850000D03*
X271350000Y-163000000D03*
X231350000Y-243000000D03*
X195600000Y-49849999D03*
X310400000Y-244150000D03*
X315600000Y-209850000D03*
X274650000Y-211000000D03*
X31349999Y-163000000D03*
X275600000Y-49849999D03*
X230400000Y-4150000D03*
X235600000Y-129850000D03*
X74650000Y-291000000D03*
X110400000Y-4150000D03*
X194650000Y-51000000D03*
X110400000Y-164150000D03*
X31349999Y-3000000D03*
X71350000Y-3000000D03*
X151350000Y-3000000D03*
X235600000Y-49849999D03*
X30400000Y-164150000D03*
X71350000Y-83000000D03*
X194650000Y-131000000D03*
X115600000Y-289850000D03*
X151350000Y-163000000D03*
X30400000Y-244150000D03*
X154650000Y-51000000D03*
X190400000Y-244150000D03*
X151350000Y-243000000D03*
X70400000Y-164150000D03*
X270400000Y-164150000D03*
X194650000Y-291000000D03*
X235600000Y-209850000D03*
X70400000Y-4150000D03*
X114650000Y-51000000D03*
X315600000Y-289850000D03*
X110400000Y-244150000D03*
X310400000Y-164150000D03*
X70400000Y-84150000D03*
X75600000Y-129850000D03*
X34650000Y-51000000D03*
X150400000Y-164150000D03*
X35599999Y-289850000D03*
X234650000Y-291000000D03*
G04 #@! TO.N,LED_DATA_5V*
X69650000Y-342500000D03*
X28400001Y-285400000D03*
G04 #@! TO.N,LED_DATA_A2_TO_A3*
X24400000Y-205400000D03*
X24400000Y-248600000D03*
G04 #@! TO.N,LED_DATA_A4_TO_A5*
X24400000Y-125400000D03*
X24400000Y-168600000D03*
G04 #@! TO.N,LED_DATA_A6_TO_A7*
X24400000Y-88600000D03*
X24400000Y-45400000D03*
G04 #@! TO.N,LED_EN*
X112850000Y-343000000D03*
G04 #@! TO.N,LED_OE_N*
X82300000Y-340000000D03*
X85300000Y-336190000D03*
X86700000Y-349050000D03*
G04 #@! TO.N,LED_SW_GATE*
X100472500Y-349905000D03*
X86700000Y-350950000D03*
G04 #@! TO.N,RUN*
X74150000Y-26800000D03*
X75250000Y-23250000D03*
X63250000Y-22750000D03*
G04 #@! TO.N,SPI_CLK_3V3*
X85300000Y-341270000D03*
G04 #@! TO.N,SPI_DATA_3V3*
X84250000Y-334500000D03*
G04 #@! TO.N,SQ_A1*
X70350000Y-277365000D03*
X15949998Y-300950000D03*
G04 #@! TO.N,SQ_A3*
X70350000Y-197365000D03*
X15949998Y-220950000D03*
G04 #@! TO.N,SQ_A5*
X70350000Y-117365000D03*
X15949998Y-140950000D03*
G04 #@! TO.N,SQ_A7*
X70350000Y-37365000D03*
X15949998Y-60950000D03*
G04 #@! TO.N,SQ_A8*
X15949998Y-20949998D03*
X72350000Y-39904999D03*
G04 #@! TO.N,SQ_B1*
X55950000Y-300950000D03*
X73350000Y-278634999D03*
G04 #@! TO.N,SQ_B2*
X55950000Y-260950000D03*
X71350000Y-281175000D03*
G04 #@! TO.N,SQ_B3*
X73350000Y-198634999D03*
X55950000Y-220950000D03*
G04 #@! TO.N,SQ_B4*
X55950000Y-180950000D03*
X71350000Y-201175000D03*
G04 #@! TO.N,SQ_B5*
X73350000Y-118634999D03*
X55950000Y-140950000D03*
G04 #@! TO.N,SQ_B6*
X71350000Y-121175000D03*
X55950000Y-100950000D03*
G04 #@! TO.N,SQ_B7*
X73350000Y-38634997D03*
X55950000Y-60950000D03*
G04 #@! TO.N,SQ_B8*
X55950000Y-20949998D03*
X71350000Y-41175000D03*
G04 #@! TO.N,SQ_C1*
X86650000Y-282445000D03*
X95950000Y-300950000D03*
G04 #@! TO.N,SQ_C3*
X86650000Y-202445000D03*
X95950000Y-220950000D03*
G04 #@! TO.N,SQ_C5*
X95950000Y-140950000D03*
X86650000Y-122445000D03*
G04 #@! TO.N,SQ_C7*
X95950000Y-60950000D03*
X86650000Y-42444998D03*
G04 #@! TO.N,SQ_D1*
X87650000Y-281175000D03*
X135950000Y-300950000D03*
G04 #@! TO.N,SQ_D2*
X89650000Y-278634999D03*
X135950000Y-260950000D03*
G04 #@! TO.N,SQ_D3*
X87650000Y-201175000D03*
X135950000Y-220950000D03*
G04 #@! TO.N,SQ_D4*
X135950000Y-180950000D03*
X89650000Y-198634999D03*
G04 #@! TO.N,SQ_D5*
X87650000Y-121175000D03*
X135950000Y-140950000D03*
G04 #@! TO.N,SQ_D6*
X89650000Y-118634999D03*
X135950000Y-100950000D03*
G04 #@! TO.N,SQ_D7*
X135950000Y-60950000D03*
X87650000Y-41175000D03*
G04 #@! TO.N,SQ_D8*
X89650000Y-38634997D03*
X135950000Y-20949998D03*
G04 #@! TO.N,SQ_E1*
X228000000Y-279500000D03*
X175950000Y-300950000D03*
G04 #@! TO.N,SQ_E3*
X230350000Y-197365000D03*
X175950000Y-220950000D03*
G04 #@! TO.N,SQ_E5*
X230350000Y-117365000D03*
X175950000Y-140950000D03*
G04 #@! TO.N,SQ_E7*
X175950000Y-60950000D03*
X230350000Y-37365000D03*
G04 #@! TO.N,SQ_F1*
X215950000Y-300950000D03*
X233250000Y-285750000D03*
X233350000Y-278634999D03*
G04 #@! TO.N,SQ_F2*
X231350000Y-281175000D03*
X226500000Y-279000000D03*
G04 #@! TO.N,SQ_F3*
X215950000Y-220950000D03*
X233350000Y-198634999D03*
G04 #@! TO.N,SQ_F4*
X231350000Y-201175000D03*
X215950000Y-180950000D03*
G04 #@! TO.N,SQ_F5*
X215950000Y-140950000D03*
X233350000Y-118634999D03*
G04 #@! TO.N,SQ_F6*
X215950000Y-100950000D03*
X231350000Y-121175000D03*
G04 #@! TO.N,SQ_F7*
X233350000Y-38634997D03*
X215950000Y-60950000D03*
G04 #@! TO.N,SQ_F8*
X215950000Y-20949998D03*
X231350000Y-41175000D03*
G04 #@! TO.N,SQ_G1*
X255950000Y-300950000D03*
X246650000Y-282445000D03*
G04 #@! TO.N,SQ_G3*
X255950000Y-220950000D03*
X246650000Y-202445000D03*
G04 #@! TO.N,SQ_G5*
X246650000Y-122445000D03*
X255950000Y-140950000D03*
G04 #@! TO.N,SQ_G7*
X255950000Y-60950000D03*
X246650000Y-42444998D03*
G04 #@! TO.N,SQ_H1*
X247650000Y-281175000D03*
X295950000Y-300950000D03*
G04 #@! TO.N,SQ_H2*
X249650000Y-278634999D03*
X295950000Y-260950000D03*
G04 #@! TO.N,SQ_H3*
X247650000Y-201175000D03*
X295950000Y-220950000D03*
G04 #@! TO.N,SQ_H4*
X249650000Y-198634999D03*
X295950000Y-180950000D03*
G04 #@! TO.N,SQ_H5*
X295950000Y-140950000D03*
X247650000Y-121175000D03*
G04 #@! TO.N,SQ_H6*
X295950000Y-100950000D03*
X249650000Y-118634999D03*
G04 #@! TO.N,SQ_H7*
X247650000Y-41175000D03*
X295950000Y-60950000D03*
G04 #@! TO.N,SQ_H8*
X249650000Y-38634997D03*
X295950000Y-20949998D03*
G04 #@! TD*
D19*
G04 #@! TO.N,BTN_DOWN*
X164000000Y-335750000D02*
X163250000Y-335750000D01*
X268250000Y-229250000D02*
X264500000Y-229250000D01*
X170250000Y-327500000D02*
X170250000Y-329500000D01*
X171750000Y-332000000D02*
X171750000Y-330750000D01*
X256750000Y-232250000D02*
X256750000Y-232750000D01*
X268230000Y-229230000D02*
X268250000Y-229250000D01*
X171750000Y-330750000D02*
X172750000Y-329750000D01*
X256500000Y-241250000D02*
X170250000Y-327500000D01*
X264500000Y-229250000D02*
X263750000Y-228500000D01*
X256500000Y-233000000D02*
X256500000Y-241250000D01*
X256750000Y-232750000D02*
X256500000Y-233000000D01*
X158500000Y-345250000D02*
X171750000Y-332000000D01*
X158500000Y-347500000D02*
X158500000Y-345250000D01*
X163250000Y-335750000D02*
X155000000Y-344000000D01*
X170250000Y-329500000D02*
X164000000Y-335750000D01*
X260500000Y-228500000D02*
X256750000Y-232250000D01*
X269030000Y-233730000D02*
X268230000Y-229230000D01*
X155000000Y-347500000D02*
X158500000Y-347500000D01*
X263750000Y-228500000D02*
X260500000Y-228500000D01*
X155000000Y-344000000D02*
X155000000Y-347500000D01*
G04 #@! TO.N,BTN_OK*
X263950000Y-236270000D02*
X264750000Y-240770000D01*
X264750000Y-240770000D02*
X264750000Y-240750000D01*
X264750000Y-285750000D02*
X220750000Y-329750000D01*
X264750000Y-240750000D02*
X264750000Y-285750000D01*
G04 #@! TO.N,BTN_PASS*
X171000000Y-331500000D02*
X156750000Y-345750000D01*
X257250000Y-233500000D02*
X257250000Y-241750000D01*
X257500000Y-232750000D02*
X257500000Y-233250000D01*
X263950000Y-233730000D02*
X263149999Y-229230000D01*
X171000000Y-328000000D02*
X171000000Y-331500000D01*
X263149999Y-229230000D02*
X263250000Y-229250000D01*
X263250000Y-229250000D02*
X261000000Y-229250000D01*
X261000000Y-229250000D02*
X257500000Y-232750000D01*
X257500000Y-233250000D02*
X257250000Y-233500000D01*
X257250000Y-241750000D02*
X171000000Y-328000000D01*
G04 #@! TO.N,BTN_UP*
X256000000Y-232250000D02*
X196000000Y-292250000D01*
X271570000Y-233730000D02*
X272370000Y-229230000D01*
X264250000Y-227750000D02*
X260000000Y-227750000D01*
X265000000Y-228500000D02*
X264250000Y-227750000D01*
X194500000Y-292250000D02*
X183000000Y-303750000D01*
X196000000Y-292250000D02*
X194500000Y-292250000D01*
X268750000Y-228500000D02*
X265000000Y-228500000D01*
X260000000Y-227750000D02*
X256000000Y-231750000D01*
X182750000Y-303750000D02*
X156750000Y-329750000D01*
X183000000Y-303750000D02*
X182750000Y-303750000D01*
X269500000Y-229250000D02*
X268750000Y-228500000D01*
X272250000Y-229250000D02*
X269500000Y-229250000D01*
X256000000Y-231750000D02*
X256000000Y-232250000D01*
X272370000Y-229230000D02*
X272250000Y-229250000D01*
G04 #@! TO.N,I2C_SCL*
X211000000Y-289250000D02*
X210750000Y-289250000D01*
X300750000Y-232750000D02*
X300500000Y-232750000D01*
X246250000Y-201250000D02*
X245250000Y-201250000D01*
X194750000Y-305500000D02*
X194500000Y-305500000D01*
X189000000Y-311250000D02*
X188750000Y-311250000D01*
X199250000Y-300750000D02*
X199250000Y-301000000D01*
X215250000Y-285000000D02*
X215000000Y-285000000D01*
X247250000Y-200000000D02*
X246250000Y-200000000D01*
X181000000Y-319000000D02*
X181000000Y-319250000D01*
X182750000Y-317500000D02*
X182500000Y-317500000D01*
X185750000Y-314500000D02*
X185500000Y-314500000D01*
X203500000Y-296750000D02*
X203250000Y-296750000D01*
X182000000Y-318000000D02*
X182000000Y-318250000D01*
X85250000Y-281250000D02*
X86250000Y-281250000D01*
X249750000Y-252750000D02*
X250000000Y-252750000D01*
X273500000Y-227750000D02*
X270250000Y-227750000D01*
X235000000Y-276250000D02*
X235000000Y-283750000D01*
X177250000Y-323000000D02*
X177000000Y-323000000D01*
X247750000Y-36000000D02*
X247650000Y-36095000D01*
X206250000Y-293750000D02*
X206250000Y-294000000D01*
X207750000Y-292500000D02*
X207500000Y-292500000D01*
X205000000Y-295000000D02*
X205000000Y-295250000D01*
X201000000Y-299000000D02*
X201000000Y-299250000D01*
X200000000Y-300000000D02*
X200000000Y-300250000D01*
X190750000Y-309500000D02*
X190500000Y-309500000D01*
X249750000Y-252500000D02*
X249750000Y-252750000D01*
X269750000Y-227250000D02*
X269750000Y-227000000D01*
X85250000Y-314500000D02*
X85250000Y-281250000D01*
X202500000Y-297750000D02*
X202250000Y-297750000D01*
X247750000Y-116250000D02*
X250000000Y-116250000D01*
X201000000Y-299250000D02*
X200750000Y-299250000D01*
X193000000Y-307000000D02*
X193000000Y-307250000D01*
X247750000Y-118500000D02*
X247750000Y-116000000D01*
X204500000Y-295500000D02*
X204500000Y-295750000D01*
X205000000Y-295250000D02*
X204750000Y-295250000D01*
X205500000Y-294750000D02*
X205250000Y-294750000D01*
X247750000Y-203750000D02*
X247750000Y-235250000D01*
X185000000Y-315250000D02*
X184750000Y-315250000D01*
X210000000Y-290000000D02*
X210000000Y-290250000D01*
X192000000Y-308000000D02*
X192000000Y-308250000D01*
X270000000Y-227500000D02*
X270000000Y-227250000D01*
X203000000Y-297250000D02*
X202750000Y-297250000D01*
X186500000Y-313750000D02*
X186250000Y-313750000D01*
X181250000Y-318750000D02*
X181250000Y-319000000D01*
X87750000Y-116250000D02*
X90000000Y-116250000D01*
X247650000Y-276095000D02*
X247750000Y-276000000D01*
X186750000Y-313500000D02*
X186500000Y-313500000D01*
X302049999Y-233730000D02*
X302000000Y-233750000D01*
X181500000Y-318750000D02*
X181250000Y-318750000D01*
X50750000Y-314500000D02*
X50500000Y-314500000D01*
X87650000Y-116095000D02*
X87750000Y-116000000D01*
X189750000Y-310250000D02*
X189750000Y-310500000D01*
X188750000Y-311500000D02*
X188500000Y-311500000D01*
X192750000Y-307500000D02*
X192500000Y-307500000D01*
X243750000Y-193000000D02*
X243750000Y-190500000D01*
X273750000Y-228000000D02*
X273500000Y-228000000D01*
X215750000Y-284500000D02*
X215500000Y-284500000D01*
X199000000Y-301000000D02*
X199000000Y-301250000D01*
X180500000Y-319500000D02*
X180500000Y-319750000D01*
X150500000Y-325000000D02*
X144750000Y-325000000D01*
X181750000Y-318500000D02*
X181500000Y-318500000D01*
X265500000Y-226750000D02*
X265500000Y-226500000D01*
X210750000Y-289250000D02*
X210750000Y-289500000D01*
X90000000Y-200000000D02*
X91000000Y-200000000D01*
X246250000Y-120000000D02*
X247250000Y-120000000D01*
X87250000Y-280000000D02*
X87250000Y-278500000D01*
X176750000Y-323250000D02*
X176750000Y-323500000D01*
X87750000Y-276250000D02*
X90000000Y-276250000D01*
X209500000Y-290750000D02*
X209250000Y-290750000D01*
X204750000Y-295250000D02*
X204750000Y-295500000D01*
X200500000Y-299500000D02*
X200500000Y-299750000D01*
X188750000Y-311250000D02*
X188750000Y-311500000D01*
X183750000Y-316250000D02*
X183750000Y-316500000D01*
X201250000Y-298750000D02*
X201250000Y-299000000D01*
X247750000Y-196250000D02*
X247250000Y-196250000D01*
X204250000Y-296000000D02*
X204000000Y-296000000D01*
X191250000Y-309000000D02*
X191000000Y-309000000D01*
X200250000Y-300000000D02*
X200000000Y-300000000D01*
X190000000Y-310000000D02*
X190000000Y-310250000D01*
X50500000Y-314500000D02*
X50500000Y-314562500D01*
X210250000Y-289750000D02*
X210250000Y-290000000D01*
X197250000Y-303000000D02*
X197000000Y-303000000D01*
X177250000Y-322750000D02*
X177250000Y-323000000D01*
X200500000Y-299750000D02*
X200250000Y-299750000D01*
X274500000Y-231000000D02*
X274500000Y-229000000D01*
X187500000Y-312750000D02*
X187250000Y-312750000D01*
X178500000Y-321750000D02*
X178250000Y-321750000D01*
X201750000Y-298250000D02*
X201750000Y-298500000D01*
X185000000Y-315000000D02*
X185000000Y-315250000D01*
X205250000Y-294750000D02*
X205250000Y-295000000D01*
X188500000Y-311500000D02*
X188500000Y-311750000D01*
X178000000Y-322250000D02*
X177750000Y-322250000D01*
X87250000Y-278500000D02*
X87750000Y-278500000D01*
X189500000Y-310750000D02*
X189250000Y-310750000D01*
X247750000Y-276250000D02*
X235000000Y-276250000D01*
X204750000Y-295500000D02*
X204500000Y-295500000D01*
X87750000Y-36000000D02*
X87650000Y-36095000D01*
X180000000Y-320000000D02*
X180000000Y-320250000D01*
X215750000Y-284250000D02*
X215750000Y-284500000D01*
X186000000Y-314000000D02*
X186000000Y-314250000D01*
X182000000Y-318250000D02*
X181750000Y-318250000D01*
X208250000Y-291750000D02*
X208250000Y-292000000D01*
X176250000Y-323750000D02*
X176250000Y-324000000D01*
X188500000Y-311750000D02*
X188250000Y-311750000D01*
X187500000Y-312500000D02*
X187500000Y-312750000D01*
X184500000Y-315750000D02*
X184250000Y-315750000D01*
X270250000Y-227500000D02*
X270000000Y-227500000D01*
X187250000Y-313000000D02*
X187000000Y-313000000D01*
X87750000Y-37250000D02*
X87750000Y-36000000D01*
X179000000Y-321250000D02*
X178750000Y-321250000D01*
X245000000Y-194750000D02*
X245000000Y-193000000D01*
X90000000Y-40000000D02*
X91000000Y-40000000D01*
X300500000Y-232500000D02*
X300250000Y-232500000D01*
X90000000Y-276250000D02*
X90000000Y-200000000D01*
X206500000Y-293750000D02*
X206250000Y-293750000D01*
X202000000Y-298000000D02*
X202000000Y-298250000D01*
X87750000Y-116000000D02*
X87650000Y-116095000D01*
X247750000Y-276250000D02*
X247750000Y-276000000D01*
X197000000Y-303250000D02*
X196750000Y-303250000D01*
X208500000Y-291750000D02*
X208250000Y-291750000D01*
X188000000Y-312250000D02*
X187750000Y-312250000D01*
X212250000Y-287750000D02*
X212250000Y-288000000D01*
X90000000Y-120000000D02*
X91000000Y-120000000D01*
X194250000Y-305750000D02*
X194250000Y-306000000D01*
X247250000Y-120000000D02*
X247250000Y-118500000D01*
X249750000Y-203750000D02*
X245250000Y-203750000D01*
X251000000Y-37250000D02*
X247750000Y-37250000D01*
X191250000Y-308750000D02*
X191250000Y-309000000D01*
X194250000Y-306000000D02*
X194000000Y-306000000D01*
X197750000Y-302250000D02*
X197750000Y-302500000D01*
X208000000Y-292250000D02*
X207750000Y-292250000D01*
X178500000Y-321500000D02*
X178500000Y-321750000D01*
X197500000Y-302500000D02*
X197500000Y-302750000D01*
X212000000Y-288000000D02*
X212000000Y-288250000D01*
X247750000Y-116000000D02*
X247650000Y-116095000D01*
X205500000Y-294500000D02*
X205500000Y-294750000D01*
X206250000Y-294000000D02*
X206000000Y-294000000D01*
X201750000Y-298500000D02*
X201500000Y-298500000D01*
X204250000Y-295750000D02*
X204250000Y-296000000D01*
X211500000Y-288500000D02*
X211500000Y-288750000D01*
X91000000Y-37250000D02*
X87750000Y-37250000D01*
X195000000Y-305250000D02*
X194750000Y-305250000D01*
X273750000Y-229000000D02*
X273750000Y-228000000D01*
X176750000Y-323500000D02*
X176500000Y-323500000D01*
X209250000Y-291000000D02*
X209000000Y-291000000D01*
X179250000Y-321000000D02*
X179000000Y-321000000D01*
X265250000Y-226500000D02*
X265250000Y-226250000D01*
X188250000Y-312000000D02*
X188000000Y-312000000D01*
X210500000Y-289500000D02*
X210500000Y-289750000D01*
X213500000Y-286500000D02*
X213500000Y-286750000D01*
X186500000Y-313500000D02*
X186500000Y-313750000D01*
X180250000Y-320000000D02*
X180000000Y-320000000D01*
X198000000Y-302250000D02*
X197750000Y-302250000D01*
X50750000Y-323750000D02*
X50750000Y-314500000D01*
X213000000Y-287250000D02*
X212750000Y-287250000D01*
X195750000Y-304500000D02*
X195500000Y-304500000D01*
X195750000Y-304250000D02*
X195750000Y-304500000D01*
X179750000Y-320500000D02*
X179500000Y-320500000D01*
X214750000Y-285500000D02*
X214500000Y-285500000D01*
X245250000Y-203750000D02*
X245250000Y-201250000D01*
X190250000Y-309750000D02*
X190250000Y-310000000D01*
X213750000Y-286500000D02*
X213500000Y-286500000D01*
X192500000Y-307750000D02*
X192250000Y-307750000D01*
X247250000Y-196250000D02*
X247250000Y-194750000D01*
X198500000Y-301750000D02*
X198250000Y-301750000D01*
X197750000Y-302500000D02*
X197500000Y-302500000D01*
X185750000Y-314250000D02*
X185750000Y-314500000D01*
X197250000Y-302750000D02*
X197250000Y-303000000D01*
X198250000Y-302000000D02*
X198000000Y-302000000D01*
X247750000Y-196000000D02*
X247750000Y-196250000D01*
X200750000Y-299500000D02*
X200500000Y-299500000D01*
X247750000Y-37250000D02*
X247750000Y-36000000D01*
X184250000Y-315750000D02*
X184250000Y-316000000D01*
X87750000Y-196000000D02*
X87650000Y-196095000D01*
X208250000Y-292000000D02*
X208000000Y-292000000D01*
X184000000Y-316250000D02*
X183750000Y-316250000D01*
X87750000Y-276000000D02*
X87750000Y-276250000D01*
X196250000Y-304000000D02*
X196000000Y-304000000D01*
X209000000Y-291250000D02*
X208750000Y-291250000D01*
X201500000Y-298750000D02*
X201250000Y-298750000D01*
X214250000Y-286000000D02*
X214000000Y-286000000D01*
X175750000Y-324500000D02*
X175500000Y-324500000D01*
X245000000Y-193000000D02*
X243750000Y-193000000D01*
X200000000Y-300250000D02*
X199750000Y-300250000D01*
X189500000Y-310500000D02*
X189500000Y-310750000D01*
X195250000Y-304750000D02*
X195250000Y-305000000D01*
X208000000Y-292000000D02*
X208000000Y-292250000D01*
X245250000Y-201250000D02*
X245250000Y-203750000D01*
X186000000Y-314250000D02*
X185750000Y-314250000D01*
X195000000Y-305000000D02*
X195000000Y-305250000D01*
X183250000Y-317000000D02*
X183000000Y-317000000D01*
X191500000Y-308500000D02*
X191500000Y-308750000D01*
X187250000Y-312750000D02*
X187250000Y-313000000D01*
X250000000Y-40000000D02*
X251000000Y-40000000D01*
X187750000Y-312250000D02*
X187750000Y-312500000D01*
X199500000Y-300500000D02*
X199500000Y-300750000D01*
X183000000Y-317000000D02*
X183000000Y-317250000D01*
X181750000Y-318250000D02*
X181750000Y-318500000D01*
X207500000Y-292500000D02*
X207500000Y-292750000D01*
X247250000Y-198500000D02*
X247250000Y-200000000D01*
X301000000Y-233000000D02*
X300750000Y-233000000D01*
X186750000Y-313250000D02*
X186750000Y-313500000D01*
X214750000Y-285250000D02*
X214750000Y-285500000D01*
X201250000Y-299000000D02*
X201000000Y-299000000D01*
X212000000Y-288250000D02*
X211750000Y-288250000D01*
X246250000Y-200000000D02*
X246250000Y-201250000D01*
X235000000Y-283750000D02*
X216250000Y-283750000D01*
X144750000Y-325000000D02*
X144750000Y-323750000D01*
X195500000Y-304750000D02*
X195250000Y-304750000D01*
X179750000Y-320250000D02*
X179750000Y-320500000D01*
X189750000Y-310500000D02*
X189500000Y-310500000D01*
X91000000Y-120000000D02*
X91000000Y-117250000D01*
X178250000Y-321750000D02*
X178250000Y-322000000D01*
X50500000Y-314562500D02*
X50500000Y-314500000D01*
X178750000Y-321250000D02*
X178750000Y-321500000D01*
X300500000Y-232750000D02*
X300500000Y-232500000D01*
X177000000Y-323250000D02*
X176750000Y-323250000D01*
X198500000Y-301500000D02*
X198500000Y-301750000D01*
X301000000Y-233750000D02*
X301000000Y-233000000D01*
X206750000Y-293500000D02*
X206500000Y-293500000D01*
X192250000Y-307750000D02*
X192250000Y-308000000D01*
X208500000Y-291500000D02*
X208500000Y-291750000D01*
X191750000Y-308500000D02*
X191500000Y-308500000D01*
X176000000Y-324000000D02*
X176000000Y-324250000D01*
X192000000Y-308250000D02*
X191750000Y-308250000D01*
X203750000Y-296500000D02*
X203500000Y-296500000D01*
X200750000Y-299250000D02*
X200750000Y-299500000D01*
X203250000Y-297000000D02*
X203000000Y-297000000D01*
X209250000Y-290750000D02*
X209250000Y-291000000D01*
X90000000Y-196250000D02*
X90000000Y-120000000D01*
X208750000Y-291500000D02*
X208500000Y-291500000D01*
X273500000Y-228000000D02*
X273500000Y-227750000D01*
X215500000Y-284500000D02*
X215500000Y-284750000D01*
X246250000Y-121250000D02*
X246250000Y-120000000D01*
X193250000Y-306750000D02*
X193250000Y-307000000D01*
X177750000Y-322500000D02*
X177500000Y-322500000D01*
X191750000Y-308250000D02*
X191750000Y-308500000D01*
X200250000Y-299750000D02*
X200250000Y-300000000D01*
X286500000Y-231000000D02*
X274500000Y-231000000D01*
X212500000Y-287500000D02*
X212500000Y-287750000D01*
X201500000Y-298500000D02*
X201500000Y-298750000D01*
X202750000Y-297250000D02*
X202750000Y-297500000D01*
X176500000Y-323750000D02*
X176250000Y-323750000D01*
X182750000Y-317250000D02*
X182750000Y-317500000D01*
X213000000Y-287000000D02*
X213000000Y-287250000D01*
X207000000Y-293250000D02*
X206750000Y-293250000D01*
X215000000Y-285250000D02*
X214750000Y-285250000D01*
X209750000Y-290500000D02*
X209500000Y-290500000D01*
X274500000Y-229000000D02*
X273750000Y-229000000D01*
X209000000Y-291000000D02*
X209000000Y-291250000D01*
X247750000Y-235250000D02*
X249750000Y-235250000D01*
X206750000Y-293250000D02*
X206750000Y-293500000D01*
X247750000Y-276000000D02*
X247750000Y-276250000D01*
X265250000Y-226250000D02*
X252000000Y-226250000D01*
X190000000Y-310250000D02*
X189750000Y-310250000D01*
X50500000Y-314500000D02*
X85250000Y-314500000D01*
X207250000Y-293000000D02*
X207000000Y-293000000D01*
X186250000Y-314000000D02*
X186000000Y-314000000D01*
X87650000Y-196095000D02*
X87750000Y-196000000D01*
X189250000Y-310750000D02*
X189250000Y-311000000D01*
X300250000Y-232500000D02*
X300250000Y-232250000D01*
X250000000Y-252750000D02*
X250000000Y-276250000D01*
X194500000Y-305750000D02*
X194250000Y-305750000D01*
X247250000Y-118500000D02*
X247750000Y-118500000D01*
X212250000Y-288000000D02*
X212000000Y-288000000D01*
X213250000Y-286750000D02*
X213250000Y-287000000D01*
X193500000Y-306750000D02*
X193250000Y-306750000D01*
X192500000Y-307500000D02*
X192500000Y-307750000D01*
X208750000Y-291250000D02*
X208750000Y-291500000D01*
X185500000Y-314500000D02*
X185500000Y-314750000D01*
X246250000Y-201250000D02*
X246250000Y-200000000D01*
X198750000Y-301250000D02*
X198750000Y-301500000D01*
X245250000Y-190500000D02*
X245250000Y-121250000D01*
X250000000Y-276250000D02*
X247750000Y-276250000D01*
X91000000Y-117250000D02*
X87750000Y-117250000D01*
X177750000Y-322250000D02*
X177750000Y-322500000D01*
X247750000Y-276000000D02*
X247650000Y-276095000D01*
X247250000Y-198500000D02*
X247750000Y-198500000D01*
X198000000Y-302000000D02*
X198000000Y-302250000D01*
X184750000Y-315500000D02*
X184500000Y-315500000D01*
X199000000Y-301250000D02*
X198750000Y-301250000D01*
X87750000Y-196000000D02*
X87750000Y-196250000D01*
X91000000Y-200000000D02*
X91000000Y-197250000D01*
X213750000Y-286250000D02*
X213750000Y-286500000D01*
X247750000Y-198500000D02*
X247750000Y-196000000D01*
X175500000Y-324500000D02*
X175500000Y-325000000D01*
X183250000Y-316750000D02*
X183250000Y-317000000D01*
X193750000Y-306250000D02*
X193750000Y-306500000D01*
X187750000Y-312500000D02*
X187500000Y-312500000D01*
X203500000Y-296500000D02*
X203500000Y-296750000D01*
X286500000Y-232250000D02*
X286500000Y-231000000D01*
X188000000Y-312000000D02*
X188000000Y-312250000D01*
X247650000Y-116095000D02*
X247750000Y-116000000D01*
X179250000Y-320750000D02*
X179250000Y-321000000D01*
X179000000Y-321000000D02*
X179000000Y-321250000D01*
X216000000Y-284250000D02*
X215750000Y-284250000D01*
X86250000Y-280000000D02*
X87250000Y-280000000D01*
X211250000Y-289000000D02*
X211000000Y-289000000D01*
X211750000Y-288250000D02*
X211750000Y-288500000D01*
X192750000Y-307250000D02*
X192750000Y-307500000D01*
X245250000Y-201250000D02*
X246250000Y-201250000D01*
X270250000Y-227750000D02*
X270250000Y-227500000D01*
X247250000Y-200000000D02*
X247250000Y-198500000D01*
X214000000Y-286000000D02*
X214000000Y-286250000D01*
X205250000Y-295000000D02*
X205000000Y-295000000D01*
X197000000Y-303000000D02*
X197000000Y-303250000D01*
X199750000Y-300250000D02*
X199750000Y-300500000D01*
X210500000Y-289750000D02*
X210250000Y-289750000D01*
X196250000Y-303750000D02*
X196250000Y-304000000D01*
X214500000Y-285750000D02*
X214250000Y-285750000D01*
X190750000Y-309250000D02*
X190750000Y-309500000D01*
X190500000Y-309750000D02*
X190250000Y-309750000D01*
X180750000Y-319500000D02*
X180500000Y-319500000D01*
X213250000Y-287000000D02*
X213000000Y-287000000D01*
X202750000Y-297500000D02*
X202500000Y-297500000D01*
X210000000Y-290250000D02*
X209750000Y-290250000D01*
X190500000Y-309500000D02*
X190500000Y-309750000D01*
X175750000Y-324250000D02*
X175750000Y-324500000D01*
X197500000Y-302750000D02*
X197250000Y-302750000D01*
X203750000Y-296250000D02*
X203750000Y-296500000D01*
X300250000Y-232250000D02*
X286500000Y-232250000D01*
X205750000Y-294500000D02*
X205500000Y-294500000D01*
X191000000Y-309000000D02*
X191000000Y-309250000D01*
X87650000Y-276095000D02*
X87750000Y-276000000D01*
X87750000Y-197250000D02*
X87750000Y-196000000D01*
X194500000Y-305500000D02*
X194500000Y-305750000D01*
X213500000Y-286750000D02*
X213250000Y-286750000D01*
X191500000Y-308750000D02*
X191250000Y-308750000D01*
X211750000Y-288500000D02*
X211500000Y-288500000D01*
X247750000Y-196000000D02*
X247750000Y-198500000D01*
X150375000Y-325000000D02*
X150500000Y-325000000D01*
X179500000Y-320500000D02*
X179500000Y-320750000D01*
X212750000Y-287250000D02*
X212750000Y-287500000D01*
X187000000Y-313250000D02*
X186750000Y-313250000D01*
X245250000Y-121250000D02*
X246250000Y-121250000D01*
X206000000Y-294250000D02*
X205750000Y-294250000D01*
X185250000Y-315000000D02*
X185000000Y-315000000D01*
X247650000Y-196095000D02*
X247750000Y-196000000D01*
X243750000Y-190500000D02*
X245250000Y-190500000D01*
X247750000Y-198500000D02*
X247250000Y-198500000D01*
X184750000Y-315250000D02*
X184750000Y-315500000D01*
X87750000Y-278500000D02*
X87750000Y-276000000D01*
X198250000Y-301750000D02*
X198250000Y-302000000D01*
X183000000Y-317250000D02*
X182750000Y-317250000D01*
X183500000Y-316750000D02*
X183250000Y-316750000D01*
X215500000Y-284750000D02*
X215250000Y-284750000D01*
X196000000Y-304000000D02*
X196000000Y-304250000D01*
X196750000Y-303250000D02*
X196750000Y-303500000D01*
X269750000Y-227000000D02*
X265750000Y-227000000D01*
X182500000Y-317500000D02*
X182500000Y-317750000D01*
X184500000Y-315500000D02*
X184500000Y-315750000D01*
X87750000Y-116000000D02*
X87750000Y-116250000D01*
X204500000Y-295750000D02*
X204250000Y-295750000D01*
X202500000Y-297500000D02*
X202500000Y-297750000D01*
X178000000Y-322000000D02*
X178000000Y-322250000D01*
X176500000Y-323500000D02*
X176500000Y-323750000D01*
X216000000Y-284000000D02*
X216000000Y-284250000D01*
X300750000Y-233000000D02*
X300750000Y-232750000D01*
X195250000Y-305000000D02*
X195000000Y-305000000D01*
X212500000Y-287750000D02*
X212250000Y-287750000D01*
X214500000Y-285500000D02*
X214500000Y-285750000D01*
X207250000Y-292750000D02*
X207250000Y-293000000D01*
X193750000Y-306500000D02*
X193500000Y-306500000D01*
X196500000Y-303500000D02*
X196500000Y-303750000D01*
X207500000Y-292750000D02*
X207250000Y-292750000D01*
X215250000Y-284750000D02*
X215250000Y-285000000D01*
X194000000Y-306000000D02*
X194000000Y-306250000D01*
X203250000Y-296750000D02*
X203250000Y-297000000D01*
X199500000Y-300750000D02*
X199250000Y-300750000D01*
X252000000Y-226250000D02*
X252000000Y-203750000D01*
X199750000Y-300500000D02*
X199500000Y-300500000D01*
X193250000Y-307000000D02*
X193000000Y-307000000D01*
X193000000Y-307250000D02*
X192750000Y-307250000D01*
X216250000Y-284000000D02*
X216000000Y-284000000D01*
X270000000Y-227250000D02*
X269750000Y-227250000D01*
X176250000Y-324000000D02*
X176000000Y-324000000D01*
X247650000Y-196095000D02*
X247750000Y-196000000D01*
X182500000Y-317750000D02*
X182250000Y-317750000D01*
X180000000Y-320250000D02*
X179750000Y-320250000D01*
X202250000Y-297750000D02*
X202250000Y-298000000D01*
X185250000Y-314750000D02*
X185250000Y-315000000D01*
X190250000Y-310000000D02*
X190000000Y-310000000D01*
X210250000Y-290000000D02*
X210000000Y-290000000D01*
X203000000Y-297000000D02*
X203000000Y-297250000D01*
X87750000Y-196250000D02*
X90000000Y-196250000D01*
X87750000Y-117250000D02*
X87750000Y-116000000D01*
X195500000Y-304500000D02*
X195500000Y-304750000D01*
X91000000Y-197250000D02*
X87750000Y-197250000D01*
X184000000Y-316000000D02*
X184000000Y-316250000D01*
X86250000Y-281250000D02*
X86250000Y-280000000D01*
X191000000Y-309250000D02*
X190750000Y-309250000D01*
X193500000Y-306500000D02*
X193500000Y-306750000D01*
X204000000Y-296250000D02*
X203750000Y-296250000D01*
X245250000Y-203750000D02*
X247750000Y-203750000D01*
X189000000Y-311000000D02*
X189000000Y-311250000D01*
X265750000Y-227000000D02*
X265750000Y-226750000D01*
X210750000Y-289500000D02*
X210500000Y-289500000D01*
X209500000Y-290500000D02*
X209500000Y-290750000D01*
X207000000Y-293000000D02*
X207000000Y-293250000D01*
X192250000Y-308000000D02*
X192000000Y-308000000D01*
X188250000Y-311750000D02*
X188250000Y-312000000D01*
X178750000Y-321500000D02*
X178500000Y-321500000D01*
X215000000Y-285000000D02*
X215000000Y-285250000D01*
X181000000Y-319250000D02*
X180750000Y-319250000D01*
X186250000Y-313750000D02*
X186250000Y-314000000D01*
X209750000Y-290250000D02*
X209750000Y-290500000D01*
X265500000Y-226500000D02*
X265250000Y-226500000D01*
X183750000Y-316500000D02*
X183500000Y-316500000D01*
X181500000Y-318500000D02*
X181500000Y-318750000D01*
X180500000Y-319750000D02*
X180250000Y-319750000D01*
X179500000Y-320750000D02*
X179250000Y-320750000D01*
X196750000Y-303500000D02*
X196500000Y-303500000D01*
X183500000Y-316500000D02*
X183500000Y-316750000D01*
X211000000Y-289000000D02*
X211000000Y-289250000D01*
X247750000Y-116000000D02*
X247750000Y-116250000D01*
X202000000Y-298250000D02*
X201750000Y-298250000D01*
X185500000Y-314750000D02*
X185250000Y-314750000D01*
X199250000Y-301000000D02*
X199000000Y-301000000D01*
X265750000Y-226750000D02*
X265500000Y-226750000D01*
X202250000Y-298000000D02*
X202000000Y-298000000D01*
X184250000Y-316000000D02*
X184000000Y-316000000D01*
X251000000Y-40000000D02*
X251000000Y-37250000D01*
X90000000Y-116250000D02*
X90000000Y-40000000D01*
X177500000Y-322750000D02*
X177250000Y-322750000D01*
X207750000Y-292250000D02*
X207750000Y-292500000D01*
X211500000Y-288750000D02*
X211250000Y-288750000D01*
X177500000Y-322500000D02*
X177500000Y-322750000D01*
X194000000Y-306250000D02*
X193750000Y-306250000D01*
X247750000Y-196000000D02*
X247650000Y-196095000D01*
X247250000Y-194750000D02*
X245000000Y-194750000D01*
X250000000Y-116250000D02*
X250000000Y-40000000D01*
X177000000Y-323000000D02*
X177000000Y-323250000D01*
X198750000Y-301500000D02*
X198500000Y-301500000D01*
X204000000Y-296000000D02*
X204000000Y-296250000D01*
X214250000Y-285750000D02*
X214250000Y-286000000D01*
X178250000Y-322000000D02*
X178000000Y-322000000D01*
X206000000Y-294000000D02*
X206000000Y-294250000D01*
X144750000Y-323750000D02*
X50750000Y-323750000D01*
X87750000Y-276000000D02*
X87650000Y-276095000D01*
X187000000Y-313000000D02*
X187000000Y-313250000D01*
X194750000Y-305250000D02*
X194750000Y-305500000D01*
X189250000Y-311000000D02*
X189000000Y-311000000D01*
X180750000Y-319250000D02*
X180750000Y-319500000D01*
X211250000Y-288750000D02*
X211250000Y-289000000D01*
X216250000Y-283750000D02*
X216250000Y-284000000D01*
X180250000Y-319750000D02*
X180250000Y-320000000D01*
X205750000Y-294250000D02*
X205750000Y-294500000D01*
X196500000Y-303750000D02*
X196250000Y-303750000D01*
X181250000Y-319000000D02*
X181000000Y-319000000D01*
X206500000Y-293500000D02*
X206500000Y-293750000D01*
X176000000Y-324250000D02*
X175750000Y-324250000D01*
X182250000Y-317750000D02*
X182250000Y-318000000D01*
X214000000Y-286250000D02*
X213750000Y-286250000D01*
X212750000Y-287500000D02*
X212500000Y-287500000D01*
X91000000Y-40000000D02*
X91000000Y-37250000D01*
X182250000Y-318000000D02*
X182000000Y-318000000D01*
X302000000Y-233750000D02*
X301000000Y-233750000D01*
X246250000Y-200000000D02*
X247250000Y-200000000D01*
X196000000Y-304250000D02*
X195750000Y-304250000D01*
G04 #@! TO.N,I2C_SDA*
X265000000Y-227500000D02*
X265000000Y-227250000D01*
X264750000Y-227000000D02*
X251000000Y-227000000D01*
X265250000Y-227500000D02*
X265000000Y-227500000D01*
X227750000Y-272500000D02*
X227500000Y-272500000D01*
X269250000Y-227750000D02*
X265250000Y-227750000D01*
X227000000Y-273250000D02*
X226750000Y-273250000D01*
X227000000Y-273000000D02*
X227000000Y-273250000D01*
X234750000Y-272250000D02*
X227750000Y-272250000D01*
X248750000Y-194750000D02*
X248650000Y-194825000D01*
X265250000Y-227750000D02*
X265250000Y-227500000D01*
X269750000Y-228500000D02*
X269750000Y-228250000D01*
X269250000Y-228000000D02*
X269250000Y-227750000D01*
X248750000Y-197250000D02*
X248750000Y-194750000D01*
X227250000Y-272750000D02*
X227250000Y-273000000D01*
X273000000Y-230250000D02*
X273000000Y-228500000D01*
X226500000Y-273500000D02*
X226500000Y-273750000D01*
X273000000Y-228500000D02*
X269750000Y-228500000D01*
X264750000Y-227250000D02*
X264750000Y-227000000D01*
X227750000Y-272250000D02*
X227750000Y-272500000D01*
X226000000Y-274000000D02*
X226000000Y-274250000D01*
X269500000Y-228000000D02*
X269250000Y-228000000D01*
X265000000Y-227250000D02*
X264750000Y-227250000D01*
X226000000Y-274250000D02*
X225750000Y-274250000D01*
X227500000Y-272500000D02*
X227500000Y-272750000D01*
X269750000Y-228250000D02*
X269500000Y-228250000D01*
X269500000Y-228250000D02*
X269500000Y-228000000D01*
X248000000Y-274750000D02*
X234750000Y-274750000D01*
X225750000Y-274250000D02*
X225750000Y-274750000D01*
X248750000Y-274750000D02*
X248650000Y-274825000D01*
X226500000Y-273750000D02*
X226250000Y-273750000D01*
X226250000Y-274000000D02*
X226000000Y-274000000D01*
X251000000Y-227000000D02*
X251000000Y-197250000D01*
X226250000Y-273750000D02*
X226250000Y-274000000D01*
X226750000Y-273250000D02*
X226750000Y-273500000D01*
X251000000Y-197250000D02*
X248750000Y-197250000D01*
X226750000Y-273500000D02*
X226500000Y-273500000D01*
X248750000Y-254000000D02*
X248750000Y-274750000D01*
X273250000Y-230250000D02*
X273000000Y-230250000D01*
X234750000Y-274750000D02*
X234750000Y-272250000D01*
X227250000Y-273000000D02*
X227000000Y-273000000D01*
X227500000Y-272750000D02*
X227250000Y-272750000D01*
G04 #@! TO.N,SQ_B8*
X62750000Y-31250000D02*
X62750000Y-33000000D01*
X62500000Y-30750000D02*
X62500000Y-31000000D01*
X55950000Y-20949998D02*
X56000000Y-21000000D01*
X62750000Y-33000000D02*
X71000000Y-41250000D01*
X71250000Y-41250000D02*
X71350000Y-41175000D01*
X56000000Y-21000000D02*
X56000000Y-24250000D01*
X62500000Y-31000000D02*
X62750000Y-31250000D01*
X56000000Y-24250000D02*
X62500000Y-30750000D01*
X71000000Y-41250000D02*
X71250000Y-41250000D01*
G04 #@! TO.N,SQ_D2*
X135950000Y-260950000D02*
X136000000Y-261000000D01*
X107500000Y-261000000D02*
X89750000Y-278750000D01*
X89750000Y-278750000D02*
X89650000Y-278634999D01*
X136000000Y-261000000D02*
X107500000Y-261000000D01*
G04 #@! TO.N,SQ_F1*
X218250000Y-301000000D02*
X219000000Y-300250000D01*
X219000000Y-300250000D02*
X219000000Y-298500000D01*
X215950000Y-300950000D02*
X216000000Y-301000000D01*
X229000000Y-288500000D02*
X230500000Y-288500000D01*
X219000000Y-298500000D02*
X229000000Y-288500000D01*
X230500000Y-288500000D02*
X233250000Y-285750000D01*
X216000000Y-301000000D02*
X218250000Y-301000000D01*
G04 #@! TD*
M02*
