G04 #@! TF.GenerationSoftware,KiCad,Pcbnew,9.0.9-9.0.9~ubuntu24.04.1*
G04 #@! TF.CreationDate,2026-10-07T17:00:06+00:00*
G04 #@! TF.ProjectId,chess-board,63686573-732d-4626-9f61-72642e6b6963,rev?*
G04 #@! TF.SameCoordinates,Original*
G04 #@! TF.FileFunction,Legend,Top*
G04 #@! TF.FilePolarity,Positive*
%FSLAX46Y46*%
G04 Gerber Fmt 4.6, Leading zero omitted, Abs format (unit mm)*
G04 Created by KiCad (PCBNEW 9.0.9-9.0.9~ubuntu24.04.1) date 2026-10-07 17:00:06*
%MOMM*%
%LPD*%
G01*
G04 APERTURE LIST*
G04 Aperture macros list*
%AMRoundRect*
0 Rectangle with rounded corners*
0 $1 Rounding radius*
0 $2 $3 $4 $5 $6 $7 $8 $9 X,Y pos of 4 corners*
0 Add a 4 corners polygon primitive as box body*
4,1,4,$2,$3,$4,$5,$6,$7,$8,$9,$2,$3,0*
0 Add four circle primitives for the rounded corners*
1,1,$1+$1,$2,$3*
1,1,$1+$1,$4,$5*
1,1,$1+$1,$6,$7*
1,1,$1+$1,$8,$9*
0 Add four rect primitives between the rounded corners*
20,1,$1+$1,$2,$3,$4,$5,0*
20,1,$1+$1,$4,$5,$6,$7,0*
20,1,$1+$1,$6,$7,$8,$9,0*
20,1,$1+$1,$8,$9,$2,$3,0*%
%AMFreePoly0*
4,1,7,0.300000,-0.150000,-0.300000,-0.150000,-0.300000,0.150000,0.050000,0.150000,0.050000,0.500000,0.300000,0.500000,0.300000,-0.150000,0.300000,-0.150000,$1*%
%AMFreePoly1*
4,1,7,0.300000,-0.500000,0.050000,-0.500000,0.050000,-0.150000,-0.300000,-0.150000,-0.300000,0.150000,0.300000,0.150000,0.300000,-0.500000,0.300000,-0.500000,$1*%
%AMFreePoly2*
4,1,7,0.300000,-0.150000,-0.050000,-0.150000,-0.050000,-0.500000,-0.300000,-0.500000,-0.300000,0.150000,0.300000,0.150000,0.300000,-0.150000,0.300000,-0.150000,$1*%
%AMFreePoly3*
4,1,7,-0.050000,0.150000,0.300000,0.150000,0.300000,-0.150000,-0.300000,-0.150000,-0.300000,0.500000,-0.050000,0.500000,-0.050000,0.150000,-0.050000,0.150000,$1*%
G04 Aperture macros list end*
%ADD10C,0.600000*%
%ADD11C,0.200000*%
%ADD12RoundRect,0.050000X-0.650000X-0.300000X0.650000X-0.300000X0.650000X0.300000X-0.650000X0.300000X0*%
%ADD13O,1.400000X0.700000*%
%ADD14RoundRect,0.050000X-0.325000X-0.350000X0.325000X-0.350000X0.325000X0.350000X-0.325000X0.350000X0*%
%ADD15RoundRect,0.050000X-1.725000X-0.925000X1.725000X-0.925000X1.725000X0.925000X-1.725000X0.925000X0*%
%ADD16RoundRect,0.050000X-0.900000X-0.600000X0.900000X-0.600000X0.900000X0.600000X-0.900000X0.600000X0*%
%ADD17O,1.900000X1.300000*%
%ADD18RoundRect,0.050000X0.325000X0.350000X-0.325000X0.350000X-0.325000X-0.350000X0.325000X-0.350000X0*%
%ADD19RoundRect,0.050000X0.900000X0.600000X-0.900000X0.600000X-0.900000X-0.600000X0.900000X-0.600000X0*%
%ADD20RoundRect,0.050000X-0.980000X-1.575000X0.980000X-1.575000X0.980000X1.575000X-0.980000X1.575000X0*%
%ADD21RoundRect,0.050000X-0.450000X-0.400000X0.450000X-0.400000X0.450000X0.400000X-0.450000X0.400000X0*%
%ADD22RoundRect,0.050000X-1.000000X-0.300000X1.000000X-0.300000X1.000000X0.300000X-1.000000X0.300000X0*%
%ADD23O,2.100000X0.700000*%
%ADD24C,3.400000*%
%ADD25RoundRect,0.050000X-0.900000X-0.900000X0.900000X-0.900000X0.900000X0.900000X-0.900000X0.900000X0*%
%ADD26C,1.900000*%
%ADD27RoundRect,0.050000X-0.350000X-0.650000X0.350000X-0.650000X0.350000X0.650000X-0.350000X0.650000X0*%
%ADD28RoundRect,0.050000X-0.775000X-0.300000X0.775000X-0.300000X0.775000X0.300000X-0.775000X0.300000X0*%
%ADD29O,1.650000X0.700000*%
%ADD30RoundRect,0.050000X0.450000X0.400000X-0.450000X0.400000X-0.450000X-0.400000X0.450000X-0.400000X0*%
%ADD31RoundRect,0.050000X-0.597000X-0.279500X0.597000X-0.279500X0.597000X0.279500X-0.597000X0.279500X0*%
%ADD32O,1.294000X0.659000*%
%ADD33RoundRect,0.050000X0.550000X0.300000X-0.550000X0.300000X-0.550000X-0.300000X0.550000X-0.300000X0*%
%ADD34O,1.200000X0.700000*%
%ADD35RoundRect,0.050000X-0.280000X-0.475000X0.280000X-0.475000X0.280000X0.475000X-0.280000X0.475000X0*%
%ADD36O,0.660000X1.050000*%
%ADD37RoundRect,0.050000X-0.400000X0.450000X-0.400000X-0.450000X0.400000X-0.450000X0.400000X0.450000X0*%
%ADD38FreePoly0,0.000000*%
%ADD39R,0.600000X0.250000*%
%ADD40FreePoly1,0.000000*%
%ADD41R,0.300000X2.400000*%
%ADD42FreePoly2,0.000000*%
%ADD43FreePoly3,0.000000*%
%ADD44RoundRect,0.050000X1.080000X1.130000X-1.080000X1.130000X-1.080000X-1.130000X1.080000X-1.130000X0*%
%ADD45RoundRect,0.050000X-0.300000X-0.775000X0.300000X-0.775000X0.300000X0.775000X-0.300000X0.775000X0*%
%ADD46O,0.700000X1.650000*%
%ADD47O,1.300000X1.900000*%
%ADD48RoundRect,0.050000X0.350000X-0.325000X0.350000X0.325000X-0.350000X0.325000X-0.350000X-0.325000X0*%
%ADD49RoundRect,0.050000X0.850000X0.850000X-0.850000X0.850000X-0.850000X-0.850000X0.850000X-0.850000X0*%
%ADD50C,1.800000*%
%ADD51RoundRect,0.050000X-1.225000X-1.225000X1.225000X-1.225000X1.225000X1.225000X-1.225000X1.225000X0*%
%ADD52C,2.550000*%
%ADD53RoundRect,0.050000X0.910000X-0.910000X0.910000X0.910000X-0.910000X0.910000X-0.910000X-0.910000X0*%
%ADD54C,1.920000*%
G04 APERTURE END LIST*
D10*
X7990000Y-40000000D02*
X8009999Y-40000000D01*
X7990000Y-80000000D02*
X8009999Y-80000000D01*
X7990000Y-120000000D02*
X8009999Y-120000000D01*
X7990000Y-160000000D02*
X8009999Y-160000000D01*
X7990000Y-200000000D02*
X8009999Y-200000000D01*
X7990000Y-240000000D02*
X8009999Y-240000000D01*
X7990000Y-280000000D02*
X8009999Y-280000000D01*
X15990000Y-40000000D02*
X16009999Y-40000000D01*
X15990000Y-80000000D02*
X16009999Y-80000000D01*
X15990000Y-120000000D02*
X16009999Y-120000000D01*
X15990000Y-160000000D02*
X16009999Y-160000000D01*
X15990000Y-200000000D02*
X16009999Y-200000000D01*
X15990000Y-240000000D02*
X16009999Y-240000000D01*
X15990000Y-280000000D02*
X16009999Y-280000000D01*
X23990000Y-40000000D02*
X24009999Y-40000000D01*
X23990000Y-80000000D02*
X24009999Y-80000000D01*
X23990000Y-120000000D02*
X24009999Y-120000000D01*
X23990000Y-160000000D02*
X24009999Y-160000000D01*
X23990000Y-200000000D02*
X24009999Y-200000000D01*
X23990000Y-240000000D02*
X24009999Y-240000000D01*
X23990000Y-280000000D02*
X24009999Y-280000000D01*
X31990000Y-40000000D02*
X32010000Y-40000000D01*
X31990000Y-80000000D02*
X32010000Y-80000000D01*
X31990000Y-120000000D02*
X32010000Y-120000000D01*
X31990000Y-160000000D02*
X32010000Y-160000000D01*
X31990000Y-200000000D02*
X32010000Y-200000000D01*
X31990000Y-240000000D02*
X32010000Y-240000000D01*
X31990000Y-280000000D02*
X32010000Y-280000000D01*
X39989999Y-8000000D02*
X40010000Y-8000000D01*
X39989999Y-16000000D02*
X40010000Y-16000000D01*
X39989999Y-24000000D02*
X40010000Y-24000000D01*
X39989999Y-32000000D02*
X40010000Y-32000000D01*
X39989999Y-48000000D02*
X40010000Y-48000000D01*
X39989999Y-56000000D02*
X40010000Y-56000000D01*
X39989999Y-64000000D02*
X40010000Y-64000000D01*
X39989999Y-72000000D02*
X40010000Y-72000000D01*
X39989999Y-80000000D02*
X40010000Y-80000000D01*
X39989999Y-88000000D02*
X40010000Y-88000000D01*
X39989999Y-96000000D02*
X40010000Y-96000000D01*
X39989999Y-104000000D02*
X40010000Y-104000000D01*
X39989999Y-112000000D02*
X40010000Y-112000000D01*
X39989999Y-128000000D02*
X40010000Y-128000000D01*
X39989999Y-136000000D02*
X40010000Y-136000000D01*
X39989999Y-144000000D02*
X40010000Y-144000000D01*
X39989999Y-152000000D02*
X40010000Y-152000000D01*
X39989999Y-160000000D02*
X40010000Y-160000000D01*
X39989999Y-168000000D02*
X40010000Y-168000000D01*
X39989999Y-176000000D02*
X40010000Y-176000000D01*
X39989999Y-184000000D02*
X40010000Y-184000000D01*
X39989999Y-192000000D02*
X40010000Y-192000000D01*
X39989999Y-208000000D02*
X40010000Y-208000000D01*
X39989999Y-216000000D02*
X40010000Y-216000000D01*
X39989999Y-224000000D02*
X40010000Y-224000000D01*
X39989999Y-232000000D02*
X40010000Y-232000000D01*
X39989999Y-240000000D02*
X40010000Y-240000000D01*
X39989999Y-248000000D02*
X40010000Y-248000000D01*
X39989999Y-256000000D02*
X40010000Y-256000000D01*
X39989999Y-264000000D02*
X40010000Y-264000000D01*
X39989999Y-272000000D02*
X40010000Y-272000000D01*
X39989999Y-288000000D02*
X40010000Y-288000000D01*
X39989999Y-296000000D02*
X40010000Y-296000000D01*
X39989999Y-304000000D02*
X40010000Y-304000000D01*
X39989999Y-312000000D02*
X40010000Y-312000000D01*
X47989999Y-40000000D02*
X48010000Y-40000000D01*
X47989999Y-80000000D02*
X48010000Y-80000000D01*
X47989999Y-120000000D02*
X48010000Y-120000000D01*
X47989999Y-160000000D02*
X48010000Y-160000000D01*
X47989999Y-200000000D02*
X48010000Y-200000000D01*
X47989999Y-240000000D02*
X48010000Y-240000000D01*
X47989999Y-280000000D02*
X48010000Y-280000000D01*
X55989999Y-40000000D02*
X56010000Y-40000000D01*
X55989999Y-80000000D02*
X56010000Y-80000000D01*
X55989999Y-120000000D02*
X56010000Y-120000000D01*
X55989999Y-160000000D02*
X56010000Y-160000000D01*
X55989999Y-200000000D02*
X56010000Y-200000000D01*
X55989999Y-240000000D02*
X56010000Y-240000000D01*
X55989999Y-280000000D02*
X56010000Y-280000000D01*
X63989999Y-40000000D02*
X64010000Y-40000000D01*
X63989999Y-80000000D02*
X64010000Y-80000000D01*
X63989999Y-120000000D02*
X64010000Y-120000000D01*
X63989999Y-160000000D02*
X64010000Y-160000000D01*
X63989999Y-200000000D02*
X64010000Y-200000000D01*
X63989999Y-240000000D02*
X64010000Y-240000000D01*
X63989999Y-280000000D02*
X64010000Y-280000000D01*
X71990000Y-40000000D02*
X72010000Y-40000000D01*
X71990000Y-80000000D02*
X72010000Y-80000000D01*
X71990000Y-120000000D02*
X72010000Y-120000000D01*
X71990000Y-160000000D02*
X72010000Y-160000000D01*
X71990000Y-200000000D02*
X72010000Y-200000000D01*
X71990000Y-240000000D02*
X72010000Y-240000000D01*
X71990000Y-280000000D02*
X72010000Y-280000000D01*
X79990000Y-8000000D02*
X80010000Y-8000000D01*
X79990000Y-16000000D02*
X80010000Y-16000000D01*
X79990000Y-24000000D02*
X80010000Y-24000000D01*
X79990000Y-32000000D02*
X80010000Y-32000000D01*
X79990000Y-40000000D02*
X80010000Y-40000000D01*
X79990000Y-48000000D02*
X80010000Y-48000000D01*
X79990000Y-56000000D02*
X80010000Y-56000000D01*
X79990000Y-64000000D02*
X80010000Y-64000000D01*
X79990000Y-72000000D02*
X80010000Y-72000000D01*
X79990000Y-80000000D02*
X80010000Y-80000000D01*
X79990000Y-88000000D02*
X80010000Y-88000000D01*
X79990000Y-96000000D02*
X80010000Y-96000000D01*
X79990000Y-104000000D02*
X80010000Y-104000000D01*
X79990000Y-112000000D02*
X80010000Y-112000000D01*
X79990000Y-120000000D02*
X80010000Y-120000000D01*
X79990000Y-128000000D02*
X80010000Y-128000000D01*
X79990000Y-136000000D02*
X80010000Y-136000000D01*
X79990000Y-144000000D02*
X80010000Y-144000000D01*
X79990000Y-152000000D02*
X80010000Y-152000000D01*
X79990000Y-160000000D02*
X80010000Y-160000000D01*
X79990000Y-168000000D02*
X80010000Y-168000000D01*
X79990000Y-176000000D02*
X80010000Y-176000000D01*
X79990000Y-184000000D02*
X80010000Y-184000000D01*
X79990000Y-192000000D02*
X80010000Y-192000000D01*
X79990000Y-200000000D02*
X80010000Y-200000000D01*
X79990000Y-208000000D02*
X80010000Y-208000000D01*
X79990000Y-216000000D02*
X80010000Y-216000000D01*
X79990000Y-224000000D02*
X80010000Y-224000000D01*
X79990000Y-232000000D02*
X80010000Y-232000000D01*
X79990000Y-240000000D02*
X80010000Y-240000000D01*
X79990000Y-248000000D02*
X80010000Y-248000000D01*
X79990000Y-256000000D02*
X80010000Y-256000000D01*
X79990000Y-264000000D02*
X80010000Y-264000000D01*
X79990000Y-272000000D02*
X80010000Y-272000000D01*
X79990000Y-280000000D02*
X80010000Y-280000000D01*
X79990000Y-288000000D02*
X80010000Y-288000000D01*
X79990000Y-296000000D02*
X80010000Y-296000000D01*
X79990000Y-304000000D02*
X80010000Y-304000000D01*
X79990000Y-312000000D02*
X80010000Y-312000000D01*
X87990000Y-40000000D02*
X88010000Y-40000000D01*
X87990000Y-80000000D02*
X88010000Y-80000000D01*
X87990000Y-120000000D02*
X88010000Y-120000000D01*
X87990000Y-160000000D02*
X88010000Y-160000000D01*
X87990000Y-200000000D02*
X88010000Y-200000000D01*
X87990000Y-240000000D02*
X88010000Y-240000000D01*
X87990000Y-280000000D02*
X88010000Y-280000000D01*
X95990000Y-40000000D02*
X96009999Y-40000000D01*
X95990000Y-80000000D02*
X96009999Y-80000000D01*
X95990000Y-120000000D02*
X96009999Y-120000000D01*
X95990000Y-160000000D02*
X96009999Y-160000000D01*
X95990000Y-200000000D02*
X96009999Y-200000000D01*
X95990000Y-240000000D02*
X96009999Y-240000000D01*
X95990000Y-280000000D02*
X96009999Y-280000000D01*
X103990000Y-40000000D02*
X104009999Y-40000000D01*
X103990000Y-80000000D02*
X104009999Y-80000000D01*
X103990000Y-120000000D02*
X104009999Y-120000000D01*
X103990000Y-160000000D02*
X104009999Y-160000000D01*
X103990000Y-200000000D02*
X104009999Y-200000000D01*
X103990000Y-240000000D02*
X104009999Y-240000000D01*
X103990000Y-280000000D02*
X104009999Y-280000000D01*
X111990000Y-40000000D02*
X112009999Y-40000000D01*
X111990000Y-80000000D02*
X112009999Y-80000000D01*
X111990000Y-120000000D02*
X112009999Y-120000000D01*
X111990000Y-160000000D02*
X112009999Y-160000000D01*
X111990000Y-200000000D02*
X112009999Y-200000000D01*
X111990000Y-240000000D02*
X112009999Y-240000000D01*
X111990000Y-280000000D02*
X112009999Y-280000000D01*
X119990000Y-8000000D02*
X120009999Y-8000000D01*
X119990000Y-16000000D02*
X120009999Y-16000000D01*
X119990000Y-24000000D02*
X120009999Y-24000000D01*
X119990000Y-32000000D02*
X120009999Y-32000000D01*
X119990000Y-48000000D02*
X120009999Y-48000000D01*
X119990000Y-56000000D02*
X120009999Y-56000000D01*
X119990000Y-64000000D02*
X120009999Y-64000000D01*
X119990000Y-72000000D02*
X120009999Y-72000000D01*
X119990000Y-80000000D02*
X120009999Y-80000000D01*
X119990000Y-88000000D02*
X120009999Y-88000000D01*
X119990000Y-96000000D02*
X120009999Y-96000000D01*
X119990000Y-104000000D02*
X120009999Y-104000000D01*
X119990000Y-112000000D02*
X120009999Y-112000000D01*
X119990000Y-128000000D02*
X120009999Y-128000000D01*
X119990000Y-136000000D02*
X120009999Y-136000000D01*
X119990000Y-144000000D02*
X120009999Y-144000000D01*
X119990000Y-152000000D02*
X120009999Y-152000000D01*
X119990000Y-160000000D02*
X120009999Y-160000000D01*
X119990000Y-168000000D02*
X120009999Y-168000000D01*
X119990000Y-176000000D02*
X120009999Y-176000000D01*
X119990000Y-184000000D02*
X120009999Y-184000000D01*
X119990000Y-192000000D02*
X120009999Y-192000000D01*
X119990000Y-208000000D02*
X120009999Y-208000000D01*
X119990000Y-216000000D02*
X120009999Y-216000000D01*
X119990000Y-224000000D02*
X120009999Y-224000000D01*
X119990000Y-232000000D02*
X120009999Y-232000000D01*
X119990000Y-240000000D02*
X120009999Y-240000000D01*
X119990000Y-248000000D02*
X120009999Y-248000000D01*
X119990000Y-256000000D02*
X120009999Y-256000000D01*
X119990000Y-264000000D02*
X120009999Y-264000000D01*
X119990000Y-272000000D02*
X120009999Y-272000000D01*
X119990000Y-288000000D02*
X120009999Y-288000000D01*
X119990000Y-296000000D02*
X120009999Y-296000000D01*
X119990000Y-304000000D02*
X120009999Y-304000000D01*
X119990000Y-312000000D02*
X120009999Y-312000000D01*
X127990000Y-40000000D02*
X128009999Y-40000000D01*
X127990000Y-80000000D02*
X128009999Y-80000000D01*
X127990000Y-120000000D02*
X128009999Y-120000000D01*
X127990000Y-160000000D02*
X128009999Y-160000000D01*
X127990000Y-200000000D02*
X128009999Y-200000000D01*
X127990000Y-240000000D02*
X128009999Y-240000000D01*
X127990000Y-280000000D02*
X128009999Y-280000000D01*
X135990000Y-40000000D02*
X136010000Y-40000000D01*
X135990000Y-80000000D02*
X136010000Y-80000000D01*
X135990000Y-120000000D02*
X136010000Y-120000000D01*
X135990000Y-160000000D02*
X136010000Y-160000000D01*
X135990000Y-200000000D02*
X136010000Y-200000000D01*
X135990000Y-240000000D02*
X136010000Y-240000000D01*
X135990000Y-280000000D02*
X136010000Y-280000000D01*
X143990000Y-40000000D02*
X144010000Y-40000000D01*
X143990000Y-80000000D02*
X144010000Y-80000000D01*
X143990000Y-120000000D02*
X144010000Y-120000000D01*
X143990000Y-160000000D02*
X144010000Y-160000000D01*
X143990000Y-200000000D02*
X144010000Y-200000000D01*
X143990000Y-240000000D02*
X144010000Y-240000000D01*
X143990000Y-280000000D02*
X144010000Y-280000000D01*
X151990000Y-40000000D02*
X152010000Y-40000000D01*
X151990000Y-80000000D02*
X152010000Y-80000000D01*
X151990000Y-120000000D02*
X152010000Y-120000000D01*
X151990000Y-160000000D02*
X152010000Y-160000000D01*
X151990000Y-200000000D02*
X152010000Y-200000000D01*
X151990000Y-240000000D02*
X152010000Y-240000000D01*
X151990000Y-280000000D02*
X152010000Y-280000000D01*
X159990000Y-8000000D02*
X160010000Y-8000000D01*
X159990000Y-16000000D02*
X160010000Y-16000000D01*
X159990000Y-24000000D02*
X160010000Y-24000000D01*
X159990000Y-32000000D02*
X160010000Y-32000000D01*
X159990000Y-40000000D02*
X160010000Y-40000000D01*
X159990000Y-48000000D02*
X160010000Y-48000000D01*
X159990000Y-56000000D02*
X160010000Y-56000000D01*
X159990000Y-64000000D02*
X160010000Y-64000000D01*
X159990000Y-72000000D02*
X160010000Y-72000000D01*
X159990000Y-80000000D02*
X160010000Y-80000000D01*
X159990000Y-88000000D02*
X160010000Y-88000000D01*
X159990000Y-96000000D02*
X160010000Y-96000000D01*
X159990000Y-104000000D02*
X160010000Y-104000000D01*
X159990000Y-112000000D02*
X160010000Y-112000000D01*
X159990000Y-120000000D02*
X160010000Y-120000000D01*
X159990000Y-128000000D02*
X160010000Y-128000000D01*
X159990000Y-136000000D02*
X160010000Y-136000000D01*
X159990000Y-144000000D02*
X160010000Y-144000000D01*
X159990000Y-152000000D02*
X160010000Y-152000000D01*
X159990000Y-160000000D02*
X160010000Y-160000000D01*
X159990000Y-168000000D02*
X160010000Y-168000000D01*
X159990000Y-176000000D02*
X160010000Y-176000000D01*
X159990000Y-184000000D02*
X160010000Y-184000000D01*
X159990000Y-192000000D02*
X160010000Y-192000000D01*
X159990000Y-200000000D02*
X160010000Y-200000000D01*
X159990000Y-208000000D02*
X160010000Y-208000000D01*
X159990000Y-216000000D02*
X160010000Y-216000000D01*
X159990000Y-224000000D02*
X160010000Y-224000000D01*
X159990000Y-232000000D02*
X160010000Y-232000000D01*
X159990000Y-240000000D02*
X160010000Y-240000000D01*
X159990000Y-248000000D02*
X160010000Y-248000000D01*
X159990000Y-256000000D02*
X160010000Y-256000000D01*
X159990000Y-264000000D02*
X160010000Y-264000000D01*
X159990000Y-272000000D02*
X160010000Y-272000000D01*
X159990000Y-280000000D02*
X160010000Y-280000000D01*
X159990000Y-288000000D02*
X160010000Y-288000000D01*
X159990000Y-296000000D02*
X160010000Y-296000000D01*
X159990000Y-304000000D02*
X160010000Y-304000000D01*
X159990000Y-312000000D02*
X160010000Y-312000000D01*
X167990000Y-40000000D02*
X168010000Y-40000000D01*
X167990000Y-80000000D02*
X168010000Y-80000000D01*
X167990000Y-120000000D02*
X168010000Y-120000000D01*
X167990000Y-160000000D02*
X168010000Y-160000000D01*
X167990000Y-200000000D02*
X168010000Y-200000000D01*
X167990000Y-240000000D02*
X168010000Y-240000000D01*
X167990000Y-280000000D02*
X168010000Y-280000000D01*
X175990000Y-40000000D02*
X176010000Y-40000000D01*
X175990000Y-80000000D02*
X176010000Y-80000000D01*
X175990000Y-120000000D02*
X176010000Y-120000000D01*
X175990000Y-160000000D02*
X176010000Y-160000000D01*
X175990000Y-200000000D02*
X176010000Y-200000000D01*
X175990000Y-240000000D02*
X176010000Y-240000000D01*
X175990000Y-280000000D02*
X176010000Y-280000000D01*
X183990000Y-40000000D02*
X184010000Y-40000000D01*
X183990000Y-80000000D02*
X184010000Y-80000000D01*
X183990000Y-120000000D02*
X184010000Y-120000000D01*
X183990000Y-160000000D02*
X184010000Y-160000000D01*
X183990000Y-200000000D02*
X184010000Y-200000000D01*
X183990000Y-240000000D02*
X184010000Y-240000000D01*
X183990000Y-280000000D02*
X184010000Y-280000000D01*
X191990000Y-40000000D02*
X192010000Y-40000000D01*
X191990000Y-80000000D02*
X192010000Y-80000000D01*
X191990000Y-120000000D02*
X192010000Y-120000000D01*
X191990000Y-160000000D02*
X192010000Y-160000000D01*
X191990000Y-200000000D02*
X192010000Y-200000000D01*
X191990000Y-240000000D02*
X192010000Y-240000000D01*
X191990000Y-280000000D02*
X192010000Y-280000000D01*
X199990000Y-8000000D02*
X200010000Y-8000000D01*
X199990000Y-16000000D02*
X200010000Y-16000000D01*
X199990000Y-24000000D02*
X200010000Y-24000000D01*
X199990000Y-32000000D02*
X200010000Y-32000000D01*
X199990000Y-48000000D02*
X200010000Y-48000000D01*
X199990000Y-56000000D02*
X200010000Y-56000000D01*
X199990000Y-64000000D02*
X200010000Y-64000000D01*
X199990000Y-72000000D02*
X200010000Y-72000000D01*
X199990000Y-80000000D02*
X200010000Y-80000000D01*
X199990000Y-88000000D02*
X200010000Y-88000000D01*
X199990000Y-96000000D02*
X200010000Y-96000000D01*
X199990000Y-104000000D02*
X200010000Y-104000000D01*
X199990000Y-112000000D02*
X200010000Y-112000000D01*
X199990000Y-128000000D02*
X200010000Y-128000000D01*
X199990000Y-136000000D02*
X200010000Y-136000000D01*
X199990000Y-144000000D02*
X200010000Y-144000000D01*
X199990000Y-152000000D02*
X200010000Y-152000000D01*
X199990000Y-160000000D02*
X200010000Y-160000000D01*
X199990000Y-168000000D02*
X200010000Y-168000000D01*
X199990000Y-176000000D02*
X200010000Y-176000000D01*
X199990000Y-184000000D02*
X200010000Y-184000000D01*
X199990000Y-192000000D02*
X200010000Y-192000000D01*
X199990000Y-208000000D02*
X200010000Y-208000000D01*
X199990000Y-216000000D02*
X200010000Y-216000000D01*
X199990000Y-224000000D02*
X200010000Y-224000000D01*
X199990000Y-232000000D02*
X200010000Y-232000000D01*
X199990000Y-240000000D02*
X200010000Y-240000000D01*
X199990000Y-248000000D02*
X200010000Y-248000000D01*
X199990000Y-256000000D02*
X200010000Y-256000000D01*
X199990000Y-264000000D02*
X200010000Y-264000000D01*
X199990000Y-272000000D02*
X200010000Y-272000000D01*
X199990000Y-288000000D02*
X200010000Y-288000000D01*
X199990000Y-296000000D02*
X200010000Y-296000000D01*
X199990000Y-304000000D02*
X200010000Y-304000000D01*
X199990000Y-312000000D02*
X200010000Y-312000000D01*
X207990000Y-40000000D02*
X208010000Y-40000000D01*
X207990000Y-80000000D02*
X208010000Y-80000000D01*
X207990000Y-120000000D02*
X208010000Y-120000000D01*
X207990000Y-160000000D02*
X208010000Y-160000000D01*
X207990000Y-200000000D02*
X208010000Y-200000000D01*
X207990000Y-240000000D02*
X208010000Y-240000000D01*
X207990000Y-280000000D02*
X208010000Y-280000000D01*
X215990000Y-40000000D02*
X216010000Y-40000000D01*
X215990000Y-80000000D02*
X216010000Y-80000000D01*
X215990000Y-120000000D02*
X216010000Y-120000000D01*
X215990000Y-160000000D02*
X216010000Y-160000000D01*
X215990000Y-200000000D02*
X216010000Y-200000000D01*
X215990000Y-240000000D02*
X216010000Y-240000000D01*
X215990000Y-280000000D02*
X216010000Y-280000000D01*
X223990000Y-40000000D02*
X224010000Y-40000000D01*
X223990000Y-80000000D02*
X224010000Y-80000000D01*
X223990000Y-120000000D02*
X224010000Y-120000000D01*
X223990000Y-160000000D02*
X224010000Y-160000000D01*
X223990000Y-200000000D02*
X224010000Y-200000000D01*
X223990000Y-240000000D02*
X224010000Y-240000000D01*
X223990000Y-280000000D02*
X224010000Y-280000000D01*
X231990000Y-40000000D02*
X232010000Y-40000000D01*
X231990000Y-80000000D02*
X232010000Y-80000000D01*
X231990000Y-120000000D02*
X232010000Y-120000000D01*
X231990000Y-160000000D02*
X232010000Y-160000000D01*
X231990000Y-200000000D02*
X232010000Y-200000000D01*
X231990000Y-240000000D02*
X232010000Y-240000000D01*
X231990000Y-280000000D02*
X232010000Y-280000000D01*
X239990000Y-8000000D02*
X240010000Y-8000000D01*
X239990000Y-16000000D02*
X240010000Y-16000000D01*
X239990000Y-24000000D02*
X240010000Y-24000000D01*
X239990000Y-32000000D02*
X240010000Y-32000000D01*
X239990000Y-40000000D02*
X240010000Y-40000000D01*
X239990000Y-48000000D02*
X240010000Y-48000000D01*
X239990000Y-56000000D02*
X240010000Y-56000000D01*
X239990000Y-64000000D02*
X240010000Y-64000000D01*
X239990000Y-72000000D02*
X240010000Y-72000000D01*
X239990000Y-80000000D02*
X240010000Y-80000000D01*
X239990000Y-88000000D02*
X240010000Y-88000000D01*
X239990000Y-96000000D02*
X240010000Y-96000000D01*
X239990000Y-104000000D02*
X240010000Y-104000000D01*
X239990000Y-112000000D02*
X240010000Y-112000000D01*
X239990000Y-120000000D02*
X240010000Y-120000000D01*
X239990000Y-128000000D02*
X240010000Y-128000000D01*
X239990000Y-136000000D02*
X240010000Y-136000000D01*
X239990000Y-144000000D02*
X240010000Y-144000000D01*
X239990000Y-152000000D02*
X240010000Y-152000000D01*
X239990000Y-160000000D02*
X240010000Y-160000000D01*
X239990000Y-168000000D02*
X240010000Y-168000000D01*
X239990000Y-176000000D02*
X240010000Y-176000000D01*
X239990000Y-184000000D02*
X240010000Y-184000000D01*
X239990000Y-192000000D02*
X240010000Y-192000000D01*
X239990000Y-200000000D02*
X240010000Y-200000000D01*
X239990000Y-208000000D02*
X240010000Y-208000000D01*
X239990000Y-216000000D02*
X240010000Y-216000000D01*
X239990000Y-224000000D02*
X240010000Y-224000000D01*
X239990000Y-232000000D02*
X240010000Y-232000000D01*
X239990000Y-240000000D02*
X240010000Y-240000000D01*
X239990000Y-248000000D02*
X240010000Y-248000000D01*
X239990000Y-256000000D02*
X240010000Y-256000000D01*
X239990000Y-264000000D02*
X240010000Y-264000000D01*
X239990000Y-272000000D02*
X240010000Y-272000000D01*
X239990000Y-280000000D02*
X240010000Y-280000000D01*
X239990000Y-288000000D02*
X240010000Y-288000000D01*
X239990000Y-296000000D02*
X240010000Y-296000000D01*
X239990000Y-304000000D02*
X240010000Y-304000000D01*
X239990000Y-312000000D02*
X240010000Y-312000000D01*
X247990000Y-40000000D02*
X248010000Y-40000000D01*
X247990000Y-80000000D02*
X248010000Y-80000000D01*
X247990000Y-120000000D02*
X248010000Y-120000000D01*
X247990000Y-160000000D02*
X248010000Y-160000000D01*
X247990000Y-200000000D02*
X248010000Y-200000000D01*
X247990000Y-240000000D02*
X248010000Y-240000000D01*
X247990000Y-280000000D02*
X248010000Y-280000000D01*
X255990000Y-40000000D02*
X256010000Y-40000000D01*
X255990000Y-80000000D02*
X256010000Y-80000000D01*
X255990000Y-120000000D02*
X256010000Y-120000000D01*
X255990000Y-160000000D02*
X256010000Y-160000000D01*
X255990000Y-200000000D02*
X256010000Y-200000000D01*
X255990000Y-240000000D02*
X256010000Y-240000000D01*
X255990000Y-280000000D02*
X256010000Y-280000000D01*
X263990000Y-40000000D02*
X264010000Y-40000000D01*
X263990000Y-80000000D02*
X264010000Y-80000000D01*
X263990000Y-120000000D02*
X264010000Y-120000000D01*
X263990000Y-160000000D02*
X264010000Y-160000000D01*
X263990000Y-200000000D02*
X264010000Y-200000000D01*
X263990000Y-240000000D02*
X264010000Y-240000000D01*
X263990000Y-280000000D02*
X264010000Y-280000000D01*
X271990000Y-40000000D02*
X272010000Y-40000000D01*
X271990000Y-80000000D02*
X272010000Y-80000000D01*
X271990000Y-120000000D02*
X272010000Y-120000000D01*
X271990000Y-160000000D02*
X272010000Y-160000000D01*
X271990000Y-200000000D02*
X272010000Y-200000000D01*
X271990000Y-240000000D02*
X272010000Y-240000000D01*
X271990000Y-280000000D02*
X272010000Y-280000000D01*
X279990000Y-8000000D02*
X280010000Y-8000000D01*
X279990000Y-16000000D02*
X280010000Y-16000000D01*
X279990000Y-24000000D02*
X280010000Y-24000000D01*
X279990000Y-32000000D02*
X280010000Y-32000000D01*
X279990000Y-48000000D02*
X280010000Y-48000000D01*
X279990000Y-56000000D02*
X280010000Y-56000000D01*
X279990000Y-64000000D02*
X280010000Y-64000000D01*
X279990000Y-72000000D02*
X280010000Y-72000000D01*
X279990000Y-80000000D02*
X280010000Y-80000000D01*
X279990000Y-88000000D02*
X280010000Y-88000000D01*
X279990000Y-96000000D02*
X280010000Y-96000000D01*
X279990000Y-104000000D02*
X280010000Y-104000000D01*
X279990000Y-112000000D02*
X280010000Y-112000000D01*
X279990000Y-128000000D02*
X280010000Y-128000000D01*
X279990000Y-136000000D02*
X280010000Y-136000000D01*
X279990000Y-144000000D02*
X280010000Y-144000000D01*
X279990000Y-152000000D02*
X280010000Y-152000000D01*
X279990000Y-160000000D02*
X280010000Y-160000000D01*
X279990000Y-168000000D02*
X280010000Y-168000000D01*
X279990000Y-176000000D02*
X280010000Y-176000000D01*
X279990000Y-184000000D02*
X280010000Y-184000000D01*
X279990000Y-192000000D02*
X280010000Y-192000000D01*
X279990000Y-208000000D02*
X280010000Y-208000000D01*
X279990000Y-216000000D02*
X280010000Y-216000000D01*
X279990000Y-224000000D02*
X280010000Y-224000000D01*
X279990000Y-232000000D02*
X280010000Y-232000000D01*
X279990000Y-240000000D02*
X280010000Y-240000000D01*
X279990000Y-248000000D02*
X280010000Y-248000000D01*
X279990000Y-256000000D02*
X280010000Y-256000000D01*
X279990000Y-264000000D02*
X280010000Y-264000000D01*
X279990000Y-272000000D02*
X280010000Y-272000000D01*
X279990000Y-288000000D02*
X280010000Y-288000000D01*
X279990000Y-296000000D02*
X280010000Y-296000000D01*
X279990000Y-304000000D02*
X280010000Y-304000000D01*
X279990000Y-312000000D02*
X280010000Y-312000000D01*
X287990000Y-40000000D02*
X288010000Y-40000000D01*
X287990000Y-80000000D02*
X288010000Y-80000000D01*
X287990000Y-120000000D02*
X288010000Y-120000000D01*
X287990000Y-160000000D02*
X288010000Y-160000000D01*
X287990000Y-200000000D02*
X288010000Y-200000000D01*
X287990000Y-240000000D02*
X288010000Y-240000000D01*
X287990000Y-280000000D02*
X288010000Y-280000000D01*
X295990000Y-40000000D02*
X296010000Y-40000000D01*
X295990000Y-80000000D02*
X296010000Y-80000000D01*
X295990000Y-120000000D02*
X296010000Y-120000000D01*
X295990000Y-160000000D02*
X296010000Y-160000000D01*
X295990000Y-200000000D02*
X296010000Y-200000000D01*
X295990000Y-240000000D02*
X296010000Y-240000000D01*
X295990000Y-280000000D02*
X296010000Y-280000000D01*
X303990000Y-40000000D02*
X304010000Y-40000000D01*
X303990000Y-80000000D02*
X304010000Y-80000000D01*
X303990000Y-120000000D02*
X304010000Y-120000000D01*
X303990000Y-160000000D02*
X304010000Y-160000000D01*
X303990000Y-200000000D02*
X304010000Y-200000000D01*
X303990000Y-240000000D02*
X304010000Y-240000000D01*
X303990000Y-280000000D02*
X304010000Y-280000000D01*
X311990000Y-40000000D02*
X312010000Y-40000000D01*
X311990000Y-80000000D02*
X312010000Y-80000000D01*
X311990000Y-120000000D02*
X312010000Y-120000000D01*
X311990000Y-160000000D02*
X312010000Y-160000000D01*
X311990000Y-200000000D02*
X312010000Y-200000000D01*
X311990000Y-240000000D02*
X312010000Y-240000000D01*
X311990000Y-280000000D02*
X312010000Y-280000000D01*
D11*
X27647619Y-278359695D02*
X27266667Y-278359695D01*
X27266667Y-278359695D02*
X27266667Y-277559695D01*
X27914286Y-277940647D02*
X28180952Y-277940647D01*
X28295238Y-278359695D02*
X27914286Y-278359695D01*
X27914286Y-278359695D02*
X27914286Y-277559695D01*
X27914286Y-277559695D02*
X28295238Y-277559695D01*
X28638096Y-278359695D02*
X28638096Y-277559695D01*
X28638096Y-277559695D02*
X28828572Y-277559695D01*
X28828572Y-277559695D02*
X28942858Y-277597790D01*
X28942858Y-277597790D02*
X29019048Y-277673980D01*
X29019048Y-277673980D02*
X29057143Y-277750171D01*
X29057143Y-277750171D02*
X29095239Y-277902552D01*
X29095239Y-277902552D02*
X29095239Y-278016838D01*
X29095239Y-278016838D02*
X29057143Y-278169219D01*
X29057143Y-278169219D02*
X29019048Y-278245409D01*
X29019048Y-278245409D02*
X28942858Y-278321600D01*
X28942858Y-278321600D02*
X28828572Y-278359695D01*
X28828572Y-278359695D02*
X28638096Y-278359695D01*
X30047620Y-278359695D02*
X30047620Y-277559695D01*
X30047620Y-277559695D02*
X30238096Y-277559695D01*
X30238096Y-277559695D02*
X30352382Y-277597790D01*
X30352382Y-277597790D02*
X30428572Y-277673980D01*
X30428572Y-277673980D02*
X30466667Y-277750171D01*
X30466667Y-277750171D02*
X30504763Y-277902552D01*
X30504763Y-277902552D02*
X30504763Y-278016838D01*
X30504763Y-278016838D02*
X30466667Y-278169219D01*
X30466667Y-278169219D02*
X30428572Y-278245409D01*
X30428572Y-278245409D02*
X30352382Y-278321600D01*
X30352382Y-278321600D02*
X30238096Y-278359695D01*
X30238096Y-278359695D02*
X30047620Y-278359695D01*
X30809524Y-278131123D02*
X31190477Y-278131123D01*
X30733334Y-278359695D02*
X31000001Y-277559695D01*
X31000001Y-277559695D02*
X31266667Y-278359695D01*
X31419048Y-277559695D02*
X31876191Y-277559695D01*
X31647619Y-278359695D02*
X31647619Y-277559695D01*
X32104762Y-278131123D02*
X32485715Y-278131123D01*
X32028572Y-278359695D02*
X32295239Y-277559695D01*
X32295239Y-277559695D02*
X32561905Y-278359695D01*
X33438096Y-278054933D02*
X34047620Y-278054933D01*
X33742858Y-278359695D02*
X33742858Y-277750171D01*
X35495239Y-278283504D02*
X35457143Y-278321600D01*
X35457143Y-278321600D02*
X35342858Y-278359695D01*
X35342858Y-278359695D02*
X35266667Y-278359695D01*
X35266667Y-278359695D02*
X35152381Y-278321600D01*
X35152381Y-278321600D02*
X35076191Y-278245409D01*
X35076191Y-278245409D02*
X35038096Y-278169219D01*
X35038096Y-278169219D02*
X35000000Y-278016838D01*
X35000000Y-278016838D02*
X35000000Y-277902552D01*
X35000000Y-277902552D02*
X35038096Y-277750171D01*
X35038096Y-277750171D02*
X35076191Y-277673980D01*
X35076191Y-277673980D02*
X35152381Y-277597790D01*
X35152381Y-277597790D02*
X35266667Y-277559695D01*
X35266667Y-277559695D02*
X35342858Y-277559695D01*
X35342858Y-277559695D02*
X35457143Y-277597790D01*
X35457143Y-277597790D02*
X35495239Y-277635885D01*
X36219048Y-278359695D02*
X35838096Y-278359695D01*
X35838096Y-278359695D02*
X35838096Y-277559695D01*
X36485715Y-278359695D02*
X36485715Y-277559695D01*
X36942858Y-278359695D02*
X36600000Y-277902552D01*
X36942858Y-277559695D02*
X36485715Y-278016838D01*
X37895239Y-278359695D02*
X37895239Y-277559695D01*
X38276191Y-278359695D02*
X38276191Y-277559695D01*
X38276191Y-277559695D02*
X38733334Y-278359695D01*
X38733334Y-278359695D02*
X38733334Y-277559695D01*
X39219046Y-313959695D02*
X39219046Y-314531123D01*
X39219046Y-314531123D02*
X39180951Y-314645409D01*
X39180951Y-314645409D02*
X39104760Y-314721600D01*
X39104760Y-314721600D02*
X38990475Y-314759695D01*
X38990475Y-314759695D02*
X38914284Y-314759695D01*
X39561903Y-314035885D02*
X39599999Y-313997790D01*
X39599999Y-313997790D02*
X39676189Y-313959695D01*
X39676189Y-313959695D02*
X39866665Y-313959695D01*
X39866665Y-313959695D02*
X39942856Y-313997790D01*
X39942856Y-313997790D02*
X39980951Y-314035885D01*
X39980951Y-314035885D02*
X40019046Y-314112076D01*
X40019046Y-314112076D02*
X40019046Y-314188266D01*
X40019046Y-314188266D02*
X39980951Y-314302552D01*
X39980951Y-314302552D02*
X39523808Y-314759695D01*
X39523808Y-314759695D02*
X40019046Y-314759695D01*
X41123809Y-313959695D02*
X41276190Y-313959695D01*
X41276190Y-313959695D02*
X41352380Y-313997790D01*
X41352380Y-313997790D02*
X41428571Y-314073980D01*
X41428571Y-314073980D02*
X41466666Y-314226361D01*
X41466666Y-314226361D02*
X41466666Y-314493028D01*
X41466666Y-314493028D02*
X41428571Y-314645409D01*
X41428571Y-314645409D02*
X41352380Y-314721600D01*
X41352380Y-314721600D02*
X41276190Y-314759695D01*
X41276190Y-314759695D02*
X41123809Y-314759695D01*
X41123809Y-314759695D02*
X41047618Y-314721600D01*
X41047618Y-314721600D02*
X40971428Y-314645409D01*
X40971428Y-314645409D02*
X40933332Y-314493028D01*
X40933332Y-314493028D02*
X40933332Y-314226361D01*
X40933332Y-314226361D02*
X40971428Y-314073980D01*
X40971428Y-314073980D02*
X41047618Y-313997790D01*
X41047618Y-313997790D02*
X41123809Y-313959695D01*
X42190475Y-314759695D02*
X41809523Y-314759695D01*
X41809523Y-314759695D02*
X41809523Y-313959695D01*
X42457142Y-314340647D02*
X42723808Y-314340647D01*
X42838094Y-314759695D02*
X42457142Y-314759695D01*
X42457142Y-314759695D02*
X42457142Y-313959695D01*
X42457142Y-313959695D02*
X42838094Y-313959695D01*
X43180952Y-314759695D02*
X43180952Y-313959695D01*
X43180952Y-313959695D02*
X43371428Y-313959695D01*
X43371428Y-313959695D02*
X43485714Y-313997790D01*
X43485714Y-313997790D02*
X43561904Y-314073980D01*
X43561904Y-314073980D02*
X43599999Y-314150171D01*
X43599999Y-314150171D02*
X43638095Y-314302552D01*
X43638095Y-314302552D02*
X43638095Y-314416838D01*
X43638095Y-314416838D02*
X43599999Y-314569219D01*
X43599999Y-314569219D02*
X43561904Y-314645409D01*
X43561904Y-314645409D02*
X43485714Y-314721600D01*
X43485714Y-314721600D02*
X43371428Y-314759695D01*
X43371428Y-314759695D02*
X43180952Y-314759695D01*
X43980952Y-314683504D02*
X44019047Y-314721600D01*
X44019047Y-314721600D02*
X43980952Y-314759695D01*
X43980952Y-314759695D02*
X43942856Y-314721600D01*
X43942856Y-314721600D02*
X43980952Y-314683504D01*
X43980952Y-314683504D02*
X43980952Y-314759695D01*
X43980952Y-314264457D02*
X44019047Y-314302552D01*
X44019047Y-314302552D02*
X43980952Y-314340647D01*
X43980952Y-314340647D02*
X43942856Y-314302552D01*
X43942856Y-314302552D02*
X43980952Y-314264457D01*
X43980952Y-314264457D02*
X43980952Y-314340647D01*
X45390475Y-314759695D02*
X44933332Y-314759695D01*
X45161904Y-314759695D02*
X45161904Y-313959695D01*
X45161904Y-313959695D02*
X45085713Y-314073980D01*
X45085713Y-314073980D02*
X45009523Y-314150171D01*
X45009523Y-314150171D02*
X44933332Y-314188266D01*
X46761904Y-313997790D02*
X46685714Y-313959695D01*
X46685714Y-313959695D02*
X46571428Y-313959695D01*
X46571428Y-313959695D02*
X46457142Y-313997790D01*
X46457142Y-313997790D02*
X46380952Y-314073980D01*
X46380952Y-314073980D02*
X46342857Y-314150171D01*
X46342857Y-314150171D02*
X46304761Y-314302552D01*
X46304761Y-314302552D02*
X46304761Y-314416838D01*
X46304761Y-314416838D02*
X46342857Y-314569219D01*
X46342857Y-314569219D02*
X46380952Y-314645409D01*
X46380952Y-314645409D02*
X46457142Y-314721600D01*
X46457142Y-314721600D02*
X46571428Y-314759695D01*
X46571428Y-314759695D02*
X46647619Y-314759695D01*
X46647619Y-314759695D02*
X46761904Y-314721600D01*
X46761904Y-314721600D02*
X46800000Y-314683504D01*
X46800000Y-314683504D02*
X46800000Y-314416838D01*
X46800000Y-314416838D02*
X46647619Y-314416838D01*
X47142857Y-314759695D02*
X47142857Y-313959695D01*
X47142857Y-313959695D02*
X47600000Y-314759695D01*
X47600000Y-314759695D02*
X47600000Y-313959695D01*
X47980952Y-314759695D02*
X47980952Y-313959695D01*
X47980952Y-313959695D02*
X48171428Y-313959695D01*
X48171428Y-313959695D02*
X48285714Y-313997790D01*
X48285714Y-313997790D02*
X48361904Y-314073980D01*
X48361904Y-314073980D02*
X48399999Y-314150171D01*
X48399999Y-314150171D02*
X48438095Y-314302552D01*
X48438095Y-314302552D02*
X48438095Y-314416838D01*
X48438095Y-314416838D02*
X48399999Y-314569219D01*
X48399999Y-314569219D02*
X48361904Y-314645409D01*
X48361904Y-314645409D02*
X48285714Y-314721600D01*
X48285714Y-314721600D02*
X48171428Y-314759695D01*
X48171428Y-314759695D02*
X47980952Y-314759695D01*
X49352380Y-314035885D02*
X49390476Y-313997790D01*
X49390476Y-313997790D02*
X49466666Y-313959695D01*
X49466666Y-313959695D02*
X49657142Y-313959695D01*
X49657142Y-313959695D02*
X49733333Y-313997790D01*
X49733333Y-313997790D02*
X49771428Y-314035885D01*
X49771428Y-314035885D02*
X49809523Y-314112076D01*
X49809523Y-314112076D02*
X49809523Y-314188266D01*
X49809523Y-314188266D02*
X49771428Y-314302552D01*
X49771428Y-314302552D02*
X49314285Y-314759695D01*
X49314285Y-314759695D02*
X49809523Y-314759695D01*
X50685714Y-313959695D02*
X51180952Y-313959695D01*
X51180952Y-313959695D02*
X50914286Y-314264457D01*
X50914286Y-314264457D02*
X51028571Y-314264457D01*
X51028571Y-314264457D02*
X51104762Y-314302552D01*
X51104762Y-314302552D02*
X51142857Y-314340647D01*
X51142857Y-314340647D02*
X51180952Y-314416838D01*
X51180952Y-314416838D02*
X51180952Y-314607314D01*
X51180952Y-314607314D02*
X51142857Y-314683504D01*
X51142857Y-314683504D02*
X51104762Y-314721600D01*
X51104762Y-314721600D02*
X51028571Y-314759695D01*
X51028571Y-314759695D02*
X50800000Y-314759695D01*
X50800000Y-314759695D02*
X50723809Y-314721600D01*
X50723809Y-314721600D02*
X50685714Y-314683504D01*
X51409524Y-313959695D02*
X51676191Y-314759695D01*
X51676191Y-314759695D02*
X51942857Y-313959695D01*
X52133333Y-313959695D02*
X52628571Y-313959695D01*
X52628571Y-313959695D02*
X52361905Y-314264457D01*
X52361905Y-314264457D02*
X52476190Y-314264457D01*
X52476190Y-314264457D02*
X52552381Y-314302552D01*
X52552381Y-314302552D02*
X52590476Y-314340647D01*
X52590476Y-314340647D02*
X52628571Y-314416838D01*
X52628571Y-314416838D02*
X52628571Y-314607314D01*
X52628571Y-314607314D02*
X52590476Y-314683504D01*
X52590476Y-314683504D02*
X52552381Y-314721600D01*
X52552381Y-314721600D02*
X52476190Y-314759695D01*
X52476190Y-314759695D02*
X52247619Y-314759695D01*
X52247619Y-314759695D02*
X52171428Y-314721600D01*
X52171428Y-314721600D02*
X52133333Y-314683504D01*
X53504762Y-313959695D02*
X54000000Y-313959695D01*
X54000000Y-313959695D02*
X53733334Y-314264457D01*
X53733334Y-314264457D02*
X53847619Y-314264457D01*
X53847619Y-314264457D02*
X53923810Y-314302552D01*
X53923810Y-314302552D02*
X53961905Y-314340647D01*
X53961905Y-314340647D02*
X54000000Y-314416838D01*
X54000000Y-314416838D02*
X54000000Y-314607314D01*
X54000000Y-314607314D02*
X53961905Y-314683504D01*
X53961905Y-314683504D02*
X53923810Y-314721600D01*
X53923810Y-314721600D02*
X53847619Y-314759695D01*
X53847619Y-314759695D02*
X53619048Y-314759695D01*
X53619048Y-314759695D02*
X53542857Y-314721600D01*
X53542857Y-314721600D02*
X53504762Y-314683504D01*
X54914286Y-314721600D02*
X55028572Y-314759695D01*
X55028572Y-314759695D02*
X55219048Y-314759695D01*
X55219048Y-314759695D02*
X55295239Y-314721600D01*
X55295239Y-314721600D02*
X55333334Y-314683504D01*
X55333334Y-314683504D02*
X55371429Y-314607314D01*
X55371429Y-314607314D02*
X55371429Y-314531123D01*
X55371429Y-314531123D02*
X55333334Y-314454933D01*
X55333334Y-314454933D02*
X55295239Y-314416838D01*
X55295239Y-314416838D02*
X55219048Y-314378742D01*
X55219048Y-314378742D02*
X55066667Y-314340647D01*
X55066667Y-314340647D02*
X54990477Y-314302552D01*
X54990477Y-314302552D02*
X54952382Y-314264457D01*
X54952382Y-314264457D02*
X54914286Y-314188266D01*
X54914286Y-314188266D02*
X54914286Y-314112076D01*
X54914286Y-314112076D02*
X54952382Y-314035885D01*
X54952382Y-314035885D02*
X54990477Y-313997790D01*
X54990477Y-313997790D02*
X55066667Y-313959695D01*
X55066667Y-313959695D02*
X55257144Y-313959695D01*
X55257144Y-313959695D02*
X55371429Y-313997790D01*
X56171430Y-314683504D02*
X56133334Y-314721600D01*
X56133334Y-314721600D02*
X56019049Y-314759695D01*
X56019049Y-314759695D02*
X55942858Y-314759695D01*
X55942858Y-314759695D02*
X55828572Y-314721600D01*
X55828572Y-314721600D02*
X55752382Y-314645409D01*
X55752382Y-314645409D02*
X55714287Y-314569219D01*
X55714287Y-314569219D02*
X55676191Y-314416838D01*
X55676191Y-314416838D02*
X55676191Y-314302552D01*
X55676191Y-314302552D02*
X55714287Y-314150171D01*
X55714287Y-314150171D02*
X55752382Y-314073980D01*
X55752382Y-314073980D02*
X55828572Y-313997790D01*
X55828572Y-313997790D02*
X55942858Y-313959695D01*
X55942858Y-313959695D02*
X56019049Y-313959695D01*
X56019049Y-313959695D02*
X56133334Y-313997790D01*
X56133334Y-313997790D02*
X56171430Y-314035885D01*
X56895239Y-314759695D02*
X56514287Y-314759695D01*
X56514287Y-314759695D02*
X56514287Y-313959695D01*
X58114287Y-314226361D02*
X58114287Y-314759695D01*
X57923811Y-313921600D02*
X57733334Y-314493028D01*
X57733334Y-314493028D02*
X58228573Y-314493028D01*
X59104763Y-314721600D02*
X59219049Y-314759695D01*
X59219049Y-314759695D02*
X59409525Y-314759695D01*
X59409525Y-314759695D02*
X59485716Y-314721600D01*
X59485716Y-314721600D02*
X59523811Y-314683504D01*
X59523811Y-314683504D02*
X59561906Y-314607314D01*
X59561906Y-314607314D02*
X59561906Y-314531123D01*
X59561906Y-314531123D02*
X59523811Y-314454933D01*
X59523811Y-314454933D02*
X59485716Y-314416838D01*
X59485716Y-314416838D02*
X59409525Y-314378742D01*
X59409525Y-314378742D02*
X59257144Y-314340647D01*
X59257144Y-314340647D02*
X59180954Y-314302552D01*
X59180954Y-314302552D02*
X59142859Y-314264457D01*
X59142859Y-314264457D02*
X59104763Y-314188266D01*
X59104763Y-314188266D02*
X59104763Y-314112076D01*
X59104763Y-314112076D02*
X59142859Y-314035885D01*
X59142859Y-314035885D02*
X59180954Y-313997790D01*
X59180954Y-313997790D02*
X59257144Y-313959695D01*
X59257144Y-313959695D02*
X59447621Y-313959695D01*
X59447621Y-313959695D02*
X59561906Y-313997790D01*
X59904764Y-314759695D02*
X59904764Y-313959695D01*
X59904764Y-313959695D02*
X60095240Y-313959695D01*
X60095240Y-313959695D02*
X60209526Y-313997790D01*
X60209526Y-313997790D02*
X60285716Y-314073980D01*
X60285716Y-314073980D02*
X60323811Y-314150171D01*
X60323811Y-314150171D02*
X60361907Y-314302552D01*
X60361907Y-314302552D02*
X60361907Y-314416838D01*
X60361907Y-314416838D02*
X60323811Y-314569219D01*
X60323811Y-314569219D02*
X60285716Y-314645409D01*
X60285716Y-314645409D02*
X60209526Y-314721600D01*
X60209526Y-314721600D02*
X60095240Y-314759695D01*
X60095240Y-314759695D02*
X59904764Y-314759695D01*
X60666668Y-314531123D02*
X61047621Y-314531123D01*
X60590478Y-314759695D02*
X60857145Y-313959695D01*
X60857145Y-313959695D02*
X61123811Y-314759695D01*
X49028571Y-42340647D02*
X48761905Y-42340647D01*
X48761905Y-42759695D02*
X48761905Y-41959695D01*
X48761905Y-41959695D02*
X49142857Y-41959695D01*
X49866666Y-42759695D02*
X49409523Y-42759695D01*
X49638095Y-42759695D02*
X49638095Y-41959695D01*
X49638095Y-41959695D02*
X49561904Y-42073980D01*
X49561904Y-42073980D02*
X49485714Y-42150171D01*
X49485714Y-42150171D02*
X49409523Y-42188266D01*
X50780952Y-42035885D02*
X50819048Y-41997790D01*
X50819048Y-41997790D02*
X50895238Y-41959695D01*
X50895238Y-41959695D02*
X51085714Y-41959695D01*
X51085714Y-41959695D02*
X51161905Y-41997790D01*
X51161905Y-41997790D02*
X51200000Y-42035885D01*
X51200000Y-42035885D02*
X51238095Y-42112076D01*
X51238095Y-42112076D02*
X51238095Y-42188266D01*
X51238095Y-42188266D02*
X51200000Y-42302552D01*
X51200000Y-42302552D02*
X50742857Y-42759695D01*
X50742857Y-42759695D02*
X51238095Y-42759695D01*
X51542857Y-42531123D02*
X51923810Y-42531123D01*
X51466667Y-42759695D02*
X51733334Y-41959695D01*
X51733334Y-41959695D02*
X52000000Y-42759695D01*
X53142857Y-42340647D02*
X52876191Y-42340647D01*
X52876191Y-42759695D02*
X52876191Y-41959695D01*
X52876191Y-41959695D02*
X53257143Y-41959695D01*
X53523809Y-42531123D02*
X53904762Y-42531123D01*
X53447619Y-42759695D02*
X53714286Y-41959695D01*
X53714286Y-41959695D02*
X53980952Y-42759695D01*
X54209523Y-42721600D02*
X54323809Y-42759695D01*
X54323809Y-42759695D02*
X54514285Y-42759695D01*
X54514285Y-42759695D02*
X54590476Y-42721600D01*
X54590476Y-42721600D02*
X54628571Y-42683504D01*
X54628571Y-42683504D02*
X54666666Y-42607314D01*
X54666666Y-42607314D02*
X54666666Y-42531123D01*
X54666666Y-42531123D02*
X54628571Y-42454933D01*
X54628571Y-42454933D02*
X54590476Y-42416838D01*
X54590476Y-42416838D02*
X54514285Y-42378742D01*
X54514285Y-42378742D02*
X54361904Y-42340647D01*
X54361904Y-42340647D02*
X54285714Y-42302552D01*
X54285714Y-42302552D02*
X54247619Y-42264457D01*
X54247619Y-42264457D02*
X54209523Y-42188266D01*
X54209523Y-42188266D02*
X54209523Y-42112076D01*
X54209523Y-42112076D02*
X54247619Y-42035885D01*
X54247619Y-42035885D02*
X54285714Y-41997790D01*
X54285714Y-41997790D02*
X54361904Y-41959695D01*
X54361904Y-41959695D02*
X54552381Y-41959695D01*
X54552381Y-41959695D02*
X54666666Y-41997790D01*
X54895238Y-41959695D02*
X55352381Y-41959695D01*
X55123809Y-42759695D02*
X55123809Y-41959695D01*
X51576190Y-22359695D02*
X51576190Y-21559695D01*
X51576190Y-21559695D02*
X51766666Y-21559695D01*
X51766666Y-21559695D02*
X51880952Y-21597790D01*
X51880952Y-21597790D02*
X51957142Y-21673980D01*
X51957142Y-21673980D02*
X51995237Y-21750171D01*
X51995237Y-21750171D02*
X52033333Y-21902552D01*
X52033333Y-21902552D02*
X52033333Y-22016838D01*
X52033333Y-22016838D02*
X51995237Y-22169219D01*
X51995237Y-22169219D02*
X51957142Y-22245409D01*
X51957142Y-22245409D02*
X51880952Y-22321600D01*
X51880952Y-22321600D02*
X51766666Y-22359695D01*
X51766666Y-22359695D02*
X51576190Y-22359695D01*
X52795237Y-22359695D02*
X52338094Y-22359695D01*
X52566666Y-22359695D02*
X52566666Y-21559695D01*
X52566666Y-21559695D02*
X52490475Y-21673980D01*
X52490475Y-21673980D02*
X52414285Y-21750171D01*
X52414285Y-21750171D02*
X52338094Y-21788266D01*
X53633333Y-21559695D02*
X54090476Y-21559695D01*
X53861904Y-22359695D02*
X53861904Y-21559695D01*
X54242857Y-21559695D02*
X54509524Y-22359695D01*
X54509524Y-22359695D02*
X54776190Y-21559695D01*
X55004761Y-22321600D02*
X55119047Y-22359695D01*
X55119047Y-22359695D02*
X55309523Y-22359695D01*
X55309523Y-22359695D02*
X55385714Y-22321600D01*
X55385714Y-22321600D02*
X55423809Y-22283504D01*
X55423809Y-22283504D02*
X55461904Y-22207314D01*
X55461904Y-22207314D02*
X55461904Y-22131123D01*
X55461904Y-22131123D02*
X55423809Y-22054933D01*
X55423809Y-22054933D02*
X55385714Y-22016838D01*
X55385714Y-22016838D02*
X55309523Y-21978742D01*
X55309523Y-21978742D02*
X55157142Y-21940647D01*
X55157142Y-21940647D02*
X55080952Y-21902552D01*
X55080952Y-21902552D02*
X55042857Y-21864457D01*
X55042857Y-21864457D02*
X55004761Y-21788266D01*
X55004761Y-21788266D02*
X55004761Y-21712076D01*
X55004761Y-21712076D02*
X55042857Y-21635885D01*
X55042857Y-21635885D02*
X55080952Y-21597790D01*
X55080952Y-21597790D02*
X55157142Y-21559695D01*
X55157142Y-21559695D02*
X55347619Y-21559695D01*
X55347619Y-21559695D02*
X55461904Y-21597790D01*
X44314285Y-33659694D02*
X44314285Y-34231122D01*
X44314285Y-34231122D02*
X44276190Y-34345408D01*
X44276190Y-34345408D02*
X44199999Y-34421599D01*
X44199999Y-34421599D02*
X44085714Y-34459694D01*
X44085714Y-34459694D02*
X44009523Y-34459694D01*
X45038095Y-33926360D02*
X45038095Y-34459694D01*
X44847619Y-33621599D02*
X44657142Y-34193027D01*
X44657142Y-34193027D02*
X45152381Y-34193027D01*
X45457143Y-34383503D02*
X45495238Y-34421599D01*
X45495238Y-34421599D02*
X45457143Y-34459694D01*
X45457143Y-34459694D02*
X45419047Y-34421599D01*
X45419047Y-34421599D02*
X45457143Y-34383503D01*
X45457143Y-34383503D02*
X45457143Y-34459694D01*
X45457143Y-33964456D02*
X45495238Y-34002551D01*
X45495238Y-34002551D02*
X45457143Y-34040646D01*
X45457143Y-34040646D02*
X45419047Y-34002551D01*
X45419047Y-34002551D02*
X45457143Y-33964456D01*
X45457143Y-33964456D02*
X45457143Y-34040646D01*
X46866666Y-34459694D02*
X46409523Y-34459694D01*
X46638095Y-34459694D02*
X46638095Y-33659694D01*
X46638095Y-33659694D02*
X46561904Y-33773979D01*
X46561904Y-33773979D02*
X46485714Y-33850170D01*
X46485714Y-33850170D02*
X46409523Y-33888265D01*
X47819048Y-34459694D02*
X47819048Y-33659694D01*
X47819048Y-33659694D02*
X48009524Y-33659694D01*
X48009524Y-33659694D02*
X48123810Y-33697789D01*
X48123810Y-33697789D02*
X48200000Y-33773979D01*
X48200000Y-33773979D02*
X48238095Y-33850170D01*
X48238095Y-33850170D02*
X48276191Y-34002551D01*
X48276191Y-34002551D02*
X48276191Y-34116837D01*
X48276191Y-34116837D02*
X48238095Y-34269218D01*
X48238095Y-34269218D02*
X48200000Y-34345408D01*
X48200000Y-34345408D02*
X48123810Y-34421599D01*
X48123810Y-34421599D02*
X48009524Y-34459694D01*
X48009524Y-34459694D02*
X47819048Y-34459694D01*
X49076191Y-34383503D02*
X49038095Y-34421599D01*
X49038095Y-34421599D02*
X48923810Y-34459694D01*
X48923810Y-34459694D02*
X48847619Y-34459694D01*
X48847619Y-34459694D02*
X48733333Y-34421599D01*
X48733333Y-34421599D02*
X48657143Y-34345408D01*
X48657143Y-34345408D02*
X48619048Y-34269218D01*
X48619048Y-34269218D02*
X48580952Y-34116837D01*
X48580952Y-34116837D02*
X48580952Y-34002551D01*
X48580952Y-34002551D02*
X48619048Y-33850170D01*
X48619048Y-33850170D02*
X48657143Y-33773979D01*
X48657143Y-33773979D02*
X48733333Y-33697789D01*
X48733333Y-33697789D02*
X48847619Y-33659694D01*
X48847619Y-33659694D02*
X48923810Y-33659694D01*
X48923810Y-33659694D02*
X49038095Y-33697789D01*
X49038095Y-33697789D02*
X49076191Y-33735884D01*
X49419048Y-34154932D02*
X50028572Y-34154932D01*
X50409524Y-34459694D02*
X50409524Y-33659694D01*
X50790476Y-34459694D02*
X50790476Y-33659694D01*
X50790476Y-33659694D02*
X51247619Y-34459694D01*
X51247619Y-34459694D02*
X51247619Y-33659694D01*
X52199999Y-33735884D02*
X52238095Y-33697789D01*
X52238095Y-33697789D02*
X52314285Y-33659694D01*
X52314285Y-33659694D02*
X52504761Y-33659694D01*
X52504761Y-33659694D02*
X52580952Y-33697789D01*
X52580952Y-33697789D02*
X52619047Y-33735884D01*
X52619047Y-33735884D02*
X52657142Y-33812075D01*
X52657142Y-33812075D02*
X52657142Y-33888265D01*
X52657142Y-33888265D02*
X52619047Y-34002551D01*
X52619047Y-34002551D02*
X52161904Y-34459694D01*
X52161904Y-34459694D02*
X52657142Y-34459694D01*
X54028571Y-33697789D02*
X53952381Y-33659694D01*
X53952381Y-33659694D02*
X53838095Y-33659694D01*
X53838095Y-33659694D02*
X53723809Y-33697789D01*
X53723809Y-33697789D02*
X53647619Y-33773979D01*
X53647619Y-33773979D02*
X53609524Y-33850170D01*
X53609524Y-33850170D02*
X53571428Y-34002551D01*
X53571428Y-34002551D02*
X53571428Y-34116837D01*
X53571428Y-34116837D02*
X53609524Y-34269218D01*
X53609524Y-34269218D02*
X53647619Y-34345408D01*
X53647619Y-34345408D02*
X53723809Y-34421599D01*
X53723809Y-34421599D02*
X53838095Y-34459694D01*
X53838095Y-34459694D02*
X53914286Y-34459694D01*
X53914286Y-34459694D02*
X54028571Y-34421599D01*
X54028571Y-34421599D02*
X54066667Y-34383503D01*
X54066667Y-34383503D02*
X54066667Y-34116837D01*
X54066667Y-34116837D02*
X53914286Y-34116837D01*
X54409524Y-34459694D02*
X54409524Y-33659694D01*
X54409524Y-33659694D02*
X54866667Y-34459694D01*
X54866667Y-34459694D02*
X54866667Y-33659694D01*
X55247619Y-34459694D02*
X55247619Y-33659694D01*
X55247619Y-33659694D02*
X55438095Y-33659694D01*
X55438095Y-33659694D02*
X55552381Y-33697789D01*
X55552381Y-33697789D02*
X55628571Y-33773979D01*
X55628571Y-33773979D02*
X55666666Y-33850170D01*
X55666666Y-33850170D02*
X55704762Y-34002551D01*
X55704762Y-34002551D02*
X55704762Y-34116837D01*
X55704762Y-34116837D02*
X55666666Y-34269218D01*
X55666666Y-34269218D02*
X55628571Y-34345408D01*
X55628571Y-34345408D02*
X55552381Y-34421599D01*
X55552381Y-34421599D02*
X55438095Y-34459694D01*
X55438095Y-34459694D02*
X55247619Y-34459694D01*
X56580952Y-33659694D02*
X57076190Y-33659694D01*
X57076190Y-33659694D02*
X56809524Y-33964456D01*
X56809524Y-33964456D02*
X56923809Y-33964456D01*
X56923809Y-33964456D02*
X57000000Y-34002551D01*
X57000000Y-34002551D02*
X57038095Y-34040646D01*
X57038095Y-34040646D02*
X57076190Y-34116837D01*
X57076190Y-34116837D02*
X57076190Y-34307313D01*
X57076190Y-34307313D02*
X57038095Y-34383503D01*
X57038095Y-34383503D02*
X57000000Y-34421599D01*
X57000000Y-34421599D02*
X56923809Y-34459694D01*
X56923809Y-34459694D02*
X56695238Y-34459694D01*
X56695238Y-34459694D02*
X56619047Y-34421599D01*
X56619047Y-34421599D02*
X56580952Y-34383503D01*
X58295238Y-34040646D02*
X58028572Y-34040646D01*
X58028572Y-34459694D02*
X58028572Y-33659694D01*
X58028572Y-33659694D02*
X58409524Y-33659694D01*
X58714286Y-33659694D02*
X58714286Y-34307313D01*
X58714286Y-34307313D02*
X58752381Y-34383503D01*
X58752381Y-34383503D02*
X58790476Y-34421599D01*
X58790476Y-34421599D02*
X58866667Y-34459694D01*
X58866667Y-34459694D02*
X59019048Y-34459694D01*
X59019048Y-34459694D02*
X59095238Y-34421599D01*
X59095238Y-34421599D02*
X59133333Y-34383503D01*
X59133333Y-34383503D02*
X59171429Y-34307313D01*
X59171429Y-34307313D02*
X59171429Y-33659694D01*
X59514285Y-34421599D02*
X59628571Y-34459694D01*
X59628571Y-34459694D02*
X59819047Y-34459694D01*
X59819047Y-34459694D02*
X59895238Y-34421599D01*
X59895238Y-34421599D02*
X59933333Y-34383503D01*
X59933333Y-34383503D02*
X59971428Y-34307313D01*
X59971428Y-34307313D02*
X59971428Y-34231122D01*
X59971428Y-34231122D02*
X59933333Y-34154932D01*
X59933333Y-34154932D02*
X59895238Y-34116837D01*
X59895238Y-34116837D02*
X59819047Y-34078741D01*
X59819047Y-34078741D02*
X59666666Y-34040646D01*
X59666666Y-34040646D02*
X59590476Y-34002551D01*
X59590476Y-34002551D02*
X59552381Y-33964456D01*
X59552381Y-33964456D02*
X59514285Y-33888265D01*
X59514285Y-33888265D02*
X59514285Y-33812075D01*
X59514285Y-33812075D02*
X59552381Y-33735884D01*
X59552381Y-33735884D02*
X59590476Y-33697789D01*
X59590476Y-33697789D02*
X59666666Y-33659694D01*
X59666666Y-33659694D02*
X59857143Y-33659694D01*
X59857143Y-33659694D02*
X59971428Y-33697789D01*
X60314286Y-34040646D02*
X60580952Y-34040646D01*
X60695238Y-34459694D02*
X60314286Y-34459694D01*
X60314286Y-34459694D02*
X60314286Y-33659694D01*
X60314286Y-33659694D02*
X60695238Y-33659694D01*
X61038096Y-34459694D02*
X61038096Y-33659694D01*
X61038096Y-33659694D02*
X61228572Y-33659694D01*
X61228572Y-33659694D02*
X61342858Y-33697789D01*
X61342858Y-33697789D02*
X61419048Y-33773979D01*
X61419048Y-33773979D02*
X61457143Y-33850170D01*
X61457143Y-33850170D02*
X61495239Y-34002551D01*
X61495239Y-34002551D02*
X61495239Y-34116837D01*
X61495239Y-34116837D02*
X61457143Y-34269218D01*
X61457143Y-34269218D02*
X61419048Y-34345408D01*
X61419048Y-34345408D02*
X61342858Y-34421599D01*
X61342858Y-34421599D02*
X61228572Y-34459694D01*
X61228572Y-34459694D02*
X61038096Y-34459694D01*
X62790477Y-33926360D02*
X62790477Y-34459694D01*
X62600001Y-33621599D02*
X62409524Y-34193027D01*
X62409524Y-34193027D02*
X62904763Y-34193027D01*
X64276192Y-34459694D02*
X64009525Y-34078741D01*
X63819049Y-34459694D02*
X63819049Y-33659694D01*
X63819049Y-33659694D02*
X64123811Y-33659694D01*
X64123811Y-33659694D02*
X64200001Y-33697789D01*
X64200001Y-33697789D02*
X64238096Y-33735884D01*
X64238096Y-33735884D02*
X64276192Y-33812075D01*
X64276192Y-33812075D02*
X64276192Y-33926360D01*
X64276192Y-33926360D02*
X64238096Y-34002551D01*
X64238096Y-34002551D02*
X64200001Y-34040646D01*
X64200001Y-34040646D02*
X64123811Y-34078741D01*
X64123811Y-34078741D02*
X63819049Y-34078741D01*
X64619049Y-33659694D02*
X64619049Y-34307313D01*
X64619049Y-34307313D02*
X64657144Y-34383503D01*
X64657144Y-34383503D02*
X64695239Y-34421599D01*
X64695239Y-34421599D02*
X64771430Y-34459694D01*
X64771430Y-34459694D02*
X64923811Y-34459694D01*
X64923811Y-34459694D02*
X65000001Y-34421599D01*
X65000001Y-34421599D02*
X65038096Y-34383503D01*
X65038096Y-34383503D02*
X65076192Y-34307313D01*
X65076192Y-34307313D02*
X65076192Y-33659694D01*
X65457144Y-34459694D02*
X65457144Y-33659694D01*
X65457144Y-33659694D02*
X65914287Y-34459694D01*
X65914287Y-34459694D02*
X65914287Y-33659694D01*
X92990476Y-324559695D02*
X92990476Y-325207314D01*
X92990476Y-325207314D02*
X93028571Y-325283504D01*
X93028571Y-325283504D02*
X93066666Y-325321600D01*
X93066666Y-325321600D02*
X93142857Y-325359695D01*
X93142857Y-325359695D02*
X93295238Y-325359695D01*
X93295238Y-325359695D02*
X93371428Y-325321600D01*
X93371428Y-325321600D02*
X93409523Y-325283504D01*
X93409523Y-325283504D02*
X93447619Y-325207314D01*
X93447619Y-325207314D02*
X93447619Y-324559695D01*
X94209523Y-324559695D02*
X93828571Y-324559695D01*
X93828571Y-324559695D02*
X93790475Y-324940647D01*
X93790475Y-324940647D02*
X93828571Y-324902552D01*
X93828571Y-324902552D02*
X93904761Y-324864457D01*
X93904761Y-324864457D02*
X94095237Y-324864457D01*
X94095237Y-324864457D02*
X94171428Y-324902552D01*
X94171428Y-324902552D02*
X94209523Y-324940647D01*
X94209523Y-324940647D02*
X94247618Y-325016838D01*
X94247618Y-325016838D02*
X94247618Y-325207314D01*
X94247618Y-325207314D02*
X94209523Y-325283504D01*
X94209523Y-325283504D02*
X94171428Y-325321600D01*
X94171428Y-325321600D02*
X94095237Y-325359695D01*
X94095237Y-325359695D02*
X93904761Y-325359695D01*
X93904761Y-325359695D02*
X93828571Y-325321600D01*
X93828571Y-325321600D02*
X93790475Y-325283504D01*
X95161904Y-325321600D02*
X95276190Y-325359695D01*
X95276190Y-325359695D02*
X95466666Y-325359695D01*
X95466666Y-325359695D02*
X95542857Y-325321600D01*
X95542857Y-325321600D02*
X95580952Y-325283504D01*
X95580952Y-325283504D02*
X95619047Y-325207314D01*
X95619047Y-325207314D02*
X95619047Y-325131123D01*
X95619047Y-325131123D02*
X95580952Y-325054933D01*
X95580952Y-325054933D02*
X95542857Y-325016838D01*
X95542857Y-325016838D02*
X95466666Y-324978742D01*
X95466666Y-324978742D02*
X95314285Y-324940647D01*
X95314285Y-324940647D02*
X95238095Y-324902552D01*
X95238095Y-324902552D02*
X95200000Y-324864457D01*
X95200000Y-324864457D02*
X95161904Y-324788266D01*
X95161904Y-324788266D02*
X95161904Y-324712076D01*
X95161904Y-324712076D02*
X95200000Y-324635885D01*
X95200000Y-324635885D02*
X95238095Y-324597790D01*
X95238095Y-324597790D02*
X95314285Y-324559695D01*
X95314285Y-324559695D02*
X95504762Y-324559695D01*
X95504762Y-324559695D02*
X95619047Y-324597790D01*
X95961905Y-325359695D02*
X95961905Y-324559695D01*
X95961905Y-324559695D02*
X96266667Y-324559695D01*
X96266667Y-324559695D02*
X96342857Y-324597790D01*
X96342857Y-324597790D02*
X96380952Y-324635885D01*
X96380952Y-324635885D02*
X96419048Y-324712076D01*
X96419048Y-324712076D02*
X96419048Y-324826361D01*
X96419048Y-324826361D02*
X96380952Y-324902552D01*
X96380952Y-324902552D02*
X96342857Y-324940647D01*
X96342857Y-324940647D02*
X96266667Y-324978742D01*
X96266667Y-324978742D02*
X95961905Y-324978742D01*
X96761905Y-325359695D02*
X96761905Y-324559695D01*
X97676190Y-324559695D02*
X98171428Y-324559695D01*
X98171428Y-324559695D02*
X97904762Y-324864457D01*
X97904762Y-324864457D02*
X98019047Y-324864457D01*
X98019047Y-324864457D02*
X98095238Y-324902552D01*
X98095238Y-324902552D02*
X98133333Y-324940647D01*
X98133333Y-324940647D02*
X98171428Y-325016838D01*
X98171428Y-325016838D02*
X98171428Y-325207314D01*
X98171428Y-325207314D02*
X98133333Y-325283504D01*
X98133333Y-325283504D02*
X98095238Y-325321600D01*
X98095238Y-325321600D02*
X98019047Y-325359695D01*
X98019047Y-325359695D02*
X97790476Y-325359695D01*
X97790476Y-325359695D02*
X97714285Y-325321600D01*
X97714285Y-325321600D02*
X97676190Y-325283504D01*
X98400000Y-324559695D02*
X98666667Y-325359695D01*
X98666667Y-325359695D02*
X98933333Y-324559695D01*
X99123809Y-324559695D02*
X99619047Y-324559695D01*
X99619047Y-324559695D02*
X99352381Y-324864457D01*
X99352381Y-324864457D02*
X99466666Y-324864457D01*
X99466666Y-324864457D02*
X99542857Y-324902552D01*
X99542857Y-324902552D02*
X99580952Y-324940647D01*
X99580952Y-324940647D02*
X99619047Y-325016838D01*
X99619047Y-325016838D02*
X99619047Y-325207314D01*
X99619047Y-325207314D02*
X99580952Y-325283504D01*
X99580952Y-325283504D02*
X99542857Y-325321600D01*
X99542857Y-325321600D02*
X99466666Y-325359695D01*
X99466666Y-325359695D02*
X99238095Y-325359695D01*
X99238095Y-325359695D02*
X99161904Y-325321600D01*
X99161904Y-325321600D02*
X99123809Y-325283504D01*
X100571429Y-325054933D02*
X101180953Y-325054933D01*
X101561905Y-324826361D02*
X102171429Y-325054933D01*
X102171429Y-325054933D02*
X101561905Y-325283504D01*
X103542857Y-325359695D02*
X103161905Y-325359695D01*
X103161905Y-325359695D02*
X103161905Y-324559695D01*
X103809524Y-324940647D02*
X104076190Y-324940647D01*
X104190476Y-325359695D02*
X103809524Y-325359695D01*
X103809524Y-325359695D02*
X103809524Y-324559695D01*
X103809524Y-324559695D02*
X104190476Y-324559695D01*
X104533334Y-325359695D02*
X104533334Y-324559695D01*
X104533334Y-324559695D02*
X104723810Y-324559695D01*
X104723810Y-324559695D02*
X104838096Y-324597790D01*
X104838096Y-324597790D02*
X104914286Y-324673980D01*
X104914286Y-324673980D02*
X104952381Y-324750171D01*
X104952381Y-324750171D02*
X104990477Y-324902552D01*
X104990477Y-324902552D02*
X104990477Y-325016838D01*
X104990477Y-325016838D02*
X104952381Y-325169219D01*
X104952381Y-325169219D02*
X104914286Y-325245409D01*
X104914286Y-325245409D02*
X104838096Y-325321600D01*
X104838096Y-325321600D02*
X104723810Y-325359695D01*
X104723810Y-325359695D02*
X104533334Y-325359695D01*
X106323810Y-324559695D02*
X105942858Y-324559695D01*
X105942858Y-324559695D02*
X105904762Y-324940647D01*
X105904762Y-324940647D02*
X105942858Y-324902552D01*
X105942858Y-324902552D02*
X106019048Y-324864457D01*
X106019048Y-324864457D02*
X106209524Y-324864457D01*
X106209524Y-324864457D02*
X106285715Y-324902552D01*
X106285715Y-324902552D02*
X106323810Y-324940647D01*
X106323810Y-324940647D02*
X106361905Y-325016838D01*
X106361905Y-325016838D02*
X106361905Y-325207314D01*
X106361905Y-325207314D02*
X106323810Y-325283504D01*
X106323810Y-325283504D02*
X106285715Y-325321600D01*
X106285715Y-325321600D02*
X106209524Y-325359695D01*
X106209524Y-325359695D02*
X106019048Y-325359695D01*
X106019048Y-325359695D02*
X105942858Y-325321600D01*
X105942858Y-325321600D02*
X105904762Y-325283504D01*
X106590477Y-324559695D02*
X106857144Y-325359695D01*
X106857144Y-325359695D02*
X107123810Y-324559695D01*
X29142857Y-354905957D02*
X28714285Y-354905957D01*
X28714285Y-354905957D02*
X28714285Y-354005957D01*
X29442856Y-354434528D02*
X29742856Y-354434528D01*
X29871428Y-354905957D02*
X29442856Y-354905957D01*
X29442856Y-354905957D02*
X29442856Y-354005957D01*
X29442856Y-354005957D02*
X29871428Y-354005957D01*
X30557142Y-354434528D02*
X30257142Y-354434528D01*
X30257142Y-354905957D02*
X30257142Y-354005957D01*
X30257142Y-354005957D02*
X30685714Y-354005957D01*
X30900000Y-354005957D02*
X31414286Y-354005957D01*
X31157143Y-354905957D02*
X31157143Y-354005957D01*
X43292857Y-333005957D02*
X43292857Y-333734528D01*
X43292857Y-333734528D02*
X43335714Y-333820242D01*
X43335714Y-333820242D02*
X43378572Y-333863100D01*
X43378572Y-333863100D02*
X43464286Y-333905957D01*
X43464286Y-333905957D02*
X43635714Y-333905957D01*
X43635714Y-333905957D02*
X43721429Y-333863100D01*
X43721429Y-333863100D02*
X43764286Y-333820242D01*
X43764286Y-333820242D02*
X43807143Y-333734528D01*
X43807143Y-333734528D02*
X43807143Y-333005957D01*
X44235714Y-333905957D02*
X44235714Y-333005957D01*
X44235714Y-333005957D02*
X44578571Y-333005957D01*
X44578571Y-333005957D02*
X44664286Y-333048814D01*
X44664286Y-333048814D02*
X44707143Y-333091671D01*
X44707143Y-333091671D02*
X44750000Y-333177385D01*
X44750000Y-333177385D02*
X44750000Y-333305957D01*
X44750000Y-333305957D02*
X44707143Y-333391671D01*
X44707143Y-333391671D02*
X44664286Y-333434528D01*
X44664286Y-333434528D02*
X44578571Y-333477385D01*
X44578571Y-333477385D02*
X44235714Y-333477385D01*
X42307143Y-366905957D02*
X42307143Y-366005957D01*
X42307143Y-366005957D02*
X42521429Y-366005957D01*
X42521429Y-366005957D02*
X42650000Y-366048814D01*
X42650000Y-366048814D02*
X42735715Y-366134528D01*
X42735715Y-366134528D02*
X42778572Y-366220242D01*
X42778572Y-366220242D02*
X42821429Y-366391671D01*
X42821429Y-366391671D02*
X42821429Y-366520242D01*
X42821429Y-366520242D02*
X42778572Y-366691671D01*
X42778572Y-366691671D02*
X42735715Y-366777385D01*
X42735715Y-366777385D02*
X42650000Y-366863100D01*
X42650000Y-366863100D02*
X42521429Y-366905957D01*
X42521429Y-366905957D02*
X42307143Y-366905957D01*
X43378572Y-366005957D02*
X43550000Y-366005957D01*
X43550000Y-366005957D02*
X43635715Y-366048814D01*
X43635715Y-366048814D02*
X43721429Y-366134528D01*
X43721429Y-366134528D02*
X43764286Y-366305957D01*
X43764286Y-366305957D02*
X43764286Y-366605957D01*
X43764286Y-366605957D02*
X43721429Y-366777385D01*
X43721429Y-366777385D02*
X43635715Y-366863100D01*
X43635715Y-366863100D02*
X43550000Y-366905957D01*
X43550000Y-366905957D02*
X43378572Y-366905957D01*
X43378572Y-366905957D02*
X43292858Y-366863100D01*
X43292858Y-366863100D02*
X43207143Y-366777385D01*
X43207143Y-366777385D02*
X43164286Y-366605957D01*
X43164286Y-366605957D02*
X43164286Y-366305957D01*
X43164286Y-366305957D02*
X43207143Y-366134528D01*
X43207143Y-366134528D02*
X43292858Y-366048814D01*
X43292858Y-366048814D02*
X43378572Y-366005957D01*
X44064286Y-366005957D02*
X44278572Y-366905957D01*
X44278572Y-366905957D02*
X44450000Y-366263100D01*
X44450000Y-366263100D02*
X44621429Y-366905957D01*
X44621429Y-366905957D02*
X44835715Y-366005957D01*
X45178571Y-366905957D02*
X45178571Y-366005957D01*
X45178571Y-366005957D02*
X45692857Y-366905957D01*
X45692857Y-366905957D02*
X45692857Y-366005957D01*
X56800000Y-354905957D02*
X56500000Y-354477385D01*
X56285714Y-354905957D02*
X56285714Y-354005957D01*
X56285714Y-354005957D02*
X56628571Y-354005957D01*
X56628571Y-354005957D02*
X56714286Y-354048814D01*
X56714286Y-354048814D02*
X56757143Y-354091671D01*
X56757143Y-354091671D02*
X56800000Y-354177385D01*
X56800000Y-354177385D02*
X56800000Y-354305957D01*
X56800000Y-354305957D02*
X56757143Y-354391671D01*
X56757143Y-354391671D02*
X56714286Y-354434528D01*
X56714286Y-354434528D02*
X56628571Y-354477385D01*
X56628571Y-354477385D02*
X56285714Y-354477385D01*
X57185714Y-354905957D02*
X57185714Y-354005957D01*
X58085714Y-354048814D02*
X58000000Y-354005957D01*
X58000000Y-354005957D02*
X57871428Y-354005957D01*
X57871428Y-354005957D02*
X57742857Y-354048814D01*
X57742857Y-354048814D02*
X57657142Y-354134528D01*
X57657142Y-354134528D02*
X57614285Y-354220242D01*
X57614285Y-354220242D02*
X57571428Y-354391671D01*
X57571428Y-354391671D02*
X57571428Y-354520242D01*
X57571428Y-354520242D02*
X57614285Y-354691671D01*
X57614285Y-354691671D02*
X57657142Y-354777385D01*
X57657142Y-354777385D02*
X57742857Y-354863100D01*
X57742857Y-354863100D02*
X57871428Y-354905957D01*
X57871428Y-354905957D02*
X57957142Y-354905957D01*
X57957142Y-354905957D02*
X58085714Y-354863100D01*
X58085714Y-354863100D02*
X58128571Y-354820242D01*
X58128571Y-354820242D02*
X58128571Y-354520242D01*
X58128571Y-354520242D02*
X57957142Y-354520242D01*
X58514285Y-354905957D02*
X58514285Y-354005957D01*
X58514285Y-354434528D02*
X59028571Y-354434528D01*
X59028571Y-354905957D02*
X59028571Y-354005957D01*
X59328571Y-354005957D02*
X59842857Y-354005957D01*
X59585714Y-354905957D02*
X59585714Y-354005957D01*
X75464286Y-366005957D02*
X75635714Y-366005957D01*
X75635714Y-366005957D02*
X75721429Y-366048814D01*
X75721429Y-366048814D02*
X75807143Y-366134528D01*
X75807143Y-366134528D02*
X75850000Y-366305957D01*
X75850000Y-366305957D02*
X75850000Y-366605957D01*
X75850000Y-366605957D02*
X75807143Y-366777385D01*
X75807143Y-366777385D02*
X75721429Y-366863100D01*
X75721429Y-366863100D02*
X75635714Y-366905957D01*
X75635714Y-366905957D02*
X75464286Y-366905957D01*
X75464286Y-366905957D02*
X75378572Y-366863100D01*
X75378572Y-366863100D02*
X75292857Y-366777385D01*
X75292857Y-366777385D02*
X75250000Y-366605957D01*
X75250000Y-366605957D02*
X75250000Y-366305957D01*
X75250000Y-366305957D02*
X75292857Y-366134528D01*
X75292857Y-366134528D02*
X75378572Y-366048814D01*
X75378572Y-366048814D02*
X75464286Y-366005957D01*
X76235714Y-366905957D02*
X76235714Y-366005957D01*
X76750000Y-366905957D02*
X76364286Y-366391671D01*
X76750000Y-366005957D02*
X76235714Y-366520242D01*
X227699999Y-333434528D02*
X227399999Y-333434528D01*
X227399999Y-333905957D02*
X227399999Y-333005957D01*
X227399999Y-333005957D02*
X227828571Y-333005957D01*
X228642857Y-333905957D02*
X228128571Y-333905957D01*
X228385714Y-333905957D02*
X228385714Y-333005957D01*
X228385714Y-333005957D02*
X228300000Y-333134528D01*
X228300000Y-333134528D02*
X228214285Y-333220242D01*
X228214285Y-333220242D02*
X228128571Y-333263100D01*
X227699999Y-366434528D02*
X227399999Y-366434528D01*
X227399999Y-366905957D02*
X227399999Y-366005957D01*
X227399999Y-366005957D02*
X227828571Y-366005957D01*
X228557143Y-366305957D02*
X228557143Y-366905957D01*
X228342857Y-365963100D02*
X228128571Y-366605957D01*
X228128571Y-366605957D02*
X228685714Y-366605957D01*
X253699999Y-333434528D02*
X253399999Y-333434528D01*
X253399999Y-333905957D02*
X253399999Y-333005957D01*
X253399999Y-333005957D02*
X253828571Y-333005957D01*
X254128571Y-333091671D02*
X254171428Y-333048814D01*
X254171428Y-333048814D02*
X254257143Y-333005957D01*
X254257143Y-333005957D02*
X254471428Y-333005957D01*
X254471428Y-333005957D02*
X254557143Y-333048814D01*
X254557143Y-333048814D02*
X254600000Y-333091671D01*
X254600000Y-333091671D02*
X254642857Y-333177385D01*
X254642857Y-333177385D02*
X254642857Y-333263100D01*
X254642857Y-333263100D02*
X254600000Y-333391671D01*
X254600000Y-333391671D02*
X254085714Y-333905957D01*
X254085714Y-333905957D02*
X254642857Y-333905957D01*
X253699999Y-366434528D02*
X253399999Y-366434528D01*
X253399999Y-366905957D02*
X253399999Y-366005957D01*
X253399999Y-366005957D02*
X253828571Y-366005957D01*
X254600000Y-366005957D02*
X254171428Y-366005957D01*
X254171428Y-366005957D02*
X254128571Y-366434528D01*
X254128571Y-366434528D02*
X254171428Y-366391671D01*
X254171428Y-366391671D02*
X254257143Y-366348814D01*
X254257143Y-366348814D02*
X254471428Y-366348814D01*
X254471428Y-366348814D02*
X254557143Y-366391671D01*
X254557143Y-366391671D02*
X254600000Y-366434528D01*
X254600000Y-366434528D02*
X254642857Y-366520242D01*
X254642857Y-366520242D02*
X254642857Y-366734528D01*
X254642857Y-366734528D02*
X254600000Y-366820242D01*
X254600000Y-366820242D02*
X254557143Y-366863100D01*
X254557143Y-366863100D02*
X254471428Y-366905957D01*
X254471428Y-366905957D02*
X254257143Y-366905957D01*
X254257143Y-366905957D02*
X254171428Y-366863100D01*
X254171428Y-366863100D02*
X254128571Y-366820242D01*
X279699999Y-333434528D02*
X279399999Y-333434528D01*
X279399999Y-333905957D02*
X279399999Y-333005957D01*
X279399999Y-333005957D02*
X279828571Y-333005957D01*
X280085714Y-333005957D02*
X280642857Y-333005957D01*
X280642857Y-333005957D02*
X280342857Y-333348814D01*
X280342857Y-333348814D02*
X280471428Y-333348814D01*
X280471428Y-333348814D02*
X280557143Y-333391671D01*
X280557143Y-333391671D02*
X280600000Y-333434528D01*
X280600000Y-333434528D02*
X280642857Y-333520242D01*
X280642857Y-333520242D02*
X280642857Y-333734528D01*
X280642857Y-333734528D02*
X280600000Y-333820242D01*
X280600000Y-333820242D02*
X280557143Y-333863100D01*
X280557143Y-333863100D02*
X280471428Y-333905957D01*
X280471428Y-333905957D02*
X280214285Y-333905957D01*
X280214285Y-333905957D02*
X280128571Y-333863100D01*
X280128571Y-333863100D02*
X280085714Y-333820242D01*
X278521428Y-366905957D02*
X278521428Y-366005957D01*
X278521428Y-366005957D02*
X278864285Y-366005957D01*
X278864285Y-366005957D02*
X278950000Y-366048814D01*
X278950000Y-366048814D02*
X278992857Y-366091671D01*
X278992857Y-366091671D02*
X279035714Y-366177385D01*
X279035714Y-366177385D02*
X279035714Y-366305957D01*
X279035714Y-366305957D02*
X278992857Y-366391671D01*
X278992857Y-366391671D02*
X278950000Y-366434528D01*
X278950000Y-366434528D02*
X278864285Y-366477385D01*
X278864285Y-366477385D02*
X278521428Y-366477385D01*
X279378571Y-366648814D02*
X279807143Y-366648814D01*
X279292857Y-366905957D02*
X279592857Y-366005957D01*
X279592857Y-366005957D02*
X279892857Y-366905957D01*
X280150000Y-366863100D02*
X280278572Y-366905957D01*
X280278572Y-366905957D02*
X280492857Y-366905957D01*
X280492857Y-366905957D02*
X280578572Y-366863100D01*
X280578572Y-366863100D02*
X280621429Y-366820242D01*
X280621429Y-366820242D02*
X280664286Y-366734528D01*
X280664286Y-366734528D02*
X280664286Y-366648814D01*
X280664286Y-366648814D02*
X280621429Y-366563100D01*
X280621429Y-366563100D02*
X280578572Y-366520242D01*
X280578572Y-366520242D02*
X280492857Y-366477385D01*
X280492857Y-366477385D02*
X280321429Y-366434528D01*
X280321429Y-366434528D02*
X280235714Y-366391671D01*
X280235714Y-366391671D02*
X280192857Y-366348814D01*
X280192857Y-366348814D02*
X280150000Y-366263100D01*
X280150000Y-366263100D02*
X280150000Y-366177385D01*
X280150000Y-366177385D02*
X280192857Y-366091671D01*
X280192857Y-366091671D02*
X280235714Y-366048814D01*
X280235714Y-366048814D02*
X280321429Y-366005957D01*
X280321429Y-366005957D02*
X280535714Y-366005957D01*
X280535714Y-366005957D02*
X280664286Y-366048814D01*
X281007143Y-366863100D02*
X281135715Y-366905957D01*
X281135715Y-366905957D02*
X281350000Y-366905957D01*
X281350000Y-366905957D02*
X281435715Y-366863100D01*
X281435715Y-366863100D02*
X281478572Y-366820242D01*
X281478572Y-366820242D02*
X281521429Y-366734528D01*
X281521429Y-366734528D02*
X281521429Y-366648814D01*
X281521429Y-366648814D02*
X281478572Y-366563100D01*
X281478572Y-366563100D02*
X281435715Y-366520242D01*
X281435715Y-366520242D02*
X281350000Y-366477385D01*
X281350000Y-366477385D02*
X281178572Y-366434528D01*
X281178572Y-366434528D02*
X281092857Y-366391671D01*
X281092857Y-366391671D02*
X281050000Y-366348814D01*
X281050000Y-366348814D02*
X281007143Y-366263100D01*
X281007143Y-366263100D02*
X281007143Y-366177385D01*
X281007143Y-366177385D02*
X281050000Y-366091671D01*
X281050000Y-366091671D02*
X281092857Y-366048814D01*
X281092857Y-366048814D02*
X281178572Y-366005957D01*
X281178572Y-366005957D02*
X281392857Y-366005957D01*
X281392857Y-366005957D02*
X281521429Y-366048814D01*
X306692857Y-368905957D02*
X306392857Y-368477385D01*
X306178571Y-368905957D02*
X306178571Y-368005957D01*
X306178571Y-368005957D02*
X306521428Y-368005957D01*
X306521428Y-368005957D02*
X306607143Y-368048814D01*
X306607143Y-368048814D02*
X306650000Y-368091671D01*
X306650000Y-368091671D02*
X306692857Y-368177385D01*
X306692857Y-368177385D02*
X306692857Y-368305957D01*
X306692857Y-368305957D02*
X306650000Y-368391671D01*
X306650000Y-368391671D02*
X306607143Y-368434528D01*
X306607143Y-368434528D02*
X306521428Y-368477385D01*
X306521428Y-368477385D02*
X306178571Y-368477385D01*
X307078571Y-368434528D02*
X307378571Y-368434528D01*
X307507143Y-368905957D02*
X307078571Y-368905957D01*
X307078571Y-368905957D02*
X307078571Y-368005957D01*
X307078571Y-368005957D02*
X307507143Y-368005957D01*
X307850000Y-368863100D02*
X307978572Y-368905957D01*
X307978572Y-368905957D02*
X308192857Y-368905957D01*
X308192857Y-368905957D02*
X308278572Y-368863100D01*
X308278572Y-368863100D02*
X308321429Y-368820242D01*
X308321429Y-368820242D02*
X308364286Y-368734528D01*
X308364286Y-368734528D02*
X308364286Y-368648814D01*
X308364286Y-368648814D02*
X308321429Y-368563100D01*
X308321429Y-368563100D02*
X308278572Y-368520242D01*
X308278572Y-368520242D02*
X308192857Y-368477385D01*
X308192857Y-368477385D02*
X308021429Y-368434528D01*
X308021429Y-368434528D02*
X307935714Y-368391671D01*
X307935714Y-368391671D02*
X307892857Y-368348814D01*
X307892857Y-368348814D02*
X307850000Y-368263100D01*
X307850000Y-368263100D02*
X307850000Y-368177385D01*
X307850000Y-368177385D02*
X307892857Y-368091671D01*
X307892857Y-368091671D02*
X307935714Y-368048814D01*
X307935714Y-368048814D02*
X308021429Y-368005957D01*
X308021429Y-368005957D02*
X308235714Y-368005957D01*
X308235714Y-368005957D02*
X308364286Y-368048814D01*
X308750000Y-368434528D02*
X309050000Y-368434528D01*
X309178572Y-368905957D02*
X308750000Y-368905957D01*
X308750000Y-368905957D02*
X308750000Y-368005957D01*
X308750000Y-368005957D02*
X309178572Y-368005957D01*
X309435715Y-368005957D02*
X309950001Y-368005957D01*
X309692858Y-368905957D02*
X309692858Y-368005957D01*
X7285714Y-20166504D02*
X7761904Y-20166504D01*
X7190476Y-20452219D02*
X7523809Y-19452219D01*
X7523809Y-19452219D02*
X7857142Y-20452219D01*
X8333333Y-19880790D02*
X8238095Y-19833171D01*
X8238095Y-19833171D02*
X8190476Y-19785552D01*
X8190476Y-19785552D02*
X8142857Y-19690314D01*
X8142857Y-19690314D02*
X8142857Y-19642695D01*
X8142857Y-19642695D02*
X8190476Y-19547457D01*
X8190476Y-19547457D02*
X8238095Y-19499838D01*
X8238095Y-19499838D02*
X8333333Y-19452219D01*
X8333333Y-19452219D02*
X8523809Y-19452219D01*
X8523809Y-19452219D02*
X8619047Y-19499838D01*
X8619047Y-19499838D02*
X8666666Y-19547457D01*
X8666666Y-19547457D02*
X8714285Y-19642695D01*
X8714285Y-19642695D02*
X8714285Y-19690314D01*
X8714285Y-19690314D02*
X8666666Y-19785552D01*
X8666666Y-19785552D02*
X8619047Y-19833171D01*
X8619047Y-19833171D02*
X8523809Y-19880790D01*
X8523809Y-19880790D02*
X8333333Y-19880790D01*
X8333333Y-19880790D02*
X8238095Y-19928409D01*
X8238095Y-19928409D02*
X8190476Y-19976028D01*
X8190476Y-19976028D02*
X8142857Y-20071266D01*
X8142857Y-20071266D02*
X8142857Y-20261742D01*
X8142857Y-20261742D02*
X8190476Y-20356980D01*
X8190476Y-20356980D02*
X8238095Y-20404600D01*
X8238095Y-20404600D02*
X8333333Y-20452219D01*
X8333333Y-20452219D02*
X8523809Y-20452219D01*
X8523809Y-20452219D02*
X8619047Y-20404600D01*
X8619047Y-20404600D02*
X8666666Y-20356980D01*
X8666666Y-20356980D02*
X8714285Y-20261742D01*
X8714285Y-20261742D02*
X8714285Y-20071266D01*
X8714285Y-20071266D02*
X8666666Y-19976028D01*
X8666666Y-19976028D02*
X8619047Y-19928409D01*
X8619047Y-19928409D02*
X8523809Y-19880790D01*
X7285714Y-60166504D02*
X7761904Y-60166504D01*
X7190476Y-60452219D02*
X7523809Y-59452219D01*
X7523809Y-59452219D02*
X7857142Y-60452219D01*
X8095238Y-59452219D02*
X8761904Y-59452219D01*
X8761904Y-59452219D02*
X8333333Y-60452219D01*
X7285714Y-100166504D02*
X7761904Y-100166504D01*
X7190476Y-100452219D02*
X7523809Y-99452219D01*
X7523809Y-99452219D02*
X7857142Y-100452219D01*
X8619047Y-99452219D02*
X8428571Y-99452219D01*
X8428571Y-99452219D02*
X8333333Y-99499838D01*
X8333333Y-99499838D02*
X8285714Y-99547457D01*
X8285714Y-99547457D02*
X8190476Y-99690314D01*
X8190476Y-99690314D02*
X8142857Y-99880790D01*
X8142857Y-99880790D02*
X8142857Y-100261742D01*
X8142857Y-100261742D02*
X8190476Y-100356980D01*
X8190476Y-100356980D02*
X8238095Y-100404600D01*
X8238095Y-100404600D02*
X8333333Y-100452219D01*
X8333333Y-100452219D02*
X8523809Y-100452219D01*
X8523809Y-100452219D02*
X8619047Y-100404600D01*
X8619047Y-100404600D02*
X8666666Y-100356980D01*
X8666666Y-100356980D02*
X8714285Y-100261742D01*
X8714285Y-100261742D02*
X8714285Y-100023647D01*
X8714285Y-100023647D02*
X8666666Y-99928409D01*
X8666666Y-99928409D02*
X8619047Y-99880790D01*
X8619047Y-99880790D02*
X8523809Y-99833171D01*
X8523809Y-99833171D02*
X8333333Y-99833171D01*
X8333333Y-99833171D02*
X8238095Y-99880790D01*
X8238095Y-99880790D02*
X8190476Y-99928409D01*
X8190476Y-99928409D02*
X8142857Y-100023647D01*
X7285714Y-140166504D02*
X7761904Y-140166504D01*
X7190476Y-140452219D02*
X7523809Y-139452219D01*
X7523809Y-139452219D02*
X7857142Y-140452219D01*
X8666666Y-139452219D02*
X8190476Y-139452219D01*
X8190476Y-139452219D02*
X8142857Y-139928409D01*
X8142857Y-139928409D02*
X8190476Y-139880790D01*
X8190476Y-139880790D02*
X8285714Y-139833171D01*
X8285714Y-139833171D02*
X8523809Y-139833171D01*
X8523809Y-139833171D02*
X8619047Y-139880790D01*
X8619047Y-139880790D02*
X8666666Y-139928409D01*
X8666666Y-139928409D02*
X8714285Y-140023647D01*
X8714285Y-140023647D02*
X8714285Y-140261742D01*
X8714285Y-140261742D02*
X8666666Y-140356980D01*
X8666666Y-140356980D02*
X8619047Y-140404600D01*
X8619047Y-140404600D02*
X8523809Y-140452219D01*
X8523809Y-140452219D02*
X8285714Y-140452219D01*
X8285714Y-140452219D02*
X8190476Y-140404600D01*
X8190476Y-140404600D02*
X8142857Y-140356980D01*
X7285714Y-180166504D02*
X7761904Y-180166504D01*
X7190476Y-180452219D02*
X7523809Y-179452219D01*
X7523809Y-179452219D02*
X7857142Y-180452219D01*
X8619047Y-179785552D02*
X8619047Y-180452219D01*
X8380952Y-179404600D02*
X8142857Y-180118885D01*
X8142857Y-180118885D02*
X8761904Y-180118885D01*
X7285714Y-220166504D02*
X7761904Y-220166504D01*
X7190476Y-220452219D02*
X7523809Y-219452219D01*
X7523809Y-219452219D02*
X7857142Y-220452219D01*
X8095238Y-219452219D02*
X8714285Y-219452219D01*
X8714285Y-219452219D02*
X8380952Y-219833171D01*
X8380952Y-219833171D02*
X8523809Y-219833171D01*
X8523809Y-219833171D02*
X8619047Y-219880790D01*
X8619047Y-219880790D02*
X8666666Y-219928409D01*
X8666666Y-219928409D02*
X8714285Y-220023647D01*
X8714285Y-220023647D02*
X8714285Y-220261742D01*
X8714285Y-220261742D02*
X8666666Y-220356980D01*
X8666666Y-220356980D02*
X8619047Y-220404600D01*
X8619047Y-220404600D02*
X8523809Y-220452219D01*
X8523809Y-220452219D02*
X8238095Y-220452219D01*
X8238095Y-220452219D02*
X8142857Y-220404600D01*
X8142857Y-220404600D02*
X8095238Y-220356980D01*
X7285714Y-260166504D02*
X7761904Y-260166504D01*
X7190476Y-260452219D02*
X7523809Y-259452219D01*
X7523809Y-259452219D02*
X7857142Y-260452219D01*
X8142857Y-259547457D02*
X8190476Y-259499838D01*
X8190476Y-259499838D02*
X8285714Y-259452219D01*
X8285714Y-259452219D02*
X8523809Y-259452219D01*
X8523809Y-259452219D02*
X8619047Y-259499838D01*
X8619047Y-259499838D02*
X8666666Y-259547457D01*
X8666666Y-259547457D02*
X8714285Y-259642695D01*
X8714285Y-259642695D02*
X8714285Y-259737933D01*
X8714285Y-259737933D02*
X8666666Y-259880790D01*
X8666666Y-259880790D02*
X8095238Y-260452219D01*
X8095238Y-260452219D02*
X8714285Y-260452219D01*
X7285714Y-300166504D02*
X7761904Y-300166504D01*
X7190476Y-300452219D02*
X7523809Y-299452219D01*
X7523809Y-299452219D02*
X7857142Y-300452219D01*
X8714285Y-300452219D02*
X8142857Y-300452219D01*
X8428571Y-300452219D02*
X8428571Y-299452219D01*
X8428571Y-299452219D02*
X8333333Y-299595076D01*
X8333333Y-299595076D02*
X8238095Y-299690314D01*
X8238095Y-299690314D02*
X8142857Y-299737933D01*
X47595238Y-19928409D02*
X47738095Y-19976028D01*
X47738095Y-19976028D02*
X47785714Y-20023647D01*
X47785714Y-20023647D02*
X47833333Y-20118885D01*
X47833333Y-20118885D02*
X47833333Y-20261742D01*
X47833333Y-20261742D02*
X47785714Y-20356980D01*
X47785714Y-20356980D02*
X47738095Y-20404600D01*
X47738095Y-20404600D02*
X47642857Y-20452219D01*
X47642857Y-20452219D02*
X47261905Y-20452219D01*
X47261905Y-20452219D02*
X47261905Y-19452219D01*
X47261905Y-19452219D02*
X47595238Y-19452219D01*
X47595238Y-19452219D02*
X47690476Y-19499838D01*
X47690476Y-19499838D02*
X47738095Y-19547457D01*
X47738095Y-19547457D02*
X47785714Y-19642695D01*
X47785714Y-19642695D02*
X47785714Y-19737933D01*
X47785714Y-19737933D02*
X47738095Y-19833171D01*
X47738095Y-19833171D02*
X47690476Y-19880790D01*
X47690476Y-19880790D02*
X47595238Y-19928409D01*
X47595238Y-19928409D02*
X47261905Y-19928409D01*
X48404762Y-19880790D02*
X48309524Y-19833171D01*
X48309524Y-19833171D02*
X48261905Y-19785552D01*
X48261905Y-19785552D02*
X48214286Y-19690314D01*
X48214286Y-19690314D02*
X48214286Y-19642695D01*
X48214286Y-19642695D02*
X48261905Y-19547457D01*
X48261905Y-19547457D02*
X48309524Y-19499838D01*
X48309524Y-19499838D02*
X48404762Y-19452219D01*
X48404762Y-19452219D02*
X48595238Y-19452219D01*
X48595238Y-19452219D02*
X48690476Y-19499838D01*
X48690476Y-19499838D02*
X48738095Y-19547457D01*
X48738095Y-19547457D02*
X48785714Y-19642695D01*
X48785714Y-19642695D02*
X48785714Y-19690314D01*
X48785714Y-19690314D02*
X48738095Y-19785552D01*
X48738095Y-19785552D02*
X48690476Y-19833171D01*
X48690476Y-19833171D02*
X48595238Y-19880790D01*
X48595238Y-19880790D02*
X48404762Y-19880790D01*
X48404762Y-19880790D02*
X48309524Y-19928409D01*
X48309524Y-19928409D02*
X48261905Y-19976028D01*
X48261905Y-19976028D02*
X48214286Y-20071266D01*
X48214286Y-20071266D02*
X48214286Y-20261742D01*
X48214286Y-20261742D02*
X48261905Y-20356980D01*
X48261905Y-20356980D02*
X48309524Y-20404600D01*
X48309524Y-20404600D02*
X48404762Y-20452219D01*
X48404762Y-20452219D02*
X48595238Y-20452219D01*
X48595238Y-20452219D02*
X48690476Y-20404600D01*
X48690476Y-20404600D02*
X48738095Y-20356980D01*
X48738095Y-20356980D02*
X48785714Y-20261742D01*
X48785714Y-20261742D02*
X48785714Y-20071266D01*
X48785714Y-20071266D02*
X48738095Y-19976028D01*
X48738095Y-19976028D02*
X48690476Y-19928409D01*
X48690476Y-19928409D02*
X48595238Y-19880790D01*
X47595238Y-59928409D02*
X47738095Y-59976028D01*
X47738095Y-59976028D02*
X47785714Y-60023647D01*
X47785714Y-60023647D02*
X47833333Y-60118885D01*
X47833333Y-60118885D02*
X47833333Y-60261742D01*
X47833333Y-60261742D02*
X47785714Y-60356980D01*
X47785714Y-60356980D02*
X47738095Y-60404600D01*
X47738095Y-60404600D02*
X47642857Y-60452219D01*
X47642857Y-60452219D02*
X47261905Y-60452219D01*
X47261905Y-60452219D02*
X47261905Y-59452219D01*
X47261905Y-59452219D02*
X47595238Y-59452219D01*
X47595238Y-59452219D02*
X47690476Y-59499838D01*
X47690476Y-59499838D02*
X47738095Y-59547457D01*
X47738095Y-59547457D02*
X47785714Y-59642695D01*
X47785714Y-59642695D02*
X47785714Y-59737933D01*
X47785714Y-59737933D02*
X47738095Y-59833171D01*
X47738095Y-59833171D02*
X47690476Y-59880790D01*
X47690476Y-59880790D02*
X47595238Y-59928409D01*
X47595238Y-59928409D02*
X47261905Y-59928409D01*
X48166667Y-59452219D02*
X48833333Y-59452219D01*
X48833333Y-59452219D02*
X48404762Y-60452219D01*
X47595238Y-99928409D02*
X47738095Y-99976028D01*
X47738095Y-99976028D02*
X47785714Y-100023647D01*
X47785714Y-100023647D02*
X47833333Y-100118885D01*
X47833333Y-100118885D02*
X47833333Y-100261742D01*
X47833333Y-100261742D02*
X47785714Y-100356980D01*
X47785714Y-100356980D02*
X47738095Y-100404600D01*
X47738095Y-100404600D02*
X47642857Y-100452219D01*
X47642857Y-100452219D02*
X47261905Y-100452219D01*
X47261905Y-100452219D02*
X47261905Y-99452219D01*
X47261905Y-99452219D02*
X47595238Y-99452219D01*
X47595238Y-99452219D02*
X47690476Y-99499838D01*
X47690476Y-99499838D02*
X47738095Y-99547457D01*
X47738095Y-99547457D02*
X47785714Y-99642695D01*
X47785714Y-99642695D02*
X47785714Y-99737933D01*
X47785714Y-99737933D02*
X47738095Y-99833171D01*
X47738095Y-99833171D02*
X47690476Y-99880790D01*
X47690476Y-99880790D02*
X47595238Y-99928409D01*
X47595238Y-99928409D02*
X47261905Y-99928409D01*
X48690476Y-99452219D02*
X48500000Y-99452219D01*
X48500000Y-99452219D02*
X48404762Y-99499838D01*
X48404762Y-99499838D02*
X48357143Y-99547457D01*
X48357143Y-99547457D02*
X48261905Y-99690314D01*
X48261905Y-99690314D02*
X48214286Y-99880790D01*
X48214286Y-99880790D02*
X48214286Y-100261742D01*
X48214286Y-100261742D02*
X48261905Y-100356980D01*
X48261905Y-100356980D02*
X48309524Y-100404600D01*
X48309524Y-100404600D02*
X48404762Y-100452219D01*
X48404762Y-100452219D02*
X48595238Y-100452219D01*
X48595238Y-100452219D02*
X48690476Y-100404600D01*
X48690476Y-100404600D02*
X48738095Y-100356980D01*
X48738095Y-100356980D02*
X48785714Y-100261742D01*
X48785714Y-100261742D02*
X48785714Y-100023647D01*
X48785714Y-100023647D02*
X48738095Y-99928409D01*
X48738095Y-99928409D02*
X48690476Y-99880790D01*
X48690476Y-99880790D02*
X48595238Y-99833171D01*
X48595238Y-99833171D02*
X48404762Y-99833171D01*
X48404762Y-99833171D02*
X48309524Y-99880790D01*
X48309524Y-99880790D02*
X48261905Y-99928409D01*
X48261905Y-99928409D02*
X48214286Y-100023647D01*
X47595238Y-139928409D02*
X47738095Y-139976028D01*
X47738095Y-139976028D02*
X47785714Y-140023647D01*
X47785714Y-140023647D02*
X47833333Y-140118885D01*
X47833333Y-140118885D02*
X47833333Y-140261742D01*
X47833333Y-140261742D02*
X47785714Y-140356980D01*
X47785714Y-140356980D02*
X47738095Y-140404600D01*
X47738095Y-140404600D02*
X47642857Y-140452219D01*
X47642857Y-140452219D02*
X47261905Y-140452219D01*
X47261905Y-140452219D02*
X47261905Y-139452219D01*
X47261905Y-139452219D02*
X47595238Y-139452219D01*
X47595238Y-139452219D02*
X47690476Y-139499838D01*
X47690476Y-139499838D02*
X47738095Y-139547457D01*
X47738095Y-139547457D02*
X47785714Y-139642695D01*
X47785714Y-139642695D02*
X47785714Y-139737933D01*
X47785714Y-139737933D02*
X47738095Y-139833171D01*
X47738095Y-139833171D02*
X47690476Y-139880790D01*
X47690476Y-139880790D02*
X47595238Y-139928409D01*
X47595238Y-139928409D02*
X47261905Y-139928409D01*
X48738095Y-139452219D02*
X48261905Y-139452219D01*
X48261905Y-139452219D02*
X48214286Y-139928409D01*
X48214286Y-139928409D02*
X48261905Y-139880790D01*
X48261905Y-139880790D02*
X48357143Y-139833171D01*
X48357143Y-139833171D02*
X48595238Y-139833171D01*
X48595238Y-139833171D02*
X48690476Y-139880790D01*
X48690476Y-139880790D02*
X48738095Y-139928409D01*
X48738095Y-139928409D02*
X48785714Y-140023647D01*
X48785714Y-140023647D02*
X48785714Y-140261742D01*
X48785714Y-140261742D02*
X48738095Y-140356980D01*
X48738095Y-140356980D02*
X48690476Y-140404600D01*
X48690476Y-140404600D02*
X48595238Y-140452219D01*
X48595238Y-140452219D02*
X48357143Y-140452219D01*
X48357143Y-140452219D02*
X48261905Y-140404600D01*
X48261905Y-140404600D02*
X48214286Y-140356980D01*
X47595238Y-179928409D02*
X47738095Y-179976028D01*
X47738095Y-179976028D02*
X47785714Y-180023647D01*
X47785714Y-180023647D02*
X47833333Y-180118885D01*
X47833333Y-180118885D02*
X47833333Y-180261742D01*
X47833333Y-180261742D02*
X47785714Y-180356980D01*
X47785714Y-180356980D02*
X47738095Y-180404600D01*
X47738095Y-180404600D02*
X47642857Y-180452219D01*
X47642857Y-180452219D02*
X47261905Y-180452219D01*
X47261905Y-180452219D02*
X47261905Y-179452219D01*
X47261905Y-179452219D02*
X47595238Y-179452219D01*
X47595238Y-179452219D02*
X47690476Y-179499838D01*
X47690476Y-179499838D02*
X47738095Y-179547457D01*
X47738095Y-179547457D02*
X47785714Y-179642695D01*
X47785714Y-179642695D02*
X47785714Y-179737933D01*
X47785714Y-179737933D02*
X47738095Y-179833171D01*
X47738095Y-179833171D02*
X47690476Y-179880790D01*
X47690476Y-179880790D02*
X47595238Y-179928409D01*
X47595238Y-179928409D02*
X47261905Y-179928409D01*
X48690476Y-179785552D02*
X48690476Y-180452219D01*
X48452381Y-179404600D02*
X48214286Y-180118885D01*
X48214286Y-180118885D02*
X48833333Y-180118885D01*
X47595238Y-219928409D02*
X47738095Y-219976028D01*
X47738095Y-219976028D02*
X47785714Y-220023647D01*
X47785714Y-220023647D02*
X47833333Y-220118885D01*
X47833333Y-220118885D02*
X47833333Y-220261742D01*
X47833333Y-220261742D02*
X47785714Y-220356980D01*
X47785714Y-220356980D02*
X47738095Y-220404600D01*
X47738095Y-220404600D02*
X47642857Y-220452219D01*
X47642857Y-220452219D02*
X47261905Y-220452219D01*
X47261905Y-220452219D02*
X47261905Y-219452219D01*
X47261905Y-219452219D02*
X47595238Y-219452219D01*
X47595238Y-219452219D02*
X47690476Y-219499838D01*
X47690476Y-219499838D02*
X47738095Y-219547457D01*
X47738095Y-219547457D02*
X47785714Y-219642695D01*
X47785714Y-219642695D02*
X47785714Y-219737933D01*
X47785714Y-219737933D02*
X47738095Y-219833171D01*
X47738095Y-219833171D02*
X47690476Y-219880790D01*
X47690476Y-219880790D02*
X47595238Y-219928409D01*
X47595238Y-219928409D02*
X47261905Y-219928409D01*
X48166667Y-219452219D02*
X48785714Y-219452219D01*
X48785714Y-219452219D02*
X48452381Y-219833171D01*
X48452381Y-219833171D02*
X48595238Y-219833171D01*
X48595238Y-219833171D02*
X48690476Y-219880790D01*
X48690476Y-219880790D02*
X48738095Y-219928409D01*
X48738095Y-219928409D02*
X48785714Y-220023647D01*
X48785714Y-220023647D02*
X48785714Y-220261742D01*
X48785714Y-220261742D02*
X48738095Y-220356980D01*
X48738095Y-220356980D02*
X48690476Y-220404600D01*
X48690476Y-220404600D02*
X48595238Y-220452219D01*
X48595238Y-220452219D02*
X48309524Y-220452219D01*
X48309524Y-220452219D02*
X48214286Y-220404600D01*
X48214286Y-220404600D02*
X48166667Y-220356980D01*
X47595238Y-259928409D02*
X47738095Y-259976028D01*
X47738095Y-259976028D02*
X47785714Y-260023647D01*
X47785714Y-260023647D02*
X47833333Y-260118885D01*
X47833333Y-260118885D02*
X47833333Y-260261742D01*
X47833333Y-260261742D02*
X47785714Y-260356980D01*
X47785714Y-260356980D02*
X47738095Y-260404600D01*
X47738095Y-260404600D02*
X47642857Y-260452219D01*
X47642857Y-260452219D02*
X47261905Y-260452219D01*
X47261905Y-260452219D02*
X47261905Y-259452219D01*
X47261905Y-259452219D02*
X47595238Y-259452219D01*
X47595238Y-259452219D02*
X47690476Y-259499838D01*
X47690476Y-259499838D02*
X47738095Y-259547457D01*
X47738095Y-259547457D02*
X47785714Y-259642695D01*
X47785714Y-259642695D02*
X47785714Y-259737933D01*
X47785714Y-259737933D02*
X47738095Y-259833171D01*
X47738095Y-259833171D02*
X47690476Y-259880790D01*
X47690476Y-259880790D02*
X47595238Y-259928409D01*
X47595238Y-259928409D02*
X47261905Y-259928409D01*
X48214286Y-259547457D02*
X48261905Y-259499838D01*
X48261905Y-259499838D02*
X48357143Y-259452219D01*
X48357143Y-259452219D02*
X48595238Y-259452219D01*
X48595238Y-259452219D02*
X48690476Y-259499838D01*
X48690476Y-259499838D02*
X48738095Y-259547457D01*
X48738095Y-259547457D02*
X48785714Y-259642695D01*
X48785714Y-259642695D02*
X48785714Y-259737933D01*
X48785714Y-259737933D02*
X48738095Y-259880790D01*
X48738095Y-259880790D02*
X48166667Y-260452219D01*
X48166667Y-260452219D02*
X48785714Y-260452219D01*
X47595238Y-299928409D02*
X47738095Y-299976028D01*
X47738095Y-299976028D02*
X47785714Y-300023647D01*
X47785714Y-300023647D02*
X47833333Y-300118885D01*
X47833333Y-300118885D02*
X47833333Y-300261742D01*
X47833333Y-300261742D02*
X47785714Y-300356980D01*
X47785714Y-300356980D02*
X47738095Y-300404600D01*
X47738095Y-300404600D02*
X47642857Y-300452219D01*
X47642857Y-300452219D02*
X47261905Y-300452219D01*
X47261905Y-300452219D02*
X47261905Y-299452219D01*
X47261905Y-299452219D02*
X47595238Y-299452219D01*
X47595238Y-299452219D02*
X47690476Y-299499838D01*
X47690476Y-299499838D02*
X47738095Y-299547457D01*
X47738095Y-299547457D02*
X47785714Y-299642695D01*
X47785714Y-299642695D02*
X47785714Y-299737933D01*
X47785714Y-299737933D02*
X47738095Y-299833171D01*
X47738095Y-299833171D02*
X47690476Y-299880790D01*
X47690476Y-299880790D02*
X47595238Y-299928409D01*
X47595238Y-299928409D02*
X47261905Y-299928409D01*
X48785714Y-300452219D02*
X48214286Y-300452219D01*
X48500000Y-300452219D02*
X48500000Y-299452219D01*
X48500000Y-299452219D02*
X48404762Y-299595076D01*
X48404762Y-299595076D02*
X48309524Y-299690314D01*
X48309524Y-299690314D02*
X48214286Y-299737933D01*
X87833333Y-20356980D02*
X87785714Y-20404600D01*
X87785714Y-20404600D02*
X87642857Y-20452219D01*
X87642857Y-20452219D02*
X87547619Y-20452219D01*
X87547619Y-20452219D02*
X87404762Y-20404600D01*
X87404762Y-20404600D02*
X87309524Y-20309361D01*
X87309524Y-20309361D02*
X87261905Y-20214123D01*
X87261905Y-20214123D02*
X87214286Y-20023647D01*
X87214286Y-20023647D02*
X87214286Y-19880790D01*
X87214286Y-19880790D02*
X87261905Y-19690314D01*
X87261905Y-19690314D02*
X87309524Y-19595076D01*
X87309524Y-19595076D02*
X87404762Y-19499838D01*
X87404762Y-19499838D02*
X87547619Y-19452219D01*
X87547619Y-19452219D02*
X87642857Y-19452219D01*
X87642857Y-19452219D02*
X87785714Y-19499838D01*
X87785714Y-19499838D02*
X87833333Y-19547457D01*
X88404762Y-19880790D02*
X88309524Y-19833171D01*
X88309524Y-19833171D02*
X88261905Y-19785552D01*
X88261905Y-19785552D02*
X88214286Y-19690314D01*
X88214286Y-19690314D02*
X88214286Y-19642695D01*
X88214286Y-19642695D02*
X88261905Y-19547457D01*
X88261905Y-19547457D02*
X88309524Y-19499838D01*
X88309524Y-19499838D02*
X88404762Y-19452219D01*
X88404762Y-19452219D02*
X88595238Y-19452219D01*
X88595238Y-19452219D02*
X88690476Y-19499838D01*
X88690476Y-19499838D02*
X88738095Y-19547457D01*
X88738095Y-19547457D02*
X88785714Y-19642695D01*
X88785714Y-19642695D02*
X88785714Y-19690314D01*
X88785714Y-19690314D02*
X88738095Y-19785552D01*
X88738095Y-19785552D02*
X88690476Y-19833171D01*
X88690476Y-19833171D02*
X88595238Y-19880790D01*
X88595238Y-19880790D02*
X88404762Y-19880790D01*
X88404762Y-19880790D02*
X88309524Y-19928409D01*
X88309524Y-19928409D02*
X88261905Y-19976028D01*
X88261905Y-19976028D02*
X88214286Y-20071266D01*
X88214286Y-20071266D02*
X88214286Y-20261742D01*
X88214286Y-20261742D02*
X88261905Y-20356980D01*
X88261905Y-20356980D02*
X88309524Y-20404600D01*
X88309524Y-20404600D02*
X88404762Y-20452219D01*
X88404762Y-20452219D02*
X88595238Y-20452219D01*
X88595238Y-20452219D02*
X88690476Y-20404600D01*
X88690476Y-20404600D02*
X88738095Y-20356980D01*
X88738095Y-20356980D02*
X88785714Y-20261742D01*
X88785714Y-20261742D02*
X88785714Y-20071266D01*
X88785714Y-20071266D02*
X88738095Y-19976028D01*
X88738095Y-19976028D02*
X88690476Y-19928409D01*
X88690476Y-19928409D02*
X88595238Y-19880790D01*
X87833333Y-60356980D02*
X87785714Y-60404600D01*
X87785714Y-60404600D02*
X87642857Y-60452219D01*
X87642857Y-60452219D02*
X87547619Y-60452219D01*
X87547619Y-60452219D02*
X87404762Y-60404600D01*
X87404762Y-60404600D02*
X87309524Y-60309361D01*
X87309524Y-60309361D02*
X87261905Y-60214123D01*
X87261905Y-60214123D02*
X87214286Y-60023647D01*
X87214286Y-60023647D02*
X87214286Y-59880790D01*
X87214286Y-59880790D02*
X87261905Y-59690314D01*
X87261905Y-59690314D02*
X87309524Y-59595076D01*
X87309524Y-59595076D02*
X87404762Y-59499838D01*
X87404762Y-59499838D02*
X87547619Y-59452219D01*
X87547619Y-59452219D02*
X87642857Y-59452219D01*
X87642857Y-59452219D02*
X87785714Y-59499838D01*
X87785714Y-59499838D02*
X87833333Y-59547457D01*
X88166667Y-59452219D02*
X88833333Y-59452219D01*
X88833333Y-59452219D02*
X88404762Y-60452219D01*
X87833333Y-100356980D02*
X87785714Y-100404600D01*
X87785714Y-100404600D02*
X87642857Y-100452219D01*
X87642857Y-100452219D02*
X87547619Y-100452219D01*
X87547619Y-100452219D02*
X87404762Y-100404600D01*
X87404762Y-100404600D02*
X87309524Y-100309361D01*
X87309524Y-100309361D02*
X87261905Y-100214123D01*
X87261905Y-100214123D02*
X87214286Y-100023647D01*
X87214286Y-100023647D02*
X87214286Y-99880790D01*
X87214286Y-99880790D02*
X87261905Y-99690314D01*
X87261905Y-99690314D02*
X87309524Y-99595076D01*
X87309524Y-99595076D02*
X87404762Y-99499838D01*
X87404762Y-99499838D02*
X87547619Y-99452219D01*
X87547619Y-99452219D02*
X87642857Y-99452219D01*
X87642857Y-99452219D02*
X87785714Y-99499838D01*
X87785714Y-99499838D02*
X87833333Y-99547457D01*
X88690476Y-99452219D02*
X88500000Y-99452219D01*
X88500000Y-99452219D02*
X88404762Y-99499838D01*
X88404762Y-99499838D02*
X88357143Y-99547457D01*
X88357143Y-99547457D02*
X88261905Y-99690314D01*
X88261905Y-99690314D02*
X88214286Y-99880790D01*
X88214286Y-99880790D02*
X88214286Y-100261742D01*
X88214286Y-100261742D02*
X88261905Y-100356980D01*
X88261905Y-100356980D02*
X88309524Y-100404600D01*
X88309524Y-100404600D02*
X88404762Y-100452219D01*
X88404762Y-100452219D02*
X88595238Y-100452219D01*
X88595238Y-100452219D02*
X88690476Y-100404600D01*
X88690476Y-100404600D02*
X88738095Y-100356980D01*
X88738095Y-100356980D02*
X88785714Y-100261742D01*
X88785714Y-100261742D02*
X88785714Y-100023647D01*
X88785714Y-100023647D02*
X88738095Y-99928409D01*
X88738095Y-99928409D02*
X88690476Y-99880790D01*
X88690476Y-99880790D02*
X88595238Y-99833171D01*
X88595238Y-99833171D02*
X88404762Y-99833171D01*
X88404762Y-99833171D02*
X88309524Y-99880790D01*
X88309524Y-99880790D02*
X88261905Y-99928409D01*
X88261905Y-99928409D02*
X88214286Y-100023647D01*
X87833333Y-140356980D02*
X87785714Y-140404600D01*
X87785714Y-140404600D02*
X87642857Y-140452219D01*
X87642857Y-140452219D02*
X87547619Y-140452219D01*
X87547619Y-140452219D02*
X87404762Y-140404600D01*
X87404762Y-140404600D02*
X87309524Y-140309361D01*
X87309524Y-140309361D02*
X87261905Y-140214123D01*
X87261905Y-140214123D02*
X87214286Y-140023647D01*
X87214286Y-140023647D02*
X87214286Y-139880790D01*
X87214286Y-139880790D02*
X87261905Y-139690314D01*
X87261905Y-139690314D02*
X87309524Y-139595076D01*
X87309524Y-139595076D02*
X87404762Y-139499838D01*
X87404762Y-139499838D02*
X87547619Y-139452219D01*
X87547619Y-139452219D02*
X87642857Y-139452219D01*
X87642857Y-139452219D02*
X87785714Y-139499838D01*
X87785714Y-139499838D02*
X87833333Y-139547457D01*
X88738095Y-139452219D02*
X88261905Y-139452219D01*
X88261905Y-139452219D02*
X88214286Y-139928409D01*
X88214286Y-139928409D02*
X88261905Y-139880790D01*
X88261905Y-139880790D02*
X88357143Y-139833171D01*
X88357143Y-139833171D02*
X88595238Y-139833171D01*
X88595238Y-139833171D02*
X88690476Y-139880790D01*
X88690476Y-139880790D02*
X88738095Y-139928409D01*
X88738095Y-139928409D02*
X88785714Y-140023647D01*
X88785714Y-140023647D02*
X88785714Y-140261742D01*
X88785714Y-140261742D02*
X88738095Y-140356980D01*
X88738095Y-140356980D02*
X88690476Y-140404600D01*
X88690476Y-140404600D02*
X88595238Y-140452219D01*
X88595238Y-140452219D02*
X88357143Y-140452219D01*
X88357143Y-140452219D02*
X88261905Y-140404600D01*
X88261905Y-140404600D02*
X88214286Y-140356980D01*
X87833333Y-180356980D02*
X87785714Y-180404600D01*
X87785714Y-180404600D02*
X87642857Y-180452219D01*
X87642857Y-180452219D02*
X87547619Y-180452219D01*
X87547619Y-180452219D02*
X87404762Y-180404600D01*
X87404762Y-180404600D02*
X87309524Y-180309361D01*
X87309524Y-180309361D02*
X87261905Y-180214123D01*
X87261905Y-180214123D02*
X87214286Y-180023647D01*
X87214286Y-180023647D02*
X87214286Y-179880790D01*
X87214286Y-179880790D02*
X87261905Y-179690314D01*
X87261905Y-179690314D02*
X87309524Y-179595076D01*
X87309524Y-179595076D02*
X87404762Y-179499838D01*
X87404762Y-179499838D02*
X87547619Y-179452219D01*
X87547619Y-179452219D02*
X87642857Y-179452219D01*
X87642857Y-179452219D02*
X87785714Y-179499838D01*
X87785714Y-179499838D02*
X87833333Y-179547457D01*
X88690476Y-179785552D02*
X88690476Y-180452219D01*
X88452381Y-179404600D02*
X88214286Y-180118885D01*
X88214286Y-180118885D02*
X88833333Y-180118885D01*
X87833333Y-220356980D02*
X87785714Y-220404600D01*
X87785714Y-220404600D02*
X87642857Y-220452219D01*
X87642857Y-220452219D02*
X87547619Y-220452219D01*
X87547619Y-220452219D02*
X87404762Y-220404600D01*
X87404762Y-220404600D02*
X87309524Y-220309361D01*
X87309524Y-220309361D02*
X87261905Y-220214123D01*
X87261905Y-220214123D02*
X87214286Y-220023647D01*
X87214286Y-220023647D02*
X87214286Y-219880790D01*
X87214286Y-219880790D02*
X87261905Y-219690314D01*
X87261905Y-219690314D02*
X87309524Y-219595076D01*
X87309524Y-219595076D02*
X87404762Y-219499838D01*
X87404762Y-219499838D02*
X87547619Y-219452219D01*
X87547619Y-219452219D02*
X87642857Y-219452219D01*
X87642857Y-219452219D02*
X87785714Y-219499838D01*
X87785714Y-219499838D02*
X87833333Y-219547457D01*
X88166667Y-219452219D02*
X88785714Y-219452219D01*
X88785714Y-219452219D02*
X88452381Y-219833171D01*
X88452381Y-219833171D02*
X88595238Y-219833171D01*
X88595238Y-219833171D02*
X88690476Y-219880790D01*
X88690476Y-219880790D02*
X88738095Y-219928409D01*
X88738095Y-219928409D02*
X88785714Y-220023647D01*
X88785714Y-220023647D02*
X88785714Y-220261742D01*
X88785714Y-220261742D02*
X88738095Y-220356980D01*
X88738095Y-220356980D02*
X88690476Y-220404600D01*
X88690476Y-220404600D02*
X88595238Y-220452219D01*
X88595238Y-220452219D02*
X88309524Y-220452219D01*
X88309524Y-220452219D02*
X88214286Y-220404600D01*
X88214286Y-220404600D02*
X88166667Y-220356980D01*
X87833333Y-260356980D02*
X87785714Y-260404600D01*
X87785714Y-260404600D02*
X87642857Y-260452219D01*
X87642857Y-260452219D02*
X87547619Y-260452219D01*
X87547619Y-260452219D02*
X87404762Y-260404600D01*
X87404762Y-260404600D02*
X87309524Y-260309361D01*
X87309524Y-260309361D02*
X87261905Y-260214123D01*
X87261905Y-260214123D02*
X87214286Y-260023647D01*
X87214286Y-260023647D02*
X87214286Y-259880790D01*
X87214286Y-259880790D02*
X87261905Y-259690314D01*
X87261905Y-259690314D02*
X87309524Y-259595076D01*
X87309524Y-259595076D02*
X87404762Y-259499838D01*
X87404762Y-259499838D02*
X87547619Y-259452219D01*
X87547619Y-259452219D02*
X87642857Y-259452219D01*
X87642857Y-259452219D02*
X87785714Y-259499838D01*
X87785714Y-259499838D02*
X87833333Y-259547457D01*
X88214286Y-259547457D02*
X88261905Y-259499838D01*
X88261905Y-259499838D02*
X88357143Y-259452219D01*
X88357143Y-259452219D02*
X88595238Y-259452219D01*
X88595238Y-259452219D02*
X88690476Y-259499838D01*
X88690476Y-259499838D02*
X88738095Y-259547457D01*
X88738095Y-259547457D02*
X88785714Y-259642695D01*
X88785714Y-259642695D02*
X88785714Y-259737933D01*
X88785714Y-259737933D02*
X88738095Y-259880790D01*
X88738095Y-259880790D02*
X88166667Y-260452219D01*
X88166667Y-260452219D02*
X88785714Y-260452219D01*
X87833333Y-300356980D02*
X87785714Y-300404600D01*
X87785714Y-300404600D02*
X87642857Y-300452219D01*
X87642857Y-300452219D02*
X87547619Y-300452219D01*
X87547619Y-300452219D02*
X87404762Y-300404600D01*
X87404762Y-300404600D02*
X87309524Y-300309361D01*
X87309524Y-300309361D02*
X87261905Y-300214123D01*
X87261905Y-300214123D02*
X87214286Y-300023647D01*
X87214286Y-300023647D02*
X87214286Y-299880790D01*
X87214286Y-299880790D02*
X87261905Y-299690314D01*
X87261905Y-299690314D02*
X87309524Y-299595076D01*
X87309524Y-299595076D02*
X87404762Y-299499838D01*
X87404762Y-299499838D02*
X87547619Y-299452219D01*
X87547619Y-299452219D02*
X87642857Y-299452219D01*
X87642857Y-299452219D02*
X87785714Y-299499838D01*
X87785714Y-299499838D02*
X87833333Y-299547457D01*
X88785714Y-300452219D02*
X88214286Y-300452219D01*
X88500000Y-300452219D02*
X88500000Y-299452219D01*
X88500000Y-299452219D02*
X88404762Y-299595076D01*
X88404762Y-299595076D02*
X88309524Y-299690314D01*
X88309524Y-299690314D02*
X88214286Y-299737933D01*
X127261905Y-20452219D02*
X127261905Y-19452219D01*
X127261905Y-19452219D02*
X127500000Y-19452219D01*
X127500000Y-19452219D02*
X127642857Y-19499838D01*
X127642857Y-19499838D02*
X127738095Y-19595076D01*
X127738095Y-19595076D02*
X127785714Y-19690314D01*
X127785714Y-19690314D02*
X127833333Y-19880790D01*
X127833333Y-19880790D02*
X127833333Y-20023647D01*
X127833333Y-20023647D02*
X127785714Y-20214123D01*
X127785714Y-20214123D02*
X127738095Y-20309361D01*
X127738095Y-20309361D02*
X127642857Y-20404600D01*
X127642857Y-20404600D02*
X127500000Y-20452219D01*
X127500000Y-20452219D02*
X127261905Y-20452219D01*
X128404762Y-19880790D02*
X128309524Y-19833171D01*
X128309524Y-19833171D02*
X128261905Y-19785552D01*
X128261905Y-19785552D02*
X128214286Y-19690314D01*
X128214286Y-19690314D02*
X128214286Y-19642695D01*
X128214286Y-19642695D02*
X128261905Y-19547457D01*
X128261905Y-19547457D02*
X128309524Y-19499838D01*
X128309524Y-19499838D02*
X128404762Y-19452219D01*
X128404762Y-19452219D02*
X128595238Y-19452219D01*
X128595238Y-19452219D02*
X128690476Y-19499838D01*
X128690476Y-19499838D02*
X128738095Y-19547457D01*
X128738095Y-19547457D02*
X128785714Y-19642695D01*
X128785714Y-19642695D02*
X128785714Y-19690314D01*
X128785714Y-19690314D02*
X128738095Y-19785552D01*
X128738095Y-19785552D02*
X128690476Y-19833171D01*
X128690476Y-19833171D02*
X128595238Y-19880790D01*
X128595238Y-19880790D02*
X128404762Y-19880790D01*
X128404762Y-19880790D02*
X128309524Y-19928409D01*
X128309524Y-19928409D02*
X128261905Y-19976028D01*
X128261905Y-19976028D02*
X128214286Y-20071266D01*
X128214286Y-20071266D02*
X128214286Y-20261742D01*
X128214286Y-20261742D02*
X128261905Y-20356980D01*
X128261905Y-20356980D02*
X128309524Y-20404600D01*
X128309524Y-20404600D02*
X128404762Y-20452219D01*
X128404762Y-20452219D02*
X128595238Y-20452219D01*
X128595238Y-20452219D02*
X128690476Y-20404600D01*
X128690476Y-20404600D02*
X128738095Y-20356980D01*
X128738095Y-20356980D02*
X128785714Y-20261742D01*
X128785714Y-20261742D02*
X128785714Y-20071266D01*
X128785714Y-20071266D02*
X128738095Y-19976028D01*
X128738095Y-19976028D02*
X128690476Y-19928409D01*
X128690476Y-19928409D02*
X128595238Y-19880790D01*
X127261905Y-60452219D02*
X127261905Y-59452219D01*
X127261905Y-59452219D02*
X127500000Y-59452219D01*
X127500000Y-59452219D02*
X127642857Y-59499838D01*
X127642857Y-59499838D02*
X127738095Y-59595076D01*
X127738095Y-59595076D02*
X127785714Y-59690314D01*
X127785714Y-59690314D02*
X127833333Y-59880790D01*
X127833333Y-59880790D02*
X127833333Y-60023647D01*
X127833333Y-60023647D02*
X127785714Y-60214123D01*
X127785714Y-60214123D02*
X127738095Y-60309361D01*
X127738095Y-60309361D02*
X127642857Y-60404600D01*
X127642857Y-60404600D02*
X127500000Y-60452219D01*
X127500000Y-60452219D02*
X127261905Y-60452219D01*
X128166667Y-59452219D02*
X128833333Y-59452219D01*
X128833333Y-59452219D02*
X128404762Y-60452219D01*
X127261905Y-100452219D02*
X127261905Y-99452219D01*
X127261905Y-99452219D02*
X127500000Y-99452219D01*
X127500000Y-99452219D02*
X127642857Y-99499838D01*
X127642857Y-99499838D02*
X127738095Y-99595076D01*
X127738095Y-99595076D02*
X127785714Y-99690314D01*
X127785714Y-99690314D02*
X127833333Y-99880790D01*
X127833333Y-99880790D02*
X127833333Y-100023647D01*
X127833333Y-100023647D02*
X127785714Y-100214123D01*
X127785714Y-100214123D02*
X127738095Y-100309361D01*
X127738095Y-100309361D02*
X127642857Y-100404600D01*
X127642857Y-100404600D02*
X127500000Y-100452219D01*
X127500000Y-100452219D02*
X127261905Y-100452219D01*
X128690476Y-99452219D02*
X128500000Y-99452219D01*
X128500000Y-99452219D02*
X128404762Y-99499838D01*
X128404762Y-99499838D02*
X128357143Y-99547457D01*
X128357143Y-99547457D02*
X128261905Y-99690314D01*
X128261905Y-99690314D02*
X128214286Y-99880790D01*
X128214286Y-99880790D02*
X128214286Y-100261742D01*
X128214286Y-100261742D02*
X128261905Y-100356980D01*
X128261905Y-100356980D02*
X128309524Y-100404600D01*
X128309524Y-100404600D02*
X128404762Y-100452219D01*
X128404762Y-100452219D02*
X128595238Y-100452219D01*
X128595238Y-100452219D02*
X128690476Y-100404600D01*
X128690476Y-100404600D02*
X128738095Y-100356980D01*
X128738095Y-100356980D02*
X128785714Y-100261742D01*
X128785714Y-100261742D02*
X128785714Y-100023647D01*
X128785714Y-100023647D02*
X128738095Y-99928409D01*
X128738095Y-99928409D02*
X128690476Y-99880790D01*
X128690476Y-99880790D02*
X128595238Y-99833171D01*
X128595238Y-99833171D02*
X128404762Y-99833171D01*
X128404762Y-99833171D02*
X128309524Y-99880790D01*
X128309524Y-99880790D02*
X128261905Y-99928409D01*
X128261905Y-99928409D02*
X128214286Y-100023647D01*
X127261905Y-140452219D02*
X127261905Y-139452219D01*
X127261905Y-139452219D02*
X127500000Y-139452219D01*
X127500000Y-139452219D02*
X127642857Y-139499838D01*
X127642857Y-139499838D02*
X127738095Y-139595076D01*
X127738095Y-139595076D02*
X127785714Y-139690314D01*
X127785714Y-139690314D02*
X127833333Y-139880790D01*
X127833333Y-139880790D02*
X127833333Y-140023647D01*
X127833333Y-140023647D02*
X127785714Y-140214123D01*
X127785714Y-140214123D02*
X127738095Y-140309361D01*
X127738095Y-140309361D02*
X127642857Y-140404600D01*
X127642857Y-140404600D02*
X127500000Y-140452219D01*
X127500000Y-140452219D02*
X127261905Y-140452219D01*
X128738095Y-139452219D02*
X128261905Y-139452219D01*
X128261905Y-139452219D02*
X128214286Y-139928409D01*
X128214286Y-139928409D02*
X128261905Y-139880790D01*
X128261905Y-139880790D02*
X128357143Y-139833171D01*
X128357143Y-139833171D02*
X128595238Y-139833171D01*
X128595238Y-139833171D02*
X128690476Y-139880790D01*
X128690476Y-139880790D02*
X128738095Y-139928409D01*
X128738095Y-139928409D02*
X128785714Y-140023647D01*
X128785714Y-140023647D02*
X128785714Y-140261742D01*
X128785714Y-140261742D02*
X128738095Y-140356980D01*
X128738095Y-140356980D02*
X128690476Y-140404600D01*
X128690476Y-140404600D02*
X128595238Y-140452219D01*
X128595238Y-140452219D02*
X128357143Y-140452219D01*
X128357143Y-140452219D02*
X128261905Y-140404600D01*
X128261905Y-140404600D02*
X128214286Y-140356980D01*
X127261905Y-180452219D02*
X127261905Y-179452219D01*
X127261905Y-179452219D02*
X127500000Y-179452219D01*
X127500000Y-179452219D02*
X127642857Y-179499838D01*
X127642857Y-179499838D02*
X127738095Y-179595076D01*
X127738095Y-179595076D02*
X127785714Y-179690314D01*
X127785714Y-179690314D02*
X127833333Y-179880790D01*
X127833333Y-179880790D02*
X127833333Y-180023647D01*
X127833333Y-180023647D02*
X127785714Y-180214123D01*
X127785714Y-180214123D02*
X127738095Y-180309361D01*
X127738095Y-180309361D02*
X127642857Y-180404600D01*
X127642857Y-180404600D02*
X127500000Y-180452219D01*
X127500000Y-180452219D02*
X127261905Y-180452219D01*
X128690476Y-179785552D02*
X128690476Y-180452219D01*
X128452381Y-179404600D02*
X128214286Y-180118885D01*
X128214286Y-180118885D02*
X128833333Y-180118885D01*
X127261905Y-220452219D02*
X127261905Y-219452219D01*
X127261905Y-219452219D02*
X127500000Y-219452219D01*
X127500000Y-219452219D02*
X127642857Y-219499838D01*
X127642857Y-219499838D02*
X127738095Y-219595076D01*
X127738095Y-219595076D02*
X127785714Y-219690314D01*
X127785714Y-219690314D02*
X127833333Y-219880790D01*
X127833333Y-219880790D02*
X127833333Y-220023647D01*
X127833333Y-220023647D02*
X127785714Y-220214123D01*
X127785714Y-220214123D02*
X127738095Y-220309361D01*
X127738095Y-220309361D02*
X127642857Y-220404600D01*
X127642857Y-220404600D02*
X127500000Y-220452219D01*
X127500000Y-220452219D02*
X127261905Y-220452219D01*
X128166667Y-219452219D02*
X128785714Y-219452219D01*
X128785714Y-219452219D02*
X128452381Y-219833171D01*
X128452381Y-219833171D02*
X128595238Y-219833171D01*
X128595238Y-219833171D02*
X128690476Y-219880790D01*
X128690476Y-219880790D02*
X128738095Y-219928409D01*
X128738095Y-219928409D02*
X128785714Y-220023647D01*
X128785714Y-220023647D02*
X128785714Y-220261742D01*
X128785714Y-220261742D02*
X128738095Y-220356980D01*
X128738095Y-220356980D02*
X128690476Y-220404600D01*
X128690476Y-220404600D02*
X128595238Y-220452219D01*
X128595238Y-220452219D02*
X128309524Y-220452219D01*
X128309524Y-220452219D02*
X128214286Y-220404600D01*
X128214286Y-220404600D02*
X128166667Y-220356980D01*
X127261905Y-260452219D02*
X127261905Y-259452219D01*
X127261905Y-259452219D02*
X127500000Y-259452219D01*
X127500000Y-259452219D02*
X127642857Y-259499838D01*
X127642857Y-259499838D02*
X127738095Y-259595076D01*
X127738095Y-259595076D02*
X127785714Y-259690314D01*
X127785714Y-259690314D02*
X127833333Y-259880790D01*
X127833333Y-259880790D02*
X127833333Y-260023647D01*
X127833333Y-260023647D02*
X127785714Y-260214123D01*
X127785714Y-260214123D02*
X127738095Y-260309361D01*
X127738095Y-260309361D02*
X127642857Y-260404600D01*
X127642857Y-260404600D02*
X127500000Y-260452219D01*
X127500000Y-260452219D02*
X127261905Y-260452219D01*
X128214286Y-259547457D02*
X128261905Y-259499838D01*
X128261905Y-259499838D02*
X128357143Y-259452219D01*
X128357143Y-259452219D02*
X128595238Y-259452219D01*
X128595238Y-259452219D02*
X128690476Y-259499838D01*
X128690476Y-259499838D02*
X128738095Y-259547457D01*
X128738095Y-259547457D02*
X128785714Y-259642695D01*
X128785714Y-259642695D02*
X128785714Y-259737933D01*
X128785714Y-259737933D02*
X128738095Y-259880790D01*
X128738095Y-259880790D02*
X128166667Y-260452219D01*
X128166667Y-260452219D02*
X128785714Y-260452219D01*
X127261905Y-300452219D02*
X127261905Y-299452219D01*
X127261905Y-299452219D02*
X127500000Y-299452219D01*
X127500000Y-299452219D02*
X127642857Y-299499838D01*
X127642857Y-299499838D02*
X127738095Y-299595076D01*
X127738095Y-299595076D02*
X127785714Y-299690314D01*
X127785714Y-299690314D02*
X127833333Y-299880790D01*
X127833333Y-299880790D02*
X127833333Y-300023647D01*
X127833333Y-300023647D02*
X127785714Y-300214123D01*
X127785714Y-300214123D02*
X127738095Y-300309361D01*
X127738095Y-300309361D02*
X127642857Y-300404600D01*
X127642857Y-300404600D02*
X127500000Y-300452219D01*
X127500000Y-300452219D02*
X127261905Y-300452219D01*
X128785714Y-300452219D02*
X128214286Y-300452219D01*
X128500000Y-300452219D02*
X128500000Y-299452219D01*
X128500000Y-299452219D02*
X128404762Y-299595076D01*
X128404762Y-299595076D02*
X128309524Y-299690314D01*
X128309524Y-299690314D02*
X128214286Y-299737933D01*
X167309524Y-19928409D02*
X167642857Y-19928409D01*
X167785714Y-20452219D02*
X167309524Y-20452219D01*
X167309524Y-20452219D02*
X167309524Y-19452219D01*
X167309524Y-19452219D02*
X167785714Y-19452219D01*
X168357143Y-19880790D02*
X168261905Y-19833171D01*
X168261905Y-19833171D02*
X168214286Y-19785552D01*
X168214286Y-19785552D02*
X168166667Y-19690314D01*
X168166667Y-19690314D02*
X168166667Y-19642695D01*
X168166667Y-19642695D02*
X168214286Y-19547457D01*
X168214286Y-19547457D02*
X168261905Y-19499838D01*
X168261905Y-19499838D02*
X168357143Y-19452219D01*
X168357143Y-19452219D02*
X168547619Y-19452219D01*
X168547619Y-19452219D02*
X168642857Y-19499838D01*
X168642857Y-19499838D02*
X168690476Y-19547457D01*
X168690476Y-19547457D02*
X168738095Y-19642695D01*
X168738095Y-19642695D02*
X168738095Y-19690314D01*
X168738095Y-19690314D02*
X168690476Y-19785552D01*
X168690476Y-19785552D02*
X168642857Y-19833171D01*
X168642857Y-19833171D02*
X168547619Y-19880790D01*
X168547619Y-19880790D02*
X168357143Y-19880790D01*
X168357143Y-19880790D02*
X168261905Y-19928409D01*
X168261905Y-19928409D02*
X168214286Y-19976028D01*
X168214286Y-19976028D02*
X168166667Y-20071266D01*
X168166667Y-20071266D02*
X168166667Y-20261742D01*
X168166667Y-20261742D02*
X168214286Y-20356980D01*
X168214286Y-20356980D02*
X168261905Y-20404600D01*
X168261905Y-20404600D02*
X168357143Y-20452219D01*
X168357143Y-20452219D02*
X168547619Y-20452219D01*
X168547619Y-20452219D02*
X168642857Y-20404600D01*
X168642857Y-20404600D02*
X168690476Y-20356980D01*
X168690476Y-20356980D02*
X168738095Y-20261742D01*
X168738095Y-20261742D02*
X168738095Y-20071266D01*
X168738095Y-20071266D02*
X168690476Y-19976028D01*
X168690476Y-19976028D02*
X168642857Y-19928409D01*
X168642857Y-19928409D02*
X168547619Y-19880790D01*
X167309524Y-59928409D02*
X167642857Y-59928409D01*
X167785714Y-60452219D02*
X167309524Y-60452219D01*
X167309524Y-60452219D02*
X167309524Y-59452219D01*
X167309524Y-59452219D02*
X167785714Y-59452219D01*
X168119048Y-59452219D02*
X168785714Y-59452219D01*
X168785714Y-59452219D02*
X168357143Y-60452219D01*
X167309524Y-99928409D02*
X167642857Y-99928409D01*
X167785714Y-100452219D02*
X167309524Y-100452219D01*
X167309524Y-100452219D02*
X167309524Y-99452219D01*
X167309524Y-99452219D02*
X167785714Y-99452219D01*
X168642857Y-99452219D02*
X168452381Y-99452219D01*
X168452381Y-99452219D02*
X168357143Y-99499838D01*
X168357143Y-99499838D02*
X168309524Y-99547457D01*
X168309524Y-99547457D02*
X168214286Y-99690314D01*
X168214286Y-99690314D02*
X168166667Y-99880790D01*
X168166667Y-99880790D02*
X168166667Y-100261742D01*
X168166667Y-100261742D02*
X168214286Y-100356980D01*
X168214286Y-100356980D02*
X168261905Y-100404600D01*
X168261905Y-100404600D02*
X168357143Y-100452219D01*
X168357143Y-100452219D02*
X168547619Y-100452219D01*
X168547619Y-100452219D02*
X168642857Y-100404600D01*
X168642857Y-100404600D02*
X168690476Y-100356980D01*
X168690476Y-100356980D02*
X168738095Y-100261742D01*
X168738095Y-100261742D02*
X168738095Y-100023647D01*
X168738095Y-100023647D02*
X168690476Y-99928409D01*
X168690476Y-99928409D02*
X168642857Y-99880790D01*
X168642857Y-99880790D02*
X168547619Y-99833171D01*
X168547619Y-99833171D02*
X168357143Y-99833171D01*
X168357143Y-99833171D02*
X168261905Y-99880790D01*
X168261905Y-99880790D02*
X168214286Y-99928409D01*
X168214286Y-99928409D02*
X168166667Y-100023647D01*
X167309524Y-139928409D02*
X167642857Y-139928409D01*
X167785714Y-140452219D02*
X167309524Y-140452219D01*
X167309524Y-140452219D02*
X167309524Y-139452219D01*
X167309524Y-139452219D02*
X167785714Y-139452219D01*
X168690476Y-139452219D02*
X168214286Y-139452219D01*
X168214286Y-139452219D02*
X168166667Y-139928409D01*
X168166667Y-139928409D02*
X168214286Y-139880790D01*
X168214286Y-139880790D02*
X168309524Y-139833171D01*
X168309524Y-139833171D02*
X168547619Y-139833171D01*
X168547619Y-139833171D02*
X168642857Y-139880790D01*
X168642857Y-139880790D02*
X168690476Y-139928409D01*
X168690476Y-139928409D02*
X168738095Y-140023647D01*
X168738095Y-140023647D02*
X168738095Y-140261742D01*
X168738095Y-140261742D02*
X168690476Y-140356980D01*
X168690476Y-140356980D02*
X168642857Y-140404600D01*
X168642857Y-140404600D02*
X168547619Y-140452219D01*
X168547619Y-140452219D02*
X168309524Y-140452219D01*
X168309524Y-140452219D02*
X168214286Y-140404600D01*
X168214286Y-140404600D02*
X168166667Y-140356980D01*
X167309524Y-179928409D02*
X167642857Y-179928409D01*
X167785714Y-180452219D02*
X167309524Y-180452219D01*
X167309524Y-180452219D02*
X167309524Y-179452219D01*
X167309524Y-179452219D02*
X167785714Y-179452219D01*
X168642857Y-179785552D02*
X168642857Y-180452219D01*
X168404762Y-179404600D02*
X168166667Y-180118885D01*
X168166667Y-180118885D02*
X168785714Y-180118885D01*
X167309524Y-219928409D02*
X167642857Y-219928409D01*
X167785714Y-220452219D02*
X167309524Y-220452219D01*
X167309524Y-220452219D02*
X167309524Y-219452219D01*
X167309524Y-219452219D02*
X167785714Y-219452219D01*
X168119048Y-219452219D02*
X168738095Y-219452219D01*
X168738095Y-219452219D02*
X168404762Y-219833171D01*
X168404762Y-219833171D02*
X168547619Y-219833171D01*
X168547619Y-219833171D02*
X168642857Y-219880790D01*
X168642857Y-219880790D02*
X168690476Y-219928409D01*
X168690476Y-219928409D02*
X168738095Y-220023647D01*
X168738095Y-220023647D02*
X168738095Y-220261742D01*
X168738095Y-220261742D02*
X168690476Y-220356980D01*
X168690476Y-220356980D02*
X168642857Y-220404600D01*
X168642857Y-220404600D02*
X168547619Y-220452219D01*
X168547619Y-220452219D02*
X168261905Y-220452219D01*
X168261905Y-220452219D02*
X168166667Y-220404600D01*
X168166667Y-220404600D02*
X168119048Y-220356980D01*
X167309524Y-259928409D02*
X167642857Y-259928409D01*
X167785714Y-260452219D02*
X167309524Y-260452219D01*
X167309524Y-260452219D02*
X167309524Y-259452219D01*
X167309524Y-259452219D02*
X167785714Y-259452219D01*
X168166667Y-259547457D02*
X168214286Y-259499838D01*
X168214286Y-259499838D02*
X168309524Y-259452219D01*
X168309524Y-259452219D02*
X168547619Y-259452219D01*
X168547619Y-259452219D02*
X168642857Y-259499838D01*
X168642857Y-259499838D02*
X168690476Y-259547457D01*
X168690476Y-259547457D02*
X168738095Y-259642695D01*
X168738095Y-259642695D02*
X168738095Y-259737933D01*
X168738095Y-259737933D02*
X168690476Y-259880790D01*
X168690476Y-259880790D02*
X168119048Y-260452219D01*
X168119048Y-260452219D02*
X168738095Y-260452219D01*
X167309524Y-299928409D02*
X167642857Y-299928409D01*
X167785714Y-300452219D02*
X167309524Y-300452219D01*
X167309524Y-300452219D02*
X167309524Y-299452219D01*
X167309524Y-299452219D02*
X167785714Y-299452219D01*
X168738095Y-300452219D02*
X168166667Y-300452219D01*
X168452381Y-300452219D02*
X168452381Y-299452219D01*
X168452381Y-299452219D02*
X168357143Y-299595076D01*
X168357143Y-299595076D02*
X168261905Y-299690314D01*
X168261905Y-299690314D02*
X168166667Y-299737933D01*
X207666666Y-19928409D02*
X207333333Y-19928409D01*
X207333333Y-20452219D02*
X207333333Y-19452219D01*
X207333333Y-19452219D02*
X207809523Y-19452219D01*
X208333333Y-19880790D02*
X208238095Y-19833171D01*
X208238095Y-19833171D02*
X208190476Y-19785552D01*
X208190476Y-19785552D02*
X208142857Y-19690314D01*
X208142857Y-19690314D02*
X208142857Y-19642695D01*
X208142857Y-19642695D02*
X208190476Y-19547457D01*
X208190476Y-19547457D02*
X208238095Y-19499838D01*
X208238095Y-19499838D02*
X208333333Y-19452219D01*
X208333333Y-19452219D02*
X208523809Y-19452219D01*
X208523809Y-19452219D02*
X208619047Y-19499838D01*
X208619047Y-19499838D02*
X208666666Y-19547457D01*
X208666666Y-19547457D02*
X208714285Y-19642695D01*
X208714285Y-19642695D02*
X208714285Y-19690314D01*
X208714285Y-19690314D02*
X208666666Y-19785552D01*
X208666666Y-19785552D02*
X208619047Y-19833171D01*
X208619047Y-19833171D02*
X208523809Y-19880790D01*
X208523809Y-19880790D02*
X208333333Y-19880790D01*
X208333333Y-19880790D02*
X208238095Y-19928409D01*
X208238095Y-19928409D02*
X208190476Y-19976028D01*
X208190476Y-19976028D02*
X208142857Y-20071266D01*
X208142857Y-20071266D02*
X208142857Y-20261742D01*
X208142857Y-20261742D02*
X208190476Y-20356980D01*
X208190476Y-20356980D02*
X208238095Y-20404600D01*
X208238095Y-20404600D02*
X208333333Y-20452219D01*
X208333333Y-20452219D02*
X208523809Y-20452219D01*
X208523809Y-20452219D02*
X208619047Y-20404600D01*
X208619047Y-20404600D02*
X208666666Y-20356980D01*
X208666666Y-20356980D02*
X208714285Y-20261742D01*
X208714285Y-20261742D02*
X208714285Y-20071266D01*
X208714285Y-20071266D02*
X208666666Y-19976028D01*
X208666666Y-19976028D02*
X208619047Y-19928409D01*
X208619047Y-19928409D02*
X208523809Y-19880790D01*
X207666666Y-59928409D02*
X207333333Y-59928409D01*
X207333333Y-60452219D02*
X207333333Y-59452219D01*
X207333333Y-59452219D02*
X207809523Y-59452219D01*
X208095238Y-59452219D02*
X208761904Y-59452219D01*
X208761904Y-59452219D02*
X208333333Y-60452219D01*
X207666666Y-99928409D02*
X207333333Y-99928409D01*
X207333333Y-100452219D02*
X207333333Y-99452219D01*
X207333333Y-99452219D02*
X207809523Y-99452219D01*
X208619047Y-99452219D02*
X208428571Y-99452219D01*
X208428571Y-99452219D02*
X208333333Y-99499838D01*
X208333333Y-99499838D02*
X208285714Y-99547457D01*
X208285714Y-99547457D02*
X208190476Y-99690314D01*
X208190476Y-99690314D02*
X208142857Y-99880790D01*
X208142857Y-99880790D02*
X208142857Y-100261742D01*
X208142857Y-100261742D02*
X208190476Y-100356980D01*
X208190476Y-100356980D02*
X208238095Y-100404600D01*
X208238095Y-100404600D02*
X208333333Y-100452219D01*
X208333333Y-100452219D02*
X208523809Y-100452219D01*
X208523809Y-100452219D02*
X208619047Y-100404600D01*
X208619047Y-100404600D02*
X208666666Y-100356980D01*
X208666666Y-100356980D02*
X208714285Y-100261742D01*
X208714285Y-100261742D02*
X208714285Y-100023647D01*
X208714285Y-100023647D02*
X208666666Y-99928409D01*
X208666666Y-99928409D02*
X208619047Y-99880790D01*
X208619047Y-99880790D02*
X208523809Y-99833171D01*
X208523809Y-99833171D02*
X208333333Y-99833171D01*
X208333333Y-99833171D02*
X208238095Y-99880790D01*
X208238095Y-99880790D02*
X208190476Y-99928409D01*
X208190476Y-99928409D02*
X208142857Y-100023647D01*
X207666666Y-139928409D02*
X207333333Y-139928409D01*
X207333333Y-140452219D02*
X207333333Y-139452219D01*
X207333333Y-139452219D02*
X207809523Y-139452219D01*
X208666666Y-139452219D02*
X208190476Y-139452219D01*
X208190476Y-139452219D02*
X208142857Y-139928409D01*
X208142857Y-139928409D02*
X208190476Y-139880790D01*
X208190476Y-139880790D02*
X208285714Y-139833171D01*
X208285714Y-139833171D02*
X208523809Y-139833171D01*
X208523809Y-139833171D02*
X208619047Y-139880790D01*
X208619047Y-139880790D02*
X208666666Y-139928409D01*
X208666666Y-139928409D02*
X208714285Y-140023647D01*
X208714285Y-140023647D02*
X208714285Y-140261742D01*
X208714285Y-140261742D02*
X208666666Y-140356980D01*
X208666666Y-140356980D02*
X208619047Y-140404600D01*
X208619047Y-140404600D02*
X208523809Y-140452219D01*
X208523809Y-140452219D02*
X208285714Y-140452219D01*
X208285714Y-140452219D02*
X208190476Y-140404600D01*
X208190476Y-140404600D02*
X208142857Y-140356980D01*
X207666666Y-179928409D02*
X207333333Y-179928409D01*
X207333333Y-180452219D02*
X207333333Y-179452219D01*
X207333333Y-179452219D02*
X207809523Y-179452219D01*
X208619047Y-179785552D02*
X208619047Y-180452219D01*
X208380952Y-179404600D02*
X208142857Y-180118885D01*
X208142857Y-180118885D02*
X208761904Y-180118885D01*
X207666666Y-219928409D02*
X207333333Y-219928409D01*
X207333333Y-220452219D02*
X207333333Y-219452219D01*
X207333333Y-219452219D02*
X207809523Y-219452219D01*
X208095238Y-219452219D02*
X208714285Y-219452219D01*
X208714285Y-219452219D02*
X208380952Y-219833171D01*
X208380952Y-219833171D02*
X208523809Y-219833171D01*
X208523809Y-219833171D02*
X208619047Y-219880790D01*
X208619047Y-219880790D02*
X208666666Y-219928409D01*
X208666666Y-219928409D02*
X208714285Y-220023647D01*
X208714285Y-220023647D02*
X208714285Y-220261742D01*
X208714285Y-220261742D02*
X208666666Y-220356980D01*
X208666666Y-220356980D02*
X208619047Y-220404600D01*
X208619047Y-220404600D02*
X208523809Y-220452219D01*
X208523809Y-220452219D02*
X208238095Y-220452219D01*
X208238095Y-220452219D02*
X208142857Y-220404600D01*
X208142857Y-220404600D02*
X208095238Y-220356980D01*
X207666666Y-259928409D02*
X207333333Y-259928409D01*
X207333333Y-260452219D02*
X207333333Y-259452219D01*
X207333333Y-259452219D02*
X207809523Y-259452219D01*
X208142857Y-259547457D02*
X208190476Y-259499838D01*
X208190476Y-259499838D02*
X208285714Y-259452219D01*
X208285714Y-259452219D02*
X208523809Y-259452219D01*
X208523809Y-259452219D02*
X208619047Y-259499838D01*
X208619047Y-259499838D02*
X208666666Y-259547457D01*
X208666666Y-259547457D02*
X208714285Y-259642695D01*
X208714285Y-259642695D02*
X208714285Y-259737933D01*
X208714285Y-259737933D02*
X208666666Y-259880790D01*
X208666666Y-259880790D02*
X208095238Y-260452219D01*
X208095238Y-260452219D02*
X208714285Y-260452219D01*
X207666666Y-299928409D02*
X207333333Y-299928409D01*
X207333333Y-300452219D02*
X207333333Y-299452219D01*
X207333333Y-299452219D02*
X207809523Y-299452219D01*
X208714285Y-300452219D02*
X208142857Y-300452219D01*
X208428571Y-300452219D02*
X208428571Y-299452219D01*
X208428571Y-299452219D02*
X208333333Y-299595076D01*
X208333333Y-299595076D02*
X208238095Y-299690314D01*
X208238095Y-299690314D02*
X208142857Y-299737933D01*
X247785714Y-19499838D02*
X247690476Y-19452219D01*
X247690476Y-19452219D02*
X247547619Y-19452219D01*
X247547619Y-19452219D02*
X247404762Y-19499838D01*
X247404762Y-19499838D02*
X247309524Y-19595076D01*
X247309524Y-19595076D02*
X247261905Y-19690314D01*
X247261905Y-19690314D02*
X247214286Y-19880790D01*
X247214286Y-19880790D02*
X247214286Y-20023647D01*
X247214286Y-20023647D02*
X247261905Y-20214123D01*
X247261905Y-20214123D02*
X247309524Y-20309361D01*
X247309524Y-20309361D02*
X247404762Y-20404600D01*
X247404762Y-20404600D02*
X247547619Y-20452219D01*
X247547619Y-20452219D02*
X247642857Y-20452219D01*
X247642857Y-20452219D02*
X247785714Y-20404600D01*
X247785714Y-20404600D02*
X247833333Y-20356980D01*
X247833333Y-20356980D02*
X247833333Y-20023647D01*
X247833333Y-20023647D02*
X247642857Y-20023647D01*
X248404762Y-19880790D02*
X248309524Y-19833171D01*
X248309524Y-19833171D02*
X248261905Y-19785552D01*
X248261905Y-19785552D02*
X248214286Y-19690314D01*
X248214286Y-19690314D02*
X248214286Y-19642695D01*
X248214286Y-19642695D02*
X248261905Y-19547457D01*
X248261905Y-19547457D02*
X248309524Y-19499838D01*
X248309524Y-19499838D02*
X248404762Y-19452219D01*
X248404762Y-19452219D02*
X248595238Y-19452219D01*
X248595238Y-19452219D02*
X248690476Y-19499838D01*
X248690476Y-19499838D02*
X248738095Y-19547457D01*
X248738095Y-19547457D02*
X248785714Y-19642695D01*
X248785714Y-19642695D02*
X248785714Y-19690314D01*
X248785714Y-19690314D02*
X248738095Y-19785552D01*
X248738095Y-19785552D02*
X248690476Y-19833171D01*
X248690476Y-19833171D02*
X248595238Y-19880790D01*
X248595238Y-19880790D02*
X248404762Y-19880790D01*
X248404762Y-19880790D02*
X248309524Y-19928409D01*
X248309524Y-19928409D02*
X248261905Y-19976028D01*
X248261905Y-19976028D02*
X248214286Y-20071266D01*
X248214286Y-20071266D02*
X248214286Y-20261742D01*
X248214286Y-20261742D02*
X248261905Y-20356980D01*
X248261905Y-20356980D02*
X248309524Y-20404600D01*
X248309524Y-20404600D02*
X248404762Y-20452219D01*
X248404762Y-20452219D02*
X248595238Y-20452219D01*
X248595238Y-20452219D02*
X248690476Y-20404600D01*
X248690476Y-20404600D02*
X248738095Y-20356980D01*
X248738095Y-20356980D02*
X248785714Y-20261742D01*
X248785714Y-20261742D02*
X248785714Y-20071266D01*
X248785714Y-20071266D02*
X248738095Y-19976028D01*
X248738095Y-19976028D02*
X248690476Y-19928409D01*
X248690476Y-19928409D02*
X248595238Y-19880790D01*
X247785714Y-59499838D02*
X247690476Y-59452219D01*
X247690476Y-59452219D02*
X247547619Y-59452219D01*
X247547619Y-59452219D02*
X247404762Y-59499838D01*
X247404762Y-59499838D02*
X247309524Y-59595076D01*
X247309524Y-59595076D02*
X247261905Y-59690314D01*
X247261905Y-59690314D02*
X247214286Y-59880790D01*
X247214286Y-59880790D02*
X247214286Y-60023647D01*
X247214286Y-60023647D02*
X247261905Y-60214123D01*
X247261905Y-60214123D02*
X247309524Y-60309361D01*
X247309524Y-60309361D02*
X247404762Y-60404600D01*
X247404762Y-60404600D02*
X247547619Y-60452219D01*
X247547619Y-60452219D02*
X247642857Y-60452219D01*
X247642857Y-60452219D02*
X247785714Y-60404600D01*
X247785714Y-60404600D02*
X247833333Y-60356980D01*
X247833333Y-60356980D02*
X247833333Y-60023647D01*
X247833333Y-60023647D02*
X247642857Y-60023647D01*
X248166667Y-59452219D02*
X248833333Y-59452219D01*
X248833333Y-59452219D02*
X248404762Y-60452219D01*
X247785714Y-99499838D02*
X247690476Y-99452219D01*
X247690476Y-99452219D02*
X247547619Y-99452219D01*
X247547619Y-99452219D02*
X247404762Y-99499838D01*
X247404762Y-99499838D02*
X247309524Y-99595076D01*
X247309524Y-99595076D02*
X247261905Y-99690314D01*
X247261905Y-99690314D02*
X247214286Y-99880790D01*
X247214286Y-99880790D02*
X247214286Y-100023647D01*
X247214286Y-100023647D02*
X247261905Y-100214123D01*
X247261905Y-100214123D02*
X247309524Y-100309361D01*
X247309524Y-100309361D02*
X247404762Y-100404600D01*
X247404762Y-100404600D02*
X247547619Y-100452219D01*
X247547619Y-100452219D02*
X247642857Y-100452219D01*
X247642857Y-100452219D02*
X247785714Y-100404600D01*
X247785714Y-100404600D02*
X247833333Y-100356980D01*
X247833333Y-100356980D02*
X247833333Y-100023647D01*
X247833333Y-100023647D02*
X247642857Y-100023647D01*
X248690476Y-99452219D02*
X248500000Y-99452219D01*
X248500000Y-99452219D02*
X248404762Y-99499838D01*
X248404762Y-99499838D02*
X248357143Y-99547457D01*
X248357143Y-99547457D02*
X248261905Y-99690314D01*
X248261905Y-99690314D02*
X248214286Y-99880790D01*
X248214286Y-99880790D02*
X248214286Y-100261742D01*
X248214286Y-100261742D02*
X248261905Y-100356980D01*
X248261905Y-100356980D02*
X248309524Y-100404600D01*
X248309524Y-100404600D02*
X248404762Y-100452219D01*
X248404762Y-100452219D02*
X248595238Y-100452219D01*
X248595238Y-100452219D02*
X248690476Y-100404600D01*
X248690476Y-100404600D02*
X248738095Y-100356980D01*
X248738095Y-100356980D02*
X248785714Y-100261742D01*
X248785714Y-100261742D02*
X248785714Y-100023647D01*
X248785714Y-100023647D02*
X248738095Y-99928409D01*
X248738095Y-99928409D02*
X248690476Y-99880790D01*
X248690476Y-99880790D02*
X248595238Y-99833171D01*
X248595238Y-99833171D02*
X248404762Y-99833171D01*
X248404762Y-99833171D02*
X248309524Y-99880790D01*
X248309524Y-99880790D02*
X248261905Y-99928409D01*
X248261905Y-99928409D02*
X248214286Y-100023647D01*
X247785714Y-139499838D02*
X247690476Y-139452219D01*
X247690476Y-139452219D02*
X247547619Y-139452219D01*
X247547619Y-139452219D02*
X247404762Y-139499838D01*
X247404762Y-139499838D02*
X247309524Y-139595076D01*
X247309524Y-139595076D02*
X247261905Y-139690314D01*
X247261905Y-139690314D02*
X247214286Y-139880790D01*
X247214286Y-139880790D02*
X247214286Y-140023647D01*
X247214286Y-140023647D02*
X247261905Y-140214123D01*
X247261905Y-140214123D02*
X247309524Y-140309361D01*
X247309524Y-140309361D02*
X247404762Y-140404600D01*
X247404762Y-140404600D02*
X247547619Y-140452219D01*
X247547619Y-140452219D02*
X247642857Y-140452219D01*
X247642857Y-140452219D02*
X247785714Y-140404600D01*
X247785714Y-140404600D02*
X247833333Y-140356980D01*
X247833333Y-140356980D02*
X247833333Y-140023647D01*
X247833333Y-140023647D02*
X247642857Y-140023647D01*
X248738095Y-139452219D02*
X248261905Y-139452219D01*
X248261905Y-139452219D02*
X248214286Y-139928409D01*
X248214286Y-139928409D02*
X248261905Y-139880790D01*
X248261905Y-139880790D02*
X248357143Y-139833171D01*
X248357143Y-139833171D02*
X248595238Y-139833171D01*
X248595238Y-139833171D02*
X248690476Y-139880790D01*
X248690476Y-139880790D02*
X248738095Y-139928409D01*
X248738095Y-139928409D02*
X248785714Y-140023647D01*
X248785714Y-140023647D02*
X248785714Y-140261742D01*
X248785714Y-140261742D02*
X248738095Y-140356980D01*
X248738095Y-140356980D02*
X248690476Y-140404600D01*
X248690476Y-140404600D02*
X248595238Y-140452219D01*
X248595238Y-140452219D02*
X248357143Y-140452219D01*
X248357143Y-140452219D02*
X248261905Y-140404600D01*
X248261905Y-140404600D02*
X248214286Y-140356980D01*
X247785714Y-179499838D02*
X247690476Y-179452219D01*
X247690476Y-179452219D02*
X247547619Y-179452219D01*
X247547619Y-179452219D02*
X247404762Y-179499838D01*
X247404762Y-179499838D02*
X247309524Y-179595076D01*
X247309524Y-179595076D02*
X247261905Y-179690314D01*
X247261905Y-179690314D02*
X247214286Y-179880790D01*
X247214286Y-179880790D02*
X247214286Y-180023647D01*
X247214286Y-180023647D02*
X247261905Y-180214123D01*
X247261905Y-180214123D02*
X247309524Y-180309361D01*
X247309524Y-180309361D02*
X247404762Y-180404600D01*
X247404762Y-180404600D02*
X247547619Y-180452219D01*
X247547619Y-180452219D02*
X247642857Y-180452219D01*
X247642857Y-180452219D02*
X247785714Y-180404600D01*
X247785714Y-180404600D02*
X247833333Y-180356980D01*
X247833333Y-180356980D02*
X247833333Y-180023647D01*
X247833333Y-180023647D02*
X247642857Y-180023647D01*
X248690476Y-179785552D02*
X248690476Y-180452219D01*
X248452381Y-179404600D02*
X248214286Y-180118885D01*
X248214286Y-180118885D02*
X248833333Y-180118885D01*
X247785714Y-219499838D02*
X247690476Y-219452219D01*
X247690476Y-219452219D02*
X247547619Y-219452219D01*
X247547619Y-219452219D02*
X247404762Y-219499838D01*
X247404762Y-219499838D02*
X247309524Y-219595076D01*
X247309524Y-219595076D02*
X247261905Y-219690314D01*
X247261905Y-219690314D02*
X247214286Y-219880790D01*
X247214286Y-219880790D02*
X247214286Y-220023647D01*
X247214286Y-220023647D02*
X247261905Y-220214123D01*
X247261905Y-220214123D02*
X247309524Y-220309361D01*
X247309524Y-220309361D02*
X247404762Y-220404600D01*
X247404762Y-220404600D02*
X247547619Y-220452219D01*
X247547619Y-220452219D02*
X247642857Y-220452219D01*
X247642857Y-220452219D02*
X247785714Y-220404600D01*
X247785714Y-220404600D02*
X247833333Y-220356980D01*
X247833333Y-220356980D02*
X247833333Y-220023647D01*
X247833333Y-220023647D02*
X247642857Y-220023647D01*
X248166667Y-219452219D02*
X248785714Y-219452219D01*
X248785714Y-219452219D02*
X248452381Y-219833171D01*
X248452381Y-219833171D02*
X248595238Y-219833171D01*
X248595238Y-219833171D02*
X248690476Y-219880790D01*
X248690476Y-219880790D02*
X248738095Y-219928409D01*
X248738095Y-219928409D02*
X248785714Y-220023647D01*
X248785714Y-220023647D02*
X248785714Y-220261742D01*
X248785714Y-220261742D02*
X248738095Y-220356980D01*
X248738095Y-220356980D02*
X248690476Y-220404600D01*
X248690476Y-220404600D02*
X248595238Y-220452219D01*
X248595238Y-220452219D02*
X248309524Y-220452219D01*
X248309524Y-220452219D02*
X248214286Y-220404600D01*
X248214286Y-220404600D02*
X248166667Y-220356980D01*
X247785714Y-259499838D02*
X247690476Y-259452219D01*
X247690476Y-259452219D02*
X247547619Y-259452219D01*
X247547619Y-259452219D02*
X247404762Y-259499838D01*
X247404762Y-259499838D02*
X247309524Y-259595076D01*
X247309524Y-259595076D02*
X247261905Y-259690314D01*
X247261905Y-259690314D02*
X247214286Y-259880790D01*
X247214286Y-259880790D02*
X247214286Y-260023647D01*
X247214286Y-260023647D02*
X247261905Y-260214123D01*
X247261905Y-260214123D02*
X247309524Y-260309361D01*
X247309524Y-260309361D02*
X247404762Y-260404600D01*
X247404762Y-260404600D02*
X247547619Y-260452219D01*
X247547619Y-260452219D02*
X247642857Y-260452219D01*
X247642857Y-260452219D02*
X247785714Y-260404600D01*
X247785714Y-260404600D02*
X247833333Y-260356980D01*
X247833333Y-260356980D02*
X247833333Y-260023647D01*
X247833333Y-260023647D02*
X247642857Y-260023647D01*
X248214286Y-259547457D02*
X248261905Y-259499838D01*
X248261905Y-259499838D02*
X248357143Y-259452219D01*
X248357143Y-259452219D02*
X248595238Y-259452219D01*
X248595238Y-259452219D02*
X248690476Y-259499838D01*
X248690476Y-259499838D02*
X248738095Y-259547457D01*
X248738095Y-259547457D02*
X248785714Y-259642695D01*
X248785714Y-259642695D02*
X248785714Y-259737933D01*
X248785714Y-259737933D02*
X248738095Y-259880790D01*
X248738095Y-259880790D02*
X248166667Y-260452219D01*
X248166667Y-260452219D02*
X248785714Y-260452219D01*
X247785714Y-299499838D02*
X247690476Y-299452219D01*
X247690476Y-299452219D02*
X247547619Y-299452219D01*
X247547619Y-299452219D02*
X247404762Y-299499838D01*
X247404762Y-299499838D02*
X247309524Y-299595076D01*
X247309524Y-299595076D02*
X247261905Y-299690314D01*
X247261905Y-299690314D02*
X247214286Y-299880790D01*
X247214286Y-299880790D02*
X247214286Y-300023647D01*
X247214286Y-300023647D02*
X247261905Y-300214123D01*
X247261905Y-300214123D02*
X247309524Y-300309361D01*
X247309524Y-300309361D02*
X247404762Y-300404600D01*
X247404762Y-300404600D02*
X247547619Y-300452219D01*
X247547619Y-300452219D02*
X247642857Y-300452219D01*
X247642857Y-300452219D02*
X247785714Y-300404600D01*
X247785714Y-300404600D02*
X247833333Y-300356980D01*
X247833333Y-300356980D02*
X247833333Y-300023647D01*
X247833333Y-300023647D02*
X247642857Y-300023647D01*
X248785714Y-300452219D02*
X248214286Y-300452219D01*
X248500000Y-300452219D02*
X248500000Y-299452219D01*
X248500000Y-299452219D02*
X248404762Y-299595076D01*
X248404762Y-299595076D02*
X248309524Y-299690314D01*
X248309524Y-299690314D02*
X248214286Y-299737933D01*
X287238095Y-20452219D02*
X287238095Y-19452219D01*
X287238095Y-19928409D02*
X287809523Y-19928409D01*
X287809523Y-20452219D02*
X287809523Y-19452219D01*
X288428571Y-19880790D02*
X288333333Y-19833171D01*
X288333333Y-19833171D02*
X288285714Y-19785552D01*
X288285714Y-19785552D02*
X288238095Y-19690314D01*
X288238095Y-19690314D02*
X288238095Y-19642695D01*
X288238095Y-19642695D02*
X288285714Y-19547457D01*
X288285714Y-19547457D02*
X288333333Y-19499838D01*
X288333333Y-19499838D02*
X288428571Y-19452219D01*
X288428571Y-19452219D02*
X288619047Y-19452219D01*
X288619047Y-19452219D02*
X288714285Y-19499838D01*
X288714285Y-19499838D02*
X288761904Y-19547457D01*
X288761904Y-19547457D02*
X288809523Y-19642695D01*
X288809523Y-19642695D02*
X288809523Y-19690314D01*
X288809523Y-19690314D02*
X288761904Y-19785552D01*
X288761904Y-19785552D02*
X288714285Y-19833171D01*
X288714285Y-19833171D02*
X288619047Y-19880790D01*
X288619047Y-19880790D02*
X288428571Y-19880790D01*
X288428571Y-19880790D02*
X288333333Y-19928409D01*
X288333333Y-19928409D02*
X288285714Y-19976028D01*
X288285714Y-19976028D02*
X288238095Y-20071266D01*
X288238095Y-20071266D02*
X288238095Y-20261742D01*
X288238095Y-20261742D02*
X288285714Y-20356980D01*
X288285714Y-20356980D02*
X288333333Y-20404600D01*
X288333333Y-20404600D02*
X288428571Y-20452219D01*
X288428571Y-20452219D02*
X288619047Y-20452219D01*
X288619047Y-20452219D02*
X288714285Y-20404600D01*
X288714285Y-20404600D02*
X288761904Y-20356980D01*
X288761904Y-20356980D02*
X288809523Y-20261742D01*
X288809523Y-20261742D02*
X288809523Y-20071266D01*
X288809523Y-20071266D02*
X288761904Y-19976028D01*
X288761904Y-19976028D02*
X288714285Y-19928409D01*
X288714285Y-19928409D02*
X288619047Y-19880790D01*
X287238095Y-60452219D02*
X287238095Y-59452219D01*
X287238095Y-59928409D02*
X287809523Y-59928409D01*
X287809523Y-60452219D02*
X287809523Y-59452219D01*
X288190476Y-59452219D02*
X288857142Y-59452219D01*
X288857142Y-59452219D02*
X288428571Y-60452219D01*
X287238095Y-100452219D02*
X287238095Y-99452219D01*
X287238095Y-99928409D02*
X287809523Y-99928409D01*
X287809523Y-100452219D02*
X287809523Y-99452219D01*
X288714285Y-99452219D02*
X288523809Y-99452219D01*
X288523809Y-99452219D02*
X288428571Y-99499838D01*
X288428571Y-99499838D02*
X288380952Y-99547457D01*
X288380952Y-99547457D02*
X288285714Y-99690314D01*
X288285714Y-99690314D02*
X288238095Y-99880790D01*
X288238095Y-99880790D02*
X288238095Y-100261742D01*
X288238095Y-100261742D02*
X288285714Y-100356980D01*
X288285714Y-100356980D02*
X288333333Y-100404600D01*
X288333333Y-100404600D02*
X288428571Y-100452219D01*
X288428571Y-100452219D02*
X288619047Y-100452219D01*
X288619047Y-100452219D02*
X288714285Y-100404600D01*
X288714285Y-100404600D02*
X288761904Y-100356980D01*
X288761904Y-100356980D02*
X288809523Y-100261742D01*
X288809523Y-100261742D02*
X288809523Y-100023647D01*
X288809523Y-100023647D02*
X288761904Y-99928409D01*
X288761904Y-99928409D02*
X288714285Y-99880790D01*
X288714285Y-99880790D02*
X288619047Y-99833171D01*
X288619047Y-99833171D02*
X288428571Y-99833171D01*
X288428571Y-99833171D02*
X288333333Y-99880790D01*
X288333333Y-99880790D02*
X288285714Y-99928409D01*
X288285714Y-99928409D02*
X288238095Y-100023647D01*
X287238095Y-140452219D02*
X287238095Y-139452219D01*
X287238095Y-139928409D02*
X287809523Y-139928409D01*
X287809523Y-140452219D02*
X287809523Y-139452219D01*
X288761904Y-139452219D02*
X288285714Y-139452219D01*
X288285714Y-139452219D02*
X288238095Y-139928409D01*
X288238095Y-139928409D02*
X288285714Y-139880790D01*
X288285714Y-139880790D02*
X288380952Y-139833171D01*
X288380952Y-139833171D02*
X288619047Y-139833171D01*
X288619047Y-139833171D02*
X288714285Y-139880790D01*
X288714285Y-139880790D02*
X288761904Y-139928409D01*
X288761904Y-139928409D02*
X288809523Y-140023647D01*
X288809523Y-140023647D02*
X288809523Y-140261742D01*
X288809523Y-140261742D02*
X288761904Y-140356980D01*
X288761904Y-140356980D02*
X288714285Y-140404600D01*
X288714285Y-140404600D02*
X288619047Y-140452219D01*
X288619047Y-140452219D02*
X288380952Y-140452219D01*
X288380952Y-140452219D02*
X288285714Y-140404600D01*
X288285714Y-140404600D02*
X288238095Y-140356980D01*
X287238095Y-180452219D02*
X287238095Y-179452219D01*
X287238095Y-179928409D02*
X287809523Y-179928409D01*
X287809523Y-180452219D02*
X287809523Y-179452219D01*
X288714285Y-179785552D02*
X288714285Y-180452219D01*
X288476190Y-179404600D02*
X288238095Y-180118885D01*
X288238095Y-180118885D02*
X288857142Y-180118885D01*
X287238095Y-220452219D02*
X287238095Y-219452219D01*
X287238095Y-219928409D02*
X287809523Y-219928409D01*
X287809523Y-220452219D02*
X287809523Y-219452219D01*
X288190476Y-219452219D02*
X288809523Y-219452219D01*
X288809523Y-219452219D02*
X288476190Y-219833171D01*
X288476190Y-219833171D02*
X288619047Y-219833171D01*
X288619047Y-219833171D02*
X288714285Y-219880790D01*
X288714285Y-219880790D02*
X288761904Y-219928409D01*
X288761904Y-219928409D02*
X288809523Y-220023647D01*
X288809523Y-220023647D02*
X288809523Y-220261742D01*
X288809523Y-220261742D02*
X288761904Y-220356980D01*
X288761904Y-220356980D02*
X288714285Y-220404600D01*
X288714285Y-220404600D02*
X288619047Y-220452219D01*
X288619047Y-220452219D02*
X288333333Y-220452219D01*
X288333333Y-220452219D02*
X288238095Y-220404600D01*
X288238095Y-220404600D02*
X288190476Y-220356980D01*
X287238095Y-260452219D02*
X287238095Y-259452219D01*
X287238095Y-259928409D02*
X287809523Y-259928409D01*
X287809523Y-260452219D02*
X287809523Y-259452219D01*
X288238095Y-259547457D02*
X288285714Y-259499838D01*
X288285714Y-259499838D02*
X288380952Y-259452219D01*
X288380952Y-259452219D02*
X288619047Y-259452219D01*
X288619047Y-259452219D02*
X288714285Y-259499838D01*
X288714285Y-259499838D02*
X288761904Y-259547457D01*
X288761904Y-259547457D02*
X288809523Y-259642695D01*
X288809523Y-259642695D02*
X288809523Y-259737933D01*
X288809523Y-259737933D02*
X288761904Y-259880790D01*
X288761904Y-259880790D02*
X288190476Y-260452219D01*
X288190476Y-260452219D02*
X288809523Y-260452219D01*
X287238095Y-300452219D02*
X287238095Y-299452219D01*
X287238095Y-299928409D02*
X287809523Y-299928409D01*
X287809523Y-300452219D02*
X287809523Y-299452219D01*
X288809523Y-300452219D02*
X288238095Y-300452219D01*
X288523809Y-300452219D02*
X288523809Y-299452219D01*
X288523809Y-299452219D02*
X288428571Y-299595076D01*
X288428571Y-299595076D02*
X288333333Y-299690314D01*
X288333333Y-299690314D02*
X288238095Y-299737933D01*
X269321428Y-325540671D02*
X269250000Y-325612100D01*
X269250000Y-325612100D02*
X269035714Y-325683528D01*
X269035714Y-325683528D02*
X268892857Y-325683528D01*
X268892857Y-325683528D02*
X268678571Y-325612100D01*
X268678571Y-325612100D02*
X268535714Y-325469242D01*
X268535714Y-325469242D02*
X268464285Y-325326385D01*
X268464285Y-325326385D02*
X268392857Y-325040671D01*
X268392857Y-325040671D02*
X268392857Y-324826385D01*
X268392857Y-324826385D02*
X268464285Y-324540671D01*
X268464285Y-324540671D02*
X268535714Y-324397814D01*
X268535714Y-324397814D02*
X268678571Y-324254957D01*
X268678571Y-324254957D02*
X268892857Y-324183528D01*
X268892857Y-324183528D02*
X269035714Y-324183528D01*
X269035714Y-324183528D02*
X269250000Y-324254957D01*
X269250000Y-324254957D02*
X269321428Y-324326385D01*
X269964285Y-325683528D02*
X269964285Y-324183528D01*
X269964285Y-324897814D02*
X270821428Y-324897814D01*
X270821428Y-325683528D02*
X270821428Y-324183528D01*
X271535714Y-324897814D02*
X272035714Y-324897814D01*
X272250000Y-325683528D02*
X271535714Y-325683528D01*
X271535714Y-325683528D02*
X271535714Y-324183528D01*
X271535714Y-324183528D02*
X272250000Y-324183528D01*
X272821429Y-325612100D02*
X273035715Y-325683528D01*
X273035715Y-325683528D02*
X273392857Y-325683528D01*
X273392857Y-325683528D02*
X273535715Y-325612100D01*
X273535715Y-325612100D02*
X273607143Y-325540671D01*
X273607143Y-325540671D02*
X273678572Y-325397814D01*
X273678572Y-325397814D02*
X273678572Y-325254957D01*
X273678572Y-325254957D02*
X273607143Y-325112100D01*
X273607143Y-325112100D02*
X273535715Y-325040671D01*
X273535715Y-325040671D02*
X273392857Y-324969242D01*
X273392857Y-324969242D02*
X273107143Y-324897814D01*
X273107143Y-324897814D02*
X272964286Y-324826385D01*
X272964286Y-324826385D02*
X272892857Y-324754957D01*
X272892857Y-324754957D02*
X272821429Y-324612100D01*
X272821429Y-324612100D02*
X272821429Y-324469242D01*
X272821429Y-324469242D02*
X272892857Y-324326385D01*
X272892857Y-324326385D02*
X272964286Y-324254957D01*
X272964286Y-324254957D02*
X273107143Y-324183528D01*
X273107143Y-324183528D02*
X273464286Y-324183528D01*
X273464286Y-324183528D02*
X273678572Y-324254957D01*
X274250000Y-325612100D02*
X274464286Y-325683528D01*
X274464286Y-325683528D02*
X274821428Y-325683528D01*
X274821428Y-325683528D02*
X274964286Y-325612100D01*
X274964286Y-325612100D02*
X275035714Y-325540671D01*
X275035714Y-325540671D02*
X275107143Y-325397814D01*
X275107143Y-325397814D02*
X275107143Y-325254957D01*
X275107143Y-325254957D02*
X275035714Y-325112100D01*
X275035714Y-325112100D02*
X274964286Y-325040671D01*
X274964286Y-325040671D02*
X274821428Y-324969242D01*
X274821428Y-324969242D02*
X274535714Y-324897814D01*
X274535714Y-324897814D02*
X274392857Y-324826385D01*
X274392857Y-324826385D02*
X274321428Y-324754957D01*
X274321428Y-324754957D02*
X274250000Y-324612100D01*
X274250000Y-324612100D02*
X274250000Y-324469242D01*
X274250000Y-324469242D02*
X274321428Y-324326385D01*
X274321428Y-324326385D02*
X274392857Y-324254957D01*
X274392857Y-324254957D02*
X274535714Y-324183528D01*
X274535714Y-324183528D02*
X274892857Y-324183528D01*
X274892857Y-324183528D02*
X275107143Y-324254957D01*
X277392856Y-324897814D02*
X277607142Y-324969242D01*
X277607142Y-324969242D02*
X277678571Y-325040671D01*
X277678571Y-325040671D02*
X277749999Y-325183528D01*
X277749999Y-325183528D02*
X277749999Y-325397814D01*
X277749999Y-325397814D02*
X277678571Y-325540671D01*
X277678571Y-325540671D02*
X277607142Y-325612100D01*
X277607142Y-325612100D02*
X277464285Y-325683528D01*
X277464285Y-325683528D02*
X276892856Y-325683528D01*
X276892856Y-325683528D02*
X276892856Y-324183528D01*
X276892856Y-324183528D02*
X277392856Y-324183528D01*
X277392856Y-324183528D02*
X277535714Y-324254957D01*
X277535714Y-324254957D02*
X277607142Y-324326385D01*
X277607142Y-324326385D02*
X277678571Y-324469242D01*
X277678571Y-324469242D02*
X277678571Y-324612100D01*
X277678571Y-324612100D02*
X277607142Y-324754957D01*
X277607142Y-324754957D02*
X277535714Y-324826385D01*
X277535714Y-324826385D02*
X277392856Y-324897814D01*
X277392856Y-324897814D02*
X276892856Y-324897814D01*
X278678571Y-324183528D02*
X278964285Y-324183528D01*
X278964285Y-324183528D02*
X279107142Y-324254957D01*
X279107142Y-324254957D02*
X279249999Y-324397814D01*
X279249999Y-324397814D02*
X279321428Y-324683528D01*
X279321428Y-324683528D02*
X279321428Y-325183528D01*
X279321428Y-325183528D02*
X279249999Y-325469242D01*
X279249999Y-325469242D02*
X279107142Y-325612100D01*
X279107142Y-325612100D02*
X278964285Y-325683528D01*
X278964285Y-325683528D02*
X278678571Y-325683528D01*
X278678571Y-325683528D02*
X278535714Y-325612100D01*
X278535714Y-325612100D02*
X278392856Y-325469242D01*
X278392856Y-325469242D02*
X278321428Y-325183528D01*
X278321428Y-325183528D02*
X278321428Y-324683528D01*
X278321428Y-324683528D02*
X278392856Y-324397814D01*
X278392856Y-324397814D02*
X278535714Y-324254957D01*
X278535714Y-324254957D02*
X278678571Y-324183528D01*
X279892857Y-325254957D02*
X280607143Y-325254957D01*
X279750000Y-325683528D02*
X280250000Y-324183528D01*
X280250000Y-324183528D02*
X280750000Y-325683528D01*
X282107142Y-325683528D02*
X281607142Y-324969242D01*
X281249999Y-325683528D02*
X281249999Y-324183528D01*
X281249999Y-324183528D02*
X281821428Y-324183528D01*
X281821428Y-324183528D02*
X281964285Y-324254957D01*
X281964285Y-324254957D02*
X282035714Y-324326385D01*
X282035714Y-324326385D02*
X282107142Y-324469242D01*
X282107142Y-324469242D02*
X282107142Y-324683528D01*
X282107142Y-324683528D02*
X282035714Y-324826385D01*
X282035714Y-324826385D02*
X281964285Y-324897814D01*
X281964285Y-324897814D02*
X281821428Y-324969242D01*
X281821428Y-324969242D02*
X281249999Y-324969242D01*
X282749999Y-325683528D02*
X282749999Y-324183528D01*
X282749999Y-324183528D02*
X283107142Y-324183528D01*
X283107142Y-324183528D02*
X283321428Y-324254957D01*
X283321428Y-324254957D02*
X283464285Y-324397814D01*
X283464285Y-324397814D02*
X283535714Y-324540671D01*
X283535714Y-324540671D02*
X283607142Y-324826385D01*
X283607142Y-324826385D02*
X283607142Y-325040671D01*
X283607142Y-325040671D02*
X283535714Y-325326385D01*
X283535714Y-325326385D02*
X283464285Y-325469242D01*
X283464285Y-325469242D02*
X283321428Y-325612100D01*
X283321428Y-325612100D02*
X283107142Y-325683528D01*
X283107142Y-325683528D02*
X282749999Y-325683528D01*
%LPC*%
D12*
G04 #@! TO.C,HS18*
X218950000Y-299050000D03*
D13*
X218950000Y-300950000D03*
X221050000Y-300000000D03*
G04 #@! TD*
D14*
G04 #@! TO.C,C125*
X219325000Y-102400000D03*
X220675000Y-102400000D03*
G04 #@! TD*
D15*
G04 #@! TO.C,TP6*
X148000000Y-325000000D03*
G04 #@! TD*
D14*
G04 #@! TO.C,C17*
X272325000Y-243000000D03*
X273675000Y-243000000D03*
G04 #@! TD*
D16*
G04 #@! TO.C,U19*
X115600000Y-248600000D03*
D17*
X115600000Y-247000000D03*
X115600000Y-245400000D03*
X110400000Y-245400000D03*
X110400000Y-247000000D03*
X110400000Y-248600000D03*
G04 #@! TD*
D12*
G04 #@! TO.C,HS37*
X18949999Y-99050000D03*
D13*
X18949999Y-100950000D03*
X21050000Y-100000000D03*
G04 #@! TD*
D14*
G04 #@! TO.C,C7*
X92825000Y-334200000D03*
X94175000Y-334200000D03*
G04 #@! TD*
G04 #@! TO.C,C121*
X219325000Y-142400000D03*
X220675000Y-142400000D03*
G04 #@! TD*
D18*
G04 #@! TO.C,C136*
X84175000Y-111700000D03*
X82825000Y-111700000D03*
G04 #@! TD*
D14*
G04 #@! TO.C,C109*
X59325000Y-102400000D03*
X60675000Y-102400000D03*
G04 #@! TD*
G04 #@! TO.C,C85*
X59325000Y-182400000D03*
X60675000Y-182400000D03*
G04 #@! TD*
G04 #@! TO.C,C32*
X312325000Y-163000000D03*
X313675000Y-163000000D03*
G04 #@! TD*
D19*
G04 #@! TO.C,U38*
X30400001Y-125400000D03*
D17*
X30400001Y-127000000D03*
X30400001Y-128600000D03*
X35600000Y-128600000D03*
X35600000Y-127000000D03*
X35600000Y-125400000D03*
G04 #@! TD*
D14*
G04 #@! TO.C,C115*
X139325000Y-62400000D03*
X140675000Y-62400000D03*
G04 #@! TD*
D20*
G04 #@! TO.C,F1*
X49545000Y-39000000D03*
X54455000Y-39000000D03*
G04 #@! TD*
D16*
G04 #@! TO.C,U46*
X315600000Y-88600000D03*
D17*
X315600000Y-87000000D03*
X315600000Y-85400000D03*
X310400000Y-85400000D03*
X310400000Y-87000000D03*
X310400000Y-88600000D03*
G04 #@! TD*
D12*
G04 #@! TO.C,HS34*
X58950000Y-139050000D03*
D13*
X58950000Y-140950000D03*
X61050000Y-140000000D03*
G04 #@! TD*
D14*
G04 #@! TO.C,C126*
X259325000Y-102400000D03*
X260675000Y-102400000D03*
G04 #@! TD*
D12*
G04 #@! TO.C,HS55*
X258950000Y-99050000D03*
D13*
X258950000Y-100950000D03*
X261050000Y-100000000D03*
G04 #@! TD*
D18*
G04 #@! TO.C,C27*
X153675000Y-211000000D03*
X152325000Y-211000000D03*
G04 #@! TD*
D12*
G04 #@! TO.C,HS12*
X138950000Y-219050000D03*
D13*
X138950000Y-220950000D03*
X141050000Y-220000000D03*
G04 #@! TD*
D19*
G04 #@! TO.C,U56*
X110400000Y-45400001D03*
D17*
X110400000Y-47000000D03*
X110400000Y-48600000D03*
X115600000Y-48600000D03*
X115600000Y-47000000D03*
X115600000Y-45400001D03*
G04 #@! TD*
D16*
G04 #@! TO.C,U50*
X155600000Y-88600000D03*
D17*
X155600000Y-87000000D03*
X155600000Y-85400000D03*
X150400000Y-85400000D03*
X150400000Y-87000000D03*
X150400000Y-88600000D03*
G04 #@! TD*
D19*
G04 #@! TO.C,U59*
X230400000Y-45400001D03*
D17*
X230400000Y-47000000D03*
X230400000Y-48600000D03*
X235600000Y-48600000D03*
X235600000Y-47000000D03*
X235600000Y-45400001D03*
G04 #@! TD*
D21*
G04 #@! TO.C,R17*
X71650000Y-342500000D03*
X73350000Y-342500000D03*
G04 #@! TD*
D14*
G04 #@! TO.C,C133*
X219325000Y-22400000D03*
X220675000Y-22400000D03*
G04 #@! TD*
D12*
G04 #@! TO.C,HS7*
X98950000Y-259050000D03*
D13*
X98950000Y-260950000D03*
X101050000Y-260000000D03*
G04 #@! TD*
D16*
G04 #@! TO.C,U48*
X235600000Y-88600000D03*
D17*
X235600000Y-87000000D03*
X235600000Y-85400000D03*
X230400000Y-85400000D03*
X230400000Y-87000000D03*
X230400000Y-88600000D03*
G04 #@! TD*
D14*
G04 #@! TO.C,C70*
X72325000Y-3000000D03*
X73675000Y-3000000D03*
G04 #@! TD*
D18*
G04 #@! TO.C,C58*
X113675000Y-51000000D03*
X112325000Y-51000000D03*
G04 #@! TD*
D12*
G04 #@! TO.C,HS46*
X58950000Y-19050000D03*
D13*
X58950000Y-20949999D03*
X61050000Y-20000000D03*
G04 #@! TD*
D22*
G04 #@! TO.C,U72*
X75350000Y-33555000D03*
D23*
X75350000Y-34824999D03*
X75350000Y-36095000D03*
X75350000Y-37365000D03*
X75350000Y-38634998D03*
X75350000Y-39904999D03*
X75350000Y-41175000D03*
X75350000Y-42444999D03*
X84650000Y-42444999D03*
X84650000Y-41175000D03*
X84650000Y-39904999D03*
X84650000Y-38634998D03*
X84650000Y-37365000D03*
X84650000Y-36095000D03*
X84650000Y-34824999D03*
X84650000Y-33555000D03*
G04 #@! TD*
D16*
G04 #@! TO.C,U21*
X35599999Y-248600000D03*
D17*
X35599999Y-247000000D03*
X35599999Y-245400000D03*
X30400000Y-245400000D03*
X30400000Y-247000000D03*
X30400000Y-248600000D03*
G04 #@! TD*
D14*
G04 #@! TO.C,C65*
X272325000Y-3000000D03*
X273675000Y-3000000D03*
G04 #@! TD*
D21*
G04 #@! TO.C,R6*
X76150000Y-26800000D03*
X77850000Y-26800000D03*
G04 #@! TD*
D14*
G04 #@! TO.C,C50*
X232325000Y-83000000D03*
X233675000Y-83000000D03*
G04 #@! TD*
D19*
G04 #@! TO.C,U23*
X70400000Y-205400000D03*
D17*
X70400000Y-207000000D03*
X70400000Y-208600000D03*
X75600000Y-208600000D03*
X75600000Y-207000000D03*
X75600000Y-205400000D03*
G04 #@! TD*
D12*
G04 #@! TO.C,HS14*
X58950000Y-179050000D03*
D13*
X58950000Y-180950000D03*
X61050000Y-180000000D03*
G04 #@! TD*
D12*
G04 #@! TO.C,HS43*
X98950000Y-59050000D03*
D13*
X98950000Y-60949999D03*
X101050000Y-60000000D03*
G04 #@! TD*
D22*
G04 #@! TO.C,U4*
X235350000Y-193555000D03*
D23*
X235350000Y-194825000D03*
X235350000Y-196095000D03*
X235350000Y-197365000D03*
X235350000Y-198634999D03*
X235350000Y-199904999D03*
X235350000Y-201175000D03*
X235350000Y-202445000D03*
X244650000Y-202445000D03*
X244650000Y-201175000D03*
X244650000Y-199904999D03*
X244650000Y-198634999D03*
X244650000Y-197365000D03*
X244650000Y-196095000D03*
X244650000Y-194825000D03*
X244650000Y-193555000D03*
G04 #@! TD*
D18*
G04 #@! TO.C,C41*
X73675000Y-131000000D03*
X72325000Y-131000000D03*
G04 #@! TD*
D12*
G04 #@! TO.C,HS25*
X178950000Y-219050000D03*
D13*
X178950000Y-220950000D03*
X181050000Y-220000000D03*
G04 #@! TD*
D14*
G04 #@! TO.C,C134*
X259325000Y-22400000D03*
X260675000Y-22400000D03*
G04 #@! TD*
G04 #@! TO.C,C75*
X139325000Y-302400000D03*
X140675000Y-302400000D03*
G04 #@! TD*
D18*
G04 #@! TO.C,C62*
X273675000Y-51000000D03*
X272325000Y-51000000D03*
G04 #@! TD*
D19*
G04 #@! TO.C,U28*
X270400000Y-205400000D03*
D17*
X270400000Y-207000000D03*
X270400000Y-208600000D03*
X275600000Y-208600000D03*
X275600000Y-207000000D03*
X275600000Y-205400000D03*
G04 #@! TD*
D12*
G04 #@! TO.C,HS33*
X18949999Y-139050000D03*
D13*
X18949999Y-140950000D03*
X21050000Y-140000000D03*
G04 #@! TD*
D16*
G04 #@! TO.C,U36*
X75600000Y-168600000D03*
D17*
X75600000Y-167000000D03*
X75600000Y-165400000D03*
X70400000Y-165400000D03*
X70400000Y-167000000D03*
X70400000Y-168600000D03*
G04 #@! TD*
D24*
G04 #@! TO.C,H9*
X40000000Y-120000000D03*
G04 #@! TD*
D19*
G04 #@! TO.C,U9*
X150400000Y-285400000D03*
D17*
X150400000Y-287000000D03*
X150400000Y-288600000D03*
X155600000Y-288600000D03*
X155600000Y-287000000D03*
X155600000Y-285400000D03*
G04 #@! TD*
D18*
G04 #@! TO.C,C31*
X313675000Y-211000000D03*
X312325000Y-211000000D03*
G04 #@! TD*
D12*
G04 #@! TO.C,HS50*
X218950000Y-139050000D03*
D13*
X218950000Y-140950000D03*
X221050000Y-140000000D03*
G04 #@! TD*
D14*
G04 #@! TO.C,C77*
X59325000Y-262399999D03*
X60675000Y-262399999D03*
G04 #@! TD*
D24*
G04 #@! TO.C,H4*
X280000000Y-280000000D03*
G04 #@! TD*
D14*
G04 #@! TO.C,C19*
X192325000Y-243000000D03*
X193675000Y-243000000D03*
G04 #@! TD*
G04 #@! TO.C,C119*
X139325000Y-22400000D03*
X140675000Y-22400000D03*
G04 #@! TD*
D16*
G04 #@! TO.C,U20*
X75600000Y-248600000D03*
D17*
X75600000Y-247000000D03*
X75600000Y-245400000D03*
X70400000Y-245400000D03*
X70400000Y-247000000D03*
X70400000Y-248600000D03*
G04 #@! TD*
D21*
G04 #@! TO.C,R9*
X80150000Y-338730000D03*
X81850000Y-338730000D03*
G04 #@! TD*
D14*
G04 #@! TO.C,C82*
X99325000Y-222400000D03*
X100675000Y-222400000D03*
G04 #@! TD*
G04 #@! TO.C,C93*
X219325000Y-262399999D03*
X220675000Y-262399999D03*
G04 #@! TD*
D18*
G04 #@! TO.C,C4*
X244175000Y-271700000D03*
X242825000Y-271700000D03*
G04 #@! TD*
D25*
G04 #@! TO.C,SW10*
X276750000Y-335750000D03*
D26*
X283250000Y-335750000D03*
X283250000Y-340250000D03*
X276750000Y-340250000D03*
G04 #@! TD*
D18*
G04 #@! TO.C,C47*
X313675000Y-131000000D03*
X312325000Y-131000000D03*
G04 #@! TD*
G04 #@! TO.C,C6*
X244175000Y-191700000D03*
X242825000Y-191700000D03*
G04 #@! TD*
D19*
G04 #@! TO.C,U27*
X230400000Y-205400000D03*
D17*
X230400000Y-207000000D03*
X230400000Y-208600000D03*
X235600000Y-208600000D03*
X235600000Y-207000000D03*
X235600000Y-205400000D03*
G04 #@! TD*
D12*
G04 #@! TO.C,HS39*
X98950000Y-99050000D03*
D13*
X98950000Y-100950000D03*
X101050000Y-100000000D03*
G04 #@! TD*
D14*
G04 #@! TO.C,C21*
X112325000Y-243000000D03*
X113675000Y-243000000D03*
G04 #@! TD*
D15*
G04 #@! TO.C,TP1*
X113000000Y-325000000D03*
G04 #@! TD*
D21*
G04 #@! TO.C,R15*
X99650000Y-336000000D03*
X101350000Y-336000000D03*
G04 #@! TD*
D12*
G04 #@! TO.C,HS21*
X178950000Y-259050000D03*
D13*
X178950000Y-260950000D03*
X181050000Y-260000000D03*
G04 #@! TD*
D12*
G04 #@! TO.C,HS24*
X298950000Y-259050000D03*
D13*
X298950000Y-260950000D03*
X301050000Y-260000000D03*
G04 #@! TD*
D21*
G04 #@! TO.C,R10*
X26500000Y-248600000D03*
X28199999Y-248600000D03*
G04 #@! TD*
D19*
G04 #@! TO.C,U45*
X310400000Y-125400000D03*
D17*
X310400000Y-127000000D03*
X310400000Y-128600000D03*
X315600000Y-128600000D03*
X315600000Y-127000000D03*
X315600000Y-125400000D03*
G04 #@! TD*
D18*
G04 #@! TO.C,C10*
X113675000Y-291000000D03*
X112325000Y-291000000D03*
G04 #@! TD*
D12*
G04 #@! TO.C,HS4*
X138950000Y-299050000D03*
D13*
X138950000Y-300950000D03*
X141050000Y-300000000D03*
G04 #@! TD*
D19*
G04 #@! TO.C,U12*
X270400000Y-285400000D03*
D17*
X270400000Y-287000000D03*
X270400000Y-288600000D03*
X275600000Y-288600000D03*
X275600000Y-287000000D03*
X275600000Y-285400000D03*
G04 #@! TD*
D19*
G04 #@! TO.C,U40*
X110400000Y-125400000D03*
D17*
X110400000Y-127000000D03*
X110400000Y-128600000D03*
X115600000Y-128600000D03*
X115600000Y-127000000D03*
X115600000Y-125400000D03*
G04 #@! TD*
D24*
G04 #@! TO.C,H1*
X40000000Y-280000000D03*
G04 #@! TD*
D14*
G04 #@! TO.C,C78*
X99325000Y-262399999D03*
X100675000Y-262399999D03*
G04 #@! TD*
G04 #@! TO.C,C101*
X219325000Y-182400000D03*
X220675000Y-182400000D03*
G04 #@! TD*
D12*
G04 #@! TO.C,HS1*
X18949999Y-299050000D03*
D13*
X18949999Y-300950000D03*
X21050000Y-300000000D03*
G04 #@! TD*
D19*
G04 #@! TO.C,U57*
X150400000Y-45400001D03*
D17*
X150400000Y-47000000D03*
X150400000Y-48600000D03*
X155600000Y-48600000D03*
X155600000Y-47000000D03*
X155600000Y-45400001D03*
G04 #@! TD*
D12*
G04 #@! TO.C,HS9*
X18949999Y-219050000D03*
D13*
X18949999Y-220950000D03*
X21050000Y-220000000D03*
G04 #@! TD*
D18*
G04 #@! TO.C,C13*
X233675000Y-291000000D03*
X232325000Y-291000000D03*
G04 #@! TD*
G04 #@! TO.C,C25*
X73675000Y-211000000D03*
X72325000Y-211000000D03*
G04 #@! TD*
D14*
G04 #@! TO.C,C120*
X179325000Y-142400000D03*
X180675000Y-142400000D03*
G04 #@! TD*
G04 #@! TO.C,C33*
X272325000Y-163000000D03*
X273675000Y-163000000D03*
G04 #@! TD*
G04 #@! TO.C,C53*
X112325000Y-83000000D03*
X113675000Y-83000000D03*
G04 #@! TD*
D16*
G04 #@! TO.C,U37*
X35599999Y-168600000D03*
D17*
X35599999Y-167000000D03*
X35599999Y-165400000D03*
X30400000Y-165400000D03*
X30400000Y-167000000D03*
X30400000Y-168600000D03*
G04 #@! TD*
D12*
G04 #@! TO.C,HS60*
X298950000Y-59050000D03*
D13*
X298950000Y-60949999D03*
X301050000Y-60000000D03*
G04 #@! TD*
D25*
G04 #@! TO.C,SW11*
X224750000Y-359750000D03*
D26*
X231250000Y-359750000D03*
X231250000Y-364250000D03*
X224750000Y-364250000D03*
G04 #@! TD*
D14*
G04 #@! TO.C,C129*
X219325000Y-62400000D03*
X220675000Y-62400000D03*
G04 #@! TD*
D16*
G04 #@! TO.C,U67*
X115600000Y-8599999D03*
D17*
X115600000Y-7000000D03*
X115600000Y-5400000D03*
X110400000Y-5400000D03*
X110400000Y-7000000D03*
X110400000Y-8599999D03*
G04 #@! TD*
D12*
G04 #@! TO.C,HS59*
X258950000Y-59050000D03*
D13*
X258950000Y-60949999D03*
X261050000Y-60000000D03*
G04 #@! TD*
D22*
G04 #@! TO.C,U71*
X235350000Y-113555000D03*
D23*
X235350000Y-114825000D03*
X235350000Y-116095000D03*
X235350000Y-117365000D03*
X235350000Y-118634999D03*
X235350000Y-119904999D03*
X235350000Y-121175000D03*
X235350000Y-122445000D03*
X244650000Y-122445000D03*
X244650000Y-121175000D03*
X244650000Y-119904999D03*
X244650000Y-118634999D03*
X244650000Y-117365000D03*
X244650000Y-116095000D03*
X244650000Y-114825000D03*
X244650000Y-113555000D03*
G04 #@! TD*
D16*
G04 #@! TO.C,U14*
X315600000Y-248600000D03*
D17*
X315600000Y-247000000D03*
X315600000Y-245400000D03*
X310400000Y-245400000D03*
X310400000Y-247000000D03*
X310400000Y-248600000D03*
G04 #@! TD*
D18*
G04 #@! TO.C,C45*
X233675000Y-131000000D03*
X232325000Y-131000000D03*
G04 #@! TD*
D14*
G04 #@! TO.C,C88*
X179325000Y-302400000D03*
X180675000Y-302400000D03*
G04 #@! TD*
D12*
G04 #@! TO.C,HS47*
X98950000Y-19050000D03*
D13*
X98950000Y-20949999D03*
X101050000Y-20000000D03*
G04 #@! TD*
D12*
G04 #@! TO.C,HS51*
X258950000Y-139050000D03*
D13*
X258950000Y-140950000D03*
X261050000Y-140000000D03*
G04 #@! TD*
D16*
G04 #@! TO.C,U47*
X275600000Y-88600000D03*
D17*
X275600000Y-87000000D03*
X275600000Y-85400000D03*
X270400000Y-85400000D03*
X270400000Y-87000000D03*
X270400000Y-88600000D03*
G04 #@! TD*
D14*
G04 #@! TO.C,C94*
X259325000Y-262399999D03*
X260675000Y-262399999D03*
G04 #@! TD*
D25*
G04 #@! TO.C,SW7*
X276750000Y-359750000D03*
D26*
X283250000Y-359750000D03*
X283250000Y-364250000D03*
X276750000Y-364250000D03*
G04 #@! TD*
D14*
G04 #@! TO.C,C117*
X59325000Y-22400000D03*
X60675000Y-22400000D03*
G04 #@! TD*
D25*
G04 #@! TO.C,SW12*
X250750000Y-359750000D03*
D26*
X257250000Y-359750000D03*
X257250000Y-364250000D03*
X250750000Y-364250000D03*
G04 #@! TD*
D21*
G04 #@! TO.C,R7*
X83650000Y-26800000D03*
X85350000Y-26800000D03*
G04 #@! TD*
D14*
G04 #@! TO.C,C142*
X70025000Y-29900000D03*
X71375000Y-29900000D03*
G04 #@! TD*
D18*
G04 #@! TO.C,C46*
X273675000Y-131000000D03*
X272325000Y-131000000D03*
G04 #@! TD*
D16*
G04 #@! TO.C,U33*
X195600000Y-168600000D03*
D17*
X195600000Y-167000000D03*
X195600000Y-165400000D03*
X190400000Y-165400000D03*
X190400000Y-167000000D03*
X190400000Y-168600000D03*
G04 #@! TD*
D14*
G04 #@! TO.C,C37*
X112325000Y-163000000D03*
X113675000Y-163000000D03*
G04 #@! TD*
D12*
G04 #@! TO.C,HS5*
X18949999Y-259050000D03*
D13*
X18949999Y-260950000D03*
X21050000Y-260000000D03*
G04 #@! TD*
D22*
G04 #@! TO.C,U3*
X75350000Y-193555000D03*
D23*
X75350000Y-194825000D03*
X75350000Y-196095000D03*
X75350000Y-197365000D03*
X75350000Y-198634999D03*
X75350000Y-199904999D03*
X75350000Y-201175000D03*
X75350000Y-202445000D03*
X84650000Y-202445000D03*
X84650000Y-201175000D03*
X84650000Y-199904999D03*
X84650000Y-198634999D03*
X84650000Y-197365000D03*
X84650000Y-196095000D03*
X84650000Y-194825000D03*
X84650000Y-193555000D03*
G04 #@! TD*
D24*
G04 #@! TO.C,H11*
X200000000Y-120000000D03*
G04 #@! TD*
G04 #@! TO.C,H20*
X304000000Y-350000000D03*
G04 #@! TD*
D12*
G04 #@! TO.C,HS61*
X178950000Y-19050000D03*
D13*
X178950000Y-20949999D03*
X181050000Y-20000000D03*
G04 #@! TD*
D14*
G04 #@! TO.C,C106*
X99325000Y-142400000D03*
X100675000Y-142400000D03*
G04 #@! TD*
D16*
G04 #@! TO.C,U66*
X155600000Y-8599999D03*
D17*
X155600000Y-7000000D03*
X155600000Y-5400000D03*
X150400000Y-5400000D03*
X150400000Y-7000000D03*
X150400000Y-8599999D03*
G04 #@! TD*
D16*
G04 #@! TO.C,U34*
X155600000Y-168600000D03*
D17*
X155600000Y-167000000D03*
X155600000Y-165400000D03*
X150400000Y-165400000D03*
X150400000Y-167000000D03*
X150400000Y-168600000D03*
G04 #@! TD*
D19*
G04 #@! TO.C,U60*
X270400000Y-45400001D03*
D17*
X270400000Y-47000000D03*
X270400000Y-48600000D03*
X275600000Y-48600000D03*
X275600000Y-47000000D03*
X275600000Y-45400001D03*
G04 #@! TD*
D12*
G04 #@! TO.C,HS11*
X98950000Y-219050000D03*
D13*
X98950000Y-220950000D03*
X101050000Y-220000000D03*
G04 #@! TD*
D24*
G04 #@! TO.C,H15*
X200000000Y-40000000D03*
G04 #@! TD*
D14*
G04 #@! TO.C,C23*
X32325000Y-243000000D03*
X33675000Y-243000000D03*
G04 #@! TD*
D25*
G04 #@! TO.C,SW8*
X224750000Y-335750000D03*
D26*
X231250000Y-335750000D03*
X231250000Y-340250000D03*
X224750000Y-340250000D03*
G04 #@! TD*
D18*
G04 #@! TO.C,C44*
X193675000Y-131000000D03*
X192325000Y-131000000D03*
G04 #@! TD*
D12*
G04 #@! TO.C,HS13*
X18949999Y-179050000D03*
D13*
X18949999Y-180950000D03*
X21050000Y-180000000D03*
G04 #@! TD*
D12*
G04 #@! TO.C,HS63*
X258950000Y-19050000D03*
D13*
X258950000Y-20949999D03*
X261050000Y-20000000D03*
G04 #@! TD*
D16*
G04 #@! TO.C,U63*
X275600000Y-8599999D03*
D17*
X275600000Y-7000000D03*
X275600000Y-5400000D03*
X270400000Y-5400000D03*
X270400000Y-7000000D03*
X270400000Y-8599999D03*
G04 #@! TD*
D14*
G04 #@! TO.C,C146*
X89325000Y-353000000D03*
X90675000Y-353000000D03*
G04 #@! TD*
D19*
G04 #@! TO.C,U58*
X190400000Y-45400001D03*
D17*
X190400000Y-47000000D03*
X190400000Y-48600000D03*
X195600000Y-48600000D03*
X195600000Y-47000000D03*
X195600000Y-45400001D03*
G04 #@! TD*
D14*
G04 #@! TO.C,C95*
X299325000Y-262399999D03*
X300675000Y-262399999D03*
G04 #@! TD*
G04 #@! TO.C,C131*
X299325000Y-62400000D03*
X300675000Y-62400000D03*
G04 #@! TD*
D22*
G04 #@! TO.C,U73*
X235350000Y-33555000D03*
D23*
X235350000Y-34824999D03*
X235350000Y-36095000D03*
X235350000Y-37365000D03*
X235350000Y-38634998D03*
X235350000Y-39904999D03*
X235350000Y-41175000D03*
X235350000Y-42444999D03*
X244650000Y-42444999D03*
X244650000Y-41175000D03*
X244650000Y-39904999D03*
X244650000Y-38634998D03*
X244650000Y-37365000D03*
X244650000Y-36095000D03*
X244650000Y-34824999D03*
X244650000Y-33555000D03*
G04 #@! TD*
D16*
G04 #@! TO.C,U51*
X115600000Y-88600000D03*
D17*
X115600000Y-87000000D03*
X115600000Y-85400000D03*
X110400000Y-85400000D03*
X110400000Y-87000000D03*
X110400000Y-88600000D03*
G04 #@! TD*
D14*
G04 #@! TO.C,C34*
X232325000Y-163000000D03*
X233675000Y-163000000D03*
G04 #@! TD*
G04 #@! TO.C,C22*
X72325000Y-243000000D03*
X73675000Y-243000000D03*
G04 #@! TD*
G04 #@! TO.C,C74*
X99325000Y-302400000D03*
X100675000Y-302400000D03*
G04 #@! TD*
D19*
G04 #@! TO.C,U29*
X310400000Y-205400000D03*
D17*
X310400000Y-207000000D03*
X310400000Y-208600000D03*
X315600000Y-208600000D03*
X315600000Y-207000000D03*
X315600000Y-205400000D03*
G04 #@! TD*
D18*
G04 #@! TO.C,C40*
X33675000Y-131000000D03*
X32325000Y-131000000D03*
G04 #@! TD*
G04 #@! TO.C,C24*
X33675000Y-211000000D03*
X32325000Y-211000000D03*
G04 #@! TD*
D27*
G04 #@! TO.C,C2*
X71450000Y-21000000D03*
X73350000Y-21000000D03*
G04 #@! TD*
D19*
G04 #@! TO.C,U55*
X70400000Y-45400001D03*
D17*
X70400000Y-47000000D03*
X70400000Y-48600000D03*
X75600000Y-48600000D03*
X75600000Y-47000000D03*
X75600000Y-45400001D03*
G04 #@! TD*
D14*
G04 #@! TO.C,C89*
X219325000Y-302400000D03*
X220675000Y-302400000D03*
G04 #@! TD*
D28*
G04 #@! TO.C,U5*
X87300000Y-336190000D03*
D29*
X87300000Y-337460000D03*
X87300000Y-338730000D03*
X87300000Y-340000000D03*
X87300000Y-341270000D03*
X87300000Y-342539998D03*
X87300000Y-343810000D03*
X92700000Y-343810000D03*
X92700000Y-342539998D03*
X92700000Y-341270000D03*
X92700000Y-340000000D03*
X92700000Y-338730000D03*
X92700000Y-337460000D03*
X92700000Y-336190000D03*
G04 #@! TD*
D16*
G04 #@! TO.C,U35*
X115600000Y-168600000D03*
D17*
X115600000Y-167000000D03*
X115600000Y-165400000D03*
X110400000Y-165400000D03*
X110400000Y-167000000D03*
X110400000Y-168600000D03*
G04 #@! TD*
D30*
G04 #@! TO.C,R13*
X110850000Y-343000000D03*
X109150000Y-343000000D03*
G04 #@! TD*
D12*
G04 #@! TO.C,HS26*
X218950000Y-219050000D03*
D13*
X218950000Y-220950000D03*
X221050000Y-220000000D03*
G04 #@! TD*
D14*
G04 #@! TO.C,C107*
X139325000Y-142400000D03*
X140675000Y-142400000D03*
G04 #@! TD*
D12*
G04 #@! TO.C,HS23*
X258950000Y-259050000D03*
D13*
X258950000Y-260950000D03*
X261050000Y-260000000D03*
G04 #@! TD*
D21*
G04 #@! TO.C,R18*
X76150000Y-345500000D03*
X77850000Y-345500000D03*
G04 #@! TD*
D18*
G04 #@! TO.C,C139*
X244175000Y-31699999D03*
X242825000Y-31699999D03*
G04 #@! TD*
G04 #@! TO.C,C3*
X84175000Y-271700000D03*
X82825000Y-271700000D03*
G04 #@! TD*
D12*
G04 #@! TO.C,HS40*
X138950000Y-99050000D03*
D13*
X138950000Y-100950000D03*
X141050000Y-100000000D03*
G04 #@! TD*
D14*
G04 #@! TO.C,C96*
X179325000Y-222400000D03*
X180675000Y-222400000D03*
G04 #@! TD*
D24*
G04 #@! TO.C,H16*
X280000000Y-40000000D03*
G04 #@! TD*
D19*
G04 #@! TO.C,U8*
X110400000Y-285400000D03*
D17*
X110400000Y-287000000D03*
X110400000Y-288600000D03*
X115600000Y-288600000D03*
X115600000Y-287000000D03*
X115600000Y-285400000D03*
G04 #@! TD*
D14*
G04 #@! TO.C,C103*
X299325000Y-182400000D03*
X300675000Y-182400000D03*
G04 #@! TD*
D18*
G04 #@! TO.C,C63*
X313675000Y-51000000D03*
X312325000Y-51000000D03*
G04 #@! TD*
D12*
G04 #@! TO.C,HS19*
X258950000Y-299050000D03*
D13*
X258950000Y-300950000D03*
X261050000Y-300000000D03*
G04 #@! TD*
D14*
G04 #@! TO.C,C48*
X312325000Y-83000000D03*
X313675000Y-83000000D03*
G04 #@! TD*
D25*
G04 #@! TO.C,SW9*
X250750000Y-335750000D03*
D26*
X257250000Y-335750000D03*
X257250000Y-340250000D03*
X250750000Y-340250000D03*
G04 #@! TD*
D12*
G04 #@! TO.C,HS31*
X258950000Y-179050000D03*
D13*
X258950000Y-180950000D03*
X261050000Y-180000000D03*
G04 #@! TD*
D14*
G04 #@! TO.C,C81*
X59325000Y-222400000D03*
X60675000Y-222400000D03*
G04 #@! TD*
G04 #@! TO.C,C87*
X139325000Y-182400000D03*
X140675000Y-182400000D03*
G04 #@! TD*
D24*
G04 #@! TO.C,H2*
X120000000Y-280000000D03*
G04 #@! TD*
D18*
G04 #@! TO.C,C138*
X84175000Y-31699999D03*
X82825000Y-31699999D03*
G04 #@! TD*
D14*
G04 #@! TO.C,C68*
X152325000Y-3000000D03*
X153675000Y-3000000D03*
G04 #@! TD*
G04 #@! TO.C,C64*
X312325000Y-3000000D03*
X313675000Y-3000000D03*
G04 #@! TD*
D16*
G04 #@! TO.C,U49*
X195600000Y-88600000D03*
D17*
X195600000Y-87000000D03*
X195600000Y-85400000D03*
X190400000Y-85400000D03*
X190400000Y-87000000D03*
X190400000Y-88600000D03*
G04 #@! TD*
D16*
G04 #@! TO.C,U18*
X155600000Y-248600000D03*
D17*
X155600000Y-247000000D03*
X155600000Y-245400000D03*
X150400000Y-245400000D03*
X150400000Y-247000000D03*
X150400000Y-248600000D03*
G04 #@! TD*
D24*
G04 #@! TO.C,H14*
X120000000Y-40000000D03*
G04 #@! TD*
D30*
G04 #@! TO.C,R4*
X63449998Y-27000000D03*
X61749999Y-27000000D03*
G04 #@! TD*
D14*
G04 #@! TO.C,C127*
X299325000Y-102400000D03*
X300675000Y-102400000D03*
G04 #@! TD*
G04 #@! TO.C,C54*
X72325000Y-83000000D03*
X73675000Y-83000000D03*
G04 #@! TD*
D12*
G04 #@! TO.C,HS15*
X98950000Y-179050000D03*
D13*
X98950000Y-180950000D03*
X101050000Y-180000000D03*
G04 #@! TD*
D19*
G04 #@! TO.C,U13*
X310400000Y-285400000D03*
D17*
X310400000Y-287000000D03*
X310400000Y-288600000D03*
X315600000Y-288600000D03*
X315600000Y-287000000D03*
X315600000Y-285400000D03*
G04 #@! TD*
D14*
G04 #@! TO.C,C130*
X259325000Y-62400000D03*
X260675000Y-62400000D03*
G04 #@! TD*
G04 #@! TO.C,C91*
X299325000Y-302400000D03*
X300675000Y-302400000D03*
G04 #@! TD*
D19*
G04 #@! TO.C,U10*
X190400000Y-285400000D03*
D17*
X190400000Y-287000000D03*
X190400000Y-288600000D03*
X195600000Y-288600000D03*
X195600000Y-287000000D03*
X195600000Y-285400000D03*
G04 #@! TD*
D31*
G04 #@! TO.C,Q1*
X102472500Y-346095000D03*
D32*
X102472500Y-347365000D03*
X102472500Y-348635000D03*
X102472500Y-349905000D03*
X107527500Y-349905000D03*
X107527500Y-348635000D03*
X107527500Y-347365000D03*
X107527500Y-346095000D03*
G04 #@! TD*
D12*
G04 #@! TO.C,HS49*
X178950000Y-139050000D03*
D13*
X178950000Y-140950000D03*
X181050000Y-140000000D03*
G04 #@! TD*
D18*
G04 #@! TO.C,C61*
X233675000Y-51000000D03*
X232325000Y-51000000D03*
G04 #@! TD*
D24*
G04 #@! TO.C,H18*
X112000000Y-350000000D03*
G04 #@! TD*
D16*
G04 #@! TO.C,U68*
X75600000Y-8599999D03*
D17*
X75600000Y-7000000D03*
X75600000Y-5400000D03*
X70400000Y-5400000D03*
X70400000Y-7000000D03*
X70400000Y-8599999D03*
G04 #@! TD*
D14*
G04 #@! TO.C,C51*
X192325000Y-83000000D03*
X193675000Y-83000000D03*
G04 #@! TD*
D12*
G04 #@! TO.C,HS53*
X178950000Y-99050000D03*
D13*
X178950000Y-100950000D03*
X181050000Y-100000000D03*
G04 #@! TD*
D19*
G04 #@! TO.C,U61*
X310400000Y-45400001D03*
D17*
X310400000Y-47000000D03*
X310400000Y-48600000D03*
X315600000Y-48600000D03*
X315600000Y-47000000D03*
X315600000Y-45400001D03*
G04 #@! TD*
D19*
G04 #@! TO.C,U11*
X230400000Y-285400000D03*
D17*
X230400000Y-287000000D03*
X230400000Y-288600000D03*
X235600000Y-288600000D03*
X235600000Y-287000000D03*
X235600000Y-285400000D03*
G04 #@! TD*
D14*
G04 #@! TO.C,C69*
X112325000Y-3000000D03*
X113675000Y-3000000D03*
G04 #@! TD*
D12*
G04 #@! TO.C,HS16*
X138950000Y-179050000D03*
D13*
X138950000Y-180950000D03*
X141050000Y-180000000D03*
G04 #@! TD*
D14*
G04 #@! TO.C,C90*
X259325000Y-302400000D03*
X260675000Y-302400000D03*
G04 #@! TD*
D19*
G04 #@! TO.C,U39*
X70400000Y-125400000D03*
D17*
X70400000Y-127000000D03*
X70400000Y-128600000D03*
X75600000Y-128600000D03*
X75600000Y-127000000D03*
X75600000Y-125400000D03*
G04 #@! TD*
D25*
G04 #@! TO.C,SW3*
X26750000Y-347750000D03*
D26*
X33250000Y-347750000D03*
X33250000Y-352250000D03*
X26750000Y-352250000D03*
G04 #@! TD*
D21*
G04 #@! TO.C,R12*
X26500000Y-88600000D03*
X28199999Y-88600000D03*
G04 #@! TD*
D25*
G04 #@! TO.C,SW4*
X54750000Y-347750000D03*
D26*
X61250000Y-347750000D03*
X61250000Y-352250000D03*
X54750000Y-352250000D03*
G04 #@! TD*
D12*
G04 #@! TO.C,HS36*
X138950000Y-139050000D03*
D13*
X138950000Y-140950000D03*
X141050000Y-140000000D03*
G04 #@! TD*
D33*
G04 #@! TO.C,U75*
X91300000Y-350950000D03*
D34*
X91300000Y-350000000D03*
X91300000Y-349050000D03*
X88700000Y-349050000D03*
X88700000Y-350000000D03*
X88700000Y-350950000D03*
G04 #@! TD*
D12*
G04 #@! TO.C,HS38*
X58950000Y-99050000D03*
D13*
X58950000Y-100950000D03*
X61050000Y-100000000D03*
G04 #@! TD*
D22*
G04 #@! TO.C,U70*
X75350000Y-113555000D03*
D23*
X75350000Y-114825000D03*
X75350000Y-116095000D03*
X75350000Y-117365000D03*
X75350000Y-118634999D03*
X75350000Y-119904999D03*
X75350000Y-121175000D03*
X75350000Y-122445000D03*
X84650000Y-122445000D03*
X84650000Y-121175000D03*
X84650000Y-119904999D03*
X84650000Y-118634999D03*
X84650000Y-117365000D03*
X84650000Y-116095000D03*
X84650000Y-114825000D03*
X84650000Y-113555000D03*
G04 #@! TD*
D18*
G04 #@! TO.C,C59*
X153675000Y-51000000D03*
X152325000Y-51000000D03*
G04 #@! TD*
D25*
G04 #@! TO.C,SW6*
X304750000Y-361750000D03*
D26*
X311250000Y-361750000D03*
X311250000Y-366250000D03*
X304750000Y-366250000D03*
G04 #@! TD*
D19*
G04 #@! TO.C,U42*
X190400000Y-125400000D03*
D17*
X190400000Y-127000000D03*
X190400000Y-128600000D03*
X195600000Y-128600000D03*
X195600000Y-127000000D03*
X195600000Y-125400000D03*
G04 #@! TD*
D14*
G04 #@! TO.C,C114*
X99325000Y-62400000D03*
X100675000Y-62400000D03*
G04 #@! TD*
D12*
G04 #@! TO.C,HS8*
X138950000Y-259050000D03*
D13*
X138950000Y-260950000D03*
X141050000Y-260000000D03*
G04 #@! TD*
D18*
G04 #@! TO.C,C57*
X73675000Y-51000000D03*
X72325000Y-51000000D03*
G04 #@! TD*
D14*
G04 #@! TO.C,C97*
X219325000Y-222400000D03*
X220675000Y-222400000D03*
G04 #@! TD*
D18*
G04 #@! TO.C,C8*
X33675000Y-291000000D03*
X32325000Y-291000000D03*
G04 #@! TD*
D16*
G04 #@! TO.C,U53*
X35599999Y-88600000D03*
D17*
X35599999Y-87000000D03*
X35599999Y-85400000D03*
X30400000Y-85400000D03*
X30400000Y-87000000D03*
X30400000Y-88600000D03*
G04 #@! TD*
D14*
G04 #@! TO.C,C49*
X272325000Y-83000000D03*
X273675000Y-83000000D03*
G04 #@! TD*
D12*
G04 #@! TO.C,HS41*
X18949999Y-59050000D03*
D13*
X18949999Y-60949999D03*
X21050000Y-60000000D03*
G04 #@! TD*
D18*
G04 #@! TO.C,C29*
X233675000Y-211000000D03*
X232325000Y-211000000D03*
G04 #@! TD*
D12*
G04 #@! TO.C,HS20*
X298950000Y-299050000D03*
D13*
X298950000Y-300950000D03*
X301050000Y-300000000D03*
G04 #@! TD*
D12*
G04 #@! TO.C,HS62*
X218950000Y-19050000D03*
D13*
X218950000Y-20949999D03*
X221050000Y-20000000D03*
G04 #@! TD*
D18*
G04 #@! TO.C,C144*
X74775000Y-29400000D03*
X73425001Y-29400000D03*
G04 #@! TD*
D24*
G04 #@! TO.C,H13*
X40000000Y-40000000D03*
G04 #@! TD*
G04 #@! TO.C,H10*
X120000000Y-120000000D03*
G04 #@! TD*
D14*
G04 #@! TO.C,C39*
X32325000Y-163000000D03*
X33675000Y-163000000D03*
G04 #@! TD*
G04 #@! TO.C,C112*
X19324999Y-62400000D03*
X20675000Y-62400000D03*
G04 #@! TD*
G04 #@! TO.C,C36*
X152325000Y-163000000D03*
X153675000Y-163000000D03*
G04 #@! TD*
D12*
G04 #@! TO.C,HS6*
X58950000Y-259050000D03*
D13*
X58950000Y-260950000D03*
X61050000Y-260000000D03*
G04 #@! TD*
D19*
G04 #@! TO.C,U44*
X270400000Y-125400000D03*
D17*
X270400000Y-127000000D03*
X270400000Y-128600000D03*
X275600000Y-128600000D03*
X275600000Y-127000000D03*
X275600000Y-125400000D03*
G04 #@! TD*
D16*
G04 #@! TO.C,U69*
X35599999Y-8599999D03*
D17*
X35599999Y-7000000D03*
X35599999Y-5400000D03*
X30400000Y-5400000D03*
X30400000Y-7000000D03*
X30400000Y-8599999D03*
G04 #@! TD*
D12*
G04 #@! TO.C,HS45*
X18949999Y-19050000D03*
D13*
X18949999Y-20949999D03*
X21050000Y-20000000D03*
G04 #@! TD*
D14*
G04 #@! TO.C,C66*
X232325000Y-3000000D03*
X233675000Y-3000000D03*
G04 #@! TD*
G04 #@! TO.C,C123*
X299325000Y-142400000D03*
X300675000Y-142400000D03*
G04 #@! TD*
D24*
G04 #@! TO.C,H6*
X120000000Y-200000000D03*
G04 #@! TD*
D14*
G04 #@! TO.C,C143*
X70925000Y-25000000D03*
X72274999Y-25000000D03*
G04 #@! TD*
G04 #@! TO.C,C110*
X99325000Y-102400000D03*
X100675000Y-102400000D03*
G04 #@! TD*
D19*
G04 #@! TO.C,U6*
X30400001Y-285400000D03*
D17*
X30400001Y-287000000D03*
X30400001Y-288600000D03*
X35600000Y-288600000D03*
X35600000Y-287000000D03*
X35600000Y-285400000D03*
G04 #@! TD*
D14*
G04 #@! TO.C,C84*
X19324999Y-182400000D03*
X20675000Y-182400000D03*
G04 #@! TD*
D24*
G04 #@! TO.C,H7*
X200000000Y-200000000D03*
G04 #@! TD*
D18*
G04 #@! TO.C,C26*
X113675000Y-211000000D03*
X112325000Y-211000000D03*
G04 #@! TD*
G04 #@! TO.C,C5*
X84175000Y-191700000D03*
X82825000Y-191700000D03*
G04 #@! TD*
D25*
G04 #@! TO.C,SW1*
X40750000Y-335750000D03*
D26*
X47250000Y-335750000D03*
X47250000Y-340250000D03*
X40750000Y-340250000D03*
G04 #@! TD*
D12*
G04 #@! TO.C,HS27*
X258950000Y-219050000D03*
D13*
X258950000Y-220950000D03*
X261050000Y-220000000D03*
G04 #@! TD*
D16*
G04 #@! TO.C,U16*
X235600000Y-248600000D03*
D17*
X235600000Y-247000000D03*
X235600000Y-245400000D03*
X230400000Y-245400000D03*
X230400000Y-247000000D03*
X230400000Y-248600000D03*
G04 #@! TD*
D14*
G04 #@! TO.C,C72*
X19324999Y-302400000D03*
X20675000Y-302400000D03*
G04 #@! TD*
D16*
G04 #@! TO.C,U65*
X195600000Y-8599999D03*
D17*
X195600000Y-7000000D03*
X195600000Y-5400000D03*
X190400000Y-5400000D03*
X190400000Y-7000000D03*
X190400000Y-8599999D03*
G04 #@! TD*
D35*
G04 #@! TO.C,Q2*
X104050000Y-340475000D03*
D36*
X105950000Y-340475000D03*
X105000000Y-338525000D03*
G04 #@! TD*
D14*
G04 #@! TO.C,C122*
X259325000Y-142400000D03*
X260675000Y-142400000D03*
G04 #@! TD*
G04 #@! TO.C,C145*
X104325000Y-352800000D03*
X105675000Y-352800000D03*
G04 #@! TD*
D18*
G04 #@! TO.C,C11*
X153675000Y-291000000D03*
X152325000Y-291000000D03*
G04 #@! TD*
D14*
G04 #@! TO.C,C20*
X152325000Y-243000000D03*
X153675000Y-243000000D03*
G04 #@! TD*
G04 #@! TO.C,C108*
X19324999Y-102400000D03*
X20675000Y-102400000D03*
G04 #@! TD*
D18*
G04 #@! TO.C,C9*
X73675000Y-291000000D03*
X72325000Y-291000000D03*
G04 #@! TD*
D14*
G04 #@! TO.C,C79*
X139325000Y-262399999D03*
X140675000Y-262399999D03*
G04 #@! TD*
D12*
G04 #@! TO.C,HS58*
X218950000Y-59050000D03*
D13*
X218950000Y-60949999D03*
X221050000Y-60000000D03*
G04 #@! TD*
D16*
G04 #@! TO.C,U32*
X235600000Y-168600000D03*
D17*
X235600000Y-167000000D03*
X235600000Y-165400000D03*
X230400000Y-165400000D03*
X230400000Y-167000000D03*
X230400000Y-168600000D03*
G04 #@! TD*
D18*
G04 #@! TO.C,C56*
X33675000Y-51000000D03*
X32325000Y-51000000D03*
G04 #@! TD*
D14*
G04 #@! TO.C,C55*
X32325000Y-83000000D03*
X33675000Y-83000000D03*
G04 #@! TD*
G04 #@! TO.C,C76*
X19324999Y-262399999D03*
X20675000Y-262399999D03*
G04 #@! TD*
D19*
G04 #@! TO.C,U54*
X30400001Y-45400001D03*
D17*
X30400001Y-47000000D03*
X30400001Y-48600000D03*
X35600000Y-48600000D03*
X35600000Y-47000000D03*
X35600000Y-45400001D03*
G04 #@! TD*
D14*
G04 #@! TO.C,C73*
X59325000Y-302400000D03*
X60675000Y-302400000D03*
G04 #@! TD*
D16*
G04 #@! TO.C,U52*
X75600000Y-88600000D03*
D17*
X75600000Y-87000000D03*
X75600000Y-85400000D03*
X70400000Y-85400000D03*
X70400000Y-87000000D03*
X70400000Y-88600000D03*
G04 #@! TD*
D12*
G04 #@! TO.C,HS32*
X298950000Y-179050000D03*
D13*
X298950000Y-180950000D03*
X301050000Y-180000000D03*
G04 #@! TD*
D37*
G04 #@! TO.C,R3*
X71100000Y-26650000D03*
X71100000Y-28349999D03*
G04 #@! TD*
D19*
G04 #@! TO.C,U43*
X230400000Y-125400000D03*
D17*
X230400000Y-127000000D03*
X230400000Y-128600000D03*
X235600000Y-128600000D03*
X235600000Y-127000000D03*
X235600000Y-125400000D03*
G04 #@! TD*
D15*
G04 #@! TO.C,TP7*
X113000000Y-356000000D03*
G04 #@! TD*
D18*
G04 #@! TO.C,C60*
X193675000Y-51000000D03*
X192325000Y-51000000D03*
G04 #@! TD*
D15*
G04 #@! TO.C,TP3*
X72500000Y-338730000D03*
G04 #@! TD*
D18*
G04 #@! TO.C,C42*
X113675000Y-131000000D03*
X112325000Y-131000000D03*
G04 #@! TD*
G04 #@! TO.C,C15*
X313675000Y-291000000D03*
X312325000Y-291000000D03*
G04 #@! TD*
D14*
G04 #@! TO.C,C111*
X139325000Y-102400000D03*
X140675000Y-102400000D03*
G04 #@! TD*
D19*
G04 #@! TO.C,U25*
X150400000Y-205400000D03*
D17*
X150400000Y-207000000D03*
X150400000Y-208600000D03*
X155600000Y-208600000D03*
X155600000Y-207000000D03*
X155600000Y-205400000D03*
G04 #@! TD*
D24*
G04 #@! TO.C,H19*
X208000000Y-350000000D03*
G04 #@! TD*
D16*
G04 #@! TO.C,U17*
X195600000Y-248600000D03*
D17*
X195600000Y-247000000D03*
X195600000Y-245400000D03*
X190400000Y-245400000D03*
X190400000Y-247000000D03*
X190400000Y-248600000D03*
G04 #@! TD*
D14*
G04 #@! TO.C,C71*
X32325000Y-3000000D03*
X33675000Y-3000000D03*
G04 #@! TD*
D16*
G04 #@! TO.C,U64*
X235600000Y-8599999D03*
D17*
X235600000Y-7000000D03*
X235600000Y-5400000D03*
X230400000Y-5400000D03*
X230400000Y-7000000D03*
X230400000Y-8599999D03*
G04 #@! TD*
D24*
G04 #@! TO.C,H17*
X16000000Y-350000000D03*
G04 #@! TD*
D12*
G04 #@! TO.C,HS35*
X98950000Y-139050000D03*
D13*
X98950000Y-140950000D03*
X101050000Y-140000000D03*
G04 #@! TD*
D21*
G04 #@! TO.C,R8*
X76150000Y-24199999D03*
X77850000Y-24199999D03*
G04 #@! TD*
D14*
G04 #@! TO.C,C116*
X19324999Y-22400000D03*
X20675000Y-22400000D03*
G04 #@! TD*
D15*
G04 #@! TO.C,TP5*
X141000000Y-325000000D03*
G04 #@! TD*
D12*
G04 #@! TO.C,HS22*
X218950000Y-259050000D03*
D13*
X218950000Y-260950000D03*
X221050000Y-260000000D03*
G04 #@! TD*
D14*
G04 #@! TO.C,C102*
X259325000Y-182400000D03*
X260675000Y-182400000D03*
G04 #@! TD*
G04 #@! TO.C,C113*
X59325000Y-62400000D03*
X60675000Y-62400000D03*
G04 #@! TD*
D22*
G04 #@! TO.C,U2*
X235350000Y-273555000D03*
D23*
X235350000Y-274825000D03*
X235350000Y-276095000D03*
X235350000Y-277365000D03*
X235350000Y-278634999D03*
X235350000Y-279904999D03*
X235350000Y-281175000D03*
X235350000Y-282445000D03*
X244650000Y-282445000D03*
X244650000Y-281175000D03*
X244650000Y-279904999D03*
X244650000Y-278634999D03*
X244650000Y-277365000D03*
X244650000Y-276095000D03*
X244650000Y-274825000D03*
X244650000Y-273555000D03*
G04 #@! TD*
D24*
G04 #@! TO.C,H5*
X40000000Y-200000000D03*
G04 #@! TD*
G04 #@! TO.C,H8*
X280000000Y-200000000D03*
G04 #@! TD*
D38*
G04 #@! TO.C,U74*
X67099999Y-26800000D03*
D39*
X67099999Y-27275000D03*
X67099999Y-27724999D03*
D40*
X67099999Y-28199999D03*
D41*
X67750000Y-27500000D03*
X68250000Y-27500000D03*
D42*
X68900000Y-28199999D03*
D39*
X68900000Y-27724999D03*
X68900000Y-27275000D03*
D43*
X68900000Y-26800000D03*
G04 #@! TD*
D12*
G04 #@! TO.C,HS3*
X98950000Y-299050000D03*
D13*
X98950000Y-300950000D03*
X101050000Y-300000000D03*
G04 #@! TD*
D12*
G04 #@! TO.C,HS29*
X178950000Y-179050000D03*
D13*
X178950000Y-180950000D03*
X181050000Y-180000000D03*
G04 #@! TD*
D16*
G04 #@! TO.C,U15*
X275600000Y-248600000D03*
D17*
X275600000Y-247000000D03*
X275600000Y-245400000D03*
X270400000Y-245400000D03*
X270400000Y-247000000D03*
X270400000Y-248600000D03*
G04 #@! TD*
D19*
G04 #@! TO.C,U41*
X150400000Y-125400000D03*
D17*
X150400000Y-127000000D03*
X150400000Y-128600000D03*
X155600000Y-128600000D03*
X155600000Y-127000000D03*
X155600000Y-125400000D03*
G04 #@! TD*
D14*
G04 #@! TO.C,C99*
X299325000Y-222400000D03*
X300675000Y-222400000D03*
G04 #@! TD*
D12*
G04 #@! TO.C,HS17*
X178950000Y-299050000D03*
D13*
X178950000Y-300950000D03*
X181050000Y-300000000D03*
G04 #@! TD*
D18*
G04 #@! TO.C,C28*
X193675000Y-211000000D03*
X192325000Y-211000000D03*
G04 #@! TD*
D14*
G04 #@! TO.C,C16*
X312325000Y-243000000D03*
X313675000Y-243000000D03*
G04 #@! TD*
D12*
G04 #@! TO.C,HS52*
X298950000Y-139050000D03*
D13*
X298950000Y-140950000D03*
X301050000Y-140000000D03*
G04 #@! TD*
D14*
G04 #@! TO.C,C38*
X72325000Y-163000000D03*
X73675000Y-163000000D03*
G04 #@! TD*
D12*
G04 #@! TO.C,HS10*
X58950000Y-219050000D03*
D13*
X58950000Y-220950000D03*
X61050000Y-220000000D03*
G04 #@! TD*
D14*
G04 #@! TO.C,C92*
X179325000Y-262399999D03*
X180675000Y-262399999D03*
G04 #@! TD*
G04 #@! TO.C,C105*
X59325000Y-142400000D03*
X60675000Y-142400000D03*
G04 #@! TD*
D16*
G04 #@! TO.C,U62*
X315600000Y-8599999D03*
D17*
X315600000Y-7000000D03*
X315600000Y-5400000D03*
X310400000Y-5400000D03*
X310400000Y-7000000D03*
X310400000Y-8599999D03*
G04 #@! TD*
D14*
G04 #@! TO.C,C18*
X232325000Y-243000000D03*
X233675000Y-243000000D03*
G04 #@! TD*
D19*
G04 #@! TO.C,U22*
X30400001Y-205400000D03*
D17*
X30400001Y-207000000D03*
X30400001Y-208600000D03*
X35600000Y-208600000D03*
X35600000Y-207000000D03*
X35600000Y-205400000D03*
G04 #@! TD*
D12*
G04 #@! TO.C,HS28*
X298950000Y-219050000D03*
D13*
X298950000Y-220950000D03*
X301050000Y-220000000D03*
G04 #@! TD*
D14*
G04 #@! TO.C,C35*
X192325000Y-163000000D03*
X193675000Y-163000000D03*
G04 #@! TD*
D21*
G04 #@! TO.C,R16*
X99150000Y-352800000D03*
X100850000Y-352800000D03*
G04 #@! TD*
D14*
G04 #@! TO.C,C118*
X99325000Y-22400000D03*
X100675000Y-22400000D03*
G04 #@! TD*
G04 #@! TO.C,C132*
X179325000Y-22400000D03*
X180675000Y-22400000D03*
G04 #@! TD*
D18*
G04 #@! TO.C,C12*
X193675000Y-291000000D03*
X192325000Y-291000000D03*
G04 #@! TD*
D16*
G04 #@! TO.C,U30*
X315600000Y-168600000D03*
D17*
X315600000Y-167000000D03*
X315600000Y-165400000D03*
X310400000Y-165400000D03*
X310400000Y-167000000D03*
X310400000Y-168600000D03*
G04 #@! TD*
D15*
G04 #@! TO.C,TP4*
X77000000Y-342500000D03*
G04 #@! TD*
D24*
G04 #@! TO.C,H12*
X280000000Y-120000000D03*
G04 #@! TD*
D16*
G04 #@! TO.C,U31*
X275600000Y-168600000D03*
D17*
X275600000Y-167000000D03*
X275600000Y-165400000D03*
X270400000Y-165400000D03*
X270400000Y-167000000D03*
X270400000Y-168600000D03*
G04 #@! TD*
D44*
G04 #@! TO.C,D1*
X55730001Y-24599999D03*
X51270000Y-24599999D03*
G04 #@! TD*
D12*
G04 #@! TO.C,HS56*
X298950000Y-99050000D03*
D13*
X298950000Y-100950000D03*
X301050000Y-100000000D03*
G04 #@! TD*
D21*
G04 #@! TO.C,R14*
X109150000Y-339000000D03*
X110850000Y-339000000D03*
G04 #@! TD*
D12*
G04 #@! TO.C,HS48*
X138950000Y-19050000D03*
D13*
X138950000Y-20949999D03*
X141050000Y-20000000D03*
G04 #@! TD*
D15*
G04 #@! TO.C,TP2*
X120000000Y-325000000D03*
G04 #@! TD*
D14*
G04 #@! TO.C,C80*
X19324999Y-222400000D03*
X20675000Y-222400000D03*
G04 #@! TD*
G04 #@! TO.C,C124*
X179325000Y-102400000D03*
X180675000Y-102400000D03*
G04 #@! TD*
D25*
G04 #@! TO.C,SW2*
X40750000Y-359750000D03*
D26*
X47250000Y-359750000D03*
X47250000Y-364250000D03*
X40750000Y-364250000D03*
G04 #@! TD*
D12*
G04 #@! TO.C,HS2*
X58950000Y-299050000D03*
D13*
X58950000Y-300950000D03*
X61050000Y-300000000D03*
G04 #@! TD*
D12*
G04 #@! TO.C,HS30*
X218950000Y-179050000D03*
D13*
X218950000Y-180950000D03*
X221050000Y-180000000D03*
G04 #@! TD*
D14*
G04 #@! TO.C,C98*
X259325000Y-222400000D03*
X260675000Y-222400000D03*
G04 #@! TD*
D12*
G04 #@! TO.C,HS57*
X178950000Y-59050000D03*
D13*
X178950000Y-60949999D03*
X181050000Y-60000000D03*
G04 #@! TD*
D14*
G04 #@! TO.C,C67*
X192325000Y-3000000D03*
X193675000Y-3000000D03*
G04 #@! TD*
D19*
G04 #@! TO.C,U7*
X70400000Y-285400000D03*
D17*
X70400000Y-287000000D03*
X70400000Y-288600000D03*
X75600000Y-288600000D03*
X75600000Y-287000000D03*
X75600000Y-285400000D03*
G04 #@! TD*
D14*
G04 #@! TO.C,C128*
X179325000Y-62400000D03*
X180675000Y-62400000D03*
G04 #@! TD*
D24*
G04 #@! TO.C,H3*
X200000000Y-280000000D03*
G04 #@! TD*
D18*
G04 #@! TO.C,C14*
X273675000Y-291000000D03*
X272325000Y-291000000D03*
G04 #@! TD*
D12*
G04 #@! TO.C,HS44*
X138950000Y-59050000D03*
D13*
X138950000Y-60949999D03*
X141050000Y-60000000D03*
G04 #@! TD*
D21*
G04 #@! TO.C,R11*
X26500000Y-168600000D03*
X28199999Y-168600000D03*
G04 #@! TD*
D12*
G04 #@! TO.C,HS42*
X58950000Y-59050000D03*
D13*
X58950000Y-60949999D03*
X61050000Y-60000000D03*
G04 #@! TD*
D14*
G04 #@! TO.C,C86*
X99325000Y-182400000D03*
X100675000Y-182400000D03*
G04 #@! TD*
D18*
G04 #@! TO.C,C43*
X153675000Y-131000000D03*
X152325000Y-131000000D03*
G04 #@! TD*
D14*
G04 #@! TO.C,C100*
X179325000Y-182400000D03*
X180675000Y-182400000D03*
G04 #@! TD*
G04 #@! TO.C,C52*
X152325000Y-83000000D03*
X153675000Y-83000000D03*
G04 #@! TD*
D18*
G04 #@! TO.C,C30*
X273675000Y-211000000D03*
X272325000Y-211000000D03*
G04 #@! TD*
D14*
G04 #@! TO.C,C104*
X19324999Y-142400000D03*
X20675000Y-142400000D03*
G04 #@! TD*
D45*
G04 #@! TO.C,J2*
X48500000Y-316562500D03*
D46*
X49500000Y-316562500D03*
X50500000Y-316562500D03*
X51500000Y-316562500D03*
D47*
X47200000Y-320437500D03*
X52800000Y-320437500D03*
G04 #@! TD*
D19*
G04 #@! TO.C,U26*
X190400000Y-205400000D03*
D17*
X190400000Y-207000000D03*
X190400000Y-208600000D03*
X195600000Y-208600000D03*
X195600000Y-207000000D03*
X195600000Y-205400000D03*
G04 #@! TD*
D21*
G04 #@! TO.C,R5*
X76150000Y-29400000D03*
X77850000Y-29400000D03*
G04 #@! TD*
D48*
G04 #@! TO.C,C141*
X65599999Y-23774998D03*
X65599999Y-22424999D03*
G04 #@! TD*
D18*
G04 #@! TO.C,C137*
X244175000Y-111700000D03*
X242825000Y-111700000D03*
G04 #@! TD*
D12*
G04 #@! TO.C,HS54*
X218950000Y-99050000D03*
D13*
X218950000Y-100950000D03*
X221050000Y-100000000D03*
G04 #@! TD*
D25*
G04 #@! TO.C,SW5*
X72750000Y-359750000D03*
D26*
X79250000Y-359750000D03*
X79250000Y-364250000D03*
X72750000Y-364250000D03*
G04 #@! TD*
D22*
G04 #@! TO.C,U1*
X75350000Y-273555000D03*
D23*
X75350000Y-274825000D03*
X75350000Y-276095000D03*
X75350000Y-277365000D03*
X75350000Y-278634999D03*
X75350000Y-279904999D03*
X75350000Y-281175000D03*
X75350000Y-282445000D03*
X84650000Y-282445000D03*
X84650000Y-281175000D03*
X84650000Y-279904999D03*
X84650000Y-278634999D03*
X84650000Y-277365000D03*
X84650000Y-276095000D03*
X84650000Y-274825000D03*
X84650000Y-273555000D03*
G04 #@! TD*
D14*
G04 #@! TO.C,C135*
X299325000Y-22400000D03*
X300675000Y-22400000D03*
G04 #@! TD*
D19*
G04 #@! TO.C,U24*
X110400000Y-205400000D03*
D17*
X110400000Y-207000000D03*
X110400000Y-208600000D03*
X115600000Y-208600000D03*
X115600000Y-207000000D03*
X115600000Y-205400000D03*
G04 #@! TD*
D14*
G04 #@! TO.C,C83*
X139325000Y-222400000D03*
X140675000Y-222400000D03*
G04 #@! TD*
D12*
G04 #@! TO.C,HS64*
X298950000Y-19050000D03*
D13*
X298950000Y-20949999D03*
X301050000Y-20000000D03*
G04 #@! TD*
D49*
G04 #@! TO.C,C1*
X95750000Y-28000000D03*
D50*
X92250000Y-28000000D03*
G04 #@! TD*
D51*
G04 #@! TO.C,J4*
X49060001Y-32000000D03*
D52*
X53019999Y-32000000D03*
X56980000Y-32000000D03*
X60939999Y-32000000D03*
G04 #@! TD*
D53*
G04 #@! TO.C,J1*
X307130000Y-233730000D03*
D54*
X307130000Y-236270000D03*
X304590000Y-233730000D03*
X304590000Y-236270000D03*
X302049999Y-233730000D03*
X302049999Y-236270000D03*
X299509999Y-233730000D03*
X299509999Y-236270000D03*
X296969999Y-233730000D03*
X296969999Y-236270000D03*
X294430000Y-233730000D03*
X294430000Y-236270000D03*
X291889999Y-233730000D03*
X291889999Y-236270000D03*
X289349999Y-233730000D03*
X289349999Y-236270000D03*
X286809999Y-233730000D03*
X286809999Y-236270000D03*
X284269999Y-233730000D03*
X284269999Y-236270000D03*
X281730002Y-233730000D03*
X281730002Y-236270000D03*
X279190000Y-233730000D03*
X279190000Y-236270000D03*
X276650000Y-233730000D03*
X276650000Y-236270000D03*
X274110000Y-233730000D03*
X274110000Y-236270000D03*
X271570000Y-233730000D03*
X271570000Y-236270000D03*
X269030000Y-233730000D03*
X269030000Y-236270000D03*
X266490000Y-233730000D03*
X266490000Y-236270000D03*
X263950000Y-233730000D03*
X263950000Y-236270000D03*
X261410000Y-233730000D03*
X261410000Y-236270000D03*
X258870000Y-233730000D03*
X258870000Y-236270000D03*
G04 #@! TD*
D49*
G04 #@! TO.C,C140*
X105750000Y-28000000D03*
D50*
X102250000Y-28000000D03*
G04 #@! TD*
%LPD*%
M02*
