G04 #@! TF.GenerationSoftware,KiCad,Pcbnew,9.0.9-9.0.9~ubuntu24.04.1*
G04 #@! TF.CreationDate,2026-10-07T07:59:11+00:00*
G04 #@! TF.ProjectId,chess-board,63686573-732d-4626-9f61-72642e6b6963,rev?*
G04 #@! TF.SameCoordinates,Original*
G04 #@! TF.FileFunction,Legend,Bot*
G04 #@! TF.FilePolarity,Positive*
%FSLAX46Y46*%
G04 Gerber Fmt 4.6, Leading zero omitted, Abs format (unit mm)*
G04 Created by KiCad (PCBNEW 9.0.9-9.0.9~ubuntu24.04.1) date 2026-10-07 07:59:11*
%MOMM*%
%LPD*%
G01*
G04 APERTURE LIST*
G04 Aperture macros list*
%AMRoundRect*
0 Rectangle with rounded corners*
0 $1 Rounding radius*
0 $2 $3 $4 $5 $6 $7 $8 $9 X,Y pos of 4 corners*
0 Add a 4 corners polygon primitive as box body*
4,1,4,$2,$3,$4,$5,$6,$7,$8,$9,$2,$3,0*
0 Add four circle primitives for the rounded corners*
1,1,$1+$1,$2,$3*
1,1,$1+$1,$4,$5*
1,1,$1+$1,$6,$7*
1,1,$1+$1,$8,$9*
0 Add four rect primitives between the rounded corners*
20,1,$1+$1,$2,$3,$4,$5,0*
20,1,$1+$1,$4,$5,$6,$7,0*
20,1,$1+$1,$6,$7,$8,$9,0*
20,1,$1+$1,$8,$9,$2,$3,0*%
G04 Aperture macros list end*
%ADD10RoundRect,0.050000X0.850000X0.850000X-0.850000X0.850000X-0.850000X-0.850000X0.850000X-0.850000X0*%
%ADD11C,1.800000*%
%ADD12C,3.400000*%
%ADD13RoundRect,0.050000X0.910000X-0.910000X0.910000X0.910000X-0.910000X0.910000X-0.910000X-0.910000X0*%
%ADD14C,1.920000*%
%ADD15RoundRect,0.050000X-1.225000X-1.225000X1.225000X-1.225000X1.225000X1.225000X-1.225000X1.225000X0*%
%ADD16C,2.550000*%
%ADD17RoundRect,0.050000X-0.900000X-0.900000X0.900000X-0.900000X0.900000X0.900000X-0.900000X0.900000X0*%
%ADD18C,1.900000*%
G04 APERTURE END LIST*
%LPC*%
D10*
G04 #@! TO.C,C1*
X95750000Y-28000000D03*
D11*
X92250000Y-28000000D03*
G04 #@! TD*
D10*
G04 #@! TO.C,C140*
X105750000Y-28000000D03*
D11*
X102250000Y-28000000D03*
G04 #@! TD*
D12*
G04 #@! TO.C,H1*
X40000000Y-280000000D03*
G04 #@! TD*
G04 #@! TO.C,H10*
X120000000Y-120000000D03*
G04 #@! TD*
G04 #@! TO.C,H11*
X200000000Y-120000000D03*
G04 #@! TD*
G04 #@! TO.C,H12*
X280000000Y-120000000D03*
G04 #@! TD*
G04 #@! TO.C,H13*
X40000000Y-40000000D03*
G04 #@! TD*
G04 #@! TO.C,H14*
X120000000Y-40000000D03*
G04 #@! TD*
G04 #@! TO.C,H15*
X200000000Y-40000000D03*
G04 #@! TD*
G04 #@! TO.C,H16*
X280000000Y-40000000D03*
G04 #@! TD*
G04 #@! TO.C,H17*
X40000000Y-340000000D03*
G04 #@! TD*
G04 #@! TO.C,H18*
X120000000Y-340000000D03*
G04 #@! TD*
G04 #@! TO.C,H19*
X200000000Y-340000000D03*
G04 #@! TD*
G04 #@! TO.C,H2*
X120000000Y-280000000D03*
G04 #@! TD*
G04 #@! TO.C,H20*
X280000000Y-340000000D03*
G04 #@! TD*
G04 #@! TO.C,H3*
X200000000Y-280000000D03*
G04 #@! TD*
G04 #@! TO.C,H4*
X280000000Y-280000000D03*
G04 #@! TD*
G04 #@! TO.C,H5*
X40000000Y-200000000D03*
G04 #@! TD*
G04 #@! TO.C,H6*
X120000000Y-200000000D03*
G04 #@! TD*
G04 #@! TO.C,H7*
X200000000Y-200000000D03*
G04 #@! TD*
G04 #@! TO.C,H8*
X280000000Y-200000000D03*
G04 #@! TD*
G04 #@! TO.C,H9*
X40000000Y-120000000D03*
G04 #@! TD*
D13*
G04 #@! TO.C,J1*
X307130000Y-233730000D03*
D14*
X307130000Y-236270000D03*
X304590000Y-233730000D03*
X304590000Y-236270000D03*
X302049999Y-233730000D03*
X302049999Y-236270000D03*
X299509999Y-233730000D03*
X299509999Y-236270000D03*
X296969999Y-233730000D03*
X296969999Y-236270000D03*
X294430000Y-233730000D03*
X294430000Y-236270000D03*
X291889999Y-233730000D03*
X291889999Y-236270000D03*
X289349999Y-233730000D03*
X289349999Y-236270000D03*
X286809999Y-233730000D03*
X286809999Y-236270000D03*
X284269999Y-233730000D03*
X284269999Y-236270000D03*
X281730002Y-233730000D03*
X281730002Y-236270000D03*
X279190000Y-233730000D03*
X279190000Y-236270000D03*
X276650000Y-233730000D03*
X276650000Y-236270000D03*
X274110000Y-233730000D03*
X274110000Y-236270000D03*
X271570000Y-233730000D03*
X271570000Y-236270000D03*
X269030000Y-233730000D03*
X269030000Y-236270000D03*
X266490000Y-233730000D03*
X266490000Y-236270000D03*
X263950000Y-233730000D03*
X263950000Y-236270000D03*
X261410000Y-233730000D03*
X261410000Y-236270000D03*
X258870000Y-233730000D03*
X258870000Y-236270000D03*
G04 #@! TD*
D15*
G04 #@! TO.C,J4*
X49060001Y-32000000D03*
D16*
X53019999Y-32000000D03*
X56980000Y-32000000D03*
X60939999Y-32000000D03*
G04 #@! TD*
D17*
G04 #@! TO.C,SW1*
X156750000Y-329750000D03*
D18*
X163250000Y-329750000D03*
X163250000Y-334250000D03*
X156750000Y-334250000D03*
G04 #@! TD*
D17*
G04 #@! TO.C,SW10*
X204750000Y-345750000D03*
D18*
X211250000Y-345750000D03*
X211250000Y-350250000D03*
X204750000Y-350250000D03*
G04 #@! TD*
D17*
G04 #@! TO.C,SW11*
X220750000Y-345750000D03*
D18*
X227250000Y-345750000D03*
X227250000Y-350250000D03*
X220750000Y-350250000D03*
G04 #@! TD*
D17*
G04 #@! TO.C,SW12*
X236750000Y-345750000D03*
D18*
X243250000Y-345750000D03*
X243250000Y-350250000D03*
X236750000Y-350250000D03*
G04 #@! TD*
D17*
G04 #@! TO.C,SW2*
X172750000Y-329750000D03*
D18*
X179250000Y-329750000D03*
X179250000Y-334250000D03*
X172750000Y-334250000D03*
G04 #@! TD*
D17*
G04 #@! TO.C,SW3*
X188750000Y-329750000D03*
D18*
X195250000Y-329750000D03*
X195250000Y-334250000D03*
X188750000Y-334250000D03*
G04 #@! TD*
D17*
G04 #@! TO.C,SW4*
X204750000Y-329750000D03*
D18*
X211250000Y-329750000D03*
X211250000Y-334250000D03*
X204750000Y-334250000D03*
G04 #@! TD*
D17*
G04 #@! TO.C,SW5*
X220750000Y-329750000D03*
D18*
X227250000Y-329750000D03*
X227250000Y-334250000D03*
X220750000Y-334250000D03*
G04 #@! TD*
D17*
G04 #@! TO.C,SW6*
X236750000Y-329750000D03*
D18*
X243250000Y-329750000D03*
X243250000Y-334250000D03*
X236750000Y-334250000D03*
G04 #@! TD*
D17*
G04 #@! TO.C,SW7*
X156750000Y-345750000D03*
D18*
X163250000Y-345750000D03*
X163250000Y-350250000D03*
X156750000Y-350250000D03*
G04 #@! TD*
D17*
G04 #@! TO.C,SW8*
X172750000Y-345750000D03*
D18*
X179250000Y-345750000D03*
X179250000Y-350250000D03*
X172750000Y-350250000D03*
G04 #@! TD*
D17*
G04 #@! TO.C,SW9*
X188750000Y-345750000D03*
D18*
X195250000Y-345750000D03*
X195250000Y-350250000D03*
X188750000Y-350250000D03*
G04 #@! TD*
%LPD*%
M02*
