G04 #@! TF.GenerationSoftware,KiCad,Pcbnew,9.0.9-9.0.9~ubuntu24.04.1*
G04 #@! TF.CreationDate,2026-10-07T17:00:06+00:00*
G04 #@! TF.ProjectId,chess-board,63686573-732d-4626-9f61-72642e6b6963,rev?*
G04 #@! TF.SameCoordinates,Original*
G04 #@! TF.FileFunction,Copper,L8,Bot*
G04 #@! TF.FilePolarity,Positive*
%FSLAX46Y46*%
G04 Gerber Fmt 4.6, Leading zero omitted, Abs format (unit mm)*
G04 Created by KiCad (PCBNEW 9.0.9-9.0.9~ubuntu24.04.1) date 2026-10-07 17:00:06*
%MOMM*%
%LPD*%
G01*
G04 APERTURE LIST*
G04 #@! TA.AperFunction,ComponentPad*
%ADD10R,1.800000X1.800000*%
G04 #@! TD*
G04 #@! TA.AperFunction,ComponentPad*
%ADD11C,1.800000*%
G04 #@! TD*
G04 #@! TA.AperFunction,ComponentPad*
%ADD12R,1.700000X1.700000*%
G04 #@! TD*
G04 #@! TA.AperFunction,ComponentPad*
%ADD13C,1.700000*%
G04 #@! TD*
G04 #@! TA.AperFunction,ComponentPad*
%ADD14R,2.450000X2.450000*%
G04 #@! TD*
G04 #@! TA.AperFunction,ComponentPad*
%ADD15C,2.450000*%
G04 #@! TD*
G04 #@! TA.AperFunction,ComponentPad*
%ADD16R,1.820000X1.820000*%
G04 #@! TD*
G04 #@! TA.AperFunction,ComponentPad*
%ADD17C,1.820000*%
G04 #@! TD*
G04 #@! TA.AperFunction,ViaPad*
%ADD18C,0.900000*%
G04 #@! TD*
G04 #@! TA.AperFunction,Conductor*
%ADD19C,0.310000*%
G04 #@! TD*
G04 APERTURE END LIST*
D10*
G04 #@! TO.P,SW10,1*
G04 #@! TO.N,BTN_F3*
X276750000Y-335750000D03*
D11*
G04 #@! TO.P,SW10,1b*
X283250000Y-335750000D03*
G04 #@! TO.P,SW10,2*
G04 #@! TO.N,GND*
X283250000Y-340250000D03*
G04 #@! TO.P,SW10,2b*
X276750000Y-340250000D03*
G04 #@! TD*
D10*
G04 #@! TO.P,SW11,1*
G04 #@! TO.N,BTN_F4*
X224750000Y-359750000D03*
D11*
G04 #@! TO.P,SW11,1b*
X231250000Y-359750000D03*
G04 #@! TO.P,SW11,2*
G04 #@! TO.N,GND*
X231250000Y-364250000D03*
G04 #@! TO.P,SW11,2b*
X224750000Y-364250000D03*
G04 #@! TD*
D10*
G04 #@! TO.P,SW7,1*
G04 #@! TO.N,BTN_PASS*
X276750000Y-359750000D03*
D11*
G04 #@! TO.P,SW7,1b*
X283250000Y-359750000D03*
G04 #@! TO.P,SW7,2*
G04 #@! TO.N,GND*
X283250000Y-364250000D03*
G04 #@! TO.P,SW7,2b*
X276750000Y-364250000D03*
G04 #@! TD*
D10*
G04 #@! TO.P,SW12,1*
G04 #@! TO.N,BTN_F5*
X250750000Y-359750000D03*
D11*
G04 #@! TO.P,SW12,1b*
X257250000Y-359750000D03*
G04 #@! TO.P,SW12,2*
G04 #@! TO.N,GND*
X257250000Y-364250000D03*
G04 #@! TO.P,SW12,2b*
X250750000Y-364250000D03*
G04 #@! TD*
D10*
G04 #@! TO.P,SW8,1*
G04 #@! TO.N,BTN_F1*
X224750000Y-335750000D03*
D11*
G04 #@! TO.P,SW8,1b*
X231250000Y-335750000D03*
G04 #@! TO.P,SW8,2*
G04 #@! TO.N,GND*
X231250000Y-340250000D03*
G04 #@! TO.P,SW8,2b*
X224750000Y-340250000D03*
G04 #@! TD*
D10*
G04 #@! TO.P,SW9,1*
G04 #@! TO.N,BTN_F2*
X250750000Y-335750000D03*
D11*
G04 #@! TO.P,SW9,1b*
X257250000Y-335750000D03*
G04 #@! TO.P,SW9,2*
G04 #@! TO.N,GND*
X257250000Y-340250000D03*
G04 #@! TO.P,SW9,2b*
X250750000Y-340250000D03*
G04 #@! TD*
D10*
G04 #@! TO.P,SW3,1*
G04 #@! TO.N,BTN_LEFT*
X26750000Y-347750000D03*
D11*
G04 #@! TO.P,SW3,1b*
X33250000Y-347750000D03*
G04 #@! TO.P,SW3,2*
G04 #@! TO.N,GND*
X33250000Y-352250000D03*
G04 #@! TO.P,SW3,2b*
X26750000Y-352250000D03*
G04 #@! TD*
D10*
G04 #@! TO.P,SW4,1*
G04 #@! TO.N,BTN_RIGHT*
X54750000Y-347750000D03*
D11*
G04 #@! TO.P,SW4,1b*
X61250000Y-347750000D03*
G04 #@! TO.P,SW4,2*
G04 #@! TO.N,GND*
X61250000Y-352250000D03*
G04 #@! TO.P,SW4,2b*
X54750000Y-352250000D03*
G04 #@! TD*
D10*
G04 #@! TO.P,SW6,1*
G04 #@! TO.N,BTN_RESET*
X304750000Y-361750000D03*
D11*
G04 #@! TO.P,SW6,1b*
X311250000Y-361750000D03*
G04 #@! TO.P,SW6,2*
G04 #@! TO.N,GND*
X311250000Y-366250000D03*
G04 #@! TO.P,SW6,2b*
X304750000Y-366250000D03*
G04 #@! TD*
D10*
G04 #@! TO.P,SW1,1*
G04 #@! TO.N,BTN_UP*
X40750000Y-335750000D03*
D11*
G04 #@! TO.P,SW1,1b*
X47250000Y-335750000D03*
G04 #@! TO.P,SW1,2*
G04 #@! TO.N,GND*
X47250000Y-340250000D03*
G04 #@! TO.P,SW1,2b*
X40750000Y-340250000D03*
G04 #@! TD*
D10*
G04 #@! TO.P,SW2,1*
G04 #@! TO.N,BTN_DOWN*
X40750000Y-359750000D03*
D11*
G04 #@! TO.P,SW2,1b*
X47250000Y-359750000D03*
G04 #@! TO.P,SW2,2*
G04 #@! TO.N,GND*
X47250000Y-364250000D03*
G04 #@! TO.P,SW2,2b*
X40750000Y-364250000D03*
G04 #@! TD*
D10*
G04 #@! TO.P,SW5,1*
G04 #@! TO.N,BTN_OK*
X72750000Y-359750000D03*
D11*
G04 #@! TO.P,SW5,1b*
X79250000Y-359750000D03*
G04 #@! TO.P,SW5,2*
G04 #@! TO.N,GND*
X79250000Y-364250000D03*
G04 #@! TO.P,SW5,2b*
X72750000Y-364250000D03*
G04 #@! TD*
D12*
G04 #@! TO.P,C1,1*
G04 #@! TO.N,+5V*
X95750000Y-28000000D03*
D13*
G04 #@! TO.P,C1,2*
G04 #@! TO.N,GND*
X92250000Y-28000000D03*
G04 #@! TD*
D14*
G04 #@! TO.P,J4,1*
G04 #@! TO.N,DC_IN*
X49060001Y-32000000D03*
D15*
G04 #@! TO.P,J4,2*
G04 #@! TO.N,GND*
X53019999Y-32000000D03*
G04 #@! TO.P,J4,3*
G04 #@! TO.N,DC_FUSED*
X56980000Y-32000000D03*
G04 #@! TO.P,J4,4*
G04 #@! TO.N,RUN*
X60939999Y-32000000D03*
G04 #@! TD*
D16*
G04 #@! TO.P,J1,1*
G04 #@! TO.N,+3V3*
X307130000Y-233730000D03*
D17*
G04 #@! TO.P,J1,2*
G04 #@! TO.N,+5V*
X307130000Y-236270000D03*
G04 #@! TO.P,J1,3*
G04 #@! TO.N,I2C_SDA*
X304590000Y-233730000D03*
G04 #@! TO.P,J1,4*
G04 #@! TO.N,+5V*
X304590000Y-236270000D03*
G04 #@! TO.P,J1,5*
G04 #@! TO.N,I2C_SCL*
X302049999Y-233730000D03*
G04 #@! TO.P,J1,6*
G04 #@! TO.N,GND*
X302049999Y-236270000D03*
G04 #@! TO.P,J1,7*
G04 #@! TO.N,unconnected-(J1-GPIO4-Pad7)*
X299509999Y-233730000D03*
G04 #@! TO.P,J1,8*
G04 #@! TO.N,unconnected-(J1-UART_TX_GPIO14-Pad8)*
X299509999Y-236270000D03*
G04 #@! TO.P,J1,9*
G04 #@! TO.N,GND*
X296969999Y-233730000D03*
G04 #@! TO.P,J1,10*
G04 #@! TO.N,unconnected-(J1-UART_RX_GPIO15-Pad10)*
X296969999Y-236270000D03*
G04 #@! TO.P,J1,11*
G04 #@! TO.N,BTN_RESET*
X294430000Y-233730000D03*
G04 #@! TO.P,J1,12*
G04 #@! TO.N,unconnected-(J1-GPIO18-Pad12)*
X294430000Y-236270000D03*
G04 #@! TO.P,J1,13*
G04 #@! TO.N,unconnected-(J1-GPIO27-Pad13)*
X291889999Y-233730000D03*
G04 #@! TO.P,J1,14*
G04 #@! TO.N,GND*
X291889999Y-236270000D03*
G04 #@! TO.P,J1,15*
G04 #@! TO.N,BTN_F3*
X289349999Y-233730000D03*
G04 #@! TO.P,J1,16*
G04 #@! TO.N,BTN_F4*
X289349999Y-236270000D03*
G04 #@! TO.P,J1,17*
G04 #@! TO.N,+3V3*
X286809999Y-233730000D03*
G04 #@! TO.P,J1,18*
G04 #@! TO.N,BTN_F5*
X286809999Y-236270000D03*
G04 #@! TO.P,J1,19*
G04 #@! TO.N,SPI_DATA_3V3*
X284269999Y-233730000D03*
G04 #@! TO.P,J1,20*
G04 #@! TO.N,GND*
X284269999Y-236270000D03*
G04 #@! TO.P,J1,21*
G04 #@! TO.N,unconnected-(J1-SPI_MISO_GPIO9-Pad21)*
X281730002Y-233730000D03*
G04 #@! TO.P,J1,22*
G04 #@! TO.N,unconnected-(J1-GPIO25-Pad22)*
X281730002Y-236270000D03*
G04 #@! TO.P,J1,23*
G04 #@! TO.N,SPI_CLK_3V3*
X279190000Y-233730000D03*
G04 #@! TO.P,J1,24*
G04 #@! TO.N,unconnected-(J1-SPI_CE0_GPIO8-Pad24)*
X279190000Y-236270000D03*
G04 #@! TO.P,J1,25*
G04 #@! TO.N,GND*
X276650000Y-233730000D03*
G04 #@! TO.P,J1,26*
G04 #@! TO.N,unconnected-(J1-SPI_CE1_GPIO7-Pad26)*
X276650000Y-236270000D03*
G04 #@! TO.P,J1,27*
G04 #@! TO.N,unconnected-(J1-ID_EEPROM_DATA-Pad27)*
X274110000Y-233730000D03*
G04 #@! TO.P,J1,28*
G04 #@! TO.N,unconnected-(J1-ID_EEPROM_CLOCK-Pad28)*
X274110000Y-236270000D03*
G04 #@! TO.P,J1,29*
G04 #@! TO.N,BTN_UP*
X271570000Y-233730000D03*
G04 #@! TO.P,J1,30*
G04 #@! TO.N,GND*
X271570000Y-236270000D03*
G04 #@! TO.P,J1,31*
G04 #@! TO.N,BTN_DOWN*
X269030000Y-233730000D03*
G04 #@! TO.P,J1,32*
G04 #@! TO.N,BTN_LEFT*
X269030000Y-236270000D03*
G04 #@! TO.P,J1,33*
G04 #@! TO.N,BTN_RIGHT*
X266490000Y-233730000D03*
G04 #@! TO.P,J1,34*
G04 #@! TO.N,GND*
X266490000Y-236270000D03*
G04 #@! TO.P,J1,35*
G04 #@! TO.N,BTN_PASS*
X263950000Y-233730000D03*
G04 #@! TO.P,J1,36*
G04 #@! TO.N,BTN_OK*
X263950000Y-236270000D03*
G04 #@! TO.P,J1,37*
G04 #@! TO.N,LED_EN*
X261410000Y-233730000D03*
G04 #@! TO.P,J1,38*
G04 #@! TO.N,BTN_F1*
X261410000Y-236270000D03*
G04 #@! TO.P,J1,39*
G04 #@! TO.N,GND*
X258870000Y-233730000D03*
G04 #@! TO.P,J1,40*
G04 #@! TO.N,BTN_F2*
X258870000Y-236270000D03*
G04 #@! TD*
D12*
G04 #@! TO.P,C140,1*
G04 #@! TO.N,+5V*
X105750000Y-28000000D03*
D13*
G04 #@! TO.P,C140,2*
G04 #@! TO.N,GND*
X102250000Y-28000000D03*
G04 #@! TD*
D18*
G04 #@! TO.N,+3V3*
X246300000Y-273555000D03*
X245150000Y-271700000D03*
X298350000Y-62400000D03*
X258350000Y-62400000D03*
X297650000Y-219050000D03*
X98350000Y-222400000D03*
X178350000Y-62400000D03*
X97650000Y-299050000D03*
X257649999Y-99050000D03*
X177650000Y-179050000D03*
X217650000Y-59050000D03*
X218350000Y-102400000D03*
X297650000Y-299050000D03*
X138350000Y-262399998D03*
X178350000Y-302400000D03*
X57650000Y-59050000D03*
X233350000Y-113555000D03*
X17649999Y-219050000D03*
X257649999Y-19050000D03*
X177650000Y-59050000D03*
X245150000Y-31699998D03*
X177650000Y-299050000D03*
X218350000Y-182400000D03*
X97650000Y-19050000D03*
X257649999Y-59050000D03*
X298350000Y-142400000D03*
X58349999Y-102400000D03*
X85150000Y-111700000D03*
X98350000Y-102400000D03*
X298350000Y-302400000D03*
X57650000Y-299050000D03*
X98350000Y-62400000D03*
X258350000Y-182400000D03*
X258350000Y-102400000D03*
X218350000Y-302400000D03*
X218350000Y-222400000D03*
X138350000Y-22400000D03*
X138350000Y-222400000D03*
X297650000Y-139050000D03*
X218350000Y-22400000D03*
X97650000Y-219050000D03*
X178350000Y-142400000D03*
X97650000Y-179050000D03*
X143375000Y-325000000D03*
X217650000Y-219050000D03*
X233350000Y-273555000D03*
X258350000Y-22400000D03*
X57650000Y-219050000D03*
X58349999Y-182400000D03*
X17649999Y-99050000D03*
X245150000Y-111700000D03*
X258350000Y-222400000D03*
X258350000Y-142400000D03*
X57650000Y-259050000D03*
X71350000Y-116095000D03*
X18349998Y-22400000D03*
X137650000Y-139050000D03*
X17649999Y-139050000D03*
X137650000Y-99050000D03*
X137650000Y-59050000D03*
X298350000Y-182400000D03*
X258350000Y-262399998D03*
X18349998Y-262399998D03*
X18349998Y-102400000D03*
X57650000Y-19050000D03*
X298350000Y-22400000D03*
X217650000Y-259050000D03*
X297650000Y-179050000D03*
X231350000Y-116095000D03*
X177650000Y-259050000D03*
X177650000Y-219050000D03*
X232350000Y-194825000D03*
X246300000Y-33555000D03*
X138350000Y-142400000D03*
X85150000Y-191700000D03*
X58349999Y-22400000D03*
X86300000Y-33555000D03*
X297650000Y-59050000D03*
X17649999Y-179050000D03*
X297650000Y-259050000D03*
X17649999Y-299050000D03*
X257649999Y-299050000D03*
X57650000Y-139050000D03*
X257649999Y-139050000D03*
X217650000Y-179050000D03*
X98350000Y-22400000D03*
X17649999Y-19050000D03*
X257649999Y-259050000D03*
X97650000Y-259050000D03*
X217650000Y-99050000D03*
X58349999Y-222400000D03*
X178350000Y-182400000D03*
X49500000Y-313662500D03*
X72350000Y-194825000D03*
X246300000Y-113555000D03*
X233350000Y-33555000D03*
X58349999Y-262399998D03*
X58349999Y-142400000D03*
X18349998Y-222400000D03*
X217650000Y-139050000D03*
X246300000Y-193555000D03*
X97650000Y-99050000D03*
X257649999Y-219050000D03*
X137650000Y-19050000D03*
X58349999Y-302400000D03*
X232350000Y-34824998D03*
X298350000Y-262399998D03*
X137650000Y-259050000D03*
X178350000Y-102400000D03*
X138350000Y-102400000D03*
X98350000Y-142400000D03*
X233350000Y-193555000D03*
X57650000Y-179050000D03*
X177650000Y-139050000D03*
X97650000Y-139050000D03*
X177650000Y-99050000D03*
X257649999Y-179050000D03*
X218350000Y-262399998D03*
X17649999Y-59050000D03*
X98350000Y-302400000D03*
X137650000Y-179050000D03*
X85150000Y-271700000D03*
X217650000Y-19050000D03*
X218350000Y-142400000D03*
X297650000Y-19050000D03*
X218350000Y-62400000D03*
X86300000Y-193555000D03*
X71350000Y-36095000D03*
X18349998Y-302400000D03*
X85150000Y-31699998D03*
X138350000Y-62400000D03*
X98350000Y-182400000D03*
X137650000Y-219050000D03*
X18349998Y-62400000D03*
X18349998Y-142400000D03*
X217650000Y-299050000D03*
X298350000Y-222400000D03*
X18349998Y-182400000D03*
X137650000Y-299050000D03*
X86300000Y-113555000D03*
X178350000Y-262399998D03*
X72350000Y-34824998D03*
X97650000Y-59050000D03*
X86300000Y-273555000D03*
X245150000Y-191700000D03*
X231350000Y-36095000D03*
X178350000Y-22400000D03*
X298350000Y-102400000D03*
X177650000Y-19050000D03*
X138350000Y-182400000D03*
X178350000Y-222400000D03*
X258350000Y-302400000D03*
X297650000Y-99050000D03*
X57650000Y-99050000D03*
X58349999Y-62400000D03*
X98350000Y-262399998D03*
X17649999Y-259050000D03*
X138350000Y-302400000D03*
G04 #@! TO.N,+5V*
X94125000Y-341270000D03*
X70850000Y-31400000D03*
X69650000Y-31400000D03*
X70450000Y-21000000D03*
X92500000Y-349050000D03*
X72050000Y-31400000D03*
X102450000Y-336000000D03*
X70850000Y-23599998D03*
X115375000Y-325000000D03*
X91850000Y-334200000D03*
X94125000Y-336190000D03*
X100472500Y-346095000D03*
X87500000Y-350000000D03*
X88350000Y-353000000D03*
X69650000Y-23599998D03*
X100472500Y-347365000D03*
X100472500Y-348635000D03*
X72050000Y-23599998D03*
X94125000Y-337460000D03*
G04 #@! TO.N,BTN_F4*
X226500000Y-246000000D03*
G04 #@! TO.N,BTN_RESET*
X306250000Y-246000000D03*
G04 #@! TO.N,BTN_UP*
X42250000Y-246000000D03*
G04 #@! TO.N,EFUSE_EN*
X79850000Y-26800000D03*
X65599999Y-26000000D03*
X81650000Y-26800000D03*
G04 #@! TO.N,EFUSE_OVLO*
X76150000Y-28099998D03*
X64724999Y-27137498D03*
G04 #@! TO.N,GND*
X221650000Y-262399998D03*
X262350000Y-20000000D03*
X222350000Y-300000000D03*
X154650000Y-163000000D03*
X102350000Y-100000000D03*
X102350000Y-140000000D03*
X141650000Y-142400000D03*
X21650000Y-22400000D03*
X110400000Y-129850000D03*
X234650000Y-3000000D03*
X154650000Y-83000000D03*
X181650000Y-62400000D03*
X190400000Y-289850000D03*
X150400000Y-289850000D03*
X74650000Y-243000000D03*
X310400000Y-49849999D03*
X141650000Y-302400000D03*
X230400000Y-49849999D03*
X62349999Y-60000000D03*
X101650000Y-302400000D03*
X151350000Y-131000000D03*
X311350000Y-131000000D03*
X230400000Y-129850000D03*
X182350000Y-260000000D03*
X71350000Y-211000000D03*
X302350000Y-60000000D03*
X190400000Y-209850000D03*
X114650000Y-3000000D03*
X262350000Y-100000000D03*
X181650000Y-262399998D03*
X81850000Y-111700000D03*
X222350000Y-220000000D03*
X191350000Y-291000000D03*
X102350000Y-300000000D03*
X71350000Y-276095000D03*
X271350000Y-291000000D03*
X195600000Y-4150000D03*
X61650000Y-22400000D03*
X155600000Y-164150000D03*
X142350000Y-260000000D03*
X70400000Y-209850000D03*
X74650000Y-163000000D03*
X274650000Y-3000000D03*
X241850000Y-271700000D03*
X142350000Y-140000000D03*
X101650000Y-62400000D03*
X315600000Y-244150000D03*
X141650000Y-182400000D03*
X310400000Y-209850000D03*
X73450000Y-25099998D03*
X61650000Y-182400000D03*
X221650000Y-302400000D03*
X110400000Y-49849999D03*
X232350000Y-274825000D03*
X81850000Y-191700000D03*
X221650000Y-142400000D03*
X111950000Y-339000000D03*
X301650000Y-22400000D03*
X194650000Y-163000000D03*
X221650000Y-182400000D03*
X194650000Y-243000000D03*
X31349999Y-211000000D03*
X310400000Y-289850000D03*
X231350000Y-211000000D03*
X49539999Y-23399999D03*
X261649999Y-182400000D03*
X194650000Y-83000000D03*
X141650000Y-222400000D03*
X115600000Y-84150000D03*
X222350000Y-20000000D03*
X101650000Y-182400000D03*
X49539999Y-25799999D03*
X275600000Y-164150000D03*
X270400000Y-49849999D03*
X75600000Y-84150000D03*
X141650000Y-62400000D03*
X49539999Y-24599998D03*
X154650000Y-243000000D03*
X232350000Y-114825000D03*
X70400000Y-289850000D03*
X21650000Y-182400000D03*
X195600000Y-244150000D03*
X231350000Y-51000000D03*
X142350000Y-220000000D03*
X62349999Y-260000000D03*
X62349999Y-300000000D03*
X71350000Y-291000000D03*
X235600000Y-164150000D03*
X142350000Y-100000000D03*
X110400000Y-209850000D03*
X61650000Y-62400000D03*
X71350000Y-51000000D03*
X30400001Y-129850000D03*
X261649999Y-22400000D03*
X262350000Y-60000000D03*
X234650000Y-163000000D03*
X301650000Y-62400000D03*
X142350000Y-300000000D03*
X21650000Y-302400000D03*
X234650000Y-243000000D03*
X302350000Y-180000000D03*
X262350000Y-300000000D03*
X261649999Y-102400000D03*
X34650000Y-3000000D03*
X70400000Y-129850000D03*
X262350000Y-260000000D03*
X73700000Y-282445000D03*
X102350000Y-220000000D03*
X302350000Y-100000000D03*
X182350000Y-100000000D03*
X45950000Y-320437500D03*
X78950000Y-24199998D03*
X181650000Y-22400000D03*
X235600000Y-4150000D03*
X122375000Y-325000000D03*
X241850000Y-191700000D03*
X222350000Y-100000000D03*
X21650000Y-102400000D03*
X34650000Y-243000000D03*
X22349999Y-20000000D03*
X110400000Y-289850000D03*
X22349999Y-220000000D03*
X74450000Y-342500000D03*
X301650000Y-182400000D03*
X81850000Y-271700000D03*
X302350000Y-300000000D03*
X314650000Y-243000000D03*
X151350000Y-211000000D03*
X95150000Y-334200000D03*
X62349999Y-100000000D03*
X142350000Y-180000000D03*
X35599999Y-84150000D03*
X261649999Y-142400000D03*
X314650000Y-163000000D03*
X22349999Y-180000000D03*
X73350000Y-273555000D03*
X102350000Y-180000000D03*
X22349999Y-300000000D03*
X111350000Y-291000000D03*
X241850000Y-111700000D03*
X302350000Y-20000000D03*
X302350000Y-260000000D03*
X35599999Y-244150000D03*
X73700000Y-202445000D03*
X73350000Y-113555000D03*
X34650000Y-163000000D03*
X274650000Y-83000000D03*
X231350000Y-291000000D03*
X62349999Y-140000000D03*
X270400000Y-289850000D03*
X222350000Y-180000000D03*
X221650000Y-22400000D03*
X222350000Y-140000000D03*
X72350000Y-274825000D03*
X142350000Y-60000000D03*
X190400000Y-49849999D03*
X73350000Y-193555000D03*
X61650000Y-102400000D03*
X111350000Y-211000000D03*
X115600000Y-164150000D03*
X182350000Y-60000000D03*
X191350000Y-211000000D03*
X182350000Y-300000000D03*
X222350000Y-260000000D03*
X62349999Y-220000000D03*
X315600000Y-164150000D03*
X72500000Y-29699998D03*
X181650000Y-102400000D03*
X114650000Y-163000000D03*
X182350000Y-140000000D03*
X150400000Y-209850000D03*
X315600000Y-4150000D03*
X261649999Y-222400000D03*
X141650000Y-22400000D03*
X301650000Y-102400000D03*
X230400000Y-209850000D03*
X181650000Y-182400000D03*
X74650000Y-3000000D03*
X151350000Y-291000000D03*
X30400001Y-289850000D03*
X21650000Y-262399998D03*
X61650000Y-262399998D03*
X73700000Y-42444998D03*
X195600000Y-84150000D03*
X262350000Y-140000000D03*
X35599999Y-164150000D03*
X71350000Y-196095000D03*
X311350000Y-291000000D03*
X142350000Y-20000000D03*
X275600000Y-4150000D03*
X301650000Y-222400000D03*
X194650000Y-3000000D03*
X234650000Y-83000000D03*
X114650000Y-83000000D03*
X31349999Y-51000000D03*
X73700000Y-122445000D03*
X94125000Y-342539998D03*
X21650000Y-142400000D03*
X30400001Y-209850000D03*
X101650000Y-22400000D03*
X101650000Y-142400000D03*
X102350000Y-260000000D03*
X48500000Y-315137500D03*
X231350000Y-276095000D03*
X271350000Y-211000000D03*
X101650000Y-262399998D03*
X274650000Y-163000000D03*
X81850000Y-31699998D03*
X181650000Y-302400000D03*
X72350000Y-114825000D03*
X61650000Y-302400000D03*
X231350000Y-196095000D03*
X221650000Y-102400000D03*
X181650000Y-222400000D03*
X150400000Y-129850000D03*
X94125000Y-338730000D03*
X93700000Y-350000000D03*
X78950000Y-29400000D03*
X190400000Y-129850000D03*
X34650000Y-83000000D03*
X301650000Y-142400000D03*
X233700000Y-42444998D03*
X31349999Y-291000000D03*
X233700000Y-202445000D03*
X275600000Y-84150000D03*
X311350000Y-211000000D03*
X314650000Y-3000000D03*
X151350000Y-51000000D03*
X71350000Y-131000000D03*
X231350000Y-131000000D03*
X101650000Y-102400000D03*
X61650000Y-222400000D03*
X195600000Y-164150000D03*
X230400000Y-289850000D03*
X101650000Y-222400000D03*
X262350000Y-180000000D03*
X73350000Y-33555000D03*
X22349999Y-100000000D03*
X233700000Y-282445000D03*
X86450000Y-26800000D03*
X302350000Y-140000000D03*
X274650000Y-243000000D03*
X302350000Y-220000000D03*
X21650000Y-62400000D03*
X261649999Y-62400000D03*
X61650000Y-142400000D03*
X261649999Y-302400000D03*
X102350000Y-60000000D03*
X22349999Y-260000000D03*
X270400000Y-209850000D03*
X221650000Y-62400000D03*
X111350000Y-51000000D03*
X85875000Y-343810000D03*
X55700000Y-320437500D03*
X314650000Y-83000000D03*
X75600000Y-164150000D03*
X155600000Y-244150000D03*
X141650000Y-262399998D03*
X115600000Y-244150000D03*
X221650000Y-222400000D03*
X275600000Y-244150000D03*
X262350000Y-220000000D03*
X115600000Y-4150000D03*
X31349999Y-131000000D03*
X35599999Y-4150000D03*
X22349999Y-140000000D03*
X74650000Y-83000000D03*
X150400000Y-49849999D03*
X301650000Y-302400000D03*
X182350000Y-20000000D03*
X310400000Y-129850000D03*
X91650000Y-353000000D03*
X270400000Y-129850000D03*
X191350000Y-51000000D03*
X114650000Y-243000000D03*
X102350000Y-20000000D03*
X105950000Y-341600000D03*
X22349999Y-60000000D03*
X75600000Y-4150000D03*
X70400000Y-49849999D03*
X182350000Y-220000000D03*
X315600000Y-84150000D03*
X21650000Y-222400000D03*
X182350000Y-180000000D03*
X62349999Y-180000000D03*
X111350000Y-131000000D03*
X78950000Y-345500000D03*
X30400001Y-49849999D03*
X181650000Y-142400000D03*
X74350000Y-21000000D03*
X155600000Y-84150000D03*
X241850000Y-31699998D03*
X235600000Y-244150000D03*
X233700000Y-122445000D03*
X65599999Y-21424999D03*
X222350000Y-60000000D03*
X261649999Y-262399998D03*
X154650000Y-3000000D03*
X62349999Y-20000000D03*
X75600000Y-244150000D03*
X311350000Y-51000000D03*
X155600000Y-4150000D03*
X191350000Y-131000000D03*
X141650000Y-102400000D03*
X271350000Y-51000000D03*
X301650000Y-262399998D03*
X271350000Y-131000000D03*
X235600000Y-84150000D03*
G04 #@! TO.N,I2C_SCL*
X258750000Y-256000000D03*
X247650000Y-196095000D03*
X247650000Y-36095000D03*
X87650000Y-116095000D03*
X247650000Y-116095000D03*
X87650000Y-276095000D03*
X50500000Y-314562500D03*
X265750000Y-256000000D03*
X81250000Y-322750000D03*
X150375000Y-325000000D03*
X84750000Y-322750000D03*
X250000000Y-256500000D03*
X247650000Y-276095000D03*
X87650000Y-196095000D03*
X263250000Y-256000000D03*
X87650000Y-36095000D03*
G04 #@! TO.N,I2C_SDA*
X248650000Y-114825000D03*
X263250000Y-257500000D03*
X51500000Y-313062500D03*
X265750000Y-257500000D03*
X115500000Y-336500000D03*
X88650000Y-194825000D03*
X88650000Y-34824998D03*
X115375000Y-356000000D03*
X287000000Y-257500000D03*
X88000000Y-313000000D03*
X88650000Y-114825000D03*
X248650000Y-34824998D03*
X99250000Y-304750000D03*
X91500000Y-313000000D03*
X88650000Y-274825000D03*
X248650000Y-274825000D03*
X248650000Y-194825000D03*
X260000000Y-257500000D03*
G04 #@! TO.N,LED_5V*
X271350000Y-3000000D03*
X34650000Y-131000000D03*
X111350000Y-163000000D03*
X234650000Y-131000000D03*
X150400000Y-4150000D03*
X35599999Y-129850000D03*
X109527500Y-348635000D03*
X190400000Y-4150000D03*
X310400000Y-4150000D03*
X234650000Y-211000000D03*
X74650000Y-211000000D03*
X270400000Y-4150000D03*
X311350000Y-83000000D03*
X274650000Y-51000000D03*
X71350000Y-243000000D03*
X115600000Y-209850000D03*
X70400000Y-244150000D03*
X114650000Y-291000000D03*
X154650000Y-291000000D03*
X111350000Y-83000000D03*
X71350000Y-163000000D03*
X314650000Y-51000000D03*
X111350000Y-3000000D03*
X106650000Y-352800000D03*
X190400000Y-84150000D03*
X150400000Y-84150000D03*
X315600000Y-129850000D03*
X234650000Y-51000000D03*
X191350000Y-163000000D03*
X150400000Y-244150000D03*
X191350000Y-3000000D03*
X35599999Y-209850000D03*
X115600000Y-129850000D03*
X151350000Y-83000000D03*
X231350000Y-3000000D03*
X271350000Y-243000000D03*
X114650000Y-131000000D03*
X154650000Y-131000000D03*
X271350000Y-83000000D03*
X275600000Y-289850000D03*
X231350000Y-163000000D03*
X109527500Y-346095000D03*
X155600000Y-209850000D03*
X114650000Y-211000000D03*
X195600000Y-209850000D03*
X314650000Y-291000000D03*
X109527500Y-349905000D03*
X75600000Y-289850000D03*
X115600000Y-49849999D03*
X314650000Y-131000000D03*
X31349999Y-243000000D03*
X235600000Y-289850000D03*
X314650000Y-211000000D03*
X311350000Y-3000000D03*
X74650000Y-51000000D03*
X154650000Y-211000000D03*
X31349999Y-83000000D03*
X230400000Y-84150000D03*
X274650000Y-131000000D03*
X110400000Y-84150000D03*
X195600000Y-289850000D03*
X311350000Y-163000000D03*
X155600000Y-129850000D03*
X190400000Y-164150000D03*
X30400000Y-84150000D03*
X191350000Y-243000000D03*
X74650000Y-131000000D03*
X230400000Y-164150000D03*
X34650000Y-291000000D03*
X194650000Y-211000000D03*
X34650000Y-211000000D03*
X274650000Y-291000000D03*
X75600000Y-49849999D03*
X315600000Y-49849999D03*
X75600000Y-209850000D03*
X191350000Y-83000000D03*
X195600000Y-129850000D03*
X270400000Y-84150000D03*
X230400000Y-244150000D03*
X270400000Y-244150000D03*
X231350000Y-83000000D03*
X275600000Y-209850000D03*
X35599999Y-49849999D03*
X30400000Y-4150000D03*
X311350000Y-243000000D03*
X275600000Y-129850000D03*
X310400000Y-84150000D03*
X155600000Y-49849999D03*
X109527500Y-347365000D03*
X111350000Y-243000000D03*
X155600000Y-289850000D03*
X271350000Y-163000000D03*
X231350000Y-243000000D03*
X195600000Y-49849999D03*
X310400000Y-244150000D03*
X315600000Y-209850000D03*
X274650000Y-211000000D03*
X31349999Y-163000000D03*
X275600000Y-49849999D03*
X230400000Y-4150000D03*
X235600000Y-129850000D03*
X74650000Y-291000000D03*
X110400000Y-4150000D03*
X194650000Y-51000000D03*
X110400000Y-164150000D03*
X31349999Y-3000000D03*
X71350000Y-3000000D03*
X151350000Y-3000000D03*
X235600000Y-49849999D03*
X30400000Y-164150000D03*
X71350000Y-83000000D03*
X194650000Y-131000000D03*
X115600000Y-289850000D03*
X151350000Y-163000000D03*
X30400000Y-244150000D03*
X154650000Y-51000000D03*
X190400000Y-244150000D03*
X151350000Y-243000000D03*
X70400000Y-164150000D03*
X270400000Y-164150000D03*
X194650000Y-291000000D03*
X235600000Y-209850000D03*
X70400000Y-4150000D03*
X114650000Y-51000000D03*
X315600000Y-289850000D03*
X110400000Y-244150000D03*
X310400000Y-164150000D03*
X70400000Y-84150000D03*
X75600000Y-129850000D03*
X34650000Y-51000000D03*
X150400000Y-164150000D03*
X35599999Y-289850000D03*
X234650000Y-291000000D03*
G04 #@! TO.N,LED_DATA_5V*
X69650000Y-342500000D03*
X28400001Y-285400000D03*
G04 #@! TO.N,LED_DATA_A2_TO_A3*
X24400000Y-205400000D03*
X24400000Y-248600000D03*
G04 #@! TO.N,LED_DATA_A4_TO_A5*
X24400000Y-125400000D03*
X24400000Y-168600000D03*
G04 #@! TO.N,LED_DATA_A6_TO_A7*
X24400000Y-88600000D03*
X24400000Y-45400000D03*
G04 #@! TO.N,LED_EN*
X112850000Y-343000000D03*
G04 #@! TO.N,LED_OE_N*
X82300000Y-340000000D03*
X85300000Y-336190000D03*
X86700000Y-349050000D03*
G04 #@! TO.N,LED_SW_GATE*
X100472500Y-349905000D03*
X86700000Y-350950000D03*
G04 #@! TO.N,RUN*
X74150000Y-26800000D03*
X75250000Y-23250000D03*
X63250000Y-22750000D03*
G04 #@! TO.N,SPI_CLK_3V3*
X85300000Y-341270000D03*
G04 #@! TO.N,SPI_DATA_3V3*
X83750000Y-335250000D03*
G04 #@! TO.N,SQ_A1*
X70350000Y-277365000D03*
X15949998Y-300950000D03*
G04 #@! TO.N,SQ_A3*
X70350000Y-197365000D03*
X15949998Y-220950000D03*
G04 #@! TO.N,SQ_A5*
X70350000Y-117365000D03*
X15949998Y-140950000D03*
G04 #@! TO.N,SQ_A7*
X70350000Y-37365000D03*
X15949998Y-60949998D03*
G04 #@! TO.N,SQ_A8*
X15949998Y-20949998D03*
X72350000Y-39904999D03*
G04 #@! TO.N,SQ_B1*
X55950000Y-300950000D03*
X73350000Y-278634999D03*
G04 #@! TO.N,SQ_B2*
X55950000Y-260950000D03*
X71350000Y-281175000D03*
G04 #@! TO.N,SQ_B3*
X73350000Y-198634999D03*
X55950000Y-220950000D03*
G04 #@! TO.N,SQ_B4*
X55950000Y-180950000D03*
X71350000Y-201175000D03*
G04 #@! TO.N,SQ_B5*
X73350000Y-118634999D03*
X55950000Y-140950000D03*
G04 #@! TO.N,SQ_B6*
X71350000Y-121175000D03*
X55950000Y-100950000D03*
G04 #@! TO.N,SQ_B7*
X73350000Y-38634997D03*
X55950000Y-60949998D03*
G04 #@! TO.N,SQ_B8*
X55950000Y-20949998D03*
X71350000Y-41175000D03*
G04 #@! TO.N,SQ_C1*
X86650000Y-282445000D03*
X95950000Y-300950000D03*
G04 #@! TO.N,SQ_C3*
X86650000Y-202445000D03*
X95950000Y-220950000D03*
G04 #@! TO.N,SQ_C5*
X95950000Y-140950000D03*
X86650000Y-122445000D03*
G04 #@! TO.N,SQ_C7*
X95950000Y-60949998D03*
X86650000Y-42444998D03*
G04 #@! TO.N,SQ_D1*
X87650000Y-281175000D03*
X94750000Y-288000000D03*
G04 #@! TO.N,SQ_D2*
X89650000Y-278634999D03*
X135950000Y-260950000D03*
G04 #@! TO.N,SQ_D3*
X87650000Y-201175000D03*
X135950000Y-220950000D03*
G04 #@! TO.N,SQ_D4*
X135950000Y-180950000D03*
X89650000Y-198634999D03*
G04 #@! TO.N,SQ_D5*
X87650000Y-121175000D03*
X135950000Y-140950000D03*
G04 #@! TO.N,SQ_D6*
X89650000Y-118634999D03*
X135950000Y-100950000D03*
G04 #@! TO.N,SQ_D7*
X135950000Y-60949998D03*
X87650000Y-41175000D03*
G04 #@! TO.N,SQ_D8*
X89650000Y-38634997D03*
X135950000Y-20949998D03*
G04 #@! TO.N,SQ_E1*
X175950000Y-300950000D03*
X225500000Y-282000000D03*
G04 #@! TO.N,SQ_E2*
X175950000Y-260950000D03*
X232350000Y-279904999D03*
G04 #@! TO.N,SQ_E3*
X230350000Y-197365000D03*
X175950000Y-220950000D03*
G04 #@! TO.N,SQ_E5*
X230350000Y-117365000D03*
X175950000Y-140950000D03*
G04 #@! TO.N,SQ_E7*
X175950000Y-60949998D03*
X230350000Y-37365000D03*
G04 #@! TO.N,SQ_F1*
X215950000Y-300950000D03*
X233350000Y-278634999D03*
X233500000Y-285250000D03*
G04 #@! TO.N,SQ_F2*
X215950000Y-260950000D03*
X231350000Y-281175000D03*
G04 #@! TO.N,SQ_F3*
X215950000Y-220950000D03*
X233350000Y-198634999D03*
G04 #@! TO.N,SQ_F4*
X231350000Y-201175000D03*
X215950000Y-180950000D03*
G04 #@! TO.N,SQ_F5*
X215950000Y-140950000D03*
X233350000Y-118634999D03*
G04 #@! TO.N,SQ_F6*
X215950000Y-100950000D03*
X231350000Y-121175000D03*
G04 #@! TO.N,SQ_F7*
X233350000Y-38634997D03*
X215950000Y-60949998D03*
G04 #@! TO.N,SQ_F8*
X215950000Y-20949998D03*
X231350000Y-41175000D03*
G04 #@! TO.N,SQ_G1*
X255950000Y-300950000D03*
X246650000Y-282445000D03*
G04 #@! TO.N,SQ_G3*
X255950000Y-220950000D03*
X246650000Y-202445000D03*
G04 #@! TO.N,SQ_G5*
X246650000Y-122445000D03*
X255950000Y-140950000D03*
G04 #@! TO.N,SQ_G7*
X246650000Y-42444998D03*
X255950000Y-60949998D03*
G04 #@! TO.N,SQ_H1*
X247650000Y-281175000D03*
X254750000Y-288000000D03*
G04 #@! TO.N,SQ_H2*
X249650000Y-278634999D03*
X253750000Y-278750000D03*
G04 #@! TO.N,SQ_H3*
X247650000Y-201175000D03*
X295950000Y-220950000D03*
G04 #@! TO.N,SQ_H4*
X249650000Y-198634999D03*
X295950000Y-180950000D03*
G04 #@! TO.N,SQ_H5*
X295950000Y-140950000D03*
X247650000Y-121175000D03*
G04 #@! TO.N,SQ_H6*
X295950000Y-100950000D03*
X249650000Y-118634999D03*
G04 #@! TO.N,SQ_H7*
X247650000Y-41175000D03*
X295950000Y-60949998D03*
G04 #@! TO.N,SQ_H8*
X249650000Y-38634997D03*
X295950000Y-20949998D03*
G04 #@! TD*
D19*
G04 #@! TO.N,BTN_DOWN*
X40750000Y-359750000D02*
X47250000Y-359750000D01*
G04 #@! TO.N,BTN_F2*
X258870000Y-236270000D02*
X258750000Y-236250000D01*
X258750000Y-236250000D02*
X251000000Y-236250000D01*
X251000000Y-236250000D02*
X251000000Y-280000000D01*
X250750000Y-280000000D02*
X250750000Y-335750000D01*
X251000000Y-280000000D02*
X250750000Y-280000000D01*
X250750000Y-335750000D02*
X257250000Y-335750000D01*
G04 #@! TO.N,BTN_F3*
X290750000Y-232750000D02*
X290750000Y-232500000D01*
X309000000Y-232000000D02*
X309000000Y-235500000D01*
X290500000Y-232750000D02*
X290750000Y-232750000D01*
X308750000Y-236500000D02*
X308500000Y-236500000D01*
X308000000Y-237500000D02*
X308000000Y-237750000D01*
X308750000Y-235500000D02*
X308750000Y-236500000D01*
X308000000Y-237750000D02*
X277000000Y-237750000D01*
X291250000Y-232250000D02*
X305250000Y-232250000D01*
X291250000Y-232500000D02*
X291250000Y-232250000D01*
X305250000Y-232000000D02*
X309000000Y-232000000D01*
X277000000Y-237750000D02*
X277000000Y-291250000D01*
X276750000Y-335750000D02*
X283250000Y-335750000D01*
X289250000Y-233750000D02*
X290500000Y-233750000D01*
X308250000Y-237250000D02*
X308250000Y-237500000D01*
X309000000Y-235500000D02*
X308750000Y-235500000D01*
X308250000Y-237500000D02*
X308000000Y-237500000D01*
X290750000Y-232500000D02*
X291250000Y-232500000D01*
X289349999Y-233730000D02*
X289250000Y-233750000D01*
X308500000Y-236500000D02*
X308500000Y-237250000D01*
X290500000Y-233750000D02*
X290500000Y-232750000D01*
X305250000Y-232250000D02*
X305250000Y-232000000D01*
X308500000Y-237250000D02*
X308250000Y-237250000D01*
X277000000Y-291250000D02*
X276750000Y-291250000D01*
X276750000Y-291250000D02*
X276750000Y-335750000D01*
G04 #@! TO.N,BTN_F4*
X226500000Y-246000000D02*
X226500000Y-337500000D01*
X225750000Y-341250000D02*
X225750000Y-341500000D01*
X226500000Y-337500000D02*
X226250000Y-337500000D01*
X225500000Y-341500000D02*
X225500000Y-341750000D01*
X225750000Y-341500000D02*
X225500000Y-341500000D01*
X226000000Y-341000000D02*
X226000000Y-341250000D01*
X226250000Y-337500000D02*
X226250000Y-341000000D01*
X226000000Y-341250000D02*
X225750000Y-341250000D01*
X225500000Y-341750000D02*
X224750000Y-341750000D01*
X226250000Y-341000000D02*
X226000000Y-341000000D01*
X224750000Y-341750000D02*
X224750000Y-359750000D01*
G04 #@! TO.N,BTN_F5*
X250750000Y-359750000D02*
X257250000Y-359750000D01*
G04 #@! TO.N,BTN_PASS*
X276750000Y-359750000D02*
X283250000Y-359750000D01*
G04 #@! TO.N,BTN_RESET*
X305000000Y-352000000D02*
X305000000Y-352250000D01*
X304750000Y-352250000D02*
X304750000Y-361750000D01*
X306250000Y-246000000D02*
X306250000Y-351000000D01*
X306000000Y-351000000D02*
X306000000Y-351500000D01*
X305750000Y-351750000D02*
X305500000Y-351750000D01*
X306000000Y-351500000D02*
X305750000Y-351500000D01*
X305750000Y-351500000D02*
X305750000Y-351750000D01*
X306250000Y-351000000D02*
X306000000Y-351000000D01*
X305500000Y-352000000D02*
X305000000Y-352000000D01*
X305500000Y-351750000D02*
X305500000Y-352000000D01*
X305000000Y-352250000D02*
X304750000Y-352250000D01*
G04 #@! TO.N,BTN_RIGHT*
X54750000Y-347750000D02*
X61250000Y-347750000D01*
G04 #@! TO.N,BTN_UP*
X41750000Y-281500000D02*
X41750000Y-281750000D01*
X41750000Y-281750000D02*
X41500000Y-281750000D01*
X42000000Y-281000000D02*
X42000000Y-281500000D01*
X42000000Y-281500000D02*
X41750000Y-281500000D01*
X42250000Y-246000000D02*
X42250000Y-281000000D01*
X41000000Y-282000000D02*
X41000000Y-282250000D01*
X42250000Y-281000000D02*
X42000000Y-281000000D01*
X41000000Y-282250000D02*
X40750000Y-282250000D01*
X40750000Y-282250000D02*
X40750000Y-335750000D01*
X41500000Y-281750000D02*
X41500000Y-282000000D01*
X41500000Y-282000000D02*
X41000000Y-282000000D01*
G04 #@! TO.N,EFUSE_EN*
X65500000Y-26000000D02*
X65599999Y-26000000D01*
X65500000Y-25750000D02*
X65500000Y-26000000D01*
X73750000Y-29500000D02*
X73750000Y-28500000D01*
X66000000Y-25750000D02*
X65500000Y-25750000D01*
X79850000Y-26800000D02*
X79750000Y-26750000D01*
X77500000Y-26750000D02*
X77500000Y-29500000D01*
X66000000Y-28500000D02*
X66000000Y-25750000D01*
X73750000Y-28500000D02*
X66000000Y-28500000D01*
X79850000Y-26800000D02*
X79750000Y-26750000D01*
X77500000Y-29500000D02*
X73750000Y-29500000D01*
X81750000Y-26750000D02*
X81650000Y-26800000D01*
X79750000Y-26750000D02*
X77500000Y-26750000D01*
X79750000Y-26750000D02*
X81750000Y-26750000D01*
G04 #@! TO.N,EFUSE_OVLO*
X68250000Y-22250000D02*
X76250000Y-22250000D01*
X64750000Y-27250000D02*
X64250000Y-27250000D01*
X76250000Y-22250000D02*
X76250000Y-28000000D01*
X68250000Y-24750000D02*
X68250000Y-22250000D01*
X64724999Y-27137498D02*
X64750000Y-27250000D01*
X64250000Y-24750000D02*
X68250000Y-24750000D01*
X76250000Y-28000000D02*
X76150000Y-28099998D01*
X64250000Y-27250000D02*
X64250000Y-24750000D01*
G04 #@! TO.N,LED_DATA_5V*
X29750000Y-285750000D02*
X28500000Y-285750000D01*
X28500000Y-285500000D02*
X28400001Y-285400000D01*
X69750000Y-342500000D02*
X32750000Y-342500000D01*
X31750000Y-289750000D02*
X31750000Y-288500000D01*
X32750000Y-289750000D02*
X31750000Y-289750000D01*
X31750000Y-288500000D02*
X29750000Y-288500000D01*
X28500000Y-285750000D02*
X28500000Y-285500000D01*
X32750000Y-342500000D02*
X32750000Y-289750000D01*
X29750000Y-288500000D02*
X29750000Y-285750000D01*
X69650000Y-342500000D02*
X69750000Y-342500000D01*
G04 #@! TO.N,LED_EN*
X113250000Y-340250000D02*
X112750000Y-340250000D01*
X261410000Y-233730000D02*
X261500000Y-233750000D01*
X260500000Y-233500000D02*
X260250000Y-233500000D01*
X259750000Y-232250000D02*
X113250000Y-232250000D01*
X259750000Y-232500000D02*
X259750000Y-232250000D01*
X261500000Y-233750000D02*
X260500000Y-233750000D01*
X113250000Y-232250000D02*
X113250000Y-340250000D01*
X112750000Y-340250000D02*
X112750000Y-343000000D01*
X260500000Y-233750000D02*
X260500000Y-233500000D01*
X260250000Y-232750000D02*
X260000000Y-232750000D01*
X260000000Y-232500000D02*
X259750000Y-232500000D01*
X260000000Y-232750000D02*
X260000000Y-232500000D01*
X260250000Y-233500000D02*
X260250000Y-232750000D01*
X112750000Y-343000000D02*
X112850000Y-343000000D01*
G04 #@! TO.N,LED_OE_N*
X85250000Y-336250000D02*
X82250000Y-336250000D01*
X84500000Y-345000000D02*
X86750000Y-345000000D01*
X85300000Y-336190000D02*
X85250000Y-336250000D01*
X83000000Y-343750000D02*
X84500000Y-343750000D01*
X86750000Y-345000000D02*
X86750000Y-349000000D01*
X82250000Y-336250000D02*
X82250000Y-340000000D01*
X82250000Y-340000000D02*
X83000000Y-340000000D01*
X82250000Y-340000000D02*
X82300000Y-340000000D01*
X84500000Y-343750000D02*
X84500000Y-345000000D01*
X83000000Y-340000000D02*
X83000000Y-343750000D01*
X82300000Y-340000000D02*
X82250000Y-340000000D01*
X86750000Y-349000000D02*
X86700000Y-349050000D01*
G04 #@! TO.N,LED_SW_GATE*
X95000000Y-348750000D02*
X93750000Y-348750000D01*
X86750000Y-351250000D02*
X86750000Y-351000000D01*
X88750000Y-347750000D02*
X88750000Y-351250000D01*
X100472500Y-349905000D02*
X100500000Y-350000000D01*
X86750000Y-351000000D02*
X86700000Y-350950000D01*
X88750000Y-351250000D02*
X86750000Y-351250000D01*
X100500000Y-350000000D02*
X95000000Y-350000000D01*
X93750000Y-347750000D02*
X88750000Y-347750000D01*
X93750000Y-348750000D02*
X93750000Y-347750000D01*
X95000000Y-350000000D02*
X95000000Y-348750000D01*
G04 #@! TO.N,RUN*
X74250000Y-26750000D02*
X75250000Y-26750000D01*
X61000000Y-32000000D02*
X60939999Y-32000000D01*
X74150000Y-26800000D02*
X74250000Y-26750000D01*
X61000000Y-23750000D02*
X61000000Y-32000000D01*
X63000000Y-22750000D02*
X63000000Y-23750000D01*
X63000000Y-23750000D02*
X61000000Y-23750000D01*
X63250000Y-22750000D02*
X63000000Y-22750000D01*
X75250000Y-26750000D02*
X75250000Y-23250000D01*
G04 #@! TO.N,SPI_CLK_3V3*
X260750000Y-232000000D02*
X260500000Y-232000000D01*
X278250000Y-233250000D02*
X278000000Y-233250000D01*
X260500000Y-232000000D02*
X260500000Y-231750000D01*
X85500000Y-338750000D02*
X85250000Y-338750000D01*
X277500000Y-232500000D02*
X277500000Y-232250000D01*
X260250000Y-231500000D02*
X91000000Y-231500000D01*
X88000000Y-282500000D02*
X88000000Y-283750000D01*
X91000000Y-280000000D02*
X90000000Y-280000000D01*
X277750000Y-232750000D02*
X277750000Y-232500000D01*
X86500000Y-337500000D02*
X85500000Y-337500000D01*
X85250000Y-341250000D02*
X85300000Y-341270000D01*
X86500000Y-283750000D02*
X86500000Y-337500000D01*
X89000000Y-282500000D02*
X88000000Y-282500000D01*
X89000000Y-281250000D02*
X89000000Y-282500000D01*
X260500000Y-231750000D02*
X260250000Y-231750000D01*
X279250000Y-233750000D02*
X278250000Y-233750000D01*
X85500000Y-337500000D02*
X85500000Y-338750000D01*
X85250000Y-338750000D02*
X85250000Y-341250000D01*
X277500000Y-232250000D02*
X260750000Y-232250000D01*
X278250000Y-233750000D02*
X278250000Y-233250000D01*
X260750000Y-232250000D02*
X260750000Y-232000000D01*
X279190000Y-233730000D02*
X279250000Y-233750000D01*
X260250000Y-231750000D02*
X260250000Y-231500000D01*
X278000000Y-233250000D02*
X278000000Y-232750000D01*
X88000000Y-283750000D02*
X86500000Y-283750000D01*
X90000000Y-281250000D02*
X89000000Y-281250000D01*
X277750000Y-232500000D02*
X277500000Y-232500000D01*
X90000000Y-280000000D02*
X90000000Y-281250000D01*
X278000000Y-232750000D02*
X277750000Y-232750000D01*
X91000000Y-231500000D02*
X91000000Y-280000000D01*
G04 #@! TO.N,SPI_DATA_3V3*
X278500000Y-232250000D02*
X278500000Y-232000000D01*
X284269999Y-233730000D02*
X284250000Y-233750000D01*
X83750000Y-270500000D02*
X83750000Y-335250000D01*
X278500000Y-232000000D02*
X278250000Y-232000000D01*
X283000000Y-232750000D02*
X282750000Y-232750000D01*
X260750000Y-230750000D02*
X84250000Y-230750000D01*
X283000000Y-233000000D02*
X283000000Y-232750000D01*
X282500000Y-232500000D02*
X282500000Y-232250000D01*
X261250000Y-231250000D02*
X261000000Y-231250000D01*
X282750000Y-232500000D02*
X282500000Y-232500000D01*
X260750000Y-231000000D02*
X260750000Y-230750000D01*
X282750000Y-232750000D02*
X282750000Y-232500000D01*
X261250000Y-231500000D02*
X261250000Y-231250000D01*
X283250000Y-233000000D02*
X283000000Y-233000000D01*
X283250000Y-233750000D02*
X283250000Y-233000000D01*
X284250000Y-233750000D02*
X283250000Y-233750000D01*
X278250000Y-232000000D02*
X278250000Y-231750000D01*
X278250000Y-231750000D02*
X278000000Y-231750000D01*
X84250000Y-230750000D02*
X84250000Y-270500000D01*
X84250000Y-270500000D02*
X83750000Y-270500000D01*
X261000000Y-231000000D02*
X260750000Y-231000000D01*
X261000000Y-231250000D02*
X261000000Y-231000000D01*
X278000000Y-231750000D02*
X278000000Y-231500000D01*
X278000000Y-231500000D02*
X261250000Y-231500000D01*
X282500000Y-232250000D02*
X278500000Y-232250000D01*
G04 #@! TO.N,SQ_A3*
X21000000Y-218750000D02*
X48750000Y-218750000D01*
X16000000Y-221000000D02*
X18750000Y-221000000D01*
X15949998Y-220950000D02*
X16000000Y-221000000D01*
X70250000Y-197250000D02*
X70350000Y-197365000D01*
X48750000Y-218750000D02*
X70250000Y-197250000D01*
X18750000Y-221000000D02*
X21000000Y-218750000D01*
G04 #@! TO.N,SQ_A5*
X48750000Y-138750000D02*
X70250000Y-117250000D01*
X18750000Y-141000000D02*
X21000000Y-138750000D01*
X21000000Y-138750000D02*
X48750000Y-138750000D01*
X16000000Y-141000000D02*
X18750000Y-141000000D01*
X15949998Y-140950000D02*
X16000000Y-141000000D01*
X70250000Y-117250000D02*
X70350000Y-117365000D01*
G04 #@! TO.N,SQ_A7*
X18750000Y-61000000D02*
X21000000Y-58750000D01*
X70250000Y-37250000D02*
X70350000Y-37365000D01*
X21000000Y-58750000D02*
X48750000Y-58750000D01*
X48750000Y-58750000D02*
X70250000Y-37250000D01*
X15949998Y-60949998D02*
X16000000Y-61000000D01*
X16000000Y-61000000D02*
X18750000Y-61000000D01*
G04 #@! TO.N,SQ_B1*
X56000000Y-301000000D02*
X58250000Y-301000000D01*
X73250000Y-278750000D02*
X73350000Y-278634999D01*
X75000000Y-283750000D02*
X75000000Y-279750000D01*
X70250000Y-288500000D02*
X75000000Y-283750000D01*
X75000000Y-279750000D02*
X73750000Y-278500000D01*
X73250000Y-278500000D02*
X73250000Y-278750000D01*
X73750000Y-278500000D02*
X73250000Y-278500000D01*
X58250000Y-301000000D02*
X59000000Y-300250000D01*
X59000000Y-298500000D02*
X69000000Y-288500000D01*
X69000000Y-288500000D02*
X70250000Y-288500000D01*
X55950000Y-300950000D02*
X56000000Y-301000000D01*
X59000000Y-300250000D02*
X59000000Y-298500000D01*
G04 #@! TO.N,SQ_B2*
X56000000Y-261000000D02*
X56000000Y-266250000D01*
X71250000Y-281250000D02*
X71350000Y-281175000D01*
X56000000Y-266250000D02*
X71000000Y-281250000D01*
X55950000Y-260950000D02*
X56000000Y-261000000D01*
X71000000Y-281250000D02*
X71250000Y-281250000D01*
G04 #@! TO.N,SQ_B3*
X55950000Y-220950000D02*
X56000000Y-221000000D01*
X56000000Y-221000000D02*
X58250000Y-221000000D01*
X59000000Y-220250000D02*
X59000000Y-218500000D01*
X69000000Y-208500000D02*
X70250000Y-208500000D01*
X70250000Y-208500000D02*
X75000000Y-203750000D01*
X58250000Y-221000000D02*
X59000000Y-220250000D01*
X59000000Y-218500000D02*
X69000000Y-208500000D01*
X75000000Y-203750000D02*
X75000000Y-199750000D01*
X73250000Y-198500000D02*
X73250000Y-198750000D01*
X73750000Y-198500000D02*
X73250000Y-198500000D01*
X75000000Y-199750000D02*
X73750000Y-198500000D01*
X73250000Y-198750000D02*
X73350000Y-198634999D01*
G04 #@! TO.N,SQ_B5*
X73250000Y-118500000D02*
X73250000Y-118750000D01*
X69000000Y-128500000D02*
X70250000Y-128500000D01*
X59000000Y-138500000D02*
X69000000Y-128500000D01*
X73750000Y-118500000D02*
X73250000Y-118500000D01*
X70250000Y-128500000D02*
X75000000Y-123750000D01*
X59000000Y-140250000D02*
X59000000Y-138500000D01*
X56000000Y-141000000D02*
X58250000Y-141000000D01*
X75000000Y-123750000D02*
X75000000Y-119750000D01*
X73250000Y-118750000D02*
X73350000Y-118634999D01*
X58250000Y-141000000D02*
X59000000Y-140250000D01*
X75000000Y-119750000D02*
X73750000Y-118500000D01*
X55950000Y-140950000D02*
X56000000Y-141000000D01*
G04 #@! TO.N,SQ_B7*
X69000000Y-48500000D02*
X70250000Y-48500000D01*
X70250000Y-48500000D02*
X75000000Y-43750000D01*
X56000000Y-61000000D02*
X58250000Y-61000000D01*
X75000000Y-39750000D02*
X73750000Y-38500000D01*
X73750000Y-38500000D02*
X73250000Y-38500000D01*
X73250000Y-38750000D02*
X73350000Y-38634997D01*
X58250000Y-61000000D02*
X59000000Y-60250000D01*
X73250000Y-38500000D02*
X73250000Y-38750000D01*
X55950000Y-60949998D02*
X56000000Y-61000000D01*
X75000000Y-43750000D02*
X75000000Y-39750000D01*
X59000000Y-58500000D02*
X69000000Y-48500000D01*
X59000000Y-60250000D02*
X59000000Y-58500000D01*
G04 #@! TO.N,SQ_C3*
X95950000Y-220950000D02*
X96000000Y-221000000D01*
X96000000Y-221000000D02*
X96000000Y-211750000D01*
X96000000Y-211750000D02*
X86750000Y-202500000D01*
X86750000Y-202500000D02*
X86650000Y-202445000D01*
G04 #@! TO.N,SQ_C5*
X96000000Y-141000000D02*
X96000000Y-131750000D01*
X96000000Y-131750000D02*
X86750000Y-122500000D01*
X86750000Y-122500000D02*
X86650000Y-122445000D01*
X95950000Y-140950000D02*
X96000000Y-141000000D01*
G04 #@! TO.N,SQ_C7*
X96000000Y-61000000D02*
X96000000Y-51750000D01*
X86750000Y-42500000D02*
X86650000Y-42444998D01*
X96000000Y-51750000D02*
X86750000Y-42500000D01*
X95950000Y-60949998D02*
X96000000Y-61000000D01*
G04 #@! TO.N,SQ_D3*
X87750000Y-201250000D02*
X87650000Y-201175000D01*
X88000000Y-201250000D02*
X87750000Y-201250000D01*
X107750000Y-221000000D02*
X88000000Y-201250000D01*
X135950000Y-220950000D02*
X136000000Y-221000000D01*
X136000000Y-221000000D02*
X107750000Y-221000000D01*
G04 #@! TO.N,SQ_D4*
X89750000Y-198750000D02*
X89650000Y-198634999D01*
X107500000Y-181000000D02*
X89750000Y-198750000D01*
X136000000Y-181000000D02*
X107500000Y-181000000D01*
X135950000Y-180950000D02*
X136000000Y-181000000D01*
G04 #@! TO.N,SQ_D5*
X136000000Y-141000000D02*
X107750000Y-141000000D01*
X88000000Y-121250000D02*
X87750000Y-121250000D01*
X107750000Y-141000000D02*
X88000000Y-121250000D01*
X135950000Y-140950000D02*
X136000000Y-141000000D01*
X87750000Y-121250000D02*
X87650000Y-121175000D01*
G04 #@! TO.N,SQ_D6*
X89750000Y-118750000D02*
X89650000Y-118634999D01*
X136000000Y-101000000D02*
X107500000Y-101000000D01*
X135950000Y-100950000D02*
X136000000Y-101000000D01*
X107500000Y-101000000D02*
X89750000Y-118750000D01*
G04 #@! TO.N,SQ_D7*
X88000000Y-41250000D02*
X87750000Y-41250000D01*
X107750000Y-61000000D02*
X88000000Y-41250000D01*
X135950000Y-60949998D02*
X136000000Y-61000000D01*
X87750000Y-41250000D02*
X87650000Y-41175000D01*
X136000000Y-61000000D02*
X107750000Y-61000000D01*
G04 #@! TO.N,SQ_D8*
X135950000Y-20949998D02*
X136000000Y-21000000D01*
X89750000Y-38750000D02*
X89650000Y-38634997D01*
X98750000Y-29750000D02*
X89750000Y-38750000D01*
X107500000Y-29750000D02*
X98750000Y-29750000D01*
X136000000Y-21000000D02*
X116250000Y-21000000D01*
X116250000Y-21000000D02*
X107500000Y-29750000D01*
G04 #@! TO.N,SQ_E1*
X208750000Y-298750000D02*
X225500000Y-282000000D01*
X178750000Y-301000000D02*
X181000000Y-298750000D01*
X176000000Y-301000000D02*
X178750000Y-301000000D01*
X175950000Y-300950000D02*
X176000000Y-301000000D01*
X181000000Y-298750000D02*
X208750000Y-298750000D01*
G04 #@! TO.N,SQ_E3*
X230250000Y-197250000D02*
X230350000Y-197365000D01*
X181000000Y-218750000D02*
X208750000Y-218750000D01*
X208750000Y-218750000D02*
X230250000Y-197250000D01*
X176000000Y-221000000D02*
X178750000Y-221000000D01*
X175950000Y-220950000D02*
X176000000Y-221000000D01*
X178750000Y-221000000D02*
X181000000Y-218750000D01*
G04 #@! TO.N,SQ_E5*
X176000000Y-141000000D02*
X178750000Y-141000000D01*
X181000000Y-138750000D02*
X208750000Y-138750000D01*
X208750000Y-138750000D02*
X230250000Y-117250000D01*
X175950000Y-140950000D02*
X176000000Y-141000000D01*
X178750000Y-141000000D02*
X181000000Y-138750000D01*
X230250000Y-117250000D02*
X230350000Y-117365000D01*
G04 #@! TO.N,SQ_E7*
X230250000Y-37250000D02*
X230350000Y-37365000D01*
X181000000Y-58750000D02*
X208750000Y-58750000D01*
X176000000Y-61000000D02*
X178750000Y-61000000D01*
X178750000Y-61000000D02*
X181000000Y-58750000D01*
X175950000Y-60949998D02*
X176000000Y-61000000D01*
X208750000Y-58750000D02*
X230250000Y-37250000D01*
G04 #@! TO.N,SQ_F1*
X235000000Y-279750000D02*
X233750000Y-278500000D01*
X233250000Y-278750000D02*
X233350000Y-278634999D01*
X233500000Y-285250000D02*
X235000000Y-283750000D01*
X233250000Y-278500000D02*
X233250000Y-278750000D01*
X233750000Y-278500000D02*
X233250000Y-278500000D01*
X235000000Y-283750000D02*
X235000000Y-279750000D01*
G04 #@! TO.N,SQ_F3*
X218250000Y-221000000D02*
X219000000Y-220250000D01*
X219000000Y-218500000D02*
X229000000Y-208500000D01*
X230250000Y-208500000D02*
X235000000Y-203750000D01*
X216000000Y-221000000D02*
X218250000Y-221000000D01*
X235000000Y-203750000D02*
X235000000Y-199750000D01*
X233250000Y-198750000D02*
X233350000Y-198634999D01*
X219000000Y-220250000D02*
X219000000Y-218500000D01*
X233750000Y-198500000D02*
X233250000Y-198500000D01*
X233250000Y-198500000D02*
X233250000Y-198750000D01*
X229000000Y-208500000D02*
X230250000Y-208500000D01*
X215950000Y-220950000D02*
X216000000Y-221000000D01*
X235000000Y-199750000D02*
X233750000Y-198500000D01*
G04 #@! TO.N,SQ_F5*
X230250000Y-128500000D02*
X235000000Y-123750000D01*
X233250000Y-118500000D02*
X233250000Y-118750000D01*
X215950000Y-140950000D02*
X216000000Y-141000000D01*
X218250000Y-141000000D02*
X219000000Y-140250000D01*
X219000000Y-140250000D02*
X219000000Y-138500000D01*
X216000000Y-141000000D02*
X218250000Y-141000000D01*
X233750000Y-118500000D02*
X233250000Y-118500000D01*
X235000000Y-119750000D02*
X233750000Y-118500000D01*
X219000000Y-138500000D02*
X229000000Y-128500000D01*
X233250000Y-118750000D02*
X233350000Y-118634999D01*
X229000000Y-128500000D02*
X230250000Y-128500000D01*
X235000000Y-123750000D02*
X235000000Y-119750000D01*
G04 #@! TO.N,SQ_F7*
X235000000Y-39750000D02*
X233750000Y-38500000D01*
X235000000Y-43750000D02*
X235000000Y-39750000D01*
X219000000Y-58500000D02*
X229000000Y-48500000D01*
X230250000Y-48500000D02*
X235000000Y-43750000D01*
X229000000Y-48500000D02*
X230250000Y-48500000D01*
X219000000Y-60250000D02*
X219000000Y-58500000D01*
X215950000Y-60949998D02*
X216000000Y-61000000D01*
X233250000Y-38750000D02*
X233350000Y-38634997D01*
X218250000Y-61000000D02*
X219000000Y-60250000D01*
X233250000Y-38500000D02*
X233250000Y-38750000D01*
X233750000Y-38500000D02*
X233250000Y-38500000D01*
X216000000Y-61000000D02*
X218250000Y-61000000D01*
G04 #@! TO.N,SQ_G3*
X256000000Y-221000000D02*
X256000000Y-211750000D01*
X246750000Y-202500000D02*
X246650000Y-202445000D01*
X256000000Y-211750000D02*
X246750000Y-202500000D01*
X255950000Y-220950000D02*
X256000000Y-221000000D01*
G04 #@! TO.N,SQ_G5*
X256000000Y-141000000D02*
X256000000Y-131750000D01*
X255950000Y-140950000D02*
X256000000Y-141000000D01*
X256000000Y-131750000D02*
X246750000Y-122500000D01*
X246750000Y-122500000D02*
X246650000Y-122445000D01*
G04 #@! TO.N,SQ_G7*
X256000000Y-61000000D02*
X256000000Y-51750000D01*
X256000000Y-51750000D02*
X246750000Y-42500000D01*
X255950000Y-60949998D02*
X256000000Y-61000000D01*
X246750000Y-42500000D02*
X246650000Y-42444998D01*
G04 #@! TO.N,SQ_H3*
X296000000Y-221000000D02*
X267750000Y-221000000D01*
X248000000Y-201250000D02*
X247750000Y-201250000D01*
X295950000Y-220950000D02*
X296000000Y-221000000D01*
X267750000Y-221000000D02*
X248000000Y-201250000D01*
X247750000Y-201250000D02*
X247650000Y-201175000D01*
G04 #@! TO.N,SQ_H4*
X267500000Y-181000000D02*
X249750000Y-198750000D01*
X295950000Y-180950000D02*
X296000000Y-181000000D01*
X249750000Y-198750000D02*
X249650000Y-198634999D01*
X296000000Y-181000000D02*
X267500000Y-181000000D01*
G04 #@! TO.N,SQ_H5*
X247750000Y-121250000D02*
X247650000Y-121175000D01*
X295950000Y-140950000D02*
X296000000Y-141000000D01*
X296000000Y-141000000D02*
X267750000Y-141000000D01*
X267750000Y-141000000D02*
X248000000Y-121250000D01*
X248000000Y-121250000D02*
X247750000Y-121250000D01*
G04 #@! TO.N,SQ_H6*
X296000000Y-101000000D02*
X267500000Y-101000000D01*
X295950000Y-100950000D02*
X296000000Y-101000000D01*
X249750000Y-118750000D02*
X249650000Y-118634999D01*
X267500000Y-101000000D02*
X249750000Y-118750000D01*
G04 #@! TO.N,SQ_H7*
X267750000Y-61000000D02*
X248000000Y-41250000D01*
X295950000Y-60949998D02*
X296000000Y-61000000D01*
X248000000Y-41250000D02*
X247750000Y-41250000D01*
X296000000Y-61000000D02*
X267750000Y-61000000D01*
X247750000Y-41250000D02*
X247650000Y-41175000D01*
G04 #@! TO.N,SQ_H8*
X296000000Y-21000000D02*
X267500000Y-21000000D01*
X267500000Y-21000000D02*
X249750000Y-38750000D01*
X249750000Y-38750000D02*
X249650000Y-38634997D01*
X295950000Y-20949998D02*
X296000000Y-21000000D01*
G04 #@! TD*
M02*
