G04 #@! TF.GenerationSoftware,KiCad,Pcbnew,9.0.9-9.0.9~ubuntu24.04.1*
G04 #@! TF.CreationDate,2026-10-07T17:00:06+00:00*
G04 #@! TF.ProjectId,chess-board,63686573-732d-4626-9f61-72642e6b6963,rev?*
G04 #@! TF.SameCoordinates,Original*
G04 #@! TF.FileFunction,Soldermask,Top*
G04 #@! TF.FilePolarity,Negative*
%FSLAX46Y46*%
G04 Gerber Fmt 4.6, Leading zero omitted, Abs format (unit mm)*
G04 Created by KiCad (PCBNEW 9.0.9-9.0.9~ubuntu24.04.1) date 2026-10-07 17:00:06*
%MOMM*%
%LPD*%
G01*
G04 APERTURE LIST*
G04 Aperture macros list*
%AMRoundRect*
0 Rectangle with rounded corners*
0 $1 Rounding radius*
0 $2 $3 $4 $5 $6 $7 $8 $9 X,Y pos of 4 corners*
0 Add a 4 corners polygon primitive as box body*
4,1,4,$2,$3,$4,$5,$6,$7,$8,$9,$2,$3,0*
0 Add four circle primitives for the rounded corners*
1,1,$1+$1,$2,$3*
1,1,$1+$1,$4,$5*
1,1,$1+$1,$6,$7*
1,1,$1+$1,$8,$9*
0 Add four rect primitives between the rounded corners*
20,1,$1+$1,$2,$3,$4,$5,0*
20,1,$1+$1,$4,$5,$6,$7,0*
20,1,$1+$1,$6,$7,$8,$9,0*
20,1,$1+$1,$8,$9,$2,$3,0*%
%AMFreePoly0*
4,1,7,0.300000,-0.150000,-0.300000,-0.150000,-0.300000,0.150000,0.050000,0.150000,0.050000,0.500000,0.300000,0.500000,0.300000,-0.150000,0.300000,-0.150000,$1*%
%AMFreePoly1*
4,1,7,0.300000,-0.500000,0.050000,-0.500000,0.050000,-0.150000,-0.300000,-0.150000,-0.300000,0.150000,0.300000,0.150000,0.300000,-0.500000,0.300000,-0.500000,$1*%
%AMFreePoly2*
4,1,7,0.300000,-0.150000,-0.050000,-0.150000,-0.050000,-0.500000,-0.300000,-0.500000,-0.300000,0.150000,0.300000,0.150000,0.300000,-0.150000,0.300000,-0.150000,$1*%
%AMFreePoly3*
4,1,7,-0.050000,0.150000,0.300000,0.150000,0.300000,-0.150000,-0.300000,-0.150000,-0.300000,0.500000,-0.050000,0.500000,-0.050000,0.150000,-0.050000,0.150000,$1*%
G04 Aperture macros list end*
%ADD10RoundRect,0.050000X-0.650000X-0.300000X0.650000X-0.300000X0.650000X0.300000X-0.650000X0.300000X0*%
%ADD11O,1.400000X0.700000*%
%ADD12RoundRect,0.050000X-0.325000X-0.350000X0.325000X-0.350000X0.325000X0.350000X-0.325000X0.350000X0*%
%ADD13RoundRect,0.050000X-1.725000X-0.925000X1.725000X-0.925000X1.725000X0.925000X-1.725000X0.925000X0*%
%ADD14RoundRect,0.050000X-0.900000X-0.600000X0.900000X-0.600000X0.900000X0.600000X-0.900000X0.600000X0*%
%ADD15O,1.900000X1.300000*%
%ADD16RoundRect,0.050000X0.325000X0.350000X-0.325000X0.350000X-0.325000X-0.350000X0.325000X-0.350000X0*%
%ADD17RoundRect,0.050000X0.900000X0.600000X-0.900000X0.600000X-0.900000X-0.600000X0.900000X-0.600000X0*%
%ADD18RoundRect,0.050000X-0.980000X-1.575000X0.980000X-1.575000X0.980000X1.575000X-0.980000X1.575000X0*%
%ADD19RoundRect,0.050000X-0.450000X-0.400000X0.450000X-0.400000X0.450000X0.400000X-0.450000X0.400000X0*%
%ADD20RoundRect,0.050000X-1.000000X-0.300000X1.000000X-0.300000X1.000000X0.300000X-1.000000X0.300000X0*%
%ADD21O,2.100000X0.700000*%
%ADD22C,3.400000*%
%ADD23RoundRect,0.050000X-0.900000X-0.900000X0.900000X-0.900000X0.900000X0.900000X-0.900000X0.900000X0*%
%ADD24C,1.900000*%
%ADD25RoundRect,0.050000X-0.350000X-0.650000X0.350000X-0.650000X0.350000X0.650000X-0.350000X0.650000X0*%
%ADD26RoundRect,0.050000X-0.775000X-0.300000X0.775000X-0.300000X0.775000X0.300000X-0.775000X0.300000X0*%
%ADD27O,1.650000X0.700000*%
%ADD28RoundRect,0.050000X0.450000X0.400000X-0.450000X0.400000X-0.450000X-0.400000X0.450000X-0.400000X0*%
%ADD29RoundRect,0.050000X-0.597000X-0.279500X0.597000X-0.279500X0.597000X0.279500X-0.597000X0.279500X0*%
%ADD30O,1.294000X0.659000*%
%ADD31RoundRect,0.050000X0.550000X0.300000X-0.550000X0.300000X-0.550000X-0.300000X0.550000X-0.300000X0*%
%ADD32O,1.200000X0.700000*%
%ADD33RoundRect,0.050000X-0.280000X-0.475000X0.280000X-0.475000X0.280000X0.475000X-0.280000X0.475000X0*%
%ADD34O,0.660000X1.050000*%
%ADD35RoundRect,0.050000X-0.400000X0.450000X-0.400000X-0.450000X0.400000X-0.450000X0.400000X0.450000X0*%
%ADD36FreePoly0,0.000000*%
%ADD37R,0.600000X0.250000*%
%ADD38FreePoly1,0.000000*%
%ADD39R,0.300000X2.400000*%
%ADD40FreePoly2,0.000000*%
%ADD41FreePoly3,0.000000*%
%ADD42RoundRect,0.050000X1.080000X1.130000X-1.080000X1.130000X-1.080000X-1.130000X1.080000X-1.130000X0*%
%ADD43RoundRect,0.050000X-0.300000X-0.775000X0.300000X-0.775000X0.300000X0.775000X-0.300000X0.775000X0*%
%ADD44O,0.700000X1.650000*%
%ADD45O,1.300000X1.900000*%
%ADD46RoundRect,0.050000X0.350000X-0.325000X0.350000X0.325000X-0.350000X0.325000X-0.350000X-0.325000X0*%
%ADD47RoundRect,0.050000X0.850000X0.850000X-0.850000X0.850000X-0.850000X-0.850000X0.850000X-0.850000X0*%
%ADD48C,1.800000*%
%ADD49RoundRect,0.050000X-1.225000X-1.225000X1.225000X-1.225000X1.225000X1.225000X-1.225000X1.225000X0*%
%ADD50C,2.550000*%
%ADD51RoundRect,0.050000X0.910000X-0.910000X0.910000X0.910000X-0.910000X0.910000X-0.910000X-0.910000X0*%
%ADD52C,1.920000*%
G04 APERTURE END LIST*
D10*
G04 #@! TO.C,HS18*
X218950000Y-299050000D03*
D11*
X218950000Y-300950000D03*
X221050000Y-300000000D03*
G04 #@! TD*
D12*
G04 #@! TO.C,C125*
X219325000Y-102400000D03*
X220675000Y-102400000D03*
G04 #@! TD*
D13*
G04 #@! TO.C,TP6*
X148000000Y-325000000D03*
G04 #@! TD*
D12*
G04 #@! TO.C,C17*
X272325000Y-243000000D03*
X273675000Y-243000000D03*
G04 #@! TD*
D14*
G04 #@! TO.C,U19*
X115600000Y-248600000D03*
D15*
X115600000Y-247000000D03*
X115600000Y-245400000D03*
X110400000Y-245400000D03*
X110400000Y-247000000D03*
X110400000Y-248600000D03*
G04 #@! TD*
D10*
G04 #@! TO.C,HS37*
X18949999Y-99050000D03*
D11*
X18949999Y-100950000D03*
X21050000Y-100000000D03*
G04 #@! TD*
D12*
G04 #@! TO.C,C7*
X92825000Y-334200000D03*
X94175000Y-334200000D03*
G04 #@! TD*
G04 #@! TO.C,C121*
X219325000Y-142400000D03*
X220675000Y-142400000D03*
G04 #@! TD*
D16*
G04 #@! TO.C,C136*
X84175000Y-111700000D03*
X82825000Y-111700000D03*
G04 #@! TD*
D12*
G04 #@! TO.C,C109*
X59325000Y-102400000D03*
X60675000Y-102400000D03*
G04 #@! TD*
G04 #@! TO.C,C85*
X59325000Y-182400000D03*
X60675000Y-182400000D03*
G04 #@! TD*
G04 #@! TO.C,C32*
X312325000Y-163000000D03*
X313675000Y-163000000D03*
G04 #@! TD*
D17*
G04 #@! TO.C,U38*
X30400001Y-125400000D03*
D15*
X30400001Y-127000000D03*
X30400001Y-128600000D03*
X35600000Y-128600000D03*
X35600000Y-127000000D03*
X35600000Y-125400000D03*
G04 #@! TD*
D12*
G04 #@! TO.C,C115*
X139325000Y-62400000D03*
X140675000Y-62400000D03*
G04 #@! TD*
D18*
G04 #@! TO.C,F1*
X49545000Y-39000000D03*
X54455000Y-39000000D03*
G04 #@! TD*
D14*
G04 #@! TO.C,U46*
X315600000Y-88600000D03*
D15*
X315600000Y-87000000D03*
X315600000Y-85400000D03*
X310400000Y-85400000D03*
X310400000Y-87000000D03*
X310400000Y-88600000D03*
G04 #@! TD*
D10*
G04 #@! TO.C,HS34*
X58950000Y-139050000D03*
D11*
X58950000Y-140950000D03*
X61050000Y-140000000D03*
G04 #@! TD*
D12*
G04 #@! TO.C,C126*
X259325000Y-102400000D03*
X260675000Y-102400000D03*
G04 #@! TD*
D10*
G04 #@! TO.C,HS55*
X258950000Y-99050000D03*
D11*
X258950000Y-100950000D03*
X261050000Y-100000000D03*
G04 #@! TD*
D16*
G04 #@! TO.C,C27*
X153675000Y-211000000D03*
X152325000Y-211000000D03*
G04 #@! TD*
D10*
G04 #@! TO.C,HS12*
X138950000Y-219050000D03*
D11*
X138950000Y-220950000D03*
X141050000Y-220000000D03*
G04 #@! TD*
D17*
G04 #@! TO.C,U56*
X110400000Y-45400001D03*
D15*
X110400000Y-47000000D03*
X110400000Y-48600000D03*
X115600000Y-48600000D03*
X115600000Y-47000000D03*
X115600000Y-45400001D03*
G04 #@! TD*
D14*
G04 #@! TO.C,U50*
X155600000Y-88600000D03*
D15*
X155600000Y-87000000D03*
X155600000Y-85400000D03*
X150400000Y-85400000D03*
X150400000Y-87000000D03*
X150400000Y-88600000D03*
G04 #@! TD*
D17*
G04 #@! TO.C,U59*
X230400000Y-45400001D03*
D15*
X230400000Y-47000000D03*
X230400000Y-48600000D03*
X235600000Y-48600000D03*
X235600000Y-47000000D03*
X235600000Y-45400001D03*
G04 #@! TD*
D19*
G04 #@! TO.C,R17*
X71650000Y-342500000D03*
X73350000Y-342500000D03*
G04 #@! TD*
D12*
G04 #@! TO.C,C133*
X219325000Y-22400000D03*
X220675000Y-22400000D03*
G04 #@! TD*
D10*
G04 #@! TO.C,HS7*
X98950000Y-259050000D03*
D11*
X98950000Y-260950000D03*
X101050000Y-260000000D03*
G04 #@! TD*
D14*
G04 #@! TO.C,U48*
X235600000Y-88600000D03*
D15*
X235600000Y-87000000D03*
X235600000Y-85400000D03*
X230400000Y-85400000D03*
X230400000Y-87000000D03*
X230400000Y-88600000D03*
G04 #@! TD*
D12*
G04 #@! TO.C,C70*
X72325000Y-3000000D03*
X73675000Y-3000000D03*
G04 #@! TD*
D16*
G04 #@! TO.C,C58*
X113675000Y-51000000D03*
X112325000Y-51000000D03*
G04 #@! TD*
D10*
G04 #@! TO.C,HS46*
X58950000Y-19050000D03*
D11*
X58950000Y-20949999D03*
X61050000Y-20000000D03*
G04 #@! TD*
D20*
G04 #@! TO.C,U72*
X75350000Y-33555000D03*
D21*
X75350000Y-34824999D03*
X75350000Y-36095000D03*
X75350000Y-37365000D03*
X75350000Y-38634998D03*
X75350000Y-39904999D03*
X75350000Y-41175000D03*
X75350000Y-42444999D03*
X84650000Y-42444999D03*
X84650000Y-41175000D03*
X84650000Y-39904999D03*
X84650000Y-38634998D03*
X84650000Y-37365000D03*
X84650000Y-36095000D03*
X84650000Y-34824999D03*
X84650000Y-33555000D03*
G04 #@! TD*
D14*
G04 #@! TO.C,U21*
X35599999Y-248600000D03*
D15*
X35599999Y-247000000D03*
X35599999Y-245400000D03*
X30400000Y-245400000D03*
X30400000Y-247000000D03*
X30400000Y-248600000D03*
G04 #@! TD*
D12*
G04 #@! TO.C,C65*
X272325000Y-3000000D03*
X273675000Y-3000000D03*
G04 #@! TD*
D19*
G04 #@! TO.C,R6*
X76150000Y-26800000D03*
X77850000Y-26800000D03*
G04 #@! TD*
D12*
G04 #@! TO.C,C50*
X232325000Y-83000000D03*
X233675000Y-83000000D03*
G04 #@! TD*
D17*
G04 #@! TO.C,U23*
X70400000Y-205400000D03*
D15*
X70400000Y-207000000D03*
X70400000Y-208600000D03*
X75600000Y-208600000D03*
X75600000Y-207000000D03*
X75600000Y-205400000D03*
G04 #@! TD*
D10*
G04 #@! TO.C,HS14*
X58950000Y-179050000D03*
D11*
X58950000Y-180950000D03*
X61050000Y-180000000D03*
G04 #@! TD*
D10*
G04 #@! TO.C,HS43*
X98950000Y-59050000D03*
D11*
X98950000Y-60949999D03*
X101050000Y-60000000D03*
G04 #@! TD*
D20*
G04 #@! TO.C,U4*
X235350000Y-193555000D03*
D21*
X235350000Y-194825000D03*
X235350000Y-196095000D03*
X235350000Y-197365000D03*
X235350000Y-198634999D03*
X235350000Y-199904999D03*
X235350000Y-201175000D03*
X235350000Y-202445000D03*
X244650000Y-202445000D03*
X244650000Y-201175000D03*
X244650000Y-199904999D03*
X244650000Y-198634999D03*
X244650000Y-197365000D03*
X244650000Y-196095000D03*
X244650000Y-194825000D03*
X244650000Y-193555000D03*
G04 #@! TD*
D16*
G04 #@! TO.C,C41*
X73675000Y-131000000D03*
X72325000Y-131000000D03*
G04 #@! TD*
D10*
G04 #@! TO.C,HS25*
X178950000Y-219050000D03*
D11*
X178950000Y-220950000D03*
X181050000Y-220000000D03*
G04 #@! TD*
D12*
G04 #@! TO.C,C134*
X259325000Y-22400000D03*
X260675000Y-22400000D03*
G04 #@! TD*
G04 #@! TO.C,C75*
X139325000Y-302400000D03*
X140675000Y-302400000D03*
G04 #@! TD*
D16*
G04 #@! TO.C,C62*
X273675000Y-51000000D03*
X272325000Y-51000000D03*
G04 #@! TD*
D17*
G04 #@! TO.C,U28*
X270400000Y-205400000D03*
D15*
X270400000Y-207000000D03*
X270400000Y-208600000D03*
X275600000Y-208600000D03*
X275600000Y-207000000D03*
X275600000Y-205400000D03*
G04 #@! TD*
D10*
G04 #@! TO.C,HS33*
X18949999Y-139050000D03*
D11*
X18949999Y-140950000D03*
X21050000Y-140000000D03*
G04 #@! TD*
D14*
G04 #@! TO.C,U36*
X75600000Y-168600000D03*
D15*
X75600000Y-167000000D03*
X75600000Y-165400000D03*
X70400000Y-165400000D03*
X70400000Y-167000000D03*
X70400000Y-168600000D03*
G04 #@! TD*
D22*
G04 #@! TO.C,H9*
X40000000Y-120000000D03*
G04 #@! TD*
D17*
G04 #@! TO.C,U9*
X150400000Y-285400000D03*
D15*
X150400000Y-287000000D03*
X150400000Y-288600000D03*
X155600000Y-288600000D03*
X155600000Y-287000000D03*
X155600000Y-285400000D03*
G04 #@! TD*
D16*
G04 #@! TO.C,C31*
X313675000Y-211000000D03*
X312325000Y-211000000D03*
G04 #@! TD*
D10*
G04 #@! TO.C,HS50*
X218950000Y-139050000D03*
D11*
X218950000Y-140950000D03*
X221050000Y-140000000D03*
G04 #@! TD*
D12*
G04 #@! TO.C,C77*
X59325000Y-262399999D03*
X60675000Y-262399999D03*
G04 #@! TD*
D22*
G04 #@! TO.C,H4*
X280000000Y-280000000D03*
G04 #@! TD*
D12*
G04 #@! TO.C,C19*
X192325000Y-243000000D03*
X193675000Y-243000000D03*
G04 #@! TD*
G04 #@! TO.C,C119*
X139325000Y-22400000D03*
X140675000Y-22400000D03*
G04 #@! TD*
D14*
G04 #@! TO.C,U20*
X75600000Y-248600000D03*
D15*
X75600000Y-247000000D03*
X75600000Y-245400000D03*
X70400000Y-245400000D03*
X70400000Y-247000000D03*
X70400000Y-248600000D03*
G04 #@! TD*
D19*
G04 #@! TO.C,R9*
X80150000Y-338730000D03*
X81850000Y-338730000D03*
G04 #@! TD*
D12*
G04 #@! TO.C,C82*
X99325000Y-222400000D03*
X100675000Y-222400000D03*
G04 #@! TD*
G04 #@! TO.C,C93*
X219325000Y-262399999D03*
X220675000Y-262399999D03*
G04 #@! TD*
D16*
G04 #@! TO.C,C4*
X244175000Y-271700000D03*
X242825000Y-271700000D03*
G04 #@! TD*
D23*
G04 #@! TO.C,SW10*
X276750000Y-335750000D03*
D24*
X283250000Y-335750000D03*
X283250000Y-340250000D03*
X276750000Y-340250000D03*
G04 #@! TD*
D16*
G04 #@! TO.C,C47*
X313675000Y-131000000D03*
X312325000Y-131000000D03*
G04 #@! TD*
G04 #@! TO.C,C6*
X244175000Y-191700000D03*
X242825000Y-191700000D03*
G04 #@! TD*
D17*
G04 #@! TO.C,U27*
X230400000Y-205400000D03*
D15*
X230400000Y-207000000D03*
X230400000Y-208600000D03*
X235600000Y-208600000D03*
X235600000Y-207000000D03*
X235600000Y-205400000D03*
G04 #@! TD*
D10*
G04 #@! TO.C,HS39*
X98950000Y-99050000D03*
D11*
X98950000Y-100950000D03*
X101050000Y-100000000D03*
G04 #@! TD*
D12*
G04 #@! TO.C,C21*
X112325000Y-243000000D03*
X113675000Y-243000000D03*
G04 #@! TD*
D13*
G04 #@! TO.C,TP1*
X113000000Y-325000000D03*
G04 #@! TD*
D19*
G04 #@! TO.C,R15*
X99650000Y-336000000D03*
X101350000Y-336000000D03*
G04 #@! TD*
D10*
G04 #@! TO.C,HS21*
X178950000Y-259050000D03*
D11*
X178950000Y-260950000D03*
X181050000Y-260000000D03*
G04 #@! TD*
D10*
G04 #@! TO.C,HS24*
X298950000Y-259050000D03*
D11*
X298950000Y-260950000D03*
X301050000Y-260000000D03*
G04 #@! TD*
D19*
G04 #@! TO.C,R10*
X26500000Y-248600000D03*
X28199999Y-248600000D03*
G04 #@! TD*
D17*
G04 #@! TO.C,U45*
X310400000Y-125400000D03*
D15*
X310400000Y-127000000D03*
X310400000Y-128600000D03*
X315600000Y-128600000D03*
X315600000Y-127000000D03*
X315600000Y-125400000D03*
G04 #@! TD*
D16*
G04 #@! TO.C,C10*
X113675000Y-291000000D03*
X112325000Y-291000000D03*
G04 #@! TD*
D10*
G04 #@! TO.C,HS4*
X138950000Y-299050000D03*
D11*
X138950000Y-300950000D03*
X141050000Y-300000000D03*
G04 #@! TD*
D17*
G04 #@! TO.C,U12*
X270400000Y-285400000D03*
D15*
X270400000Y-287000000D03*
X270400000Y-288600000D03*
X275600000Y-288600000D03*
X275600000Y-287000000D03*
X275600000Y-285400000D03*
G04 #@! TD*
D17*
G04 #@! TO.C,U40*
X110400000Y-125400000D03*
D15*
X110400000Y-127000000D03*
X110400000Y-128600000D03*
X115600000Y-128600000D03*
X115600000Y-127000000D03*
X115600000Y-125400000D03*
G04 #@! TD*
D22*
G04 #@! TO.C,H1*
X40000000Y-280000000D03*
G04 #@! TD*
D12*
G04 #@! TO.C,C78*
X99325000Y-262399999D03*
X100675000Y-262399999D03*
G04 #@! TD*
G04 #@! TO.C,C101*
X219325000Y-182400000D03*
X220675000Y-182400000D03*
G04 #@! TD*
D10*
G04 #@! TO.C,HS1*
X18949999Y-299050000D03*
D11*
X18949999Y-300950000D03*
X21050000Y-300000000D03*
G04 #@! TD*
D17*
G04 #@! TO.C,U57*
X150400000Y-45400001D03*
D15*
X150400000Y-47000000D03*
X150400000Y-48600000D03*
X155600000Y-48600000D03*
X155600000Y-47000000D03*
X155600000Y-45400001D03*
G04 #@! TD*
D10*
G04 #@! TO.C,HS9*
X18949999Y-219050000D03*
D11*
X18949999Y-220950000D03*
X21050000Y-220000000D03*
G04 #@! TD*
D16*
G04 #@! TO.C,C13*
X233675000Y-291000000D03*
X232325000Y-291000000D03*
G04 #@! TD*
G04 #@! TO.C,C25*
X73675000Y-211000000D03*
X72325000Y-211000000D03*
G04 #@! TD*
D12*
G04 #@! TO.C,C120*
X179325000Y-142400000D03*
X180675000Y-142400000D03*
G04 #@! TD*
G04 #@! TO.C,C33*
X272325000Y-163000000D03*
X273675000Y-163000000D03*
G04 #@! TD*
G04 #@! TO.C,C53*
X112325000Y-83000000D03*
X113675000Y-83000000D03*
G04 #@! TD*
D14*
G04 #@! TO.C,U37*
X35599999Y-168600000D03*
D15*
X35599999Y-167000000D03*
X35599999Y-165400000D03*
X30400000Y-165400000D03*
X30400000Y-167000000D03*
X30400000Y-168600000D03*
G04 #@! TD*
D10*
G04 #@! TO.C,HS60*
X298950000Y-59050000D03*
D11*
X298950000Y-60949999D03*
X301050000Y-60000000D03*
G04 #@! TD*
D23*
G04 #@! TO.C,SW11*
X224750000Y-359750000D03*
D24*
X231250000Y-359750000D03*
X231250000Y-364250000D03*
X224750000Y-364250000D03*
G04 #@! TD*
D12*
G04 #@! TO.C,C129*
X219325000Y-62400000D03*
X220675000Y-62400000D03*
G04 #@! TD*
D14*
G04 #@! TO.C,U67*
X115600000Y-8599999D03*
D15*
X115600000Y-7000000D03*
X115600000Y-5400000D03*
X110400000Y-5400000D03*
X110400000Y-7000000D03*
X110400000Y-8599999D03*
G04 #@! TD*
D10*
G04 #@! TO.C,HS59*
X258950000Y-59050000D03*
D11*
X258950000Y-60949999D03*
X261050000Y-60000000D03*
G04 #@! TD*
D20*
G04 #@! TO.C,U71*
X235350000Y-113555000D03*
D21*
X235350000Y-114825000D03*
X235350000Y-116095000D03*
X235350000Y-117365000D03*
X235350000Y-118634999D03*
X235350000Y-119904999D03*
X235350000Y-121175000D03*
X235350000Y-122445000D03*
X244650000Y-122445000D03*
X244650000Y-121175000D03*
X244650000Y-119904999D03*
X244650000Y-118634999D03*
X244650000Y-117365000D03*
X244650000Y-116095000D03*
X244650000Y-114825000D03*
X244650000Y-113555000D03*
G04 #@! TD*
D14*
G04 #@! TO.C,U14*
X315600000Y-248600000D03*
D15*
X315600000Y-247000000D03*
X315600000Y-245400000D03*
X310400000Y-245400000D03*
X310400000Y-247000000D03*
X310400000Y-248600000D03*
G04 #@! TD*
D16*
G04 #@! TO.C,C45*
X233675000Y-131000000D03*
X232325000Y-131000000D03*
G04 #@! TD*
D12*
G04 #@! TO.C,C88*
X179325000Y-302400000D03*
X180675000Y-302400000D03*
G04 #@! TD*
D10*
G04 #@! TO.C,HS47*
X98950000Y-19050000D03*
D11*
X98950000Y-20949999D03*
X101050000Y-20000000D03*
G04 #@! TD*
D10*
G04 #@! TO.C,HS51*
X258950000Y-139050000D03*
D11*
X258950000Y-140950000D03*
X261050000Y-140000000D03*
G04 #@! TD*
D14*
G04 #@! TO.C,U47*
X275600000Y-88600000D03*
D15*
X275600000Y-87000000D03*
X275600000Y-85400000D03*
X270400000Y-85400000D03*
X270400000Y-87000000D03*
X270400000Y-88600000D03*
G04 #@! TD*
D12*
G04 #@! TO.C,C94*
X259325000Y-262399999D03*
X260675000Y-262399999D03*
G04 #@! TD*
D23*
G04 #@! TO.C,SW7*
X276750000Y-359750000D03*
D24*
X283250000Y-359750000D03*
X283250000Y-364250000D03*
X276750000Y-364250000D03*
G04 #@! TD*
D12*
G04 #@! TO.C,C117*
X59325000Y-22400000D03*
X60675000Y-22400000D03*
G04 #@! TD*
D23*
G04 #@! TO.C,SW12*
X250750000Y-359750000D03*
D24*
X257250000Y-359750000D03*
X257250000Y-364250000D03*
X250750000Y-364250000D03*
G04 #@! TD*
D19*
G04 #@! TO.C,R7*
X83650000Y-26800000D03*
X85350000Y-26800000D03*
G04 #@! TD*
D12*
G04 #@! TO.C,C142*
X70025000Y-29900000D03*
X71375000Y-29900000D03*
G04 #@! TD*
D16*
G04 #@! TO.C,C46*
X273675000Y-131000000D03*
X272325000Y-131000000D03*
G04 #@! TD*
D14*
G04 #@! TO.C,U33*
X195600000Y-168600000D03*
D15*
X195600000Y-167000000D03*
X195600000Y-165400000D03*
X190400000Y-165400000D03*
X190400000Y-167000000D03*
X190400000Y-168600000D03*
G04 #@! TD*
D12*
G04 #@! TO.C,C37*
X112325000Y-163000000D03*
X113675000Y-163000000D03*
G04 #@! TD*
D10*
G04 #@! TO.C,HS5*
X18949999Y-259050000D03*
D11*
X18949999Y-260950000D03*
X21050000Y-260000000D03*
G04 #@! TD*
D20*
G04 #@! TO.C,U3*
X75350000Y-193555000D03*
D21*
X75350000Y-194825000D03*
X75350000Y-196095000D03*
X75350000Y-197365000D03*
X75350000Y-198634999D03*
X75350000Y-199904999D03*
X75350000Y-201175000D03*
X75350000Y-202445000D03*
X84650000Y-202445000D03*
X84650000Y-201175000D03*
X84650000Y-199904999D03*
X84650000Y-198634999D03*
X84650000Y-197365000D03*
X84650000Y-196095000D03*
X84650000Y-194825000D03*
X84650000Y-193555000D03*
G04 #@! TD*
D22*
G04 #@! TO.C,H11*
X200000000Y-120000000D03*
G04 #@! TD*
G04 #@! TO.C,H20*
X304000000Y-350000000D03*
G04 #@! TD*
D10*
G04 #@! TO.C,HS61*
X178950000Y-19050000D03*
D11*
X178950000Y-20949999D03*
X181050000Y-20000000D03*
G04 #@! TD*
D12*
G04 #@! TO.C,C106*
X99325000Y-142400000D03*
X100675000Y-142400000D03*
G04 #@! TD*
D14*
G04 #@! TO.C,U66*
X155600000Y-8599999D03*
D15*
X155600000Y-7000000D03*
X155600000Y-5400000D03*
X150400000Y-5400000D03*
X150400000Y-7000000D03*
X150400000Y-8599999D03*
G04 #@! TD*
D14*
G04 #@! TO.C,U34*
X155600000Y-168600000D03*
D15*
X155600000Y-167000000D03*
X155600000Y-165400000D03*
X150400000Y-165400000D03*
X150400000Y-167000000D03*
X150400000Y-168600000D03*
G04 #@! TD*
D17*
G04 #@! TO.C,U60*
X270400000Y-45400001D03*
D15*
X270400000Y-47000000D03*
X270400000Y-48600000D03*
X275600000Y-48600000D03*
X275600000Y-47000000D03*
X275600000Y-45400001D03*
G04 #@! TD*
D10*
G04 #@! TO.C,HS11*
X98950000Y-219050000D03*
D11*
X98950000Y-220950000D03*
X101050000Y-220000000D03*
G04 #@! TD*
D22*
G04 #@! TO.C,H15*
X200000000Y-40000000D03*
G04 #@! TD*
D12*
G04 #@! TO.C,C23*
X32325000Y-243000000D03*
X33675000Y-243000000D03*
G04 #@! TD*
D23*
G04 #@! TO.C,SW8*
X224750000Y-335750000D03*
D24*
X231250000Y-335750000D03*
X231250000Y-340250000D03*
X224750000Y-340250000D03*
G04 #@! TD*
D16*
G04 #@! TO.C,C44*
X193675000Y-131000000D03*
X192325000Y-131000000D03*
G04 #@! TD*
D10*
G04 #@! TO.C,HS13*
X18949999Y-179050000D03*
D11*
X18949999Y-180950000D03*
X21050000Y-180000000D03*
G04 #@! TD*
D10*
G04 #@! TO.C,HS63*
X258950000Y-19050000D03*
D11*
X258950000Y-20949999D03*
X261050000Y-20000000D03*
G04 #@! TD*
D14*
G04 #@! TO.C,U63*
X275600000Y-8599999D03*
D15*
X275600000Y-7000000D03*
X275600000Y-5400000D03*
X270400000Y-5400000D03*
X270400000Y-7000000D03*
X270400000Y-8599999D03*
G04 #@! TD*
D12*
G04 #@! TO.C,C146*
X89325000Y-353000000D03*
X90675000Y-353000000D03*
G04 #@! TD*
D17*
G04 #@! TO.C,U58*
X190400000Y-45400001D03*
D15*
X190400000Y-47000000D03*
X190400000Y-48600000D03*
X195600000Y-48600000D03*
X195600000Y-47000000D03*
X195600000Y-45400001D03*
G04 #@! TD*
D12*
G04 #@! TO.C,C95*
X299325000Y-262399999D03*
X300675000Y-262399999D03*
G04 #@! TD*
G04 #@! TO.C,C131*
X299325000Y-62400000D03*
X300675000Y-62400000D03*
G04 #@! TD*
D20*
G04 #@! TO.C,U73*
X235350000Y-33555000D03*
D21*
X235350000Y-34824999D03*
X235350000Y-36095000D03*
X235350000Y-37365000D03*
X235350000Y-38634998D03*
X235350000Y-39904999D03*
X235350000Y-41175000D03*
X235350000Y-42444999D03*
X244650000Y-42444999D03*
X244650000Y-41175000D03*
X244650000Y-39904999D03*
X244650000Y-38634998D03*
X244650000Y-37365000D03*
X244650000Y-36095000D03*
X244650000Y-34824999D03*
X244650000Y-33555000D03*
G04 #@! TD*
D14*
G04 #@! TO.C,U51*
X115600000Y-88600000D03*
D15*
X115600000Y-87000000D03*
X115600000Y-85400000D03*
X110400000Y-85400000D03*
X110400000Y-87000000D03*
X110400000Y-88600000D03*
G04 #@! TD*
D12*
G04 #@! TO.C,C34*
X232325000Y-163000000D03*
X233675000Y-163000000D03*
G04 #@! TD*
G04 #@! TO.C,C22*
X72325000Y-243000000D03*
X73675000Y-243000000D03*
G04 #@! TD*
G04 #@! TO.C,C74*
X99325000Y-302400000D03*
X100675000Y-302400000D03*
G04 #@! TD*
D17*
G04 #@! TO.C,U29*
X310400000Y-205400000D03*
D15*
X310400000Y-207000000D03*
X310400000Y-208600000D03*
X315600000Y-208600000D03*
X315600000Y-207000000D03*
X315600000Y-205400000D03*
G04 #@! TD*
D16*
G04 #@! TO.C,C40*
X33675000Y-131000000D03*
X32325000Y-131000000D03*
G04 #@! TD*
G04 #@! TO.C,C24*
X33675000Y-211000000D03*
X32325000Y-211000000D03*
G04 #@! TD*
D25*
G04 #@! TO.C,C2*
X71450000Y-21000000D03*
X73350000Y-21000000D03*
G04 #@! TD*
D17*
G04 #@! TO.C,U55*
X70400000Y-45400001D03*
D15*
X70400000Y-47000000D03*
X70400000Y-48600000D03*
X75600000Y-48600000D03*
X75600000Y-47000000D03*
X75600000Y-45400001D03*
G04 #@! TD*
D12*
G04 #@! TO.C,C89*
X219325000Y-302400000D03*
X220675000Y-302400000D03*
G04 #@! TD*
D26*
G04 #@! TO.C,U5*
X87300000Y-336190000D03*
D27*
X87300000Y-337460000D03*
X87300000Y-338730000D03*
X87300000Y-340000000D03*
X87300000Y-341270000D03*
X87300000Y-342539998D03*
X87300000Y-343810000D03*
X92700000Y-343810000D03*
X92700000Y-342539998D03*
X92700000Y-341270000D03*
X92700000Y-340000000D03*
X92700000Y-338730000D03*
X92700000Y-337460000D03*
X92700000Y-336190000D03*
G04 #@! TD*
D14*
G04 #@! TO.C,U35*
X115600000Y-168600000D03*
D15*
X115600000Y-167000000D03*
X115600000Y-165400000D03*
X110400000Y-165400000D03*
X110400000Y-167000000D03*
X110400000Y-168600000D03*
G04 #@! TD*
D28*
G04 #@! TO.C,R13*
X110850000Y-343000000D03*
X109150000Y-343000000D03*
G04 #@! TD*
D10*
G04 #@! TO.C,HS26*
X218950000Y-219050000D03*
D11*
X218950000Y-220950000D03*
X221050000Y-220000000D03*
G04 #@! TD*
D12*
G04 #@! TO.C,C107*
X139325000Y-142400000D03*
X140675000Y-142400000D03*
G04 #@! TD*
D10*
G04 #@! TO.C,HS23*
X258950000Y-259050000D03*
D11*
X258950000Y-260950000D03*
X261050000Y-260000000D03*
G04 #@! TD*
D19*
G04 #@! TO.C,R18*
X76150000Y-345500000D03*
X77850000Y-345500000D03*
G04 #@! TD*
D16*
G04 #@! TO.C,C139*
X244175000Y-31699999D03*
X242825000Y-31699999D03*
G04 #@! TD*
G04 #@! TO.C,C3*
X84175000Y-271700000D03*
X82825000Y-271700000D03*
G04 #@! TD*
D10*
G04 #@! TO.C,HS40*
X138950000Y-99050000D03*
D11*
X138950000Y-100950000D03*
X141050000Y-100000000D03*
G04 #@! TD*
D12*
G04 #@! TO.C,C96*
X179325000Y-222400000D03*
X180675000Y-222400000D03*
G04 #@! TD*
D22*
G04 #@! TO.C,H16*
X280000000Y-40000000D03*
G04 #@! TD*
D17*
G04 #@! TO.C,U8*
X110400000Y-285400000D03*
D15*
X110400000Y-287000000D03*
X110400000Y-288600000D03*
X115600000Y-288600000D03*
X115600000Y-287000000D03*
X115600000Y-285400000D03*
G04 #@! TD*
D12*
G04 #@! TO.C,C103*
X299325000Y-182400000D03*
X300675000Y-182400000D03*
G04 #@! TD*
D16*
G04 #@! TO.C,C63*
X313675000Y-51000000D03*
X312325000Y-51000000D03*
G04 #@! TD*
D10*
G04 #@! TO.C,HS19*
X258950000Y-299050000D03*
D11*
X258950000Y-300950000D03*
X261050000Y-300000000D03*
G04 #@! TD*
D12*
G04 #@! TO.C,C48*
X312325000Y-83000000D03*
X313675000Y-83000000D03*
G04 #@! TD*
D23*
G04 #@! TO.C,SW9*
X250750000Y-335750000D03*
D24*
X257250000Y-335750000D03*
X257250000Y-340250000D03*
X250750000Y-340250000D03*
G04 #@! TD*
D10*
G04 #@! TO.C,HS31*
X258950000Y-179050000D03*
D11*
X258950000Y-180950000D03*
X261050000Y-180000000D03*
G04 #@! TD*
D12*
G04 #@! TO.C,C81*
X59325000Y-222400000D03*
X60675000Y-222400000D03*
G04 #@! TD*
G04 #@! TO.C,C87*
X139325000Y-182400000D03*
X140675000Y-182400000D03*
G04 #@! TD*
D22*
G04 #@! TO.C,H2*
X120000000Y-280000000D03*
G04 #@! TD*
D16*
G04 #@! TO.C,C138*
X84175000Y-31699999D03*
X82825000Y-31699999D03*
G04 #@! TD*
D12*
G04 #@! TO.C,C68*
X152325000Y-3000000D03*
X153675000Y-3000000D03*
G04 #@! TD*
G04 #@! TO.C,C64*
X312325000Y-3000000D03*
X313675000Y-3000000D03*
G04 #@! TD*
D14*
G04 #@! TO.C,U49*
X195600000Y-88600000D03*
D15*
X195600000Y-87000000D03*
X195600000Y-85400000D03*
X190400000Y-85400000D03*
X190400000Y-87000000D03*
X190400000Y-88600000D03*
G04 #@! TD*
D14*
G04 #@! TO.C,U18*
X155600000Y-248600000D03*
D15*
X155600000Y-247000000D03*
X155600000Y-245400000D03*
X150400000Y-245400000D03*
X150400000Y-247000000D03*
X150400000Y-248600000D03*
G04 #@! TD*
D22*
G04 #@! TO.C,H14*
X120000000Y-40000000D03*
G04 #@! TD*
D28*
G04 #@! TO.C,R4*
X63449998Y-27000000D03*
X61749999Y-27000000D03*
G04 #@! TD*
D12*
G04 #@! TO.C,C127*
X299325000Y-102400000D03*
X300675000Y-102400000D03*
G04 #@! TD*
G04 #@! TO.C,C54*
X72325000Y-83000000D03*
X73675000Y-83000000D03*
G04 #@! TD*
D10*
G04 #@! TO.C,HS15*
X98950000Y-179050000D03*
D11*
X98950000Y-180950000D03*
X101050000Y-180000000D03*
G04 #@! TD*
D17*
G04 #@! TO.C,U13*
X310400000Y-285400000D03*
D15*
X310400000Y-287000000D03*
X310400000Y-288600000D03*
X315600000Y-288600000D03*
X315600000Y-287000000D03*
X315600000Y-285400000D03*
G04 #@! TD*
D12*
G04 #@! TO.C,C130*
X259325000Y-62400000D03*
X260675000Y-62400000D03*
G04 #@! TD*
G04 #@! TO.C,C91*
X299325000Y-302400000D03*
X300675000Y-302400000D03*
G04 #@! TD*
D17*
G04 #@! TO.C,U10*
X190400000Y-285400000D03*
D15*
X190400000Y-287000000D03*
X190400000Y-288600000D03*
X195600000Y-288600000D03*
X195600000Y-287000000D03*
X195600000Y-285400000D03*
G04 #@! TD*
D29*
G04 #@! TO.C,Q1*
X102472500Y-346095000D03*
D30*
X102472500Y-347365000D03*
X102472500Y-348635000D03*
X102472500Y-349905000D03*
X107527500Y-349905000D03*
X107527500Y-348635000D03*
X107527500Y-347365000D03*
X107527500Y-346095000D03*
G04 #@! TD*
D10*
G04 #@! TO.C,HS49*
X178950000Y-139050000D03*
D11*
X178950000Y-140950000D03*
X181050000Y-140000000D03*
G04 #@! TD*
D16*
G04 #@! TO.C,C61*
X233675000Y-51000000D03*
X232325000Y-51000000D03*
G04 #@! TD*
D22*
G04 #@! TO.C,H18*
X112000000Y-350000000D03*
G04 #@! TD*
D14*
G04 #@! TO.C,U68*
X75600000Y-8599999D03*
D15*
X75600000Y-7000000D03*
X75600000Y-5400000D03*
X70400000Y-5400000D03*
X70400000Y-7000000D03*
X70400000Y-8599999D03*
G04 #@! TD*
D12*
G04 #@! TO.C,C51*
X192325000Y-83000000D03*
X193675000Y-83000000D03*
G04 #@! TD*
D10*
G04 #@! TO.C,HS53*
X178950000Y-99050000D03*
D11*
X178950000Y-100950000D03*
X181050000Y-100000000D03*
G04 #@! TD*
D17*
G04 #@! TO.C,U61*
X310400000Y-45400001D03*
D15*
X310400000Y-47000000D03*
X310400000Y-48600000D03*
X315600000Y-48600000D03*
X315600000Y-47000000D03*
X315600000Y-45400001D03*
G04 #@! TD*
D17*
G04 #@! TO.C,U11*
X230400000Y-285400000D03*
D15*
X230400000Y-287000000D03*
X230400000Y-288600000D03*
X235600000Y-288600000D03*
X235600000Y-287000000D03*
X235600000Y-285400000D03*
G04 #@! TD*
D12*
G04 #@! TO.C,C69*
X112325000Y-3000000D03*
X113675000Y-3000000D03*
G04 #@! TD*
D10*
G04 #@! TO.C,HS16*
X138950000Y-179050000D03*
D11*
X138950000Y-180950000D03*
X141050000Y-180000000D03*
G04 #@! TD*
D12*
G04 #@! TO.C,C90*
X259325000Y-302400000D03*
X260675000Y-302400000D03*
G04 #@! TD*
D17*
G04 #@! TO.C,U39*
X70400000Y-125400000D03*
D15*
X70400000Y-127000000D03*
X70400000Y-128600000D03*
X75600000Y-128600000D03*
X75600000Y-127000000D03*
X75600000Y-125400000D03*
G04 #@! TD*
D23*
G04 #@! TO.C,SW3*
X26750000Y-347750000D03*
D24*
X33250000Y-347750000D03*
X33250000Y-352250000D03*
X26750000Y-352250000D03*
G04 #@! TD*
D19*
G04 #@! TO.C,R12*
X26500000Y-88600000D03*
X28199999Y-88600000D03*
G04 #@! TD*
D23*
G04 #@! TO.C,SW4*
X54750000Y-347750000D03*
D24*
X61250000Y-347750000D03*
X61250000Y-352250000D03*
X54750000Y-352250000D03*
G04 #@! TD*
D10*
G04 #@! TO.C,HS36*
X138950000Y-139050000D03*
D11*
X138950000Y-140950000D03*
X141050000Y-140000000D03*
G04 #@! TD*
D31*
G04 #@! TO.C,U75*
X91300000Y-350950000D03*
D32*
X91300000Y-350000000D03*
X91300000Y-349050000D03*
X88700000Y-349050000D03*
X88700000Y-350000000D03*
X88700000Y-350950000D03*
G04 #@! TD*
D10*
G04 #@! TO.C,HS38*
X58950000Y-99050000D03*
D11*
X58950000Y-100950000D03*
X61050000Y-100000000D03*
G04 #@! TD*
D20*
G04 #@! TO.C,U70*
X75350000Y-113555000D03*
D21*
X75350000Y-114825000D03*
X75350000Y-116095000D03*
X75350000Y-117365000D03*
X75350000Y-118634999D03*
X75350000Y-119904999D03*
X75350000Y-121175000D03*
X75350000Y-122445000D03*
X84650000Y-122445000D03*
X84650000Y-121175000D03*
X84650000Y-119904999D03*
X84650000Y-118634999D03*
X84650000Y-117365000D03*
X84650000Y-116095000D03*
X84650000Y-114825000D03*
X84650000Y-113555000D03*
G04 #@! TD*
D16*
G04 #@! TO.C,C59*
X153675000Y-51000000D03*
X152325000Y-51000000D03*
G04 #@! TD*
D23*
G04 #@! TO.C,SW6*
X304750000Y-361750000D03*
D24*
X311250000Y-361750000D03*
X311250000Y-366250000D03*
X304750000Y-366250000D03*
G04 #@! TD*
D17*
G04 #@! TO.C,U42*
X190400000Y-125400000D03*
D15*
X190400000Y-127000000D03*
X190400000Y-128600000D03*
X195600000Y-128600000D03*
X195600000Y-127000000D03*
X195600000Y-125400000D03*
G04 #@! TD*
D12*
G04 #@! TO.C,C114*
X99325000Y-62400000D03*
X100675000Y-62400000D03*
G04 #@! TD*
D10*
G04 #@! TO.C,HS8*
X138950000Y-259050000D03*
D11*
X138950000Y-260950000D03*
X141050000Y-260000000D03*
G04 #@! TD*
D16*
G04 #@! TO.C,C57*
X73675000Y-51000000D03*
X72325000Y-51000000D03*
G04 #@! TD*
D12*
G04 #@! TO.C,C97*
X219325000Y-222400000D03*
X220675000Y-222400000D03*
G04 #@! TD*
D16*
G04 #@! TO.C,C8*
X33675000Y-291000000D03*
X32325000Y-291000000D03*
G04 #@! TD*
D14*
G04 #@! TO.C,U53*
X35599999Y-88600000D03*
D15*
X35599999Y-87000000D03*
X35599999Y-85400000D03*
X30400000Y-85400000D03*
X30400000Y-87000000D03*
X30400000Y-88600000D03*
G04 #@! TD*
D12*
G04 #@! TO.C,C49*
X272325000Y-83000000D03*
X273675000Y-83000000D03*
G04 #@! TD*
D10*
G04 #@! TO.C,HS41*
X18949999Y-59050000D03*
D11*
X18949999Y-60949999D03*
X21050000Y-60000000D03*
G04 #@! TD*
D16*
G04 #@! TO.C,C29*
X233675000Y-211000000D03*
X232325000Y-211000000D03*
G04 #@! TD*
D10*
G04 #@! TO.C,HS20*
X298950000Y-299050000D03*
D11*
X298950000Y-300950000D03*
X301050000Y-300000000D03*
G04 #@! TD*
D10*
G04 #@! TO.C,HS62*
X218950000Y-19050000D03*
D11*
X218950000Y-20949999D03*
X221050000Y-20000000D03*
G04 #@! TD*
D16*
G04 #@! TO.C,C144*
X74775000Y-29400000D03*
X73425001Y-29400000D03*
G04 #@! TD*
D22*
G04 #@! TO.C,H13*
X40000000Y-40000000D03*
G04 #@! TD*
G04 #@! TO.C,H10*
X120000000Y-120000000D03*
G04 #@! TD*
D12*
G04 #@! TO.C,C39*
X32325000Y-163000000D03*
X33675000Y-163000000D03*
G04 #@! TD*
G04 #@! TO.C,C112*
X19324999Y-62400000D03*
X20675000Y-62400000D03*
G04 #@! TD*
G04 #@! TO.C,C36*
X152325000Y-163000000D03*
X153675000Y-163000000D03*
G04 #@! TD*
D10*
G04 #@! TO.C,HS6*
X58950000Y-259050000D03*
D11*
X58950000Y-260950000D03*
X61050000Y-260000000D03*
G04 #@! TD*
D17*
G04 #@! TO.C,U44*
X270400000Y-125400000D03*
D15*
X270400000Y-127000000D03*
X270400000Y-128600000D03*
X275600000Y-128600000D03*
X275600000Y-127000000D03*
X275600000Y-125400000D03*
G04 #@! TD*
D14*
G04 #@! TO.C,U69*
X35599999Y-8599999D03*
D15*
X35599999Y-7000000D03*
X35599999Y-5400000D03*
X30400000Y-5400000D03*
X30400000Y-7000000D03*
X30400000Y-8599999D03*
G04 #@! TD*
D10*
G04 #@! TO.C,HS45*
X18949999Y-19050000D03*
D11*
X18949999Y-20949999D03*
X21050000Y-20000000D03*
G04 #@! TD*
D12*
G04 #@! TO.C,C66*
X232325000Y-3000000D03*
X233675000Y-3000000D03*
G04 #@! TD*
G04 #@! TO.C,C123*
X299325000Y-142400000D03*
X300675000Y-142400000D03*
G04 #@! TD*
D22*
G04 #@! TO.C,H6*
X120000000Y-200000000D03*
G04 #@! TD*
D12*
G04 #@! TO.C,C143*
X70925000Y-25000000D03*
X72274999Y-25000000D03*
G04 #@! TD*
G04 #@! TO.C,C110*
X99325000Y-102400000D03*
X100675000Y-102400000D03*
G04 #@! TD*
D17*
G04 #@! TO.C,U6*
X30400001Y-285400000D03*
D15*
X30400001Y-287000000D03*
X30400001Y-288600000D03*
X35600000Y-288600000D03*
X35600000Y-287000000D03*
X35600000Y-285400000D03*
G04 #@! TD*
D12*
G04 #@! TO.C,C84*
X19324999Y-182400000D03*
X20675000Y-182400000D03*
G04 #@! TD*
D22*
G04 #@! TO.C,H7*
X200000000Y-200000000D03*
G04 #@! TD*
D16*
G04 #@! TO.C,C26*
X113675000Y-211000000D03*
X112325000Y-211000000D03*
G04 #@! TD*
G04 #@! TO.C,C5*
X84175000Y-191700000D03*
X82825000Y-191700000D03*
G04 #@! TD*
D23*
G04 #@! TO.C,SW1*
X40750000Y-335750000D03*
D24*
X47250000Y-335750000D03*
X47250000Y-340250000D03*
X40750000Y-340250000D03*
G04 #@! TD*
D10*
G04 #@! TO.C,HS27*
X258950000Y-219050000D03*
D11*
X258950000Y-220950000D03*
X261050000Y-220000000D03*
G04 #@! TD*
D14*
G04 #@! TO.C,U16*
X235600000Y-248600000D03*
D15*
X235600000Y-247000000D03*
X235600000Y-245400000D03*
X230400000Y-245400000D03*
X230400000Y-247000000D03*
X230400000Y-248600000D03*
G04 #@! TD*
D12*
G04 #@! TO.C,C72*
X19324999Y-302400000D03*
X20675000Y-302400000D03*
G04 #@! TD*
D14*
G04 #@! TO.C,U65*
X195600000Y-8599999D03*
D15*
X195600000Y-7000000D03*
X195600000Y-5400000D03*
X190400000Y-5400000D03*
X190400000Y-7000000D03*
X190400000Y-8599999D03*
G04 #@! TD*
D33*
G04 #@! TO.C,Q2*
X104050000Y-340475000D03*
D34*
X105950000Y-340475000D03*
X105000000Y-338525000D03*
G04 #@! TD*
D12*
G04 #@! TO.C,C122*
X259325000Y-142400000D03*
X260675000Y-142400000D03*
G04 #@! TD*
G04 #@! TO.C,C145*
X104325000Y-352800000D03*
X105675000Y-352800000D03*
G04 #@! TD*
D16*
G04 #@! TO.C,C11*
X153675000Y-291000000D03*
X152325000Y-291000000D03*
G04 #@! TD*
D12*
G04 #@! TO.C,C20*
X152325000Y-243000000D03*
X153675000Y-243000000D03*
G04 #@! TD*
G04 #@! TO.C,C108*
X19324999Y-102400000D03*
X20675000Y-102400000D03*
G04 #@! TD*
D16*
G04 #@! TO.C,C9*
X73675000Y-291000000D03*
X72325000Y-291000000D03*
G04 #@! TD*
D12*
G04 #@! TO.C,C79*
X139325000Y-262399999D03*
X140675000Y-262399999D03*
G04 #@! TD*
D10*
G04 #@! TO.C,HS58*
X218950000Y-59050000D03*
D11*
X218950000Y-60949999D03*
X221050000Y-60000000D03*
G04 #@! TD*
D14*
G04 #@! TO.C,U32*
X235600000Y-168600000D03*
D15*
X235600000Y-167000000D03*
X235600000Y-165400000D03*
X230400000Y-165400000D03*
X230400000Y-167000000D03*
X230400000Y-168600000D03*
G04 #@! TD*
D16*
G04 #@! TO.C,C56*
X33675000Y-51000000D03*
X32325000Y-51000000D03*
G04 #@! TD*
D12*
G04 #@! TO.C,C55*
X32325000Y-83000000D03*
X33675000Y-83000000D03*
G04 #@! TD*
G04 #@! TO.C,C76*
X19324999Y-262399999D03*
X20675000Y-262399999D03*
G04 #@! TD*
D17*
G04 #@! TO.C,U54*
X30400001Y-45400001D03*
D15*
X30400001Y-47000000D03*
X30400001Y-48600000D03*
X35600000Y-48600000D03*
X35600000Y-47000000D03*
X35600000Y-45400001D03*
G04 #@! TD*
D12*
G04 #@! TO.C,C73*
X59325000Y-302400000D03*
X60675000Y-302400000D03*
G04 #@! TD*
D14*
G04 #@! TO.C,U52*
X75600000Y-88600000D03*
D15*
X75600000Y-87000000D03*
X75600000Y-85400000D03*
X70400000Y-85400000D03*
X70400000Y-87000000D03*
X70400000Y-88600000D03*
G04 #@! TD*
D10*
G04 #@! TO.C,HS32*
X298950000Y-179050000D03*
D11*
X298950000Y-180950000D03*
X301050000Y-180000000D03*
G04 #@! TD*
D35*
G04 #@! TO.C,R3*
X71100000Y-26650000D03*
X71100000Y-28349999D03*
G04 #@! TD*
D17*
G04 #@! TO.C,U43*
X230400000Y-125400000D03*
D15*
X230400000Y-127000000D03*
X230400000Y-128600000D03*
X235600000Y-128600000D03*
X235600000Y-127000000D03*
X235600000Y-125400000D03*
G04 #@! TD*
D13*
G04 #@! TO.C,TP7*
X113000000Y-356000000D03*
G04 #@! TD*
D16*
G04 #@! TO.C,C60*
X193675000Y-51000000D03*
X192325000Y-51000000D03*
G04 #@! TD*
D13*
G04 #@! TO.C,TP3*
X72500000Y-338730000D03*
G04 #@! TD*
D16*
G04 #@! TO.C,C42*
X113675000Y-131000000D03*
X112325000Y-131000000D03*
G04 #@! TD*
G04 #@! TO.C,C15*
X313675000Y-291000000D03*
X312325000Y-291000000D03*
G04 #@! TD*
D12*
G04 #@! TO.C,C111*
X139325000Y-102400000D03*
X140675000Y-102400000D03*
G04 #@! TD*
D17*
G04 #@! TO.C,U25*
X150400000Y-205400000D03*
D15*
X150400000Y-207000000D03*
X150400000Y-208600000D03*
X155600000Y-208600000D03*
X155600000Y-207000000D03*
X155600000Y-205400000D03*
G04 #@! TD*
D22*
G04 #@! TO.C,H19*
X208000000Y-350000000D03*
G04 #@! TD*
D14*
G04 #@! TO.C,U17*
X195600000Y-248600000D03*
D15*
X195600000Y-247000000D03*
X195600000Y-245400000D03*
X190400000Y-245400000D03*
X190400000Y-247000000D03*
X190400000Y-248600000D03*
G04 #@! TD*
D12*
G04 #@! TO.C,C71*
X32325000Y-3000000D03*
X33675000Y-3000000D03*
G04 #@! TD*
D14*
G04 #@! TO.C,U64*
X235600000Y-8599999D03*
D15*
X235600000Y-7000000D03*
X235600000Y-5400000D03*
X230400000Y-5400000D03*
X230400000Y-7000000D03*
X230400000Y-8599999D03*
G04 #@! TD*
D22*
G04 #@! TO.C,H17*
X16000000Y-350000000D03*
G04 #@! TD*
D10*
G04 #@! TO.C,HS35*
X98950000Y-139050000D03*
D11*
X98950000Y-140950000D03*
X101050000Y-140000000D03*
G04 #@! TD*
D19*
G04 #@! TO.C,R8*
X76150000Y-24199999D03*
X77850000Y-24199999D03*
G04 #@! TD*
D12*
G04 #@! TO.C,C116*
X19324999Y-22400000D03*
X20675000Y-22400000D03*
G04 #@! TD*
D13*
G04 #@! TO.C,TP5*
X141000000Y-325000000D03*
G04 #@! TD*
D10*
G04 #@! TO.C,HS22*
X218950000Y-259050000D03*
D11*
X218950000Y-260950000D03*
X221050000Y-260000000D03*
G04 #@! TD*
D12*
G04 #@! TO.C,C102*
X259325000Y-182400000D03*
X260675000Y-182400000D03*
G04 #@! TD*
G04 #@! TO.C,C113*
X59325000Y-62400000D03*
X60675000Y-62400000D03*
G04 #@! TD*
D20*
G04 #@! TO.C,U2*
X235350000Y-273555000D03*
D21*
X235350000Y-274825000D03*
X235350000Y-276095000D03*
X235350000Y-277365000D03*
X235350000Y-278634999D03*
X235350000Y-279904999D03*
X235350000Y-281175000D03*
X235350000Y-282445000D03*
X244650000Y-282445000D03*
X244650000Y-281175000D03*
X244650000Y-279904999D03*
X244650000Y-278634999D03*
X244650000Y-277365000D03*
X244650000Y-276095000D03*
X244650000Y-274825000D03*
X244650000Y-273555000D03*
G04 #@! TD*
D22*
G04 #@! TO.C,H5*
X40000000Y-200000000D03*
G04 #@! TD*
G04 #@! TO.C,H8*
X280000000Y-200000000D03*
G04 #@! TD*
D36*
G04 #@! TO.C,U74*
X67099999Y-26800000D03*
D37*
X67099999Y-27275000D03*
X67099999Y-27724999D03*
D38*
X67099999Y-28199999D03*
D39*
X67750000Y-27500000D03*
X68250000Y-27500000D03*
D40*
X68900000Y-28199999D03*
D37*
X68900000Y-27724999D03*
X68900000Y-27275000D03*
D41*
X68900000Y-26800000D03*
G04 #@! TD*
D10*
G04 #@! TO.C,HS3*
X98950000Y-299050000D03*
D11*
X98950000Y-300950000D03*
X101050000Y-300000000D03*
G04 #@! TD*
D10*
G04 #@! TO.C,HS29*
X178950000Y-179050000D03*
D11*
X178950000Y-180950000D03*
X181050000Y-180000000D03*
G04 #@! TD*
D14*
G04 #@! TO.C,U15*
X275600000Y-248600000D03*
D15*
X275600000Y-247000000D03*
X275600000Y-245400000D03*
X270400000Y-245400000D03*
X270400000Y-247000000D03*
X270400000Y-248600000D03*
G04 #@! TD*
D17*
G04 #@! TO.C,U41*
X150400000Y-125400000D03*
D15*
X150400000Y-127000000D03*
X150400000Y-128600000D03*
X155600000Y-128600000D03*
X155600000Y-127000000D03*
X155600000Y-125400000D03*
G04 #@! TD*
D12*
G04 #@! TO.C,C99*
X299325000Y-222400000D03*
X300675000Y-222400000D03*
G04 #@! TD*
D10*
G04 #@! TO.C,HS17*
X178950000Y-299050000D03*
D11*
X178950000Y-300950000D03*
X181050000Y-300000000D03*
G04 #@! TD*
D16*
G04 #@! TO.C,C28*
X193675000Y-211000000D03*
X192325000Y-211000000D03*
G04 #@! TD*
D12*
G04 #@! TO.C,C16*
X312325000Y-243000000D03*
X313675000Y-243000000D03*
G04 #@! TD*
D10*
G04 #@! TO.C,HS52*
X298950000Y-139050000D03*
D11*
X298950000Y-140950000D03*
X301050000Y-140000000D03*
G04 #@! TD*
D12*
G04 #@! TO.C,C38*
X72325000Y-163000000D03*
X73675000Y-163000000D03*
G04 #@! TD*
D10*
G04 #@! TO.C,HS10*
X58950000Y-219050000D03*
D11*
X58950000Y-220950000D03*
X61050000Y-220000000D03*
G04 #@! TD*
D12*
G04 #@! TO.C,C92*
X179325000Y-262399999D03*
X180675000Y-262399999D03*
G04 #@! TD*
G04 #@! TO.C,C105*
X59325000Y-142400000D03*
X60675000Y-142400000D03*
G04 #@! TD*
D14*
G04 #@! TO.C,U62*
X315600000Y-8599999D03*
D15*
X315600000Y-7000000D03*
X315600000Y-5400000D03*
X310400000Y-5400000D03*
X310400000Y-7000000D03*
X310400000Y-8599999D03*
G04 #@! TD*
D12*
G04 #@! TO.C,C18*
X232325000Y-243000000D03*
X233675000Y-243000000D03*
G04 #@! TD*
D17*
G04 #@! TO.C,U22*
X30400001Y-205400000D03*
D15*
X30400001Y-207000000D03*
X30400001Y-208600000D03*
X35600000Y-208600000D03*
X35600000Y-207000000D03*
X35600000Y-205400000D03*
G04 #@! TD*
D10*
G04 #@! TO.C,HS28*
X298950000Y-219050000D03*
D11*
X298950000Y-220950000D03*
X301050000Y-220000000D03*
G04 #@! TD*
D12*
G04 #@! TO.C,C35*
X192325000Y-163000000D03*
X193675000Y-163000000D03*
G04 #@! TD*
D19*
G04 #@! TO.C,R16*
X99150000Y-352800000D03*
X100850000Y-352800000D03*
G04 #@! TD*
D12*
G04 #@! TO.C,C118*
X99325000Y-22400000D03*
X100675000Y-22400000D03*
G04 #@! TD*
G04 #@! TO.C,C132*
X179325000Y-22400000D03*
X180675000Y-22400000D03*
G04 #@! TD*
D16*
G04 #@! TO.C,C12*
X193675000Y-291000000D03*
X192325000Y-291000000D03*
G04 #@! TD*
D14*
G04 #@! TO.C,U30*
X315600000Y-168600000D03*
D15*
X315600000Y-167000000D03*
X315600000Y-165400000D03*
X310400000Y-165400000D03*
X310400000Y-167000000D03*
X310400000Y-168600000D03*
G04 #@! TD*
D13*
G04 #@! TO.C,TP4*
X77000000Y-342500000D03*
G04 #@! TD*
D22*
G04 #@! TO.C,H12*
X280000000Y-120000000D03*
G04 #@! TD*
D14*
G04 #@! TO.C,U31*
X275600000Y-168600000D03*
D15*
X275600000Y-167000000D03*
X275600000Y-165400000D03*
X270400000Y-165400000D03*
X270400000Y-167000000D03*
X270400000Y-168600000D03*
G04 #@! TD*
D42*
G04 #@! TO.C,D1*
X55730001Y-24599999D03*
X51270000Y-24599999D03*
G04 #@! TD*
D10*
G04 #@! TO.C,HS56*
X298950000Y-99050000D03*
D11*
X298950000Y-100950000D03*
X301050000Y-100000000D03*
G04 #@! TD*
D19*
G04 #@! TO.C,R14*
X109150000Y-339000000D03*
X110850000Y-339000000D03*
G04 #@! TD*
D10*
G04 #@! TO.C,HS48*
X138950000Y-19050000D03*
D11*
X138950000Y-20949999D03*
X141050000Y-20000000D03*
G04 #@! TD*
D13*
G04 #@! TO.C,TP2*
X120000000Y-325000000D03*
G04 #@! TD*
D12*
G04 #@! TO.C,C80*
X19324999Y-222400000D03*
X20675000Y-222400000D03*
G04 #@! TD*
G04 #@! TO.C,C124*
X179325000Y-102400000D03*
X180675000Y-102400000D03*
G04 #@! TD*
D23*
G04 #@! TO.C,SW2*
X40750000Y-359750000D03*
D24*
X47250000Y-359750000D03*
X47250000Y-364250000D03*
X40750000Y-364250000D03*
G04 #@! TD*
D10*
G04 #@! TO.C,HS2*
X58950000Y-299050000D03*
D11*
X58950000Y-300950000D03*
X61050000Y-300000000D03*
G04 #@! TD*
D10*
G04 #@! TO.C,HS30*
X218950000Y-179050000D03*
D11*
X218950000Y-180950000D03*
X221050000Y-180000000D03*
G04 #@! TD*
D12*
G04 #@! TO.C,C98*
X259325000Y-222400000D03*
X260675000Y-222400000D03*
G04 #@! TD*
D10*
G04 #@! TO.C,HS57*
X178950000Y-59050000D03*
D11*
X178950000Y-60949999D03*
X181050000Y-60000000D03*
G04 #@! TD*
D12*
G04 #@! TO.C,C67*
X192325000Y-3000000D03*
X193675000Y-3000000D03*
G04 #@! TD*
D17*
G04 #@! TO.C,U7*
X70400000Y-285400000D03*
D15*
X70400000Y-287000000D03*
X70400000Y-288600000D03*
X75600000Y-288600000D03*
X75600000Y-287000000D03*
X75600000Y-285400000D03*
G04 #@! TD*
D12*
G04 #@! TO.C,C128*
X179325000Y-62400000D03*
X180675000Y-62400000D03*
G04 #@! TD*
D22*
G04 #@! TO.C,H3*
X200000000Y-280000000D03*
G04 #@! TD*
D16*
G04 #@! TO.C,C14*
X273675000Y-291000000D03*
X272325000Y-291000000D03*
G04 #@! TD*
D10*
G04 #@! TO.C,HS44*
X138950000Y-59050000D03*
D11*
X138950000Y-60949999D03*
X141050000Y-60000000D03*
G04 #@! TD*
D19*
G04 #@! TO.C,R11*
X26500000Y-168600000D03*
X28199999Y-168600000D03*
G04 #@! TD*
D10*
G04 #@! TO.C,HS42*
X58950000Y-59050000D03*
D11*
X58950000Y-60949999D03*
X61050000Y-60000000D03*
G04 #@! TD*
D12*
G04 #@! TO.C,C86*
X99325000Y-182400000D03*
X100675000Y-182400000D03*
G04 #@! TD*
D16*
G04 #@! TO.C,C43*
X153675000Y-131000000D03*
X152325000Y-131000000D03*
G04 #@! TD*
D12*
G04 #@! TO.C,C100*
X179325000Y-182400000D03*
X180675000Y-182400000D03*
G04 #@! TD*
G04 #@! TO.C,C52*
X152325000Y-83000000D03*
X153675000Y-83000000D03*
G04 #@! TD*
D16*
G04 #@! TO.C,C30*
X273675000Y-211000000D03*
X272325000Y-211000000D03*
G04 #@! TD*
D12*
G04 #@! TO.C,C104*
X19324999Y-142400000D03*
X20675000Y-142400000D03*
G04 #@! TD*
D43*
G04 #@! TO.C,J2*
X48500000Y-316562500D03*
D44*
X49500000Y-316562500D03*
X50500000Y-316562500D03*
X51500000Y-316562500D03*
D45*
X47200000Y-320437500D03*
X52800000Y-320437500D03*
G04 #@! TD*
D17*
G04 #@! TO.C,U26*
X190400000Y-205400000D03*
D15*
X190400000Y-207000000D03*
X190400000Y-208600000D03*
X195600000Y-208600000D03*
X195600000Y-207000000D03*
X195600000Y-205400000D03*
G04 #@! TD*
D19*
G04 #@! TO.C,R5*
X76150000Y-29400000D03*
X77850000Y-29400000D03*
G04 #@! TD*
D46*
G04 #@! TO.C,C141*
X65599999Y-23774998D03*
X65599999Y-22424999D03*
G04 #@! TD*
D16*
G04 #@! TO.C,C137*
X244175000Y-111700000D03*
X242825000Y-111700000D03*
G04 #@! TD*
D10*
G04 #@! TO.C,HS54*
X218950000Y-99050000D03*
D11*
X218950000Y-100950000D03*
X221050000Y-100000000D03*
G04 #@! TD*
D23*
G04 #@! TO.C,SW5*
X72750000Y-359750000D03*
D24*
X79250000Y-359750000D03*
X79250000Y-364250000D03*
X72750000Y-364250000D03*
G04 #@! TD*
D20*
G04 #@! TO.C,U1*
X75350000Y-273555000D03*
D21*
X75350000Y-274825000D03*
X75350000Y-276095000D03*
X75350000Y-277365000D03*
X75350000Y-278634999D03*
X75350000Y-279904999D03*
X75350000Y-281175000D03*
X75350000Y-282445000D03*
X84650000Y-282445000D03*
X84650000Y-281175000D03*
X84650000Y-279904999D03*
X84650000Y-278634999D03*
X84650000Y-277365000D03*
X84650000Y-276095000D03*
X84650000Y-274825000D03*
X84650000Y-273555000D03*
G04 #@! TD*
D12*
G04 #@! TO.C,C135*
X299325000Y-22400000D03*
X300675000Y-22400000D03*
G04 #@! TD*
D17*
G04 #@! TO.C,U24*
X110400000Y-205400000D03*
D15*
X110400000Y-207000000D03*
X110400000Y-208600000D03*
X115600000Y-208600000D03*
X115600000Y-207000000D03*
X115600000Y-205400000D03*
G04 #@! TD*
D12*
G04 #@! TO.C,C83*
X139325000Y-222400000D03*
X140675000Y-222400000D03*
G04 #@! TD*
D10*
G04 #@! TO.C,HS64*
X298950000Y-19050000D03*
D11*
X298950000Y-20949999D03*
X301050000Y-20000000D03*
G04 #@! TD*
D47*
G04 #@! TO.C,C1*
X95750000Y-28000000D03*
D48*
X92250000Y-28000000D03*
G04 #@! TD*
D49*
G04 #@! TO.C,J4*
X49060001Y-32000000D03*
D50*
X53019999Y-32000000D03*
X56980000Y-32000000D03*
X60939999Y-32000000D03*
G04 #@! TD*
D51*
G04 #@! TO.C,J1*
X307130000Y-233730000D03*
D52*
X307130000Y-236270000D03*
X304590000Y-233730000D03*
X304590000Y-236270000D03*
X302049999Y-233730000D03*
X302049999Y-236270000D03*
X299509999Y-233730000D03*
X299509999Y-236270000D03*
X296969999Y-233730000D03*
X296969999Y-236270000D03*
X294430000Y-233730000D03*
X294430000Y-236270000D03*
X291889999Y-233730000D03*
X291889999Y-236270000D03*
X289349999Y-233730000D03*
X289349999Y-236270000D03*
X286809999Y-233730000D03*
X286809999Y-236270000D03*
X284269999Y-233730000D03*
X284269999Y-236270000D03*
X281730002Y-233730000D03*
X281730002Y-236270000D03*
X279190000Y-233730000D03*
X279190000Y-236270000D03*
X276650000Y-233730000D03*
X276650000Y-236270000D03*
X274110000Y-233730000D03*
X274110000Y-236270000D03*
X271570000Y-233730000D03*
X271570000Y-236270000D03*
X269030000Y-233730000D03*
X269030000Y-236270000D03*
X266490000Y-233730000D03*
X266490000Y-236270000D03*
X263950000Y-233730000D03*
X263950000Y-236270000D03*
X261410000Y-233730000D03*
X261410000Y-236270000D03*
X258870000Y-233730000D03*
X258870000Y-236270000D03*
G04 #@! TD*
D47*
G04 #@! TO.C,C140*
X105750000Y-28000000D03*
D48*
X102250000Y-28000000D03*
G04 #@! TD*
M02*
