%TF.GenerationSoftware,KiCad,Pcbnew,9.0.9-9.0.9~ubuntu24.04.1*%
%TF.CreationDate,2026-08-31T12:55:56+00:00*%
%TF.ProjectId,chess-board,63686573-732d-4626-9f61-72642e6b6963,rev?*%
%TF.SameCoordinates,Original*%
%TF.FileFunction,Paste,Top*%
%TF.FilePolarity,Positive*%
%FSLAX46Y46*%
G04 Gerber Fmt 4.6, Leading zero omitted, Abs format (unit mm)*
G04 Created by KiCad (PCBNEW 9.0.9-9.0.9~ubuntu24.04.1) date 2026-08-31 12:55:56*
%MOMM*%
%LPD*%
G01*
G04 APERTURE LIST*
%ADD10R,1.000000X1.500000*%
%ADD11R,1.500000X1.000000*%
G04 APERTURE END LIST*
D10*
%TO.C,U8*%
X153000000Y-344500000D03*
X153000000Y-349500000D03*
D11*
X150500000Y-346200000D03*
X150500000Y-347800000D03*
X155500000Y-346200000D03*
X155500000Y-347800000D03*
%TD*%
D10*
%TO.C,U26*%
X233000000Y-264500000D03*
X233000000Y-269500000D03*
D11*
X230500000Y-266200000D03*
X230500000Y-267800000D03*
X235500000Y-266200000D03*
X235500000Y-267800000D03*
%TD*%
D10*
%TO.C,U27*%
X273000000Y-264500000D03*
X273000000Y-269500000D03*
D11*
X270500000Y-266200000D03*
X270500000Y-267800000D03*
X275500000Y-266200000D03*
X275500000Y-267800000D03*
%TD*%
D10*
%TO.C,U59*%
X273000000Y-104500000D03*
X273000000Y-109500000D03*
D11*
X270500000Y-106200000D03*
X270500000Y-107800000D03*
X275500000Y-106200000D03*
X275500000Y-107800000D03*
%TD*%
D10*
%TO.C,U31*%
X313000000Y-229500000D03*
X313000000Y-224500000D03*
D11*
X315500000Y-227800000D03*
X315500000Y-226200000D03*
X310500000Y-227800000D03*
X310500000Y-226200000D03*
%TD*%
D10*
%TO.C,U14*%
X353000000Y-309500000D03*
X353000000Y-304500000D03*
D11*
X355500000Y-307800000D03*
X355500000Y-306200000D03*
X350500000Y-307800000D03*
X350500000Y-306200000D03*
%TD*%
D10*
%TO.C,U29*%
X353000000Y-264500000D03*
X353000000Y-269500000D03*
D11*
X350500000Y-266200000D03*
X350500000Y-267800000D03*
X355500000Y-266200000D03*
X355500000Y-267800000D03*
%TD*%
D10*
%TO.C,U60*%
X313000000Y-104500000D03*
X313000000Y-109500000D03*
D11*
X310500000Y-106200000D03*
X310500000Y-107800000D03*
X315500000Y-106200000D03*
X315500000Y-107800000D03*
%TD*%
D10*
%TO.C,U56*%
X153000000Y-104500000D03*
X153000000Y-109500000D03*
D11*
X150500000Y-106200000D03*
X150500000Y-107800000D03*
X155500000Y-106200000D03*
X155500000Y-107800000D03*
%TD*%
D10*
%TO.C,U30*%
X353000000Y-229500000D03*
X353000000Y-224500000D03*
D11*
X355500000Y-227800000D03*
X355500000Y-226200000D03*
X350500000Y-227800000D03*
X350500000Y-226200000D03*
%TD*%
D10*
%TO.C,U46*%
X353000000Y-149500000D03*
X353000000Y-144500000D03*
D11*
X355500000Y-147800000D03*
X355500000Y-146200000D03*
X350500000Y-147800000D03*
X350500000Y-146200000D03*
%TD*%
D10*
%TO.C,U15*%
X313000000Y-309500000D03*
X313000000Y-304500000D03*
D11*
X315500000Y-307800000D03*
X315500000Y-306200000D03*
X310500000Y-307800000D03*
X310500000Y-306200000D03*
%TD*%
D10*
%TO.C,U19*%
X153000000Y-309500000D03*
X153000000Y-304500000D03*
D11*
X155500000Y-307800000D03*
X155500000Y-306200000D03*
X150500000Y-307800000D03*
X150500000Y-306200000D03*
%TD*%
D10*
%TO.C,U44*%
X313000000Y-184500000D03*
X313000000Y-189500000D03*
D11*
X310500000Y-186200000D03*
X310500000Y-187800000D03*
X315500000Y-186200000D03*
X315500000Y-187800000D03*
%TD*%
D10*
%TO.C,U54*%
X73000000Y-104500000D03*
X73000000Y-109500000D03*
D11*
X70500000Y-106200000D03*
X70500000Y-107800000D03*
X75500000Y-106200000D03*
X75500000Y-107800000D03*
%TD*%
D10*
%TO.C,U34*%
X193000000Y-229500000D03*
X193000000Y-224500000D03*
D11*
X195500000Y-227800000D03*
X195500000Y-226200000D03*
X190500000Y-227800000D03*
X190500000Y-226200000D03*
%TD*%
D10*
%TO.C,U69*%
X73000000Y-69500000D03*
X73000000Y-64500000D03*
D11*
X75500000Y-67800000D03*
X75500000Y-66199999D03*
X70500000Y-67800000D03*
X70500000Y-66199999D03*
%TD*%
D10*
%TO.C,U40*%
X153000000Y-184500000D03*
X153000000Y-189500000D03*
D11*
X150500000Y-186200000D03*
X150500000Y-187800000D03*
X155500000Y-186200000D03*
X155500000Y-187800000D03*
%TD*%
D10*
%TO.C,U22*%
X73000000Y-264500000D03*
X73000000Y-269500000D03*
D11*
X70500000Y-266200000D03*
X70500000Y-267800000D03*
X75500000Y-266200000D03*
X75500000Y-267800000D03*
%TD*%
D10*
%TO.C,U43*%
X273000000Y-184500000D03*
X273000000Y-189500000D03*
D11*
X270500000Y-186200000D03*
X270500000Y-187800000D03*
X275500000Y-186200000D03*
X275500000Y-187800000D03*
%TD*%
D10*
%TO.C,U21*%
X73000000Y-309500000D03*
X73000000Y-304500000D03*
D11*
X75500000Y-307800000D03*
X75500000Y-306200000D03*
X70500000Y-307800000D03*
X70500000Y-306200000D03*
%TD*%
D10*
%TO.C,U38*%
X73000000Y-184500000D03*
X73000000Y-189500000D03*
D11*
X70500000Y-186200000D03*
X70500000Y-187800000D03*
X75500000Y-186200000D03*
X75500000Y-187800000D03*
%TD*%
D10*
%TO.C,U17*%
X233000000Y-309500000D03*
X233000000Y-304500000D03*
D11*
X235500000Y-307800000D03*
X235500000Y-306200000D03*
X230500000Y-307800000D03*
X230500000Y-306200000D03*
%TD*%
D10*
%TO.C,U65*%
X233000000Y-69500000D03*
X233000000Y-64500000D03*
D11*
X235500000Y-67800000D03*
X235500000Y-66199999D03*
X230500000Y-67800000D03*
X230500000Y-66199999D03*
%TD*%
D10*
%TO.C,U10*%
X233000000Y-344500000D03*
X233000000Y-349500000D03*
D11*
X230500000Y-346200000D03*
X230500000Y-347800000D03*
X235500000Y-346200000D03*
X235500000Y-347800000D03*
%TD*%
D10*
%TO.C,U11*%
X273000000Y-344500000D03*
X273000000Y-349500000D03*
D11*
X270500000Y-346200000D03*
X270500000Y-347800000D03*
X275500000Y-346200000D03*
X275500000Y-347800000D03*
%TD*%
D10*
%TO.C,U28*%
X313000000Y-264500000D03*
X313000000Y-269500000D03*
D11*
X310500000Y-266200000D03*
X310500000Y-267800000D03*
X315500000Y-266200000D03*
X315500000Y-267800000D03*
%TD*%
D10*
%TO.C,U49*%
X233000000Y-149500000D03*
X233000000Y-144500000D03*
D11*
X235500000Y-147800000D03*
X235500000Y-146200000D03*
X230500000Y-147800000D03*
X230500000Y-146200000D03*
%TD*%
D10*
%TO.C,U7*%
X113000000Y-344500000D03*
X113000000Y-349500000D03*
D11*
X110500000Y-346200000D03*
X110500000Y-347800000D03*
X115500000Y-346200000D03*
X115500000Y-347800000D03*
%TD*%
D10*
%TO.C,U64*%
X273000000Y-69500000D03*
X273000000Y-64500000D03*
D11*
X275500000Y-67800000D03*
X275500000Y-66199999D03*
X270500000Y-67800000D03*
X270500000Y-66199999D03*
%TD*%
D10*
%TO.C,U42*%
X233000000Y-184500000D03*
X233000000Y-189500000D03*
D11*
X230500000Y-186200000D03*
X230500000Y-187800000D03*
X235500000Y-186200000D03*
X235500000Y-187800000D03*
%TD*%
D10*
%TO.C,U16*%
X273000000Y-309500000D03*
X273000000Y-304500000D03*
D11*
X275500000Y-307800000D03*
X275500000Y-306200000D03*
X270500000Y-307800000D03*
X270500000Y-306200000D03*
%TD*%
D10*
%TO.C,U47*%
X313000000Y-149500000D03*
X313000000Y-144500000D03*
D11*
X315500000Y-147800000D03*
X315500000Y-146200000D03*
X310500000Y-147800000D03*
X310500000Y-146200000D03*
%TD*%
D10*
%TO.C,U6*%
X73000000Y-344500000D03*
X73000000Y-349500000D03*
D11*
X70500000Y-346200000D03*
X70500000Y-347800000D03*
X75500000Y-346200000D03*
X75500000Y-347800000D03*
%TD*%
D10*
%TO.C,U51*%
X153000000Y-149500000D03*
X153000000Y-144500000D03*
D11*
X155500000Y-147800000D03*
X155500000Y-146200000D03*
X150500000Y-147800000D03*
X150500000Y-146200000D03*
%TD*%
D10*
%TO.C,U53*%
X73000000Y-149500000D03*
X73000000Y-144500000D03*
D11*
X75500000Y-147800000D03*
X75500000Y-146200000D03*
X70500000Y-147800000D03*
X70500000Y-146200000D03*
%TD*%
D10*
%TO.C,U39*%
X113000000Y-184500000D03*
X113000000Y-189500000D03*
D11*
X110500000Y-186200000D03*
X110500000Y-187800000D03*
X115500000Y-186200000D03*
X115500000Y-187800000D03*
%TD*%
D10*
%TO.C,U32*%
X273000000Y-229500000D03*
X273000000Y-224500000D03*
D11*
X275500000Y-227800000D03*
X275500000Y-226200000D03*
X270500000Y-227800000D03*
X270500000Y-226200000D03*
%TD*%
D10*
%TO.C,U20*%
X113000000Y-309500000D03*
X113000000Y-304500000D03*
D11*
X115500000Y-307800000D03*
X115500000Y-306200000D03*
X110500000Y-307800000D03*
X110500000Y-306200000D03*
%TD*%
D10*
%TO.C,U9*%
X193000000Y-344500000D03*
X193000000Y-349500000D03*
D11*
X190500000Y-346200000D03*
X190500000Y-347800000D03*
X195500000Y-346200000D03*
X195500000Y-347800000D03*
%TD*%
D10*
%TO.C,U52*%
X113000000Y-149500000D03*
X113000000Y-144500000D03*
D11*
X115500000Y-147800000D03*
X115500000Y-146200000D03*
X110500000Y-147800000D03*
X110500000Y-146200000D03*
%TD*%
D10*
%TO.C,U25*%
X193000000Y-264500000D03*
X193000000Y-269500000D03*
D11*
X190500000Y-266200000D03*
X190500000Y-267800000D03*
X195500000Y-266200000D03*
X195500000Y-267800000D03*
%TD*%
D10*
%TO.C,U35*%
X153000000Y-229500000D03*
X153000000Y-224500000D03*
D11*
X155500000Y-227800000D03*
X155500000Y-226200000D03*
X150500000Y-227800000D03*
X150500000Y-226200000D03*
%TD*%
D10*
%TO.C,U67*%
X153000000Y-69500000D03*
X153000000Y-64500000D03*
D11*
X155500000Y-67800000D03*
X155500000Y-66199999D03*
X150500000Y-67800000D03*
X150500000Y-66199999D03*
%TD*%
D10*
%TO.C,U18*%
X193000000Y-309500000D03*
X193000000Y-304500000D03*
D11*
X195500000Y-307800000D03*
X195500000Y-306200000D03*
X190500000Y-307800000D03*
X190500000Y-306200000D03*
%TD*%
D10*
%TO.C,U50*%
X193000000Y-149500000D03*
X193000000Y-144500000D03*
D11*
X195500000Y-147800000D03*
X195500000Y-146200000D03*
X190500000Y-147800000D03*
X190500000Y-146200000D03*
%TD*%
D10*
%TO.C,U36*%
X113000000Y-229500000D03*
X113000000Y-224500000D03*
D11*
X115500000Y-227800000D03*
X115500000Y-226200000D03*
X110500000Y-227800000D03*
X110500000Y-226200000D03*
%TD*%
D10*
%TO.C,U24*%
X153000000Y-264500000D03*
X153000000Y-269500000D03*
D11*
X150500000Y-266200000D03*
X150500000Y-267800000D03*
X155500000Y-266200000D03*
X155500000Y-267800000D03*
%TD*%
D10*
%TO.C,U48*%
X273000000Y-149500000D03*
X273000000Y-144500000D03*
D11*
X275500000Y-147800000D03*
X275500000Y-146200000D03*
X270500000Y-147800000D03*
X270500000Y-146200000D03*
%TD*%
D10*
%TO.C,U63*%
X313000000Y-69500000D03*
X313000000Y-64500000D03*
D11*
X315500000Y-67800000D03*
X315500000Y-66199999D03*
X310500000Y-67800000D03*
X310500000Y-66199999D03*
%TD*%
D10*
%TO.C,U23*%
X113000000Y-264500000D03*
X113000000Y-269500000D03*
D11*
X110500000Y-266200000D03*
X110500000Y-267800000D03*
X115500000Y-266200000D03*
X115500000Y-267800000D03*
%TD*%
D10*
%TO.C,U45*%
X353000000Y-184500000D03*
X353000000Y-189500000D03*
D11*
X350500000Y-186200000D03*
X350500000Y-187800000D03*
X355500000Y-186200000D03*
X355500000Y-187800000D03*
%TD*%
D10*
%TO.C,U55*%
X113000000Y-104500000D03*
X113000000Y-109500000D03*
D11*
X110500000Y-106200000D03*
X110500000Y-107800000D03*
X115500000Y-106200000D03*
X115500000Y-107800000D03*
%TD*%
D10*
%TO.C,U41*%
X193000000Y-184500000D03*
X193000000Y-189500000D03*
D11*
X190500000Y-186200000D03*
X190500000Y-187800000D03*
X195500000Y-186200000D03*
X195500000Y-187800000D03*
%TD*%
D10*
%TO.C,U68*%
X113000000Y-69500000D03*
X113000000Y-64500000D03*
D11*
X115500000Y-67800000D03*
X115500000Y-66199999D03*
X110500000Y-67800000D03*
X110500000Y-66199999D03*
%TD*%
D10*
%TO.C,U66*%
X193000000Y-69500000D03*
X193000000Y-64500000D03*
D11*
X195500000Y-67800000D03*
X195500000Y-66199999D03*
X190500000Y-67800000D03*
X190500000Y-66199999D03*
%TD*%
D10*
%TO.C,U12*%
X313000000Y-344500000D03*
X313000000Y-349500000D03*
D11*
X310500000Y-346200000D03*
X310500000Y-347800000D03*
X315500000Y-346200000D03*
X315500000Y-347800000D03*
%TD*%
D10*
%TO.C,U58*%
X233000000Y-104500000D03*
X233000000Y-109500000D03*
D11*
X230500000Y-106200000D03*
X230500000Y-107800000D03*
X235500000Y-106200000D03*
X235500000Y-107800000D03*
%TD*%
D10*
%TO.C,U57*%
X193000000Y-104500000D03*
X193000000Y-109500000D03*
D11*
X190500000Y-106200000D03*
X190500000Y-107800000D03*
X195500000Y-106200000D03*
X195500000Y-107800000D03*
%TD*%
D10*
%TO.C,U37*%
X73000000Y-229500000D03*
X73000000Y-224500000D03*
D11*
X75500000Y-227800000D03*
X75500000Y-226200000D03*
X70500000Y-227800000D03*
X70500000Y-226200000D03*
%TD*%
D10*
%TO.C,U61*%
X353000000Y-104500000D03*
X353000000Y-109500000D03*
D11*
X350500000Y-106200000D03*
X350500000Y-107800000D03*
X355500000Y-106200000D03*
X355500000Y-107800000D03*
%TD*%
D10*
%TO.C,U13*%
X353000000Y-344500000D03*
X353000000Y-349500000D03*
D11*
X350500000Y-346200000D03*
X350500000Y-347800000D03*
X355500000Y-346200000D03*
X355500000Y-347800000D03*
%TD*%
D10*
%TO.C,U62*%
X353000000Y-69500000D03*
X353000000Y-64500000D03*
D11*
X355500000Y-67800000D03*
X355500000Y-66199999D03*
X350500000Y-67800000D03*
X350500000Y-66199999D03*
%TD*%
D10*
%TO.C,U33*%
X233000000Y-229500000D03*
X233000000Y-224500000D03*
D11*
X235500000Y-227800000D03*
X235500000Y-226200000D03*
X230500000Y-227800000D03*
X230500000Y-226200000D03*
%TD*%
M02*
