%TF.GenerationSoftware,KiCad,Pcbnew,9.0.9-9.0.9~ubuntu24.04.1*%
%TF.CreationDate,2026-08-31T13:00:59+00:00*%
%TF.ProjectId,chess-board,63686573-732d-4626-9f61-72642e6b6963,rev?*%
%TF.SameCoordinates,Original*%
%TF.FileFunction,Copper,L4,Bot*%
%TF.FilePolarity,Positive*%
%FSLAX46Y46*%
G04 Gerber Fmt 4.6, Leading zero omitted, Abs format (unit mm)*
G04 Created by KiCad (PCBNEW 9.0.9-9.0.9~ubuntu24.04.1) date 2026-08-31 13:00:59*
%MOMM*%
%LPD*%
G01*
G04 APERTURE LIST*
%TA.AperFunction,ComponentPad*%
%ADD10R,1.600000X1.600000*%
%TD*%
%TA.AperFunction,ComponentPad*%
%ADD11C,1.600000*%
%TD*%
%TA.AperFunction,ComponentPad*%
%ADD12R,1.800000X1.800000*%
%TD*%
%TA.AperFunction,ComponentPad*%
%ADD13C,1.800000*%
%TD*%
%TA.AperFunction,ComponentPad*%
%ADD14R,1.900000X1.900000*%
%TD*%
%TA.AperFunction,ComponentPad*%
%ADD15C,1.900000*%
%TD*%
%TA.AperFunction,ComponentPad*%
%ADD16R,1.700000X1.700000*%
%TD*%
%TA.AperFunction,ComponentPad*%
%ADD17C,1.700000*%
%TD*%
%TA.AperFunction,ComponentPad*%
%ADD18R,2.600000X2.600000*%
%TD*%
%TA.AperFunction,ComponentPad*%
%ADD19C,2.600000*%
%TD*%
%TA.AperFunction,ComponentPad*%
%ADD20R,2.100000X2.100000*%
%TD*%
%TA.AperFunction,ComponentPad*%
%ADD21C,2.100000*%
%TD*%
%TA.AperFunction,ComponentPad*%
%ADD22R,1.740000X1.740000*%
%TD*%
%TA.AperFunction,ComponentPad*%
%ADD23C,1.740000*%
%TD*%
%TA.AperFunction,ComponentPad*%
%ADD24R,2.300000X2.300000*%
%TD*%
%TA.AperFunction,ComponentPad*%
%ADD25C,2.300000*%
%TD*%
%TA.AperFunction,ViaPad*%
%ADD26C,0.900000*%
%TD*%
%TA.AperFunction,Conductor*%
%ADD27C,0.400000*%
%TD*%
G04 APERTURE END LIST*
D10*
%TO.P,C29,1*%
%TO.N,+5V*%
X271730000Y-275000000D03*
D11*
%TO.P,C29,2*%
%TO.N,GND*%
X274270000Y-275000000D03*
%TD*%
D10*
%TO.P,RS41,1*%
%TO.N,SQ_A7*%
X51110000Y-120000000D03*
D11*
%TO.P,RS41,2*%
%TO.N,GND*%
X68889999Y-120000000D03*
%TD*%
D10*
%TO.P,U2,1*%
%TO.N,SQ_E3*%
X290190000Y-283490000D03*
D11*
%TO.P,U2,2*%
%TO.N,SQ_F3*%
X290190000Y-286030000D03*
%TO.P,U2,3*%
%TO.N,SQ_G3*%
X290190000Y-288570000D03*
%TO.P,U2,4*%
%TO.N,SQ_H3*%
X290190000Y-291110000D03*
%TO.P,U2,5*%
%TO.N,SQ_E4*%
X290190000Y-293650000D03*
%TO.P,U2,6*%
%TO.N,SQ_F4*%
X290190000Y-296190000D03*
%TO.P,U2,7*%
%TO.N,SQ_G4*%
X290190000Y-298730000D03*
%TO.P,U2,8*%
%TO.N,SQ_H4*%
X290190000Y-301270000D03*
%TO.P,U2,9*%
%TO.N,+3V3*%
X290190000Y-303810000D03*
%TO.P,U2,10*%
%TO.N,GND*%
X290190000Y-306350000D03*
%TO.P,U2,11*%
%TO.N,N$139*%
X290190000Y-308890000D03*
%TO.P,U2,12*%
%TO.N,I2C_SCL*%
X290190000Y-311430000D03*
%TO.P,U2,13*%
%TO.N,I2C_SDA*%
X290190000Y-313970000D03*
%TO.P,U2,14*%
%TO.N,N$140*%
X290190000Y-316510000D03*
%TO.P,U2,15*%
%TO.N,+3V3*%
X297810000Y-316510000D03*
%TO.P,U2,16*%
%TO.N,GND*%
X297810000Y-313970000D03*
%TO.P,U2,17*%
X297810000Y-311430000D03*
%TO.P,U2,18*%
%TO.N,+3V3*%
X297810000Y-308890000D03*
%TO.P,U2,19*%
%TO.N,N$141*%
X297810000Y-306350000D03*
%TO.P,U2,20*%
%TO.N,SENSE_IRQ*%
X297810000Y-303810000D03*
%TO.P,U2,21*%
%TO.N,SQ_E1*%
X297810000Y-301270000D03*
%TO.P,U2,22*%
%TO.N,SQ_F1*%
X297810000Y-298730000D03*
%TO.P,U2,23*%
%TO.N,SQ_G1*%
X297810000Y-296190000D03*
%TO.P,U2,24*%
%TO.N,SQ_H1*%
X297810000Y-293650000D03*
%TO.P,U2,25*%
%TO.N,SQ_E2*%
X297810000Y-291110000D03*
%TO.P,U2,26*%
%TO.N,SQ_F2*%
X297810000Y-288570000D03*
%TO.P,U2,27*%
%TO.N,SQ_G2*%
X297810000Y-286030000D03*
%TO.P,U2,28*%
%TO.N,SQ_H2*%
X297810000Y-283490000D03*
%TD*%
D10*
%TO.P,RS9,1*%
%TO.N,SQ_A3*%
X51110000Y-280000000D03*
D11*
%TO.P,RS9,2*%
%TO.N,GND*%
X68889999Y-280000000D03*
%TD*%
D10*
%TO.P,C38,1*%
%TO.N,+5V*%
X111730000Y-235000000D03*
D11*
%TO.P,C38,2*%
%TO.N,GND*%
X114270000Y-235000000D03*
%TD*%
D10*
%TO.P,C63,1*%
%TO.N,+5V*%
X351730000Y-115000000D03*
D11*
%TO.P,C63,2*%
%TO.N,GND*%
X354270000Y-115000000D03*
%TD*%
D10*
%TO.P,C3,1*%
%TO.N,+3V3*%
X141730000Y-300000000D03*
D11*
%TO.P,C3,2*%
%TO.N,GND*%
X144270000Y-300000000D03*
%TD*%
D10*
%TO.P,C27,1*%
%TO.N,+5V*%
X191730000Y-275000000D03*
D11*
%TO.P,C27,2*%
%TO.N,GND*%
X194270000Y-275000000D03*
%TD*%
D10*
%TO.P,RS50,1*%
%TO.N,SQ_F5*%
X251110000Y-200000000D03*
D11*
%TO.P,RS50,2*%
%TO.N,GND*%
X268890000Y-200000000D03*
%TD*%
D10*
%TO.P,RS29,1*%
%TO.N,SQ_E4*%
X211110000Y-240000000D03*
D11*
%TO.P,RS29,2*%
%TO.N,GND*%
X228890000Y-240000000D03*
%TD*%
D10*
%TO.P,C32,1*%
%TO.N,+5V*%
X351730000Y-235000000D03*
D11*
%TO.P,C32,2*%
%TO.N,GND*%
X354270000Y-235000000D03*
%TD*%
D10*
%TO.P,RS31,1*%
%TO.N,SQ_G4*%
X291110000Y-240000000D03*
D11*
%TO.P,RS31,2*%
%TO.N,GND*%
X308890000Y-240000000D03*
%TD*%
D10*
%TO.P,RS42,1*%
%TO.N,SQ_B7*%
X91110000Y-120000000D03*
D11*
%TO.P,RS42,2*%
%TO.N,GND*%
X108890000Y-120000000D03*
%TD*%
D12*
%TO.P,SW10,1*%
%TO.N,BTN_F3*%
X244750000Y-405750000D03*
D13*
%TO.P,SW10,1b*%
X244750000Y-410250000D03*
%TO.P,SW10,2*%
%TO.N,GND*%
X251250000Y-405750000D03*
%TO.P,SW10,2b*%
X251250000Y-410250000D03*
%TD*%
D10*
%TO.P,RS37,1*%
%TO.N,SQ_A6*%
X51110000Y-160000000D03*
D11*
%TO.P,RS37,2*%
%TO.N,GND*%
X68889999Y-160000000D03*
%TD*%
D10*
%TO.P,C71,1*%
%TO.N,+5V*%
X71729999Y-75000000D03*
D11*
%TO.P,C71,2*%
%TO.N,GND*%
X74270000Y-75000000D03*
%TD*%
D10*
%TO.P,C46,1*%
%TO.N,+5V*%
X311730000Y-195000000D03*
D11*
%TO.P,C46,2*%
%TO.N,GND*%
X314270000Y-195000000D03*
%TD*%
D10*
%TO.P,RS56,1*%
%TO.N,SQ_H6*%
X331110000Y-160000000D03*
D11*
%TO.P,RS56,2*%
%TO.N,GND*%
X348890000Y-160000000D03*
%TD*%
D10*
%TO.P,RS36,1*%
%TO.N,SQ_D5*%
X171110000Y-200000000D03*
D11*
%TO.P,RS36,2*%
%TO.N,GND*%
X188890000Y-200000000D03*
%TD*%
D12*
%TO.P,SW8,1*%
%TO.N,BTN_F1*%
X212750000Y-405750000D03*
D13*
%TO.P,SW8,1b*%
X212750000Y-410250000D03*
%TO.P,SW8,2*%
%TO.N,GND*%
X219250000Y-405750000D03*
%TO.P,SW8,2b*%
X219250000Y-410250000D03*
%TD*%
D10*
%TO.P,RS32,1*%
%TO.N,SQ_H4*%
X331110000Y-240000000D03*
D11*
%TO.P,RS32,2*%
%TO.N,GND*%
X348890000Y-240000000D03*
%TD*%
D12*
%TO.P,SW2,1*%
%TO.N,BTN_DOWN*%
X212750000Y-389750000D03*
D13*
%TO.P,SW2,1b*%
X212750000Y-394250000D03*
%TO.P,SW2,2*%
%TO.N,GND*%
X219250000Y-389750000D03*
%TO.P,SW2,2b*%
X219250000Y-394250000D03*
%TD*%
D10*
%TO.P,RS13,1*%
%TO.N,SQ_A4*%
X51110000Y-240000000D03*
D11*
%TO.P,RS13,2*%
%TO.N,GND*%
X68889999Y-240000000D03*
%TD*%
D14*
%TO.P,D1,1*%
%TO.N,+5V*%
X44919999Y-385000000D03*
D15*
%TO.P,D1,2*%
%TO.N,GND*%
X55080000Y-385000000D03*
%TD*%
D10*
%TO.P,C48,1*%
%TO.N,+5V*%
X351730000Y-155000000D03*
D11*
%TO.P,C48,2*%
%TO.N,GND*%
X354270000Y-155000000D03*
%TD*%
D10*
%TO.P,C16,1*%
%TO.N,+5V*%
X351730000Y-315000000D03*
D11*
%TO.P,C16,2*%
%TO.N,GND*%
X354270000Y-315000000D03*
%TD*%
D10*
%TO.P,RS6,1*%
%TO.N,SQ_B2*%
X91110000Y-320000000D03*
D11*
%TO.P,RS6,2*%
%TO.N,GND*%
X108890000Y-320000000D03*
%TD*%
D10*
%TO.P,C66,1*%
%TO.N,+5V*%
X271730000Y-75000000D03*
D11*
%TO.P,C66,2*%
%TO.N,GND*%
X274270000Y-75000000D03*
%TD*%
D10*
%TO.P,RS7,1*%
%TO.N,SQ_C2*%
X131110000Y-320000000D03*
D11*
%TO.P,RS7,2*%
%TO.N,GND*%
X148890000Y-320000000D03*
%TD*%
D16*
%TO.P,R1,1*%
%TO.N,+3V3*%
X144920000Y-390000000D03*
D17*
%TO.P,R1,2*%
%TO.N,I2C_SDA*%
X155079999Y-390000000D03*
%TD*%
D10*
%TO.P,C41,1*%
%TO.N,+5V*%
X111730000Y-195000000D03*
D11*
%TO.P,C41,2*%
%TO.N,GND*%
X114270000Y-195000000D03*
%TD*%
D10*
%TO.P,RS62,1*%
%TO.N,SQ_F8*%
X251110000Y-80000000D03*
D11*
%TO.P,RS62,2*%
%TO.N,GND*%
X268890000Y-80000000D03*
%TD*%
D10*
%TO.P,RS16,1*%
%TO.N,SQ_D4*%
X171110000Y-240000000D03*
D11*
%TO.P,RS16,2*%
%TO.N,GND*%
X188890000Y-240000000D03*
%TD*%
D10*
%TO.P,C22,1*%
%TO.N,+5V*%
X111730000Y-315000000D03*
D11*
%TO.P,C22,2*%
%TO.N,GND*%
X114270000Y-315000000D03*
%TD*%
D10*
%TO.P,RS17,1*%
%TO.N,SQ_E1*%
X211110000Y-360000000D03*
D11*
%TO.P,RS17,2*%
%TO.N,GND*%
X228890000Y-360000000D03*
%TD*%
D10*
%TO.P,RS59,1*%
%TO.N,SQ_G7*%
X291110000Y-120000000D03*
D11*
%TO.P,RS59,2*%
%TO.N,GND*%
X308890000Y-120000000D03*
%TD*%
D10*
%TO.P,C23,1*%
%TO.N,+5V*%
X71729999Y-315000000D03*
D11*
%TO.P,C23,2*%
%TO.N,GND*%
X74270000Y-315000000D03*
%TD*%
D12*
%TO.P,SW6,1*%
%TO.N,BTN_RESET*%
X276750000Y-389750000D03*
D13*
%TO.P,SW6,1b*%
X276750000Y-394250000D03*
%TO.P,SW6,2*%
%TO.N,GND*%
X283250000Y-389750000D03*
%TO.P,SW6,2b*%
X283250000Y-394250000D03*
%TD*%
D12*
%TO.P,SW9,1*%
%TO.N,BTN_F2*%
X228750000Y-405750000D03*
D13*
%TO.P,SW9,1b*%
X228750000Y-410250000D03*
%TO.P,SW9,2*%
%TO.N,GND*%
X235250000Y-405750000D03*
%TO.P,SW9,2b*%
X235250000Y-410250000D03*
%TD*%
D10*
%TO.P,C39,1*%
%TO.N,+5V*%
X71729999Y-235000000D03*
D11*
%TO.P,C39,2*%
%TO.N,GND*%
X74270000Y-235000000D03*
%TD*%
D10*
%TO.P,RS33,1*%
%TO.N,SQ_A5*%
X51110000Y-200000000D03*
D11*
%TO.P,RS33,2*%
%TO.N,GND*%
X68889999Y-200000000D03*
%TD*%
D10*
%TO.P,C65,1*%
%TO.N,+5V*%
X311730000Y-75000000D03*
D11*
%TO.P,C65,2*%
%TO.N,GND*%
X314270000Y-75000000D03*
%TD*%
D10*
%TO.P,RS27,1*%
%TO.N,SQ_G3*%
X291110000Y-280000000D03*
D11*
%TO.P,RS27,2*%
%TO.N,GND*%
X308890000Y-280000000D03*
%TD*%
D10*
%TO.P,C61,1*%
%TO.N,+5V*%
X271730000Y-115000000D03*
D11*
%TO.P,C61,2*%
%TO.N,GND*%
X274270000Y-115000000D03*
%TD*%
D10*
%TO.P,C49,1*%
%TO.N,+5V*%
X311730000Y-155000000D03*
D11*
%TO.P,C49,2*%
%TO.N,GND*%
X314270000Y-155000000D03*
%TD*%
D10*
%TO.P,C9,1*%
%TO.N,+5V*%
X111730000Y-355000000D03*
D11*
%TO.P,C9,2*%
%TO.N,GND*%
X114270000Y-355000000D03*
%TD*%
D10*
%TO.P,C56,1*%
%TO.N,+5V*%
X71729999Y-115000000D03*
D11*
%TO.P,C56,2*%
%TO.N,GND*%
X74270000Y-115000000D03*
%TD*%
D10*
%TO.P,C33,1*%
%TO.N,+5V*%
X311730000Y-235000000D03*
D11*
%TO.P,C33,2*%
%TO.N,GND*%
X314270000Y-235000000D03*
%TD*%
D18*
%TO.P,J3,1*%
%TO.N,DC_IN*%
X45500000Y-398000000D03*
D19*
%TO.P,J3,2*%
%TO.N,GND*%
X50000000Y-402850000D03*
%TO.P,J3,2b*%
X54500000Y-398000000D03*
%TD*%
D10*
%TO.P,C30,1*%
%TO.N,+5V*%
X311730000Y-275000000D03*
D11*
%TO.P,C30,2*%
%TO.N,GND*%
X314270000Y-275000000D03*
%TD*%
D10*
%TO.P,RS44,1*%
%TO.N,SQ_D7*%
X171110000Y-120000000D03*
D11*
%TO.P,RS44,2*%
%TO.N,GND*%
X188890000Y-120000000D03*
%TD*%
D10*
%TO.P,C60,1*%
%TO.N,+5V*%
X231730000Y-115000000D03*
D11*
%TO.P,C60,2*%
%TO.N,GND*%
X234270000Y-115000000D03*
%TD*%
D20*
%TO.P,F1,1*%
%TO.N,DC_IN*%
X45000000Y-413000000D03*
D21*
%TO.P,F1,2*%
%TO.N,DC_FUSED*%
X67000000Y-413000000D03*
%TD*%
D10*
%TO.P,U4,1*%
%TO.N,SQ_E7*%
X290190000Y-123490000D03*
D11*
%TO.P,U4,2*%
%TO.N,SQ_F7*%
X290190000Y-126030000D03*
%TO.P,U4,3*%
%TO.N,SQ_G7*%
X290190000Y-128570000D03*
%TO.P,U4,4*%
%TO.N,SQ_H7*%
X290190000Y-131110000D03*
%TO.P,U4,5*%
%TO.N,SQ_E8*%
X290190000Y-133650000D03*
%TO.P,U4,6*%
%TO.N,SQ_F8*%
X290190000Y-136190000D03*
%TO.P,U4,7*%
%TO.N,SQ_G8*%
X290190000Y-138730000D03*
%TO.P,U4,8*%
%TO.N,SQ_H8*%
X290190000Y-141269999D03*
%TO.P,U4,9*%
%TO.N,+3V3*%
X290190000Y-143810000D03*
%TO.P,U4,10*%
%TO.N,GND*%
X290190000Y-146350000D03*
%TO.P,U4,11*%
%TO.N,N$179*%
X290190000Y-148890000D03*
%TO.P,U4,12*%
%TO.N,I2C_SCL*%
X290190000Y-151430000D03*
%TO.P,U4,13*%
%TO.N,I2C_SDA*%
X290190000Y-153970000D03*
%TO.P,U4,14*%
%TO.N,N$180*%
X290190000Y-156510000D03*
%TO.P,U4,15*%
%TO.N,+3V3*%
X297810000Y-156510000D03*
%TO.P,U4,16*%
X297810000Y-153970000D03*
%TO.P,U4,17*%
%TO.N,GND*%
X297810000Y-151430000D03*
%TO.P,U4,18*%
%TO.N,+3V3*%
X297810000Y-148890000D03*
%TO.P,U4,19*%
%TO.N,N$181*%
X297810000Y-146350000D03*
%TO.P,U4,20*%
%TO.N,SENSE_IRQ*%
X297810000Y-143810000D03*
%TO.P,U4,21*%
%TO.N,SQ_E5*%
X297810000Y-141269999D03*
%TO.P,U4,22*%
%TO.N,SQ_F5*%
X297810000Y-138730000D03*
%TO.P,U4,23*%
%TO.N,SQ_G5*%
X297810000Y-136190000D03*
%TO.P,U4,24*%
%TO.N,SQ_H5*%
X297810000Y-133650000D03*
%TO.P,U4,25*%
%TO.N,SQ_E6*%
X297810000Y-131110000D03*
%TO.P,U4,26*%
%TO.N,SQ_F6*%
X297810000Y-128570000D03*
%TO.P,U4,27*%
%TO.N,SQ_G6*%
X297810000Y-126030000D03*
%TO.P,U4,28*%
%TO.N,SQ_H6*%
X297810000Y-123490000D03*
%TD*%
D10*
%TO.P,C69,1*%
%TO.N,+5V*%
X151730000Y-75000000D03*
D11*
%TO.P,C69,2*%
%TO.N,GND*%
X154270000Y-75000000D03*
%TD*%
D10*
%TO.P,C17,1*%
%TO.N,+5V*%
X311730000Y-315000000D03*
D11*
%TO.P,C17,2*%
%TO.N,GND*%
X314270000Y-315000000D03*
%TD*%
D10*
%TO.P,C4,1*%
%TO.N,+3V3*%
X301730000Y-300000000D03*
D11*
%TO.P,C4,2*%
%TO.N,GND*%
X304270000Y-300000000D03*
%TD*%
D10*
%TO.P,U5,1*%
%TO.N,GND*%
X126190000Y-392380000D03*
D11*
%TO.P,U5,2*%
%TO.N,SPI_DATA_3V3*%
X126190000Y-394919999D03*
%TO.P,U5,3*%
%TO.N,LED_DATA_5V*%
X126190000Y-397460000D03*
%TO.P,U5,4*%
%TO.N,GND*%
X126190000Y-400000000D03*
%TO.P,U5,5*%
%TO.N,SPI_CLK_3V3*%
X126190000Y-402539999D03*
%TO.P,U5,6*%
%TO.N,LED_CLK_5V*%
X126190000Y-405080000D03*
%TO.P,U5,7*%
%TO.N,GND*%
X126190000Y-407620000D03*
%TO.P,U5,8*%
%TO.N,N$201*%
X133810000Y-407620000D03*
%TO.P,U5,9*%
%TO.N,GND*%
X133810000Y-405080000D03*
%TO.P,U5,10*%
%TO.N,+5V*%
X133810000Y-402539999D03*
%TO.P,U5,11*%
%TO.N,N$200*%
X133810000Y-400000000D03*
%TO.P,U5,12*%
%TO.N,GND*%
X133810000Y-397460000D03*
%TO.P,U5,13*%
%TO.N,+5V*%
X133810000Y-394919999D03*
%TO.P,U5,14*%
X133810000Y-392380000D03*
%TD*%
D10*
%TO.P,C28,1*%
%TO.N,+5V*%
X231730000Y-275000000D03*
D11*
%TO.P,C28,2*%
%TO.N,GND*%
X234270000Y-275000000D03*
%TD*%
D10*
%TO.P,C68,1*%
%TO.N,+5V*%
X191730000Y-75000000D03*
D11*
%TO.P,C68,2*%
%TO.N,GND*%
X194270000Y-75000000D03*
%TD*%
D10*
%TO.P,RS35,1*%
%TO.N,SQ_C5*%
X131110000Y-200000000D03*
D11*
%TO.P,RS35,2*%
%TO.N,GND*%
X148890000Y-200000000D03*
%TD*%
D10*
%TO.P,RS5,1*%
%TO.N,SQ_A2*%
X51110000Y-320000000D03*
D11*
%TO.P,RS5,2*%
%TO.N,GND*%
X68889999Y-320000000D03*
%TD*%
D10*
%TO.P,RS60,1*%
%TO.N,SQ_H7*%
X331110000Y-120000000D03*
D11*
%TO.P,RS60,2*%
%TO.N,GND*%
X348890000Y-120000000D03*
%TD*%
D10*
%TO.P,RS57,1*%
%TO.N,SQ_E7*%
X211110000Y-120000000D03*
D11*
%TO.P,RS57,2*%
%TO.N,GND*%
X228890000Y-120000000D03*
%TD*%
D10*
%TO.P,RS47,1*%
%TO.N,SQ_C8*%
X131110000Y-80000000D03*
D11*
%TO.P,RS47,2*%
%TO.N,GND*%
X148890000Y-80000000D03*
%TD*%
D10*
%TO.P,RS63,1*%
%TO.N,SQ_G8*%
X291110000Y-80000000D03*
D11*
%TO.P,RS63,2*%
%TO.N,GND*%
X308890000Y-80000000D03*
%TD*%
D10*
%TO.P,C35,1*%
%TO.N,+5V*%
X231730000Y-235000000D03*
D11*
%TO.P,C35,2*%
%TO.N,GND*%
X234270000Y-235000000D03*
%TD*%
D10*
%TO.P,C19,1*%
%TO.N,+5V*%
X231730000Y-315000000D03*
D11*
%TO.P,C19,2*%
%TO.N,GND*%
X234270000Y-315000000D03*
%TD*%
D10*
%TO.P,C14,1*%
%TO.N,+5V*%
X311730000Y-355000000D03*
D11*
%TO.P,C14,2*%
%TO.N,GND*%
X314270000Y-355000000D03*
%TD*%
D10*
%TO.P,C40,1*%
%TO.N,+5V*%
X71729999Y-195000000D03*
D11*
%TO.P,C40,2*%
%TO.N,GND*%
X74270000Y-195000000D03*
%TD*%
D10*
%TO.P,C51,1*%
%TO.N,+5V*%
X231730000Y-155000000D03*
D11*
%TO.P,C51,2*%
%TO.N,GND*%
X234270000Y-155000000D03*
%TD*%
D10*
%TO.P,RS46,1*%
%TO.N,SQ_B8*%
X91110000Y-80000000D03*
D11*
%TO.P,RS46,2*%
%TO.N,GND*%
X108890000Y-80000000D03*
%TD*%
D10*
%TO.P,C37,1*%
%TO.N,+5V*%
X151730000Y-235000000D03*
D11*
%TO.P,C37,2*%
%TO.N,GND*%
X154270000Y-235000000D03*
%TD*%
D10*
%TO.P,RS15,1*%
%TO.N,SQ_C4*%
X131110000Y-240000000D03*
D11*
%TO.P,RS15,2*%
%TO.N,GND*%
X148890000Y-240000000D03*
%TD*%
D12*
%TO.P,SW5,1*%
%TO.N,BTN_OK*%
X260750000Y-389750000D03*
D13*
%TO.P,SW5,1b*%
X260750000Y-394250000D03*
%TO.P,SW5,2*%
%TO.N,GND*%
X267250000Y-389750000D03*
%TO.P,SW5,2b*%
X267250000Y-394250000D03*
%TD*%
D10*
%TO.P,RS2,1*%
%TO.N,SQ_B1*%
X91110000Y-360000000D03*
D11*
%TO.P,RS2,2*%
%TO.N,GND*%
X108890000Y-360000000D03*
%TD*%
D10*
%TO.P,RS8,1*%
%TO.N,SQ_D2*%
X171110000Y-320000000D03*
D11*
%TO.P,RS8,2*%
%TO.N,GND*%
X188890000Y-320000000D03*
%TD*%
D10*
%TO.P,RS43,1*%
%TO.N,SQ_C7*%
X131110000Y-120000000D03*
D11*
%TO.P,RS43,2*%
%TO.N,GND*%
X148890000Y-120000000D03*
%TD*%
D10*
%TO.P,C36,1*%
%TO.N,+5V*%
X191730000Y-235000000D03*
D11*
%TO.P,C36,2*%
%TO.N,GND*%
X194270000Y-235000000D03*
%TD*%
D10*
%TO.P,C64,1*%
%TO.N,+5V*%
X351730000Y-75000000D03*
D11*
%TO.P,C64,2*%
%TO.N,GND*%
X354270000Y-75000000D03*
%TD*%
D10*
%TO.P,RS53,1*%
%TO.N,SQ_E6*%
X211110000Y-160000000D03*
D11*
%TO.P,RS53,2*%
%TO.N,GND*%
X228890000Y-160000000D03*
%TD*%
D10*
%TO.P,RS48,1*%
%TO.N,SQ_D8*%
X171110000Y-80000000D03*
D11*
%TO.P,RS48,2*%
%TO.N,GND*%
X188890000Y-80000000D03*
%TD*%
D10*
%TO.P,RS45,1*%
%TO.N,SQ_A8*%
X51110000Y-80000000D03*
D11*
%TO.P,RS45,2*%
%TO.N,GND*%
X68889999Y-80000000D03*
%TD*%
D21*
%TO.P,TP2,1*%
%TO.N,GND*%
X167000000Y-385000000D03*
%TD*%
%TO.P,TP3,1*%
%TO.N,LED_DATA_5V*%
X174000000Y-385000000D03*
%TD*%
D10*
%TO.P,C11,1*%
%TO.N,+5V*%
X191730000Y-355000000D03*
D11*
%TO.P,C11,2*%
%TO.N,GND*%
X194270000Y-355000000D03*
%TD*%
D22*
%TO.P,J2,1*%
%TO.N,GND*%
X105000000Y-388190000D03*
D23*
%TO.P,J2,2*%
%TO.N,+3V3*%
X105000000Y-390730000D03*
%TO.P,J2,3*%
%TO.N,I2C_SCL*%
X105000000Y-393270000D03*
%TO.P,J2,4*%
%TO.N,I2C_SDA*%
X105000000Y-395810000D03*
%TD*%
D10*
%TO.P,RS40,1*%
%TO.N,SQ_D6*%
X171110000Y-160000000D03*
D11*
%TO.P,RS40,2*%
%TO.N,GND*%
X188890000Y-160000000D03*
%TD*%
D21*
%TO.P,TP4,1*%
%TO.N,LED_CLK_5V*%
X181000000Y-385000000D03*
%TD*%
D10*
%TO.P,RS24,1*%
%TO.N,SQ_H2*%
X331110000Y-320000000D03*
D11*
%TO.P,RS24,2*%
%TO.N,GND*%
X348890000Y-320000000D03*
%TD*%
D10*
%TO.P,RS26,1*%
%TO.N,SQ_F3*%
X251110000Y-280000000D03*
D11*
%TO.P,RS26,2*%
%TO.N,GND*%
X268890000Y-280000000D03*
%TD*%
D10*
%TO.P,RS21,1*%
%TO.N,SQ_E2*%
X211110000Y-320000000D03*
D11*
%TO.P,RS21,2*%
%TO.N,GND*%
X228890000Y-320000000D03*
%TD*%
D10*
%TO.P,RS39,1*%
%TO.N,SQ_C6*%
X131110000Y-160000000D03*
D11*
%TO.P,RS39,2*%
%TO.N,GND*%
X148890000Y-160000000D03*
%TD*%
D12*
%TO.P,SW4,1*%
%TO.N,BTN_RIGHT*%
X244750000Y-389750000D03*
D13*
%TO.P,SW4,1b*%
X244750000Y-394250000D03*
%TO.P,SW4,2*%
%TO.N,GND*%
X251250000Y-389750000D03*
%TO.P,SW4,2b*%
X251250000Y-394250000D03*
%TD*%
D10*
%TO.P,C47,1*%
%TO.N,+5V*%
X351730000Y-195000000D03*
D11*
%TO.P,C47,2*%
%TO.N,GND*%
X354270000Y-195000000D03*
%TD*%
D10*
%TO.P,RS55,1*%
%TO.N,SQ_G6*%
X291110000Y-160000000D03*
D11*
%TO.P,RS55,2*%
%TO.N,GND*%
X308890000Y-160000000D03*
%TD*%
D10*
%TO.P,C53,1*%
%TO.N,+5V*%
X151730000Y-155000000D03*
D11*
%TO.P,C53,2*%
%TO.N,GND*%
X154270000Y-155000000D03*
%TD*%
D22*
%TO.P,J1,1*%
%TO.N,+3V3*%
X175870000Y-341270000D03*
D23*
%TO.P,J1,2*%
%TO.N,+5V*%
X175870000Y-338730000D03*
%TO.P,J1,3*%
%TO.N,I2C_SDA*%
X178410000Y-341270000D03*
%TO.P,J1,4*%
%TO.N,+5V*%
X178410000Y-338730000D03*
%TO.P,J1,5*%
%TO.N,I2C_SCL*%
X180950000Y-341270000D03*
%TO.P,J1,6*%
%TO.N,GND*%
X180950000Y-338730000D03*
%TO.P,J1,7*%
%TO.N,SENSE_IRQ*%
X183490000Y-341270000D03*
%TO.P,J1,8*%
%TO.N,N$115*%
X183490000Y-338730000D03*
%TO.P,J1,9*%
%TO.N,GND*%
X186030000Y-341270000D03*
%TO.P,J1,10*%
%TO.N,N$105*%
X186030000Y-338730000D03*
%TO.P,J1,11*%
%TO.N,BTN_RESET*%
X188570000Y-341270000D03*
%TO.P,J1,12*%
%TO.N,N$106*%
X188570000Y-338730000D03*
%TO.P,J1,13*%
%TO.N,N$107*%
X191110000Y-341270000D03*
%TO.P,J1,14*%
%TO.N,GND*%
X191110000Y-338730000D03*
%TO.P,J1,15*%
%TO.N,BTN_F3*%
X193650000Y-341270000D03*
%TO.P,J1,16*%
%TO.N,BTN_F4*%
X193650000Y-338730000D03*
%TO.P,J1,17*%
%TO.N,+3V3*%
X196190000Y-341270000D03*
%TO.P,J1,18*%
%TO.N,BTN_F5*%
X196190000Y-338730000D03*
%TO.P,J1,19*%
%TO.N,SPI_DATA_3V3*%
X198730000Y-341270000D03*
%TO.P,J1,20*%
%TO.N,GND*%
X198730000Y-338730000D03*
%TO.P,J1,21*%
%TO.N,N$108*%
X201270000Y-341270000D03*
%TO.P,J1,22*%
%TO.N,N$109*%
X201270000Y-338730000D03*
%TO.P,J1,23*%
%TO.N,SPI_CLK_3V3*%
X203810000Y-341270000D03*
%TO.P,J1,24*%
%TO.N,N$110*%
X203810000Y-338730000D03*
%TO.P,J1,25*%
%TO.N,GND*%
X206350000Y-341270000D03*
%TO.P,J1,26*%
%TO.N,N$111*%
X206350000Y-338730000D03*
%TO.P,J1,27*%
%TO.N,N$112*%
X208890000Y-341270000D03*
%TO.P,J1,28*%
%TO.N,N$113*%
X208890000Y-338730000D03*
%TO.P,J1,29*%
%TO.N,BTN_UP*%
X211430000Y-341270000D03*
%TO.P,J1,30*%
%TO.N,GND*%
X211430000Y-338730000D03*
%TO.P,J1,31*%
%TO.N,BTN_DOWN*%
X213970000Y-341270000D03*
%TO.P,J1,32*%
%TO.N,BTN_LEFT*%
X213970000Y-338730000D03*
%TO.P,J1,33*%
%TO.N,BTN_RIGHT*%
X216510000Y-341270000D03*
%TO.P,J1,34*%
%TO.N,GND*%
X216510000Y-338730000D03*
%TO.P,J1,35*%
%TO.N,BTN_PASS*%
X219050000Y-341270000D03*
%TO.P,J1,36*%
%TO.N,BTN_OK*%
X219050000Y-338730000D03*
%TO.P,J1,37*%
%TO.N,N$114*%
X221590000Y-341270000D03*
%TO.P,J1,38*%
%TO.N,BTN_F1*%
X221590000Y-338730000D03*
%TO.P,J1,39*%
%TO.N,GND*%
X224130000Y-341270000D03*
%TO.P,J1,40*%
%TO.N,BTN_F2*%
X224130000Y-338730000D03*
%TD*%
D10*
%TO.P,RS25,1*%
%TO.N,SQ_E3*%
X211110000Y-280000000D03*
D11*
%TO.P,RS25,2*%
%TO.N,GND*%
X228890000Y-280000000D03*
%TD*%
D10*
%TO.P,RS54,1*%
%TO.N,SQ_F6*%
X251110000Y-160000000D03*
D11*
%TO.P,RS54,2*%
%TO.N,GND*%
X268890000Y-160000000D03*
%TD*%
D10*
%TO.P,C25,1*%
%TO.N,+5V*%
X111730000Y-275000000D03*
D11*
%TO.P,C25,2*%
%TO.N,GND*%
X114270000Y-275000000D03*
%TD*%
D12*
%TO.P,SW3,1*%
%TO.N,BTN_LEFT*%
X228750000Y-389750000D03*
D13*
%TO.P,SW3,1b*%
X228750000Y-394250000D03*
%TO.P,SW3,2*%
%TO.N,GND*%
X235250000Y-389750000D03*
%TO.P,SW3,2b*%
X235250000Y-394250000D03*
%TD*%
D10*
%TO.P,C45,1*%
%TO.N,+5V*%
X271730000Y-195000000D03*
D11*
%TO.P,C45,2*%
%TO.N,GND*%
X274270000Y-195000000D03*
%TD*%
D10*
%TO.P,RS58,1*%
%TO.N,SQ_F7*%
X251110000Y-120000000D03*
D11*
%TO.P,RS58,2*%
%TO.N,GND*%
X268890000Y-120000000D03*
%TD*%
D10*
%TO.P,RS28,1*%
%TO.N,SQ_H3*%
X331110000Y-280000000D03*
D11*
%TO.P,RS28,2*%
%TO.N,GND*%
X348890000Y-280000000D03*
%TD*%
D10*
%TO.P,RS52,1*%
%TO.N,SQ_H5*%
X331110000Y-200000000D03*
D11*
%TO.P,RS52,2*%
%TO.N,GND*%
X348890000Y-200000000D03*
%TD*%
D10*
%TO.P,C15,1*%
%TO.N,+5V*%
X351730000Y-355000000D03*
D11*
%TO.P,C15,2*%
%TO.N,GND*%
X354270000Y-355000000D03*
%TD*%
D10*
%TO.P,RS19,1*%
%TO.N,SQ_G1*%
X291110000Y-360000000D03*
D11*
%TO.P,RS19,2*%
%TO.N,GND*%
X308890000Y-360000000D03*
%TD*%
D10*
%TO.P,RS49,1*%
%TO.N,SQ_E5*%
X211110000Y-200000000D03*
D11*
%TO.P,RS49,2*%
%TO.N,GND*%
X228890000Y-200000000D03*
%TD*%
D10*
%TO.P,RS30,1*%
%TO.N,SQ_F4*%
X251110000Y-240000000D03*
D11*
%TO.P,RS30,2*%
%TO.N,GND*%
X268890000Y-240000000D03*
%TD*%
D16*
%TO.P,R2,1*%
%TO.N,+3V3*%
X144920000Y-396000000D03*
D17*
%TO.P,R2,2*%
%TO.N,I2C_SCL*%
X155079999Y-396000000D03*
%TD*%
D10*
%TO.P,C10,1*%
%TO.N,+5V*%
X151730000Y-355000000D03*
D11*
%TO.P,C10,2*%
%TO.N,GND*%
X154270000Y-355000000D03*
%TD*%
D10*
%TO.P,U3,1*%
%TO.N,SQ_A7*%
X130190000Y-123490000D03*
D11*
%TO.P,U3,2*%
%TO.N,SQ_B7*%
X130190000Y-126030000D03*
%TO.P,U3,3*%
%TO.N,SQ_C7*%
X130190000Y-128570000D03*
%TO.P,U3,4*%
%TO.N,SQ_D7*%
X130190000Y-131110000D03*
%TO.P,U3,5*%
%TO.N,SQ_A8*%
X130190000Y-133650000D03*
%TO.P,U3,6*%
%TO.N,SQ_B8*%
X130190000Y-136190000D03*
%TO.P,U3,7*%
%TO.N,SQ_C8*%
X130190000Y-138730000D03*
%TO.P,U3,8*%
%TO.N,SQ_D8*%
X130190000Y-141269999D03*
%TO.P,U3,9*%
%TO.N,+3V3*%
X130190000Y-143810000D03*
%TO.P,U3,10*%
%TO.N,GND*%
X130190000Y-146350000D03*
%TO.P,U3,11*%
%TO.N,N$158*%
X130190000Y-148890000D03*
%TO.P,U3,12*%
%TO.N,I2C_SCL*%
X130190000Y-151430000D03*
%TO.P,U3,13*%
%TO.N,I2C_SDA*%
X130190000Y-153970000D03*
%TO.P,U3,14*%
%TO.N,N$159*%
X130190000Y-156510000D03*
%TO.P,U3,15*%
%TO.N,GND*%
X137810000Y-156510000D03*
%TO.P,U3,16*%
%TO.N,+3V3*%
X137810000Y-153970000D03*
%TO.P,U3,17*%
%TO.N,GND*%
X137810000Y-151430000D03*
%TO.P,U3,18*%
%TO.N,+3V3*%
X137810000Y-148890000D03*
%TO.P,U3,19*%
%TO.N,N$160*%
X137810000Y-146350000D03*
%TO.P,U3,20*%
%TO.N,SENSE_IRQ*%
X137810000Y-143810000D03*
%TO.P,U3,21*%
%TO.N,SQ_A5*%
X137810000Y-141269999D03*
%TO.P,U3,22*%
%TO.N,SQ_B5*%
X137810000Y-138730000D03*
%TO.P,U3,23*%
%TO.N,SQ_C5*%
X137810000Y-136190000D03*
%TO.P,U3,24*%
%TO.N,SQ_D5*%
X137810000Y-133650000D03*
%TO.P,U3,25*%
%TO.N,SQ_A6*%
X137810000Y-131110000D03*
%TO.P,U3,26*%
%TO.N,SQ_B6*%
X137810000Y-128570000D03*
%TO.P,U3,27*%
%TO.N,SQ_C6*%
X137810000Y-126030000D03*
%TO.P,U3,28*%
%TO.N,SQ_D6*%
X137810000Y-123490000D03*
%TD*%
D10*
%TO.P,C24,1*%
%TO.N,+5V*%
X71729999Y-275000000D03*
D11*
%TO.P,C24,2*%
%TO.N,GND*%
X74270000Y-275000000D03*
%TD*%
D10*
%TO.P,C54,1*%
%TO.N,+5V*%
X111730000Y-155000000D03*
D11*
%TO.P,C54,2*%
%TO.N,GND*%
X114270000Y-155000000D03*
%TD*%
D10*
%TO.P,RS22,1*%
%TO.N,SQ_F2*%
X251110000Y-320000000D03*
D11*
%TO.P,RS22,2*%
%TO.N,GND*%
X268890000Y-320000000D03*
%TD*%
D24*
%TO.P,SW13,1*%
%TO.N,DC_FUSED*%
X80650000Y-410000000D03*
D25*
%TO.P,SW13,2*%
%TO.N,+5V*%
X93350000Y-410000000D03*
%TD*%
D10*
%TO.P,RS14,1*%
%TO.N,SQ_B4*%
X91110000Y-240000000D03*
D11*
%TO.P,RS14,2*%
%TO.N,GND*%
X108890000Y-240000000D03*
%TD*%
D10*
%TO.P,RS10,1*%
%TO.N,SQ_B3*%
X91110000Y-280000000D03*
D11*
%TO.P,RS10,2*%
%TO.N,GND*%
X108890000Y-280000000D03*
%TD*%
D10*
%TO.P,C20,1*%
%TO.N,+5V*%
X191730000Y-315000000D03*
D11*
%TO.P,C20,2*%
%TO.N,GND*%
X194270000Y-315000000D03*
%TD*%
D10*
%TO.P,C50,1*%
%TO.N,+5V*%
X271730000Y-155000000D03*
D11*
%TO.P,C50,2*%
%TO.N,GND*%
X274270000Y-155000000D03*
%TD*%
D10*
%TO.P,RS11,1*%
%TO.N,SQ_C3*%
X131110000Y-280000000D03*
D11*
%TO.P,RS11,2*%
%TO.N,GND*%
X148890000Y-280000000D03*
%TD*%
D10*
%TO.P,C18,1*%
%TO.N,+5V*%
X271730000Y-315000000D03*
D11*
%TO.P,C18,2*%
%TO.N,GND*%
X274270000Y-315000000D03*
%TD*%
D10*
%TO.P,C43,1*%
%TO.N,+5V*%
X191730000Y-195000000D03*
D11*
%TO.P,C43,2*%
%TO.N,GND*%
X194270000Y-195000000D03*
%TD*%
D10*
%TO.P,RS61,1*%
%TO.N,SQ_E8*%
X211110000Y-80000000D03*
D11*
%TO.P,RS61,2*%
%TO.N,GND*%
X228890000Y-80000000D03*
%TD*%
D10*
%TO.P,RS51,1*%
%TO.N,SQ_G5*%
X291110000Y-200000000D03*
D11*
%TO.P,RS51,2*%
%TO.N,GND*%
X308890000Y-200000000D03*
%TD*%
D10*
%TO.P,RS1,1*%
%TO.N,SQ_A1*%
X51110000Y-360000000D03*
D11*
%TO.P,RS1,2*%
%TO.N,GND*%
X68889999Y-360000000D03*
%TD*%
D10*
%TO.P,C52,1*%
%TO.N,+5V*%
X191730000Y-155000000D03*
D11*
%TO.P,C52,2*%
%TO.N,GND*%
X194270000Y-155000000D03*
%TD*%
D10*
%TO.P,C31,1*%
%TO.N,+5V*%
X351730000Y-275000000D03*
D11*
%TO.P,C31,2*%
%TO.N,GND*%
X354270000Y-275000000D03*
%TD*%
D10*
%TO.P,C26,1*%
%TO.N,+5V*%
X151730000Y-275000000D03*
D11*
%TO.P,C26,2*%
%TO.N,GND*%
X154270000Y-275000000D03*
%TD*%
D12*
%TO.P,SW11,1*%
%TO.N,BTN_F4*%
X260750000Y-405750000D03*
D13*
%TO.P,SW11,1b*%
X260750000Y-410250000D03*
%TO.P,SW11,2*%
%TO.N,GND*%
X267250000Y-405750000D03*
%TO.P,SW11,2b*%
X267250000Y-410250000D03*
%TD*%
D10*
%TO.P,C13,1*%
%TO.N,+5V*%
X271730000Y-355000000D03*
D11*
%TO.P,C13,2*%
%TO.N,GND*%
X274270000Y-355000000D03*
%TD*%
D12*
%TO.P,SW12,1*%
%TO.N,BTN_F5*%
X276750000Y-405750000D03*
D13*
%TO.P,SW12,1b*%
X276750000Y-410250000D03*
%TO.P,SW12,2*%
%TO.N,GND*%
X283250000Y-405750000D03*
%TO.P,SW12,2b*%
X283250000Y-410250000D03*
%TD*%
D10*
%TO.P,C34,1*%
%TO.N,+5V*%
X271730000Y-235000000D03*
D11*
%TO.P,C34,2*%
%TO.N,GND*%
X274270000Y-235000000D03*
%TD*%
D10*
%TO.P,U1,1*%
%TO.N,SQ_A3*%
X130190000Y-283490000D03*
D11*
%TO.P,U1,2*%
%TO.N,SQ_B3*%
X130190000Y-286030000D03*
%TO.P,U1,3*%
%TO.N,SQ_C3*%
X130190000Y-288570000D03*
%TO.P,U1,4*%
%TO.N,SQ_D3*%
X130190000Y-291110000D03*
%TO.P,U1,5*%
%TO.N,SQ_A4*%
X130190000Y-293650000D03*
%TO.P,U1,6*%
%TO.N,SQ_B4*%
X130190000Y-296190000D03*
%TO.P,U1,7*%
%TO.N,SQ_C4*%
X130190000Y-298730000D03*
%TO.P,U1,8*%
%TO.N,SQ_D4*%
X130190000Y-301270000D03*
%TO.P,U1,9*%
%TO.N,+3V3*%
X130190000Y-303810000D03*
%TO.P,U1,10*%
%TO.N,GND*%
X130190000Y-306350000D03*
%TO.P,U1,11*%
%TO.N,N$116*%
X130190000Y-308890000D03*
%TO.P,U1,12*%
%TO.N,I2C_SCL*%
X130190000Y-311430000D03*
%TO.P,U1,13*%
%TO.N,I2C_SDA*%
X130190000Y-313970000D03*
%TO.P,U1,14*%
%TO.N,N$117*%
X130190000Y-316510000D03*
%TO.P,U1,15*%
%TO.N,GND*%
X137810000Y-316510000D03*
%TO.P,U1,16*%
X137810000Y-313970000D03*
%TO.P,U1,17*%
X137810000Y-311430000D03*
%TO.P,U1,18*%
%TO.N,+3V3*%
X137810000Y-308890000D03*
%TO.P,U1,19*%
%TO.N,N$118*%
X137810000Y-306350000D03*
%TO.P,U1,20*%
%TO.N,SENSE_IRQ*%
X137810000Y-303810000D03*
%TO.P,U1,21*%
%TO.N,SQ_A1*%
X137810000Y-301270000D03*
%TO.P,U1,22*%
%TO.N,SQ_B1*%
X137810000Y-298730000D03*
%TO.P,U1,23*%
%TO.N,SQ_C1*%
X137810000Y-296190000D03*
%TO.P,U1,24*%
%TO.N,SQ_D1*%
X137810000Y-293650000D03*
%TO.P,U1,25*%
%TO.N,SQ_A2*%
X137810000Y-291110000D03*
%TO.P,U1,26*%
%TO.N,SQ_B2*%
X137810000Y-288570000D03*
%TO.P,U1,27*%
%TO.N,SQ_C2*%
X137810000Y-286030000D03*
%TO.P,U1,28*%
%TO.N,SQ_D2*%
X137810000Y-283490000D03*
%TD*%
D10*
%TO.P,C8,1*%
%TO.N,+5V*%
X71729999Y-355000000D03*
D11*
%TO.P,C8,2*%
%TO.N,GND*%
X74270000Y-355000000D03*
%TD*%
D12*
%TO.P,SW7,1*%
%TO.N,BTN_PASS*%
X196750000Y-405750000D03*
D13*
%TO.P,SW7,1b*%
X196750000Y-410250000D03*
%TO.P,SW7,2*%
%TO.N,GND*%
X203250000Y-405750000D03*
%TO.P,SW7,2b*%
X203250000Y-410250000D03*
%TD*%
D10*
%TO.P,C70,1*%
%TO.N,+5V*%
X111730000Y-75000000D03*
D11*
%TO.P,C70,2*%
%TO.N,GND*%
X114270000Y-75000000D03*
%TD*%
D10*
%TO.P,RS64,1*%
%TO.N,SQ_H8*%
X331110000Y-80000000D03*
D11*
%TO.P,RS64,2*%
%TO.N,GND*%
X348890000Y-80000000D03*
%TD*%
D12*
%TO.P,SW1,1*%
%TO.N,BTN_UP*%
X196750000Y-389750000D03*
D13*
%TO.P,SW1,1b*%
X196750000Y-394250000D03*
%TO.P,SW1,2*%
%TO.N,GND*%
X203250000Y-389750000D03*
%TO.P,SW1,2b*%
X203250000Y-394250000D03*
%TD*%
D10*
%TO.P,C42,1*%
%TO.N,+5V*%
X151730000Y-195000000D03*
D11*
%TO.P,C42,2*%
%TO.N,GND*%
X154270000Y-195000000D03*
%TD*%
D16*
%TO.P,C2,1*%
%TO.N,+5V*%
X82750000Y-388000000D03*
D17*
%TO.P,C2,2*%
%TO.N,GND*%
X85250000Y-388000000D03*
%TD*%
D10*
%TO.P,RS20,1*%
%TO.N,SQ_H1*%
X331110000Y-360000000D03*
D11*
%TO.P,RS20,2*%
%TO.N,GND*%
X348890000Y-360000000D03*
%TD*%
D14*
%TO.P,C1,1*%
%TO.N,+5V*%
X69500000Y-390000000D03*
D15*
%TO.P,C1,2*%
%TO.N,GND*%
X74500000Y-390000000D03*
%TD*%
D10*
%TO.P,C5,1*%
%TO.N,+3V3*%
X141730000Y-140000000D03*
D11*
%TO.P,C5,2*%
%TO.N,GND*%
X144270000Y-140000000D03*
%TD*%
D10*
%TO.P,C58,1*%
%TO.N,+5V*%
X151730000Y-115000000D03*
D11*
%TO.P,C58,2*%
%TO.N,GND*%
X154270000Y-115000000D03*
%TD*%
D10*
%TO.P,RS4,1*%
%TO.N,SQ_D1*%
X171110000Y-360000000D03*
D11*
%TO.P,RS4,2*%
%TO.N,GND*%
X188890000Y-360000000D03*
%TD*%
D10*
%TO.P,C55,1*%
%TO.N,+5V*%
X71729999Y-155000000D03*
D11*
%TO.P,C55,2*%
%TO.N,GND*%
X74270000Y-155000000D03*
%TD*%
D10*
%TO.P,RS18,1*%
%TO.N,SQ_F1*%
X251110000Y-360000000D03*
D11*
%TO.P,RS18,2*%
%TO.N,GND*%
X268890000Y-360000000D03*
%TD*%
D10*
%TO.P,C67,1*%
%TO.N,+5V*%
X231730000Y-75000000D03*
D11*
%TO.P,C67,2*%
%TO.N,GND*%
X234270000Y-75000000D03*
%TD*%
D10*
%TO.P,RS38,1*%
%TO.N,SQ_B6*%
X91110000Y-160000000D03*
D11*
%TO.P,RS38,2*%
%TO.N,GND*%
X108890000Y-160000000D03*
%TD*%
D10*
%TO.P,C6,1*%
%TO.N,+3V3*%
X301730000Y-140000000D03*
D11*
%TO.P,C6,2*%
%TO.N,GND*%
X304270000Y-140000000D03*
%TD*%
D10*
%TO.P,C59,1*%
%TO.N,+5V*%
X191730000Y-115000000D03*
D11*
%TO.P,C59,2*%
%TO.N,GND*%
X194270000Y-115000000D03*
%TD*%
D10*
%TO.P,C44,1*%
%TO.N,+5V*%
X231730000Y-195000000D03*
D11*
%TO.P,C44,2*%
%TO.N,GND*%
X234270000Y-195000000D03*
%TD*%
D10*
%TO.P,RS34,1*%
%TO.N,SQ_B5*%
X91110000Y-200000000D03*
D11*
%TO.P,RS34,2*%
%TO.N,GND*%
X108890000Y-200000000D03*
%TD*%
D10*
%TO.P,RS23,1*%
%TO.N,SQ_G2*%
X291110000Y-320000000D03*
D11*
%TO.P,RS23,2*%
%TO.N,GND*%
X308890000Y-320000000D03*
%TD*%
D10*
%TO.P,C62,1*%
%TO.N,+5V*%
X311730000Y-115000000D03*
D11*
%TO.P,C62,2*%
%TO.N,GND*%
X314270000Y-115000000D03*
%TD*%
D10*
%TO.P,C12,1*%
%TO.N,+5V*%
X231730000Y-355000000D03*
D11*
%TO.P,C12,2*%
%TO.N,GND*%
X234270000Y-355000000D03*
%TD*%
D10*
%TO.P,C7,1*%
%TO.N,+5V*%
X140730000Y-400000000D03*
D11*
%TO.P,C7,2*%
%TO.N,GND*%
X143270000Y-400000000D03*
%TD*%
D21*
%TO.P,TP1,1*%
%TO.N,+5V*%
X160000000Y-385000000D03*
%TD*%
D10*
%TO.P,RS3,1*%
%TO.N,SQ_C1*%
X131110000Y-360000000D03*
D11*
%TO.P,RS3,2*%
%TO.N,GND*%
X148890000Y-360000000D03*
%TD*%
D10*
%TO.P,C57,1*%
%TO.N,+5V*%
X111730000Y-115000000D03*
D11*
%TO.P,C57,2*%
%TO.N,GND*%
X114270000Y-115000000D03*
%TD*%
D10*
%TO.P,RS12,1*%
%TO.N,SQ_D3*%
X171110000Y-280000000D03*
D11*
%TO.P,RS12,2*%
%TO.N,GND*%
X188890000Y-280000000D03*
%TD*%
D10*
%TO.P,C21,1*%
%TO.N,+5V*%
X151730000Y-315000000D03*
D11*
%TO.P,C21,2*%
%TO.N,GND*%
X154270000Y-315000000D03*
%TD*%
D26*
%TO.N,+5V*%
X273000000Y-150500000D03*
X73000000Y-150500000D03*
X313000000Y-230500000D03*
X193000000Y-310500000D03*
X113000000Y-103500000D03*
X353000000Y-343500000D03*
X313000000Y-310500000D03*
X233000000Y-183500000D03*
X313000000Y-183500000D03*
X353000000Y-103500000D03*
X273000000Y-263500000D03*
X153000000Y-343500000D03*
X153000000Y-183500000D03*
X193000000Y-150500000D03*
X233000000Y-230500000D03*
X193000000Y-230500000D03*
X153000000Y-70500000D03*
X233000000Y-263500000D03*
X233000000Y-103500000D03*
X273000000Y-343500000D03*
X73000000Y-183500000D03*
X153000000Y-263500000D03*
X313000000Y-103500000D03*
X113000000Y-310500000D03*
X73000000Y-230500000D03*
X313000000Y-70500000D03*
X313000000Y-150500000D03*
X233000000Y-150500000D03*
X73000000Y-103500000D03*
X73000000Y-70500000D03*
X273000000Y-183500000D03*
X313000000Y-343500000D03*
X113000000Y-183500000D03*
X113000000Y-343500000D03*
X353000000Y-183500000D03*
X273000000Y-310500000D03*
X193000000Y-70500000D03*
X273000000Y-103500000D03*
X153000000Y-310500000D03*
X113000000Y-70500000D03*
X233000000Y-70500000D03*
X353000000Y-150500000D03*
X233000000Y-343500000D03*
X73000000Y-263500000D03*
X113000000Y-150500000D03*
X273000000Y-230500000D03*
X73000000Y-343500000D03*
X113000000Y-230500000D03*
X153000000Y-103500000D03*
X353000000Y-263500000D03*
X353000000Y-310500000D03*
X153000000Y-230500000D03*
X313000000Y-263500000D03*
X193000000Y-183500000D03*
X193000000Y-263500000D03*
X353000000Y-70500000D03*
X233000000Y-310500000D03*
X73000000Y-310500000D03*
X113000000Y-263500000D03*
X153000000Y-150500000D03*
X353000000Y-230500000D03*
X193000000Y-343500000D03*
X193000000Y-103500000D03*
X273000000Y-70500000D03*
%TO.N,GND*%
X153000000Y-303500000D03*
X193000000Y-350500000D03*
X73000000Y-190500000D03*
X313000000Y-63500000D03*
X313000000Y-270500000D03*
X153000000Y-350500000D03*
X113000000Y-143500000D03*
X273000000Y-350500000D03*
X313000000Y-303500000D03*
X353000000Y-223500000D03*
X233000000Y-190500000D03*
X273000000Y-223500000D03*
X353000000Y-350500000D03*
X273000000Y-303500000D03*
X73000000Y-303500000D03*
X73000000Y-110500000D03*
X313000000Y-110500000D03*
X353000000Y-303500000D03*
X153000000Y-143500000D03*
X73000000Y-143500000D03*
X233000000Y-110500000D03*
X193000000Y-110500000D03*
X313000000Y-223500000D03*
X313000000Y-190500000D03*
X153000000Y-270500000D03*
X73000000Y-63500000D03*
X153000000Y-190500000D03*
X233000000Y-223500000D03*
X353000000Y-190500000D03*
X193000000Y-143500000D03*
X313000000Y-350500000D03*
X193000000Y-303500000D03*
X353000000Y-63500000D03*
X233000000Y-143500000D03*
X273000000Y-63500000D03*
X73000000Y-223500000D03*
X273000000Y-143500000D03*
X233000000Y-63500000D03*
X273000000Y-110500000D03*
X73000000Y-350500000D03*
X113000000Y-270500000D03*
X273000000Y-270500000D03*
X113000000Y-303500000D03*
X113000000Y-63500000D03*
X313000000Y-143500000D03*
X113000000Y-110500000D03*
X153000000Y-110500000D03*
X193000000Y-223500000D03*
X233000000Y-303500000D03*
X153000000Y-63500000D03*
X193000000Y-270500000D03*
X153000000Y-223500000D03*
X273000000Y-190500000D03*
X113000000Y-350500000D03*
X233000000Y-350500000D03*
X193000000Y-190500000D03*
X193000000Y-63500000D03*
X113000000Y-223500000D03*
X353000000Y-270500000D03*
X113000000Y-190500000D03*
X73000000Y-270500000D03*
X353000000Y-110500000D03*
X353000000Y-143500000D03*
X233000000Y-270500000D03*
%TO.N,LED_D16*%
X63500000Y-266200000D03*
X63500000Y-307800000D03*
%TO.N,LED_D24*%
X357500000Y-227800000D03*
X357500000Y-266200000D03*
%TO.N,LED_D32*%
X63500000Y-227800000D03*
X63500000Y-186200000D03*
%TO.N,LED_D40*%
X357500000Y-186200000D03*
X357500000Y-147800000D03*
%TO.N,LED_D48*%
X63500000Y-147800000D03*
X63500000Y-106200000D03*
%TO.N,LED_D56*%
X357500000Y-106200000D03*
X357500000Y-67800000D03*
%TO.N,LED_D8*%
X357500000Y-307800000D03*
X357500000Y-346200000D03*
%TD*%
D27*
%TO.N,LED_D16*%
X63500000Y-307800000D02*
X63500000Y-266200000D01*
%TO.N,LED_D24*%
X357500000Y-266200000D02*
X357500000Y-227800000D01*
%TO.N,LED_D32*%
X63500000Y-227800000D02*
X63500000Y-186200000D01*
%TO.N,LED_D40*%
X357500000Y-186200000D02*
X357500000Y-147800000D01*
%TO.N,LED_D48*%
X63500000Y-147800000D02*
X63500000Y-106200000D01*
%TO.N,LED_D56*%
X357500000Y-106200000D02*
X357500000Y-67800000D01*
%TO.N,LED_D8*%
X357500000Y-346200000D02*
X357500000Y-307800000D01*
%TD*%
M02*
