G04 Gerber file generated by Gerbonara*
%MOMM*%
%FSLAX45Y45*%
%IPPOS*%
G75
%LPD*%
%ADD10R,2.0X2.0*%
%ADD11C,2.0*%
%ADD12R,1.7X1.7*%
%ADD13C,1.7*%
%ADD14R,1.8X1.8*%
%ADD15C,1.8*%
%ADD16R,2.2X2.2*%
%ADD17C,2.2*%
%ADD18R,1.84X1.84*%
%ADD19C,1.84*%
%ADD20R,2.7X2.7*%
%ADD21C,2.7*%
%ADD22R,1.9X1.9*%
%ADD23C,1.9*%
%ADD24R,2.4X2.4*%
%ADD25C,2.4*%
D10*
X002950000Y003000000D03*
D11*
X003450000Y003000000D03*
D12*
X011173000Y006500000D03*
D13*
X011427000Y006500000D03*
D12*
X015173000Y006500000D03*
D13*
X015427000Y006500000D03*
D12*
X019173000Y006500000D03*
D13*
X019427000Y006500000D03*
D12*
X023173000Y006500000D03*
D13*
X023427000Y006500000D03*
D12*
X027173000Y006500000D03*
D13*
X027427000Y006500000D03*
D12*
X031173000Y006500000D03*
D13*
X031427000Y006500000D03*
D12*
X031173000Y010500000D03*
D13*
X031427000Y010500000D03*
D12*
X027173000Y010500000D03*
D13*
X027427000Y010500000D03*
D12*
X023173000Y010500000D03*
D13*
X023427000Y010500000D03*
D12*
X019173000Y010500000D03*
D13*
X019427000Y010500000D03*
D14*
X004275000Y003200000D03*
D15*
X004525000Y003200000D03*
D12*
X015173000Y010500000D03*
D13*
X015427000Y010500000D03*
D12*
X011173000Y010500000D03*
D13*
X011427000Y010500000D03*
D12*
X007173000Y010500000D03*
D13*
X007427000Y010500000D03*
D12*
X003173000Y010500000D03*
D13*
X003427000Y010500000D03*
D12*
X003173000Y014500000D03*
D13*
X003427000Y014500000D03*
D12*
X007173000Y014500000D03*
D13*
X007427000Y014500000D03*
D12*
X011173000Y014500000D03*
D13*
X011427000Y014500000D03*
D12*
X015173000Y014500000D03*
D13*
X015427000Y014500000D03*
D12*
X019173000Y014500000D03*
D13*
X019427000Y014500000D03*
D12*
X023173000Y014500000D03*
D13*
X023427000Y014500000D03*
D12*
X010173000Y012000000D03*
D13*
X010427000Y012000000D03*
D12*
X027173000Y014500000D03*
D13*
X027427000Y014500000D03*
D12*
X031173000Y014500000D03*
D13*
X031427000Y014500000D03*
D12*
X031173000Y018500000D03*
D13*
X031427000Y018500000D03*
D12*
X027173000Y018500000D03*
D13*
X027427000Y018500000D03*
D12*
X023173000Y018500000D03*
D13*
X023427000Y018500000D03*
D12*
X019173000Y018500000D03*
D13*
X019427000Y018500000D03*
D12*
X015173000Y018500000D03*
D13*
X015427000Y018500000D03*
D12*
X011173000Y018500000D03*
D13*
X011427000Y018500000D03*
D12*
X007173000Y018500000D03*
D13*
X007427000Y018500000D03*
D12*
X003173000Y018500000D03*
D13*
X003427000Y018500000D03*
D12*
X026173000Y012000000D03*
D13*
X026427000Y012000000D03*
D12*
X003173000Y022500000D03*
D13*
X003427000Y022500000D03*
D12*
X007173000Y022500000D03*
D13*
X007427000Y022500000D03*
D12*
X011173000Y022500000D03*
D13*
X011427000Y022500000D03*
D12*
X015173000Y022500000D03*
D13*
X015427000Y022500000D03*
D12*
X019173000Y022500000D03*
D13*
X019427000Y022500000D03*
D12*
X023173000Y022500000D03*
D13*
X023427000Y022500000D03*
D12*
X027173000Y022500000D03*
D13*
X027427000Y022500000D03*
D12*
X031173000Y022500000D03*
D13*
X031427000Y022500000D03*
D12*
X031173000Y026500000D03*
D13*
X031427000Y026500000D03*
D12*
X027173000Y026500000D03*
D13*
X027427000Y026500000D03*
D12*
X010173000Y028000000D03*
D13*
X010427000Y028000000D03*
D12*
X023173000Y026500000D03*
D13*
X023427000Y026500000D03*
D12*
X019173000Y026500000D03*
D13*
X019427000Y026500000D03*
D12*
X015173000Y026500000D03*
D13*
X015427000Y026500000D03*
D12*
X011173000Y026500000D03*
D13*
X011427000Y026500000D03*
D12*
X007173000Y026500000D03*
D13*
X007427000Y026500000D03*
D12*
X003173000Y026500000D03*
D13*
X003427000Y026500000D03*
D12*
X003173000Y030500000D03*
D13*
X003427000Y030500000D03*
D12*
X007173000Y030500000D03*
D13*
X007427000Y030500000D03*
D12*
X011173000Y030500000D03*
D13*
X011427000Y030500000D03*
D12*
X015173000Y030500000D03*
D13*
X015427000Y030500000D03*
D12*
X026173000Y028000000D03*
D13*
X026427000Y028000000D03*
D12*
X019173000Y030500000D03*
D13*
X019427000Y030500000D03*
D12*
X023173000Y030500000D03*
D13*
X023427000Y030500000D03*
D12*
X027173000Y030500000D03*
D13*
X027427000Y030500000D03*
D12*
X031173000Y030500000D03*
D13*
X031427000Y030500000D03*
D12*
X031173000Y034500000D03*
D13*
X031427000Y034500000D03*
D12*
X027173000Y034500000D03*
D13*
X027427000Y034500000D03*
D12*
X023173000Y034500000D03*
D13*
X023427000Y034500000D03*
D12*
X019173000Y034500000D03*
D13*
X019427000Y034500000D03*
D12*
X015173000Y034500000D03*
D13*
X015427000Y034500000D03*
D12*
X011173000Y034500000D03*
D13*
X011427000Y034500000D03*
D12*
X010073000Y002000000D03*
D13*
X010327000Y002000000D03*
D12*
X007173000Y034500000D03*
D13*
X007427000Y034500000D03*
D12*
X003173000Y034500000D03*
D13*
X003427000Y034500000D03*
D12*
X003173000Y006500000D03*
D13*
X003427000Y006500000D03*
D12*
X007173000Y006500000D03*
D13*
X007427000Y006500000D03*
D10*
X000492000Y003500000D03*
D11*
X001508000Y003500000D03*
D16*
X000500000Y000700000D03*
D17*
X002700000Y000700000D03*
D18*
X013587000Y007873000D03*
D19*
X013587000Y008127000D03*
X013841000Y007873000D03*
X013841000Y008127000D03*
X014095000Y007873000D03*
X014095000Y008127000D03*
X014349000Y007873000D03*
X014349000Y008127000D03*
X014603000Y007873000D03*
X014603000Y008127000D03*
X014857000Y007873000D03*
X014857000Y008127000D03*
X015111000Y007873000D03*
X015111000Y008127000D03*
X015365000Y007873000D03*
X015365000Y008127000D03*
X015619000Y007873000D03*
X015619000Y008127000D03*
X015873000Y007873000D03*
X015873000Y008127000D03*
X016127000Y007873000D03*
X016127000Y008127000D03*
X016381000Y007873000D03*
X016381000Y008127000D03*
X016635000Y007873000D03*
X016635000Y008127000D03*
X016889000Y007873000D03*
X016889000Y008127000D03*
X017143000Y007873000D03*
X017143000Y008127000D03*
X017397000Y007873000D03*
X017397000Y008127000D03*
X017651000Y007873000D03*
X017651000Y008127000D03*
X017905000Y007873000D03*
X017905000Y008127000D03*
X018159000Y007873000D03*
X018159000Y008127000D03*
X018413000Y007873000D03*
X018413000Y008127000D03*
D18*
X006500000Y003181000D03*
D19*
X006500000Y002927000D03*
X006500000Y002673000D03*
X006500000Y002419000D03*
D20*
X000550000Y002200000D03*
D21*
X001000000Y001715000D03*
X001450000Y002200000D03*
D14*
X010492000Y003000000D03*
D15*
X011508000Y003000000D03*
D14*
X010492000Y002400000D03*
D15*
X011508000Y002400000D03*
D12*
X001111000Y006000000D03*
D13*
X002889000Y006000000D03*
D12*
X005111000Y014000000D03*
D13*
X006889000Y014000000D03*
D12*
X009111000Y014000000D03*
D13*
X010889000Y014000000D03*
D12*
X013111000Y014000000D03*
D13*
X014889000Y014000000D03*
D12*
X001111000Y018000000D03*
D13*
X002889000Y018000000D03*
D12*
X005111000Y018000000D03*
D13*
X006889000Y018000000D03*
D12*
X009111000Y018000000D03*
D13*
X010889000Y018000000D03*
D12*
X013111000Y018000000D03*
D13*
X014889000Y018000000D03*
D12*
X017111000Y006000000D03*
D13*
X018889000Y006000000D03*
D12*
X021111000Y006000000D03*
D13*
X022889000Y006000000D03*
D12*
X025111000Y006000000D03*
D13*
X026889000Y006000000D03*
D12*
X005111000Y006000000D03*
D13*
X006889000Y006000000D03*
D12*
X029111000Y006000000D03*
D13*
X030889000Y006000000D03*
D12*
X017111000Y010000000D03*
D13*
X018889000Y010000000D03*
D12*
X021111000Y010000000D03*
D13*
X022889000Y010000000D03*
D12*
X025111000Y010000000D03*
D13*
X026889000Y010000000D03*
D12*
X029111000Y010000000D03*
D13*
X030889000Y010000000D03*
D12*
X017111000Y014000000D03*
D13*
X018889000Y014000000D03*
D12*
X021111000Y014000000D03*
D13*
X022889000Y014000000D03*
D12*
X025111000Y014000000D03*
D13*
X026889000Y014000000D03*
D12*
X029111000Y014000000D03*
D13*
X030889000Y014000000D03*
D12*
X017111000Y018000000D03*
D13*
X018889000Y018000000D03*
D12*
X009111000Y006000000D03*
D13*
X010889000Y006000000D03*
D12*
X021111000Y018000000D03*
D13*
X022889000Y018000000D03*
D12*
X025111000Y018000000D03*
D13*
X026889000Y018000000D03*
D12*
X029111000Y018000000D03*
D13*
X030889000Y018000000D03*
D12*
X001111000Y022000000D03*
D13*
X002889000Y022000000D03*
D12*
X005111000Y022000000D03*
D13*
X006889000Y022000000D03*
D12*
X009111000Y022000000D03*
D13*
X010889000Y022000000D03*
D12*
X013111000Y022000000D03*
D13*
X014889000Y022000000D03*
D12*
X001111000Y026000000D03*
D13*
X002889000Y026000000D03*
D12*
X005111000Y026000000D03*
D13*
X006889000Y026000000D03*
D12*
X009111000Y026000000D03*
D13*
X010889000Y026000000D03*
D12*
X013111000Y006000000D03*
D13*
X014889000Y006000000D03*
D12*
X013111000Y026000000D03*
D13*
X014889000Y026000000D03*
D12*
X001111000Y030000000D03*
D13*
X002889000Y030000000D03*
D12*
X005111000Y030000000D03*
D13*
X006889000Y030000000D03*
D12*
X009111000Y030000000D03*
D13*
X010889000Y030000000D03*
D12*
X013111000Y030000000D03*
D13*
X014889000Y030000000D03*
D12*
X001111000Y034000000D03*
D13*
X002889000Y034000000D03*
D12*
X005111000Y034000000D03*
D13*
X006889000Y034000000D03*
D12*
X009111000Y034000000D03*
D13*
X010889000Y034000000D03*
D12*
X013111000Y034000000D03*
D13*
X014889000Y034000000D03*
D12*
X017111000Y022000000D03*
D13*
X018889000Y022000000D03*
D12*
X001111000Y010000000D03*
D13*
X002889000Y010000000D03*
D12*
X021111000Y022000000D03*
D13*
X022889000Y022000000D03*
D12*
X025111000Y022000000D03*
D13*
X026889000Y022000000D03*
D12*
X029111000Y022000000D03*
D13*
X030889000Y022000000D03*
D12*
X017111000Y026000000D03*
D13*
X018889000Y026000000D03*
D12*
X021111000Y026000000D03*
D13*
X022889000Y026000000D03*
D12*
X025111000Y026000000D03*
D13*
X026889000Y026000000D03*
D12*
X029111000Y026000000D03*
D13*
X030889000Y026000000D03*
D12*
X017111000Y030000000D03*
D13*
X018889000Y030000000D03*
D12*
X021111000Y030000000D03*
D13*
X022889000Y030000000D03*
D12*
X025111000Y030000000D03*
D13*
X026889000Y030000000D03*
D12*
X005111000Y010000000D03*
D13*
X006889000Y010000000D03*
D12*
X029111000Y030000000D03*
D13*
X030889000Y030000000D03*
D12*
X017111000Y034000000D03*
D13*
X018889000Y034000000D03*
D12*
X021111000Y034000000D03*
D13*
X022889000Y034000000D03*
D12*
X025111000Y034000000D03*
D13*
X026889000Y034000000D03*
D12*
X029111000Y034000000D03*
D13*
X030889000Y034000000D03*
D12*
X009111000Y010000000D03*
D13*
X010889000Y010000000D03*
D12*
X013111000Y010000000D03*
D13*
X014889000Y010000000D03*
D12*
X001111000Y014000000D03*
D13*
X002889000Y014000000D03*
D22*
X015675000Y003025000D03*
D23*
X015675000Y002575000D03*
X016325000Y003025000D03*
X016325000Y002575000D03*
D22*
X020475000Y001425000D03*
D23*
X020475000Y000975000D03*
X021125000Y001425000D03*
X021125000Y000975000D03*
D22*
X022075000Y001425000D03*
D23*
X022075000Y000975000D03*
X022725000Y001425000D03*
X022725000Y000975000D03*
D22*
X023675000Y001425000D03*
D23*
X023675000Y000975000D03*
X024325000Y001425000D03*
X024325000Y000975000D03*
D24*
X004065000Y001000000D03*
D25*
X005335000Y001000000D03*
D22*
X017275000Y003025000D03*
D23*
X017275000Y002575000D03*
X017925000Y003025000D03*
X017925000Y002575000D03*
D22*
X018875000Y003025000D03*
D23*
X018875000Y002575000D03*
X019525000Y003025000D03*
X019525000Y002575000D03*
D22*
X020475000Y003025000D03*
D23*
X020475000Y002575000D03*
X021125000Y003025000D03*
X021125000Y002575000D03*
D22*
X022075000Y003025000D03*
D23*
X022075000Y002575000D03*
X022725000Y003025000D03*
X022725000Y002575000D03*
D22*
X023675000Y003025000D03*
D23*
X023675000Y002575000D03*
X024325000Y003025000D03*
X024325000Y002575000D03*
D22*
X015675000Y001425000D03*
D23*
X015675000Y000975000D03*
X016325000Y001425000D03*
X016325000Y000975000D03*
D22*
X017275000Y001425000D03*
D23*
X017275000Y000975000D03*
X017925000Y001425000D03*
X017925000Y000975000D03*
D22*
X018875000Y001425000D03*
D23*
X018875000Y000975000D03*
X019525000Y001425000D03*
X019525000Y000975000D03*
D17*
X012000000Y003500000D03*
X012700000Y003500000D03*
X013400000Y003500000D03*
X014100000Y003500000D03*
D12*
X009019000Y013651000D03*
D13*
X009019000Y013397000D03*
X009019000Y013143000D03*
X009019000Y012889000D03*
X009019000Y012635000D03*
X009019000Y012381000D03*
X009019000Y012127000D03*
X009019000Y011873000D03*
X009019000Y011619000D03*
X009019000Y011365000D03*
X009019000Y011111000D03*
X009019000Y010857000D03*
X009019000Y010603000D03*
X009019000Y010349000D03*
X009781000Y013651000D03*
X009781000Y013397000D03*
X009781000Y013143000D03*
X009781000Y012889000D03*
X009781000Y012635000D03*
X009781000Y012381000D03*
X009781000Y012127000D03*
X009781000Y011873000D03*
X009781000Y011619000D03*
X009781000Y011365000D03*
X009781000Y011111000D03*
X009781000Y010857000D03*
X009781000Y010603000D03*
X009781000Y010349000D03*
D12*
X025019000Y013651000D03*
D13*
X025019000Y013397000D03*
X025019000Y013143000D03*
X025019000Y012889000D03*
X025019000Y012635000D03*
X025019000Y012381000D03*
X025019000Y012127000D03*
X025019000Y011873000D03*
X025019000Y011619000D03*
X025019000Y011365000D03*
X025019000Y011111000D03*
X025019000Y010857000D03*
X025019000Y010603000D03*
X025019000Y010349000D03*
X025781000Y013651000D03*
X025781000Y013397000D03*
X025781000Y013143000D03*
X025781000Y012889000D03*
X025781000Y012635000D03*
X025781000Y012381000D03*
X025781000Y012127000D03*
X025781000Y011873000D03*
X025781000Y011619000D03*
X025781000Y011365000D03*
X025781000Y011111000D03*
X025781000Y010857000D03*
X025781000Y010603000D03*
X025781000Y010349000D03*
D12*
X009019000Y029651000D03*
D13*
X009019000Y029397000D03*
X009019000Y029143000D03*
X009019000Y028889000D03*
X009019000Y028635000D03*
X009019000Y028381000D03*
X009019000Y028127000D03*
X009019000Y027873000D03*
X009019000Y027619000D03*
X009019000Y027365000D03*
X009019000Y027111000D03*
X009019000Y026857000D03*
X009019000Y026603000D03*
X009019000Y026349000D03*
X009781000Y029651000D03*
X009781000Y029397000D03*
X009781000Y029143000D03*
X009781000Y028889000D03*
X009781000Y028635000D03*
X009781000Y028381000D03*
X009781000Y028127000D03*
X009781000Y027873000D03*
X009781000Y027619000D03*
X009781000Y027365000D03*
X009781000Y027111000D03*
X009781000Y026857000D03*
X009781000Y026603000D03*
X009781000Y026349000D03*
D12*
X025019000Y029651000D03*
D13*
X025019000Y029397000D03*
X025019000Y029143000D03*
X025019000Y028889000D03*
X025019000Y028635000D03*
X025019000Y028381000D03*
X025019000Y028127000D03*
X025019000Y027873000D03*
X025019000Y027619000D03*
X025019000Y027365000D03*
X025019000Y027111000D03*
X025019000Y026857000D03*
X025019000Y026603000D03*
X025019000Y026349000D03*
X025781000Y029651000D03*
X025781000Y029397000D03*
X025781000Y029143000D03*
X025781000Y028889000D03*
X025781000Y028635000D03*
X025781000Y028381000D03*
X025781000Y028127000D03*
X025781000Y027873000D03*
X025781000Y027619000D03*
X025781000Y027365000D03*
X025781000Y027111000D03*
X025781000Y026857000D03*
X025781000Y026603000D03*
X025781000Y026349000D03*
D12*
X008619000Y002762000D03*
D13*
X008619000Y002508000D03*
X008619000Y002254000D03*
X008619000Y002000000D03*
X008619000Y001746000D03*
X008619000Y001492000D03*
X008619000Y001238000D03*
X009381000Y002762000D03*
X009381000Y002508000D03*
X009381000Y002254000D03*
X009381000Y002000000D03*
X009381000Y001746000D03*
X009381000Y001492000D03*
X009381000Y001238000D03*
M02*