M48
; DRILL file {KiCad 9.0.9-9.0.9~ubuntu24.04.1} date 2026-08-31T12:36:30+0000
; FORMAT={-:-/ absolute / metric / decimal}
; #@! TF.CreationDate,2026-08-31T12:36:30+00:00
; #@! TF.GenerationSoftware,Kicad,Pcbnew,9.0.9-9.0.9~ubuntu24.04.1
; #@! TF.FileFunction,MixedPlating,1,4
FMAT,2
METRIC
; #@! TA.AperFunction,Plated,PTH,ViaDrill
T1C0.400
; #@! TA.AperFunction,Plated,PTH,ComponentDrill
T2C0.800
; #@! TA.AperFunction,Plated,PTH,ComponentDrill
T3C0.900
; #@! TA.AperFunction,Plated,PTH,ComponentDrill
T4C0.940
; #@! TA.AperFunction,Plated,PTH,ComponentDrill
T5C1.000
; #@! TA.AperFunction,Plated,PTH,ComponentDrill
T6C1.100
; #@! TA.AperFunction,Plated,PTH,ComponentDrill
T7C1.300
; #@! TA.AperFunction,Plated,PTH,ComponentDrill
T8C1.500
; #@! TA.AperFunction,Plated,PTH,ComponentDrill
T9C1.800
%
G90
G05
T1
X73.0Y-63.5
X73.0Y-70.5
X73.0Y-103.5
X73.0Y-110.5
X73.0Y-143.5
X73.0Y-150.5
X73.0Y-183.5
X73.0Y-190.5
X73.0Y-223.5
X73.0Y-230.5
X73.0Y-263.5
X73.0Y-270.5
X73.0Y-303.5
X73.0Y-310.5
X73.0Y-343.5
X73.0Y-350.5
X113.0Y-63.5
X113.0Y-70.5
X113.0Y-103.5
X113.0Y-110.5
X113.0Y-143.5
X113.0Y-150.5
X113.0Y-183.5
X113.0Y-190.5
X113.0Y-223.5
X113.0Y-230.5
X113.0Y-263.5
X113.0Y-270.5
X113.0Y-303.5
X113.0Y-310.5
X113.0Y-343.5
X113.0Y-350.5
X153.0Y-63.5
X153.0Y-70.5
X153.0Y-103.5
X153.0Y-110.5
X153.0Y-143.5
X153.0Y-150.5
X153.0Y-183.5
X153.0Y-190.5
X153.0Y-223.5
X153.0Y-230.5
X153.0Y-263.5
X153.0Y-270.5
X153.0Y-303.5
X153.0Y-310.5
X153.0Y-343.5
X153.0Y-350.5
X193.0Y-63.5
X193.0Y-70.5
X193.0Y-103.5
X193.0Y-110.5
X193.0Y-143.5
X193.0Y-150.5
X193.0Y-183.5
X193.0Y-190.5
X193.0Y-223.5
X193.0Y-230.5
X193.0Y-263.5
X193.0Y-270.5
X193.0Y-303.5
X193.0Y-310.5
X193.0Y-343.5
X193.0Y-350.5
X233.0Y-63.5
X233.0Y-70.5
X233.0Y-103.5
X233.0Y-110.5
X233.0Y-143.5
X233.0Y-150.5
X233.0Y-183.5
X233.0Y-190.5
X233.0Y-223.5
X233.0Y-230.5
X233.0Y-263.5
X233.0Y-270.5
X233.0Y-303.5
X233.0Y-310.5
X233.0Y-343.5
X233.0Y-350.5
X273.0Y-63.5
X273.0Y-70.5
X273.0Y-103.5
X273.0Y-110.5
X273.0Y-143.5
X273.0Y-150.5
X273.0Y-183.5
X273.0Y-190.5
X273.0Y-223.5
X273.0Y-230.5
X273.0Y-263.5
X273.0Y-270.5
X273.0Y-303.5
X273.0Y-310.5
X273.0Y-343.5
X273.0Y-350.5
X313.0Y-63.5
X313.0Y-70.5
X313.0Y-103.5
X313.0Y-110.5
X313.0Y-143.5
X313.0Y-150.5
X313.0Y-183.5
X313.0Y-190.5
X313.0Y-223.5
X313.0Y-230.5
X313.0Y-263.5
X313.0Y-270.5
X313.0Y-303.5
X313.0Y-310.5
X313.0Y-343.5
X313.0Y-350.5
X353.0Y-63.5
X353.0Y-70.5
X353.0Y-103.5
X353.0Y-110.5
X353.0Y-143.5
X353.0Y-150.5
X353.0Y-183.5
X353.0Y-190.5
X353.0Y-223.5
X353.0Y-230.5
X353.0Y-263.5
X353.0Y-270.5
X353.0Y-303.5
X353.0Y-310.5
X353.0Y-343.5
X353.0Y-350.5
T2
X51.11Y-80.0
X51.11Y-120.0
X51.11Y-160.0
X51.11Y-200.0
X51.11Y-240.0
X51.11Y-280.0
X51.11Y-320.0
X51.11Y-360.0
X68.89Y-80.0
X68.89Y-120.0
X68.89Y-160.0
X68.89Y-200.0
X68.89Y-240.0
X68.89Y-280.0
X68.89Y-320.0
X68.89Y-360.0
X71.73Y-75.0
X71.73Y-115.0
X71.73Y-155.0
X71.73Y-195.0
X71.73Y-235.0
X71.73Y-275.0
X71.73Y-315.0
X71.73Y-355.0
X74.27Y-75.0
X74.27Y-115.0
X74.27Y-155.0
X74.27Y-195.0
X74.27Y-235.0
X74.27Y-275.0
X74.27Y-315.0
X74.27Y-355.0
X91.11Y-80.0
X91.11Y-120.0
X91.11Y-160.0
X91.11Y-200.0
X91.11Y-240.0
X91.11Y-280.0
X91.11Y-320.0
X91.11Y-360.0
X108.89Y-80.0
X108.89Y-120.0
X108.89Y-160.0
X108.89Y-200.0
X108.89Y-240.0
X108.89Y-280.0
X108.89Y-320.0
X108.89Y-360.0
X111.73Y-75.0
X111.73Y-115.0
X111.73Y-155.0
X111.73Y-195.0
X111.73Y-235.0
X111.73Y-275.0
X111.73Y-315.0
X111.73Y-355.0
X114.27Y-75.0
X114.27Y-115.0
X114.27Y-155.0
X114.27Y-195.0
X114.27Y-235.0
X114.27Y-275.0
X114.27Y-315.0
X114.27Y-355.0
X126.19Y-392.38
X126.19Y-394.92
X126.19Y-397.46
X126.19Y-400.0
X126.19Y-402.54
X126.19Y-405.08
X126.19Y-407.62
X130.19Y-123.49
X130.19Y-126.03
X130.19Y-128.57
X130.19Y-131.11
X130.19Y-133.65
X130.19Y-136.19
X130.19Y-138.73
X130.19Y-141.27
X130.19Y-143.81
X130.19Y-146.35
X130.19Y-148.89
X130.19Y-151.43
X130.19Y-153.97
X130.19Y-156.51
X130.19Y-283.49
X130.19Y-286.03
X130.19Y-288.57
X130.19Y-291.11
X130.19Y-293.65
X130.19Y-296.19
X130.19Y-298.73
X130.19Y-301.27
X130.19Y-303.81
X130.19Y-306.35
X130.19Y-308.89
X130.19Y-311.43
X130.19Y-313.97
X130.19Y-316.51
X131.11Y-80.0
X131.11Y-120.0
X131.11Y-160.0
X131.11Y-200.0
X131.11Y-240.0
X131.11Y-280.0
X131.11Y-320.0
X131.11Y-360.0
X133.81Y-392.38
X133.81Y-394.92
X133.81Y-397.46
X133.81Y-400.0
X133.81Y-402.54
X133.81Y-405.08
X133.81Y-407.62
X137.81Y-123.49
X137.81Y-126.03
X137.81Y-128.57
X137.81Y-131.11
X137.81Y-133.65
X137.81Y-136.19
X137.81Y-138.73
X137.81Y-141.27
X137.81Y-143.81
X137.81Y-146.35
X137.81Y-148.89
X137.81Y-151.43
X137.81Y-153.97
X137.81Y-156.51
X137.81Y-283.49
X137.81Y-286.03
X137.81Y-288.57
X137.81Y-291.11
X137.81Y-293.65
X137.81Y-296.19
X137.81Y-298.73
X137.81Y-301.27
X137.81Y-303.81
X137.81Y-306.35
X137.81Y-308.89
X137.81Y-311.43
X137.81Y-313.97
X137.81Y-316.51
X140.73Y-400.0
X141.73Y-140.0
X141.73Y-300.0
X143.27Y-400.0
X144.27Y-140.0
X144.27Y-300.0
X148.89Y-80.0
X148.89Y-120.0
X148.89Y-160.0
X148.89Y-200.0
X148.89Y-240.0
X148.89Y-280.0
X148.89Y-320.0
X148.89Y-360.0
X151.73Y-75.0
X151.73Y-115.0
X151.73Y-155.0
X151.73Y-195.0
X151.73Y-235.0
X151.73Y-275.0
X151.73Y-315.0
X151.73Y-355.0
X154.27Y-75.0
X154.27Y-115.0
X154.27Y-155.0
X154.27Y-195.0
X154.27Y-235.0
X154.27Y-275.0
X154.27Y-315.0
X154.27Y-355.0
X171.11Y-80.0
X171.11Y-120.0
X171.11Y-160.0
X171.11Y-200.0
X171.11Y-240.0
X171.11Y-280.0
X171.11Y-320.0
X171.11Y-360.0
X188.89Y-80.0
X188.89Y-120.0
X188.89Y-160.0
X188.89Y-200.0
X188.89Y-240.0
X188.89Y-280.0
X188.89Y-320.0
X188.89Y-360.0
X191.73Y-75.0
X191.73Y-115.0
X191.73Y-155.0
X191.73Y-195.0
X191.73Y-235.0
X191.73Y-275.0
X191.73Y-315.0
X191.73Y-355.0
X194.27Y-75.0
X194.27Y-115.0
X194.27Y-155.0
X194.27Y-195.0
X194.27Y-235.0
X194.27Y-275.0
X194.27Y-315.0
X194.27Y-355.0
X211.11Y-80.0
X211.11Y-120.0
X211.11Y-160.0
X211.11Y-200.0
X211.11Y-240.0
X211.11Y-280.0
X211.11Y-320.0
X211.11Y-360.0
X228.89Y-80.0
X228.89Y-120.0
X228.89Y-160.0
X228.89Y-200.0
X228.89Y-240.0
X228.89Y-280.0
X228.89Y-320.0
X228.89Y-360.0
X231.73Y-75.0
X231.73Y-115.0
X231.73Y-155.0
X231.73Y-195.0
X231.73Y-235.0
X231.73Y-275.0
X231.73Y-315.0
X231.73Y-355.0
X234.27Y-75.0
X234.27Y-115.0
X234.27Y-155.0
X234.27Y-195.0
X234.27Y-235.0
X234.27Y-275.0
X234.27Y-315.0
X234.27Y-355.0
X251.11Y-80.0
X251.11Y-120.0
X251.11Y-160.0
X251.11Y-200.0
X251.11Y-240.0
X251.11Y-280.0
X251.11Y-320.0
X251.11Y-360.0
X268.89Y-80.0
X268.89Y-120.0
X268.89Y-160.0
X268.89Y-200.0
X268.89Y-240.0
X268.89Y-280.0
X268.89Y-320.0
X268.89Y-360.0
X271.73Y-75.0
X271.73Y-115.0
X271.73Y-155.0
X271.73Y-195.0
X271.73Y-235.0
X271.73Y-275.0
X271.73Y-315.0
X271.73Y-355.0
X274.27Y-75.0
X274.27Y-115.0
X274.27Y-155.0
X274.27Y-195.0
X274.27Y-235.0
X274.27Y-275.0
X274.27Y-315.0
X274.27Y-355.0
X290.19Y-123.49
X290.19Y-126.03
X290.19Y-128.57
X290.19Y-131.11
X290.19Y-133.65
X290.19Y-136.19
X290.19Y-138.73
X290.19Y-141.27
X290.19Y-143.81
X290.19Y-146.35
X290.19Y-148.89
X290.19Y-151.43
X290.19Y-153.97
X290.19Y-156.51
X290.19Y-283.49
X290.19Y-286.03
X290.19Y-288.57
X290.19Y-291.11
X290.19Y-293.65
X290.19Y-296.19
X290.19Y-298.73
X290.19Y-301.27
X290.19Y-303.81
X290.19Y-306.35
X290.19Y-308.89
X290.19Y-311.43
X290.19Y-313.97
X290.19Y-316.51
X291.11Y-80.0
X291.11Y-120.0
X291.11Y-160.0
X291.11Y-200.0
X291.11Y-240.0
X291.11Y-280.0
X291.11Y-320.0
X291.11Y-360.0
X297.81Y-123.49
X297.81Y-126.03
X297.81Y-128.57
X297.81Y-131.11
X297.81Y-133.65
X297.81Y-136.19
X297.81Y-138.73
X297.81Y-141.27
X297.81Y-143.81
X297.81Y-146.35
X297.81Y-148.89
X297.81Y-151.43
X297.81Y-153.97
X297.81Y-156.51
X297.81Y-283.49
X297.81Y-286.03
X297.81Y-288.57
X297.81Y-291.11
X297.81Y-293.65
X297.81Y-296.19
X297.81Y-298.73
X297.81Y-301.27
X297.81Y-303.81
X297.81Y-306.35
X297.81Y-308.89
X297.81Y-311.43
X297.81Y-313.97
X297.81Y-316.51
X301.73Y-140.0
X301.73Y-300.0
X304.27Y-140.0
X304.27Y-300.0
X308.89Y-80.0
X308.89Y-120.0
X308.89Y-160.0
X308.89Y-200.0
X308.89Y-240.0
X308.89Y-280.0
X308.89Y-320.0
X308.89Y-360.0
X311.73Y-75.0
X311.73Y-115.0
X311.73Y-155.0
X311.73Y-195.0
X311.73Y-235.0
X311.73Y-275.0
X311.73Y-315.0
X311.73Y-355.0
X314.27Y-75.0
X314.27Y-115.0
X314.27Y-155.0
X314.27Y-195.0
X314.27Y-235.0
X314.27Y-275.0
X314.27Y-315.0
X314.27Y-355.0
X331.11Y-80.0
X331.11Y-120.0
X331.11Y-160.0
X331.11Y-200.0
X331.11Y-240.0
X331.11Y-280.0
X331.11Y-320.0
X331.11Y-360.0
X348.89Y-80.0
X348.89Y-120.0
X348.89Y-160.0
X348.89Y-200.0
X348.89Y-240.0
X348.89Y-280.0
X348.89Y-320.0
X348.89Y-360.0
X351.73Y-75.0
X351.73Y-115.0
X351.73Y-155.0
X351.73Y-195.0
X351.73Y-235.0
X351.73Y-275.0
X351.73Y-315.0
X351.73Y-355.0
X354.27Y-75.0
X354.27Y-115.0
X354.27Y-155.0
X354.27Y-195.0
X354.27Y-235.0
X354.27Y-275.0
X354.27Y-315.0
X354.27Y-355.0
T3
X82.75Y-388.0
X85.25Y-388.0
X144.92Y-390.0
X144.92Y-396.0
X155.08Y-390.0
X155.08Y-396.0
T4
X105.0Y-388.19
X105.0Y-390.73
X105.0Y-393.27
X105.0Y-395.81
X175.87Y-338.73
X175.87Y-341.27
X178.41Y-338.73
X178.41Y-341.27
X180.95Y-338.73
X180.95Y-341.27
X183.49Y-338.73
X183.49Y-341.27
X186.03Y-338.73
X186.03Y-341.27
X188.57Y-338.73
X188.57Y-341.27
X191.11Y-338.73
X191.11Y-341.27
X193.65Y-338.73
X193.65Y-341.27
X196.19Y-338.73
X196.19Y-341.27
X198.73Y-338.73
X198.73Y-341.27
X201.27Y-338.73
X201.27Y-341.27
X203.81Y-338.73
X203.81Y-341.27
X206.35Y-338.73
X206.35Y-341.27
X208.89Y-338.73
X208.89Y-341.27
X211.43Y-338.73
X211.43Y-341.27
X213.97Y-338.73
X213.97Y-341.27
X216.51Y-338.73
X216.51Y-341.27
X219.05Y-338.73
X219.05Y-341.27
X221.59Y-338.73
X221.59Y-341.27
X224.13Y-338.73
X224.13Y-341.27
T5
X196.75Y-389.75
X196.75Y-394.25
X196.75Y-405.75
X196.75Y-410.25
X203.25Y-389.75
X203.25Y-394.25
X203.25Y-405.75
X203.25Y-410.25
X212.75Y-389.75
X212.75Y-394.25
X212.75Y-405.75
X212.75Y-410.25
X219.25Y-389.75
X219.25Y-394.25
X219.25Y-405.75
X219.25Y-410.25
X228.75Y-389.75
X228.75Y-394.25
X228.75Y-405.75
X228.75Y-410.25
X235.25Y-389.75
X235.25Y-394.25
X235.25Y-405.75
X235.25Y-410.25
X244.75Y-389.75
X244.75Y-394.25
X244.75Y-405.75
X244.75Y-410.25
X251.25Y-389.75
X251.25Y-394.25
X251.25Y-405.75
X251.25Y-410.25
X260.75Y-389.75
X260.75Y-394.25
X260.75Y-405.75
X260.75Y-410.25
X267.25Y-389.75
X267.25Y-394.25
X267.25Y-405.75
X267.25Y-410.25
X276.75Y-389.75
X276.75Y-394.25
X276.75Y-405.75
X276.75Y-410.25
X283.25Y-389.75
X283.25Y-394.25
X283.25Y-405.75
X283.25Y-410.25
T6
X44.92Y-385.0
X55.08Y-385.0
X69.5Y-390.0
X74.5Y-390.0
T7
X45.0Y-413.0
X67.0Y-413.0
X160.0Y-385.0
X167.0Y-385.0
X174.0Y-385.0
X181.0Y-385.0
T8
X80.65Y-410.0
X93.35Y-410.0
T9
X45.5Y-398.0
X50.0Y-402.85
X54.5Y-398.0
M30
