; XNC file generated by gerbonara
M48
METRIC
T01C0000.40000
T02C0000.80000
T03C0000.90000
T04C0000.94000
T05C0001.00000
T06C0001.10000
T07C0001.30000
T08C0001.50000
T09C0001.80000
%
T06
G05
X0029.50000Y0030.00000
X0034.50000Y0030.00000
T02
X0111.73000Y0065.00000
X0114.27000Y0065.00000
X0151.73000Y0065.00000
X0154.27000Y0065.00000
X0191.73000Y0065.00000
X0194.27000Y0065.00000
X0231.73000Y0065.00000
X0234.27000Y0065.00000
X0271.73000Y0065.00000
X0274.27000Y0065.00000
X0311.73000Y0065.00000
X0314.27000Y0065.00000
X0311.73000Y0105.00000
X0314.27000Y0105.00000
X0271.73000Y0105.00000
X0274.27000Y0105.00000
X0231.73000Y0105.00000
X0234.27000Y0105.00000
X0191.73000Y0105.00000
X0194.27000Y0105.00000
T03
X0042.75000Y0032.00000
X0045.25000Y0032.00000
T02
X0151.73000Y0105.00000
X0154.27000Y0105.00000
X0111.73000Y0105.00000
X0114.27000Y0105.00000
X0071.73000Y0105.00000
X0074.27000Y0105.00000
X0031.73000Y0105.00000
X0034.27000Y0105.00000
X0031.73000Y0145.00000
X0034.27000Y0145.00000
X0071.73000Y0145.00000
X0074.27000Y0145.00000
X0111.73000Y0145.00000
X0114.27000Y0145.00000
X0151.73000Y0145.00000
X0154.27000Y0145.00000
X0191.73000Y0145.00000
X0194.27000Y0145.00000
X0231.73000Y0145.00000
X0234.27000Y0145.00000
X0101.73000Y0120.00000
X0104.27000Y0120.00000
X0271.73000Y0145.00000
X0274.27000Y0145.00000
X0311.73000Y0145.00000
X0314.27000Y0145.00000
X0311.73000Y0185.00000
X0314.27000Y0185.00000
X0271.73000Y0185.00000
X0274.27000Y0185.00000
X0231.73000Y0185.00000
X0234.27000Y0185.00000
X0191.73000Y0185.00000
X0194.27000Y0185.00000
X0151.73000Y0185.00000
X0154.27000Y0185.00000
X0111.73000Y0185.00000
X0114.27000Y0185.00000
X0071.73000Y0185.00000
X0074.27000Y0185.00000
X0031.73000Y0185.00000
X0034.27000Y0185.00000
X0261.73000Y0120.00000
X0264.27000Y0120.00000
X0031.73000Y0225.00000
X0034.27000Y0225.00000
X0071.73000Y0225.00000
X0074.27000Y0225.00000
X0111.73000Y0225.00000
X0114.27000Y0225.00000
X0151.73000Y0225.00000
X0154.27000Y0225.00000
X0191.73000Y0225.00000
X0194.27000Y0225.00000
X0231.73000Y0225.00000
X0234.27000Y0225.00000
X0271.73000Y0225.00000
X0274.27000Y0225.00000
X0311.73000Y0225.00000
X0314.27000Y0225.00000
X0311.73000Y0265.00000
X0314.27000Y0265.00000
X0271.73000Y0265.00000
X0274.27000Y0265.00000
X0101.73000Y0280.00000
X0104.27000Y0280.00000
X0231.73000Y0265.00000
X0234.27000Y0265.00000
X0191.73000Y0265.00000
X0194.27000Y0265.00000
X0151.73000Y0265.00000
X0154.27000Y0265.00000
X0111.73000Y0265.00000
X0114.27000Y0265.00000
X0071.73000Y0265.00000
X0074.27000Y0265.00000
X0031.73000Y0265.00000
X0034.27000Y0265.00000
X0031.73000Y0305.00000
X0034.27000Y0305.00000
X0071.73000Y0305.00000
X0074.27000Y0305.00000
X0111.73000Y0305.00000
X0114.27000Y0305.00000
X0151.73000Y0305.00000
X0154.27000Y0305.00000
X0261.73000Y0280.00000
X0264.27000Y0280.00000
X0191.73000Y0305.00000
X0194.27000Y0305.00000
X0231.73000Y0305.00000
X0234.27000Y0305.00000
X0271.73000Y0305.00000
X0274.27000Y0305.00000
X0311.73000Y0305.00000
X0314.27000Y0305.00000
X0311.73000Y0345.00000
X0314.27000Y0345.00000
X0271.73000Y0345.00000
X0274.27000Y0345.00000
X0231.73000Y0345.00000
X0234.27000Y0345.00000
X0191.73000Y0345.00000
X0194.27000Y0345.00000
X0151.73000Y0345.00000
X0154.27000Y0345.00000
X0111.73000Y0345.00000
X0114.27000Y0345.00000
X0100.73000Y0020.00000
X0103.27000Y0020.00000
X0071.73000Y0345.00000
X0074.27000Y0345.00000
X0031.73000Y0345.00000
X0034.27000Y0345.00000
X0031.73000Y0065.00000
X0034.27000Y0065.00000
X0071.73000Y0065.00000
X0074.27000Y0065.00000
T06
X0004.92000Y0035.00000
X0015.08000Y0035.00000
T07
X0005.00000Y0007.00000
X0027.00000Y0007.00000
T04
X0135.87000Y0078.73000
X0135.87000Y0081.27000
X0138.41000Y0078.73000
X0138.41000Y0081.27000
X0140.95000Y0078.73000
X0140.95000Y0081.27000
X0143.49000Y0078.73000
X0143.49000Y0081.27000
X0146.03000Y0078.73000
X0146.03000Y0081.27000
X0148.57000Y0078.73000
X0148.57000Y0081.27000
X0151.11000Y0078.73000
X0151.11000Y0081.27000
X0153.65000Y0078.73000
X0153.65000Y0081.27000
X0156.19000Y0078.73000
X0156.19000Y0081.27000
X0158.73000Y0078.73000
X0158.73000Y0081.27000
X0161.27000Y0078.73000
X0161.27000Y0081.27000
X0163.81000Y0078.73000
X0163.81000Y0081.27000
X0166.35000Y0078.73000
X0166.35000Y0081.27000
X0168.89000Y0078.73000
X0168.89000Y0081.27000
X0171.43000Y0078.73000
X0171.43000Y0081.27000
X0173.97000Y0078.73000
X0173.97000Y0081.27000
X0176.51000Y0078.73000
X0176.51000Y0081.27000
X0179.05000Y0078.73000
X0179.05000Y0081.27000
X0181.59000Y0078.73000
X0181.59000Y0081.27000
X0184.13000Y0078.73000
X0184.13000Y0081.27000
X0065.00000Y0031.81000
X0065.00000Y0029.27000
X0065.00000Y0026.73000
X0065.00000Y0024.19000
T09
X0005.50000Y0022.00000
X0010.00000Y0017.15000
X0014.50000Y0022.00000
T03
X0104.92000Y0030.00000
X0115.08000Y0030.00000
X0104.92000Y0024.00000
X0115.08000Y0024.00000
T02
X0011.11000Y0060.00000
X0028.89000Y0060.00000
X0051.11000Y0140.00000
X0068.89000Y0140.00000
X0091.11000Y0140.00000
X0108.89000Y0140.00000
X0131.11000Y0140.00000
X0148.89000Y0140.00000
X0011.11000Y0180.00000
X0028.89000Y0180.00000
X0051.11000Y0180.00000
X0068.89000Y0180.00000
X0091.11000Y0180.00000
X0108.89000Y0180.00000
X0131.11000Y0180.00000
X0148.89000Y0180.00000
X0171.11000Y0060.00000
X0188.89000Y0060.00000
X0211.11000Y0060.00000
X0228.89000Y0060.00000
X0251.11000Y0060.00000
X0268.89000Y0060.00000
X0051.11000Y0060.00000
X0068.89000Y0060.00000
X0291.11000Y0060.00000
X0308.89000Y0060.00000
X0171.11000Y0100.00000
X0188.89000Y0100.00000
X0211.11000Y0100.00000
X0228.89000Y0100.00000
X0251.11000Y0100.00000
X0268.89000Y0100.00000
X0291.11000Y0100.00000
X0308.89000Y0100.00000
X0171.11000Y0140.00000
X0188.89000Y0140.00000
X0211.11000Y0140.00000
X0228.89000Y0140.00000
X0251.11000Y0140.00000
X0268.89000Y0140.00000
X0291.11000Y0140.00000
X0308.89000Y0140.00000
X0171.11000Y0180.00000
X0188.89000Y0180.00000
X0091.11000Y0060.00000
X0108.89000Y0060.00000
X0211.11000Y0180.00000
X0228.89000Y0180.00000
X0251.11000Y0180.00000
X0268.89000Y0180.00000
X0291.11000Y0180.00000
X0308.89000Y0180.00000
X0011.11000Y0220.00000
X0028.89000Y0220.00000
X0051.11000Y0220.00000
X0068.89000Y0220.00000
X0091.11000Y0220.00000
X0108.89000Y0220.00000
X0131.11000Y0220.00000
X0148.89000Y0220.00000
X0011.11000Y0260.00000
X0028.89000Y0260.00000
X0051.11000Y0260.00000
X0068.89000Y0260.00000
X0091.11000Y0260.00000
X0108.89000Y0260.00000
X0131.11000Y0060.00000
X0148.89000Y0060.00000
X0131.11000Y0260.00000
X0148.89000Y0260.00000
X0011.11000Y0300.00000
X0028.89000Y0300.00000
X0051.11000Y0300.00000
X0068.89000Y0300.00000
X0091.11000Y0300.00000
X0108.89000Y0300.00000
X0131.11000Y0300.00000
X0148.89000Y0300.00000
X0011.11000Y0340.00000
X0028.89000Y0340.00000
X0051.11000Y0340.00000
X0068.89000Y0340.00000
X0091.11000Y0340.00000
X0108.89000Y0340.00000
X0131.11000Y0340.00000
X0148.89000Y0340.00000
X0171.11000Y0220.00000
X0188.89000Y0220.00000
X0011.11000Y0100.00000
X0028.89000Y0100.00000
X0211.11000Y0220.00000
X0228.89000Y0220.00000
X0251.11000Y0220.00000
X0268.89000Y0220.00000
X0291.11000Y0220.00000
X0308.89000Y0220.00000
X0171.11000Y0260.00000
X0188.89000Y0260.00000
X0211.11000Y0260.00000
X0228.89000Y0260.00000
X0251.11000Y0260.00000
X0268.89000Y0260.00000
X0291.11000Y0260.00000
X0308.89000Y0260.00000
X0171.11000Y0300.00000
X0188.89000Y0300.00000
X0211.11000Y0300.00000
X0228.89000Y0300.00000
X0251.11000Y0300.00000
X0268.89000Y0300.00000
X0051.11000Y0100.00000
X0068.89000Y0100.00000
X0291.11000Y0300.00000
X0308.89000Y0300.00000
X0171.11000Y0340.00000
X0188.89000Y0340.00000
X0211.11000Y0340.00000
X0228.89000Y0340.00000
X0251.11000Y0340.00000
X0268.89000Y0340.00000
X0291.11000Y0340.00000
X0308.89000Y0340.00000
X0091.11000Y0100.00000
X0108.89000Y0100.00000
X0131.11000Y0100.00000
X0148.89000Y0100.00000
X0011.11000Y0140.00000
X0028.89000Y0140.00000
T05
X0156.75000Y0030.25000
X0156.75000Y0025.75000
X0163.25000Y0030.25000
X0163.25000Y0025.75000
X0204.75000Y0014.25000
X0204.75000Y0009.75000
X0211.25000Y0014.25000
X0211.25000Y0009.75000
X0220.75000Y0014.25000
X0220.75000Y0009.75000
X0227.25000Y0014.25000
X0227.25000Y0009.75000
X0236.75000Y0014.25000
X0236.75000Y0009.75000
X0243.25000Y0014.25000
X0243.25000Y0009.75000
T08
X0040.65000Y0010.00000
X0053.35000Y0010.00000
T05
X0172.75000Y0030.25000
X0172.75000Y0025.75000
X0179.25000Y0030.25000
X0179.25000Y0025.75000
X0188.75000Y0030.25000
X0188.75000Y0025.75000
X0195.25000Y0030.25000
X0195.25000Y0025.75000
X0204.75000Y0030.25000
X0204.75000Y0025.75000
X0211.25000Y0030.25000
X0211.25000Y0025.75000
X0220.75000Y0030.25000
X0220.75000Y0025.75000
X0227.25000Y0030.25000
X0227.25000Y0025.75000
X0236.75000Y0030.25000
X0236.75000Y0025.75000
X0243.25000Y0030.25000
X0243.25000Y0025.75000
X0156.75000Y0014.25000
X0156.75000Y0009.75000
X0163.25000Y0014.25000
X0163.25000Y0009.75000
X0172.75000Y0014.25000
X0172.75000Y0009.75000
X0179.25000Y0014.25000
X0179.25000Y0009.75000
X0188.75000Y0014.25000
X0188.75000Y0009.75000
X0195.25000Y0014.25000
X0195.25000Y0009.75000
T07
X0120.00000Y0035.00000
X0127.00000Y0035.00000
X0134.00000Y0035.00000
X0141.00000Y0035.00000
T02
X0090.19000Y0136.51000
X0090.19000Y0133.97000
X0090.19000Y0131.43000
X0090.19000Y0128.89000
X0090.19000Y0126.35000
X0090.19000Y0123.81000
X0090.19000Y0121.27000
X0090.19000Y0118.73000
X0090.19000Y0116.19000
X0090.19000Y0113.65000
X0090.19000Y0111.11000
X0090.19000Y0108.57000
X0090.19000Y0106.03000
X0090.19000Y0103.49000
X0097.81000Y0136.51000
X0097.81000Y0133.97000
X0097.81000Y0131.43000
X0097.81000Y0128.89000
X0097.81000Y0126.35000
X0097.81000Y0123.81000
X0097.81000Y0121.27000
X0097.81000Y0118.73000
X0097.81000Y0116.19000
X0097.81000Y0113.65000
X0097.81000Y0111.11000
X0097.81000Y0108.57000
X0097.81000Y0106.03000
X0097.81000Y0103.49000
X0250.19000Y0136.51000
X0250.19000Y0133.97000
X0250.19000Y0131.43000
X0250.19000Y0128.89000
X0250.19000Y0126.35000
X0250.19000Y0123.81000
X0250.19000Y0121.27000
X0250.19000Y0118.73000
X0250.19000Y0116.19000
X0250.19000Y0113.65000
X0250.19000Y0111.11000
X0250.19000Y0108.57000
X0250.19000Y0106.03000
X0250.19000Y0103.49000
X0257.81000Y0136.51000
X0257.81000Y0133.97000
X0257.81000Y0131.43000
X0257.81000Y0128.89000
X0257.81000Y0126.35000
X0257.81000Y0123.81000
X0257.81000Y0121.27000
X0257.81000Y0118.73000
X0257.81000Y0116.19000
X0257.81000Y0113.65000
X0257.81000Y0111.11000
X0257.81000Y0108.57000
X0257.81000Y0106.03000
X0257.81000Y0103.49000
X0090.19000Y0296.51000
X0090.19000Y0293.97000
X0090.19000Y0291.43000
X0090.19000Y0288.89000
X0090.19000Y0286.35000
X0090.19000Y0283.81000
X0090.19000Y0281.27000
X0090.19000Y0278.73000
X0090.19000Y0276.19000
X0090.19000Y0273.65000
X0090.19000Y0271.11000
X0090.19000Y0268.57000
X0090.19000Y0266.03000
X0090.19000Y0263.49000
X0097.81000Y0296.51000
X0097.81000Y0293.97000
X0097.81000Y0291.43000
X0097.81000Y0288.89000
X0097.81000Y0286.35000
X0097.81000Y0283.81000
X0097.81000Y0281.27000
X0097.81000Y0278.73000
X0097.81000Y0276.19000
X0097.81000Y0273.65000
X0097.81000Y0271.11000
X0097.81000Y0268.57000
X0097.81000Y0266.03000
X0097.81000Y0263.49000
X0250.19000Y0296.51000
X0250.19000Y0293.97000
X0250.19000Y0291.43000
X0250.19000Y0288.89000
X0250.19000Y0286.35000
X0250.19000Y0283.81000
X0250.19000Y0281.27000
X0250.19000Y0278.73000
X0250.19000Y0276.19000
X0250.19000Y0273.65000
X0250.19000Y0271.11000
X0250.19000Y0268.57000
X0250.19000Y0266.03000
X0250.19000Y0263.49000
X0257.81000Y0296.51000
X0257.81000Y0293.97000
X0257.81000Y0291.43000
X0257.81000Y0288.89000
X0257.81000Y0286.35000
X0257.81000Y0283.81000
X0257.81000Y0281.27000
X0257.81000Y0278.73000
X0257.81000Y0276.19000
X0257.81000Y0273.65000
X0257.81000Y0271.11000
X0257.81000Y0268.57000
X0257.81000Y0266.03000
X0257.81000Y0263.49000
X0086.19000Y0027.62000
X0086.19000Y0025.08000
X0086.19000Y0022.54000
X0086.19000Y0020.00000
X0086.19000Y0017.46000
X0086.19000Y0014.92000
X0086.19000Y0012.38000
X0093.81000Y0027.62000
X0093.81000Y0025.08000
X0093.81000Y0022.54000
X0093.81000Y0020.00000
X0093.81000Y0017.46000
X0093.81000Y0014.92000
X0093.81000Y0012.38000
T01
X0193.00000Y0068.70000
X0233.00000Y0068.70000
X0273.00000Y0068.70000
X0313.00000Y0068.70000
X0313.00000Y0108.70000
X0273.00000Y0108.70000
X0233.00000Y0108.70000
X0193.00000Y0108.70000
X0153.00000Y0108.70000
X0113.00000Y0108.70000
X0073.00000Y0108.70000
X0033.00000Y0108.70000
X0033.00000Y0148.70000
X0073.00000Y0148.70000
X0113.00000Y0148.70000
X0153.00000Y0148.70000
X0193.00000Y0148.70000
X0233.00000Y0148.70000
X0273.00000Y0148.70000
X0313.00000Y0148.70000
X0313.00000Y0188.70000
X0273.00000Y0188.70000
X0233.00000Y0188.70000
X0193.00000Y0188.70000
X0153.00000Y0188.70000
X0113.00000Y0188.70000
X0073.00000Y0188.70000
X0033.00000Y0188.70000
X0033.00000Y0228.70000
X0073.00000Y0228.70000
X0113.00000Y0228.70000
X0153.00000Y0228.70000
X0193.00000Y0228.70000
X0233.00000Y0228.70000
X0273.00000Y0228.70000
X0313.00000Y0228.70000
X0313.00000Y0268.70000
X0273.00000Y0268.70000
X0233.00000Y0268.70000
X0193.00000Y0268.70000
X0153.00000Y0268.70000
X0113.00000Y0268.70000
X0073.00000Y0268.70000
X0033.00000Y0268.70000
X0033.00000Y0308.70000
X0073.00000Y0308.70000
X0113.00000Y0308.70000
X0153.00000Y0308.70000
X0193.00000Y0308.70000
X0233.00000Y0308.70000
X0033.00000Y0068.70000
X0273.00000Y0308.70000
X0313.00000Y0308.70000
X0313.00000Y0348.70000
X0273.00000Y0348.70000
X0233.00000Y0348.70000
X0193.00000Y0348.70000
X0153.00000Y0348.70000
X0113.00000Y0348.70000
X0073.00000Y0348.70000
X0033.00000Y0348.70000
X0073.00000Y0068.70000
X0113.00000Y0068.70000
X0153.00000Y0068.70000
M30