G04 Gerber file generated by Gerbonara*
%MOMM*%
%FSLAX45Y45*%
%IPPOS*%
G75
%LPD*%
%ADD10R,1.5X1.0*%
%ADD11R,1.0X1.5*%
D10*
X019050000Y007380000D03*
X019050000Y007220000D03*
X019550000Y007380000D03*
X019550000Y007220000D03*
D11*
X019300000Y007550000D03*
X019300000Y007050000D03*
D10*
X023050000Y007380000D03*
X023050000Y007220000D03*
X023550000Y007380000D03*
X023550000Y007220000D03*
D11*
X023300000Y007550000D03*
X023300000Y007050000D03*
D10*
X027050000Y007380000D03*
X027050000Y007220000D03*
X027550000Y007380000D03*
X027550000Y007220000D03*
D11*
X027300000Y007550000D03*
X027300000Y007050000D03*
D10*
X031050000Y007380000D03*
X031050000Y007220000D03*
X031550000Y007380000D03*
X031550000Y007220000D03*
D11*
X031300000Y007550000D03*
X031300000Y007050000D03*
D10*
X031050000Y011380000D03*
X031050000Y011220000D03*
X031550000Y011380000D03*
X031550000Y011220000D03*
D11*
X031300000Y011550000D03*
X031300000Y011050000D03*
D10*
X027050000Y011380000D03*
X027050000Y011220000D03*
X027550000Y011380000D03*
X027550000Y011220000D03*
D11*
X027300000Y011550000D03*
X027300000Y011050000D03*
D10*
X023050000Y011380000D03*
X023050000Y011220000D03*
X023550000Y011380000D03*
X023550000Y011220000D03*
D11*
X023300000Y011550000D03*
X023300000Y011050000D03*
D10*
X019050000Y011380000D03*
X019050000Y011220000D03*
X019550000Y011380000D03*
X019550000Y011220000D03*
D11*
X019300000Y011550000D03*
X019300000Y011050000D03*
D10*
X015050000Y011380000D03*
X015050000Y011220000D03*
X015550000Y011380000D03*
X015550000Y011220000D03*
D11*
X015300000Y011550000D03*
X015300000Y011050000D03*
D10*
X011050000Y011380000D03*
X011050000Y011220000D03*
X011550000Y011380000D03*
X011550000Y011220000D03*
D11*
X011300000Y011550000D03*
X011300000Y011050000D03*
D10*
X007050000Y011380000D03*
X007050000Y011220000D03*
X007550000Y011380000D03*
X007550000Y011220000D03*
D11*
X007300000Y011550000D03*
X007300000Y011050000D03*
D10*
X003050000Y011380000D03*
X003050000Y011220000D03*
X003550000Y011380000D03*
X003550000Y011220000D03*
D11*
X003300000Y011550000D03*
X003300000Y011050000D03*
D10*
X003050000Y015380000D03*
X003050000Y015220000D03*
X003550000Y015380000D03*
X003550000Y015220000D03*
D11*
X003300000Y015550000D03*
X003300000Y015050000D03*
D10*
X007050000Y015380000D03*
X007050000Y015220000D03*
X007550000Y015380000D03*
X007550000Y015220000D03*
D11*
X007300000Y015550000D03*
X007300000Y015050000D03*
D10*
X011050000Y015380000D03*
X011050000Y015220000D03*
X011550000Y015380000D03*
X011550000Y015220000D03*
D11*
X011300000Y015550000D03*
X011300000Y015050000D03*
D10*
X015050000Y015380000D03*
X015050000Y015220000D03*
X015550000Y015380000D03*
X015550000Y015220000D03*
D11*
X015300000Y015550000D03*
X015300000Y015050000D03*
D10*
X019050000Y015380000D03*
X019050000Y015220000D03*
X019550000Y015380000D03*
X019550000Y015220000D03*
D11*
X019300000Y015550000D03*
X019300000Y015050000D03*
D10*
X023050000Y015380000D03*
X023050000Y015220000D03*
X023550000Y015380000D03*
X023550000Y015220000D03*
D11*
X023300000Y015550000D03*
X023300000Y015050000D03*
D10*
X027050000Y015380000D03*
X027050000Y015220000D03*
X027550000Y015380000D03*
X027550000Y015220000D03*
D11*
X027300000Y015550000D03*
X027300000Y015050000D03*
D10*
X031050000Y015380000D03*
X031050000Y015220000D03*
X031550000Y015380000D03*
X031550000Y015220000D03*
D11*
X031300000Y015550000D03*
X031300000Y015050000D03*
D10*
X031050000Y019380000D03*
X031050000Y019220000D03*
X031550000Y019380000D03*
X031550000Y019220000D03*
D11*
X031300000Y019550000D03*
X031300000Y019050000D03*
D10*
X027050000Y019380000D03*
X027050000Y019220000D03*
X027550000Y019380000D03*
X027550000Y019220000D03*
D11*
X027300000Y019550000D03*
X027300000Y019050000D03*
D10*
X023050000Y019380000D03*
X023050000Y019220000D03*
X023550000Y019380000D03*
X023550000Y019220000D03*
D11*
X023300000Y019550000D03*
X023300000Y019050000D03*
D10*
X019050000Y019380000D03*
X019050000Y019220000D03*
X019550000Y019380000D03*
X019550000Y019220000D03*
D11*
X019300000Y019550000D03*
X019300000Y019050000D03*
D10*
X015050000Y019380000D03*
X015050000Y019220000D03*
X015550000Y019380000D03*
X015550000Y019220000D03*
D11*
X015300000Y019550000D03*
X015300000Y019050000D03*
D10*
X011050000Y019380000D03*
X011050000Y019220000D03*
X011550000Y019380000D03*
X011550000Y019220000D03*
D11*
X011300000Y019550000D03*
X011300000Y019050000D03*
D10*
X007050000Y019380000D03*
X007050000Y019220000D03*
X007550000Y019380000D03*
X007550000Y019220000D03*
D11*
X007300000Y019550000D03*
X007300000Y019050000D03*
D10*
X003050000Y019380000D03*
X003050000Y019220000D03*
X003550000Y019380000D03*
X003550000Y019220000D03*
D11*
X003300000Y019550000D03*
X003300000Y019050000D03*
D10*
X003050000Y023380000D03*
X003050000Y023220000D03*
X003550000Y023380000D03*
X003550000Y023220000D03*
D11*
X003300000Y023550000D03*
X003300000Y023050000D03*
D10*
X007050000Y023380000D03*
X007050000Y023220000D03*
X007550000Y023380000D03*
X007550000Y023220000D03*
D11*
X007300000Y023550000D03*
X007300000Y023050000D03*
D10*
X011050000Y023380000D03*
X011050000Y023220000D03*
X011550000Y023380000D03*
X011550000Y023220000D03*
D11*
X011300000Y023550000D03*
X011300000Y023050000D03*
D10*
X015050000Y023380000D03*
X015050000Y023220000D03*
X015550000Y023380000D03*
X015550000Y023220000D03*
D11*
X015300000Y023550000D03*
X015300000Y023050000D03*
D10*
X019050000Y023380000D03*
X019050000Y023220000D03*
X019550000Y023380000D03*
X019550000Y023220000D03*
D11*
X019300000Y023550000D03*
X019300000Y023050000D03*
D10*
X023050000Y023380000D03*
X023050000Y023220000D03*
X023550000Y023380000D03*
X023550000Y023220000D03*
D11*
X023300000Y023550000D03*
X023300000Y023050000D03*
D10*
X027050000Y023380000D03*
X027050000Y023220000D03*
X027550000Y023380000D03*
X027550000Y023220000D03*
D11*
X027300000Y023550000D03*
X027300000Y023050000D03*
D10*
X031050000Y023380000D03*
X031050000Y023220000D03*
X031550000Y023380000D03*
X031550000Y023220000D03*
D11*
X031300000Y023550000D03*
X031300000Y023050000D03*
D10*
X031050000Y027380000D03*
X031050000Y027220000D03*
X031550000Y027380000D03*
X031550000Y027220000D03*
D11*
X031300000Y027550000D03*
X031300000Y027050000D03*
D10*
X027050000Y027380000D03*
X027050000Y027220000D03*
X027550000Y027380000D03*
X027550000Y027220000D03*
D11*
X027300000Y027550000D03*
X027300000Y027050000D03*
D10*
X023050000Y027380000D03*
X023050000Y027220000D03*
X023550000Y027380000D03*
X023550000Y027220000D03*
D11*
X023300000Y027550000D03*
X023300000Y027050000D03*
D10*
X019050000Y027380000D03*
X019050000Y027220000D03*
X019550000Y027380000D03*
X019550000Y027220000D03*
D11*
X019300000Y027550000D03*
X019300000Y027050000D03*
D10*
X015050000Y027380000D03*
X015050000Y027220000D03*
X015550000Y027380000D03*
X015550000Y027220000D03*
D11*
X015300000Y027550000D03*
X015300000Y027050000D03*
D10*
X011050000Y027380000D03*
X011050000Y027220000D03*
X011550000Y027380000D03*
X011550000Y027220000D03*
D11*
X011300000Y027550000D03*
X011300000Y027050000D03*
D10*
X007050000Y027380000D03*
X007050000Y027220000D03*
X007550000Y027380000D03*
X007550000Y027220000D03*
D11*
X007300000Y027550000D03*
X007300000Y027050000D03*
D10*
X003050000Y027380000D03*
X003050000Y027220000D03*
X003550000Y027380000D03*
X003550000Y027220000D03*
D11*
X003300000Y027550000D03*
X003300000Y027050000D03*
D10*
X003050000Y031380000D03*
X003050000Y031220000D03*
X003550000Y031380000D03*
X003550000Y031220000D03*
D11*
X003300000Y031550000D03*
X003300000Y031050000D03*
D10*
X007050000Y031380000D03*
X007050000Y031220000D03*
X007550000Y031380000D03*
X007550000Y031220000D03*
D11*
X007300000Y031550000D03*
X007300000Y031050000D03*
D10*
X011050000Y031380000D03*
X011050000Y031220000D03*
X011550000Y031380000D03*
X011550000Y031220000D03*
D11*
X011300000Y031550000D03*
X011300000Y031050000D03*
D10*
X015050000Y031380000D03*
X015050000Y031220000D03*
X015550000Y031380000D03*
X015550000Y031220000D03*
D11*
X015300000Y031550000D03*
X015300000Y031050000D03*
D10*
X019050000Y031380000D03*
X019050000Y031220000D03*
X019550000Y031380000D03*
X019550000Y031220000D03*
D11*
X019300000Y031550000D03*
X019300000Y031050000D03*
D10*
X023050000Y031380000D03*
X023050000Y031220000D03*
X023550000Y031380000D03*
X023550000Y031220000D03*
D11*
X023300000Y031550000D03*
X023300000Y031050000D03*
D10*
X003050000Y007380000D03*
X003050000Y007220000D03*
X003550000Y007380000D03*
X003550000Y007220000D03*
D11*
X003300000Y007550000D03*
X003300000Y007050000D03*
D10*
X027050000Y031380000D03*
X027050000Y031220000D03*
X027550000Y031380000D03*
X027550000Y031220000D03*
D11*
X027300000Y031550000D03*
X027300000Y031050000D03*
D10*
X031050000Y031380000D03*
X031050000Y031220000D03*
X031550000Y031380000D03*
X031550000Y031220000D03*
D11*
X031300000Y031550000D03*
X031300000Y031050000D03*
D10*
X031050000Y035380000D03*
X031050000Y035220000D03*
X031550000Y035380000D03*
X031550000Y035220000D03*
D11*
X031300000Y035550000D03*
X031300000Y035050000D03*
D10*
X027050000Y035380000D03*
X027050000Y035220000D03*
X027550000Y035380000D03*
X027550000Y035220000D03*
D11*
X027300000Y035550000D03*
X027300000Y035050000D03*
D10*
X023050000Y035380000D03*
X023050000Y035220000D03*
X023550000Y035380000D03*
X023550000Y035220000D03*
D11*
X023300000Y035550000D03*
X023300000Y035050000D03*
D10*
X019050000Y035380000D03*
X019050000Y035220000D03*
X019550000Y035380000D03*
X019550000Y035220000D03*
D11*
X019300000Y035550000D03*
X019300000Y035050000D03*
D10*
X015050000Y035380000D03*
X015050000Y035220000D03*
X015550000Y035380000D03*
X015550000Y035220000D03*
D11*
X015300000Y035550000D03*
X015300000Y035050000D03*
D10*
X011050000Y035380000D03*
X011050000Y035220000D03*
X011550000Y035380000D03*
X011550000Y035220000D03*
D11*
X011300000Y035550000D03*
X011300000Y035050000D03*
D10*
X007050000Y035380000D03*
X007050000Y035220000D03*
X007550000Y035380000D03*
X007550000Y035220000D03*
D11*
X007300000Y035550000D03*
X007300000Y035050000D03*
D10*
X003050000Y035380000D03*
X003050000Y035220000D03*
X003550000Y035380000D03*
X003550000Y035220000D03*
D11*
X003300000Y035550000D03*
X003300000Y035050000D03*
D10*
X007050000Y007380000D03*
X007050000Y007220000D03*
X007550000Y007380000D03*
X007550000Y007220000D03*
D11*
X007300000Y007550000D03*
X007300000Y007050000D03*
D10*
X011050000Y007380000D03*
X011050000Y007220000D03*
X011550000Y007380000D03*
X011550000Y007220000D03*
D11*
X011300000Y007550000D03*
X011300000Y007050000D03*
D10*
X015050000Y007380000D03*
X015050000Y007220000D03*
X015550000Y007380000D03*
X015550000Y007220000D03*
D11*
X015300000Y007550000D03*
X015300000Y007050000D03*
M02*